<svg xmlns="http://www.w3.org/2000/svg" viewBox="0 0 25.5 16.65"><defs><style>.cls-1{fill:#fff;}</style></defs><title>アセット 17</title><g id="レイヤー_2" data-name="レイヤー 2"><g id="レイヤー_1-2" data-name="レイヤー 1"><path class="cls-1" d="M25,12.5H22V8.79a.5.5,0,0,0-.5-.5c-.92,0-1.24-1.06-1.31-1.37s.39-1.37,1.31-1.37A.5.5,0,0,0,22,5V.5a.5.5,0,0,0-.5-.5H5a.5.5,0,0,0-.5.5V5.06a.5.5,0,0,0,.5.5A1.39,1.39,0,0,1,5,8.33a.5.5,0,0,0-.5.5V12.5H.5A.5.5,0,0,0,0,13v2.5H1v-2H9.19a4,4,0,0,0,3.89,3.15A5.22,5.22,0,0,0,17.4,13.5h7.1v3h1V13A.5.5,0,0,0,25,12.5Zm-8,0a.5.5,0,0,0-.5.5c0,.68-1.73,2.65-3.4,2.65A3,3,0,0,1,10.15,13a.5.5,0,0,0-.5-.5H5.5V9.28a2.4,2.4,0,0,0,0-4.68V1H21V4.6a2.75,2.75,0,0,0-1.81,2.23.5.5,0,0,0,0,.17A2.75,2.75,0,0,0,21,9.23V12.5Z"/></g></g></svg>