<?xml version="1.0" encoding="utf-8"?>
<!-- Generator: Adobe Illustrator 21.1.0, SVG Export Plug-In . SVG Version: 6.00 Build 0)  -->
<svg version="1.1" xmlns="http://www.w3.org/2000/svg" xmlns:xlink="http://www.w3.org/1999/xlink" x="0px" y="0px"
	 viewBox="0 0 407.7 123.4" style="enable-background:new 0 0 407.7 123.4;" xml:space="preserve">
<style type="text/css">
	.st0{font-family:'HiraKakuProN-W3-83pv-RKSJ-H';}
	.st1{font-size:50.32px;}
	.st2{letter-spacing:-5;}
	.st3{font-size:35.36px;}
	.st4{letter-spacing:4;}
	.st5{fill:url(#SVGID_1_);}
	.st6{fill:url(#SVGID_2_);}
	.st7{fill-rule:evenodd;clip-rule:evenodd;fill:none;stroke:url(#SVGID_3_);stroke-miterlimit:10;}
	.st8{font-size:36.2298px;}
	.st9{font-size:50.7217px;}
	.st10{fill:url(#SVGID_4_);}
	.st11{fill:url(#SVGID_5_);}
	.st12{fill:url(#SVGID_6_);}
	.st13{fill:url(#SVGID_7_);}
	.st14{fill-rule:evenodd;clip-rule:evenodd;fill:none;stroke:url(#SVGID_8_);stroke-miterlimit:10;}
	.st15{fill:none;stroke:url(#SVGID_9_);stroke-miterlimit:10;}
	.st16{fill:none;stroke:url(#SVGID_10_);stroke-miterlimit:10;}
	.st17{fill:none;stroke:url(#SVGID_11_);stroke-miterlimit:10;}
</style>
<g id="app_x5F_tutorial">
</g>
<g id="app_x5F_tutorialNEW">
	<g>
		<g>
			<g>
				<text transform="matrix(1 0 0 1 319.6211 85.2438)"><tspan x="0" y="0" class="st0 st1 st2">1</tspan><tspan x="28" y="0" class="st0 st3 st4">P</tspan></text>
				<g>
					<linearGradient id="SVGID_1_" gradientUnits="userSpaceOnUse" x1="327.7232" y1="65.7382" x2="369.9932" y2="65.7382">
						<stop  offset="0" style="stop-color:#89D29C"/>
						<stop  offset="0.5" style="stop-color:#6F9DB9"/>
						<stop  offset="1" style="stop-color:#3CBBAD"/>
					</linearGradient>
					<path class="st5" d="M327.7,46.4c1.3,0.2,2.3,0.3,4.2,0.3h3.2c1.7,0,2.5-0.1,4.2-0.3c-0.3,3.1-0.5,5.6-0.5,8.4v24.5
						c0,2.4,0.1,3.8,0.4,5.7h-4.8c0.3-1.8,0.4-3.4,0.4-5.7V50.1h-2.7c-1.6,0-2.9,0.1-4.4,0.3V46.4z"/>
					<linearGradient id="SVGID_2_" gradientUnits="userSpaceOnUse" x1="327.7232" y1="65.7382" x2="369.9932" y2="65.7382">
						<stop  offset="0" style="stop-color:#89D29C"/>
						<stop  offset="0.5" style="stop-color:#6F9DB9"/>
						<stop  offset="1" style="stop-color:#3CBBAD"/>
					</linearGradient>
					<path class="st6" d="M350.4,85c0.2-1.3,0.3-2.3,0.3-4v-19c0-1.4-0.1-2.5-0.3-4c1.3,0.1,2.3,0.1,3.9,0.1h7.2
						c5.4,0,8.5,2.8,8.5,7.7c0,5.2-3.2,8.2-8.7,8.2h-7.9v7c0,1.7,0.1,2.8,0.3,4H350.4z M361.3,71.6c3.7,0,5.9-2,5.9-5.6
						c0-3.5-2.1-5.4-5.9-5.4h-7.9v11H361.3z"/>
				</g>
			</g>
			<linearGradient id="SVGID_3_" gradientUnits="userSpaceOnUse" x1="284.2794" y1="61.7" x2="407.6794" y2="61.7">
				<stop  offset="0" style="stop-color:#89D29C"/>
				<stop  offset="0.5" style="stop-color:#6F9DB9"/>
				<stop  offset="1" style="stop-color:#3CBBAD"/>
			</linearGradient>
			<circle class="st7" cx="346" cy="61.7" r="61.2"/>
		</g>
		<g>
			<g>
				<text transform="matrix(0.8 0 0 1 10.4231 81.5939)"><tspan x="0" y="0" class="st0 st8">¥</tspan><tspan x="25" y="1.4" class="st0 st9">500</tspan></text>
				<g>
					<linearGradient id="SVGID_4_" gradientUnits="userSpaceOnUse" x1="10.8579" y1="63.4013" x2="108.5186" y2="63.4013">
						<stop  offset="0" style="stop-color:#89D29C"/>
						<stop  offset="0.5" style="stop-color:#6F9DB9"/>
						<stop  offset="1" style="stop-color:#3CBBAD"/>
					</linearGradient>
					<path class="st10" d="M19.1,81.4c0.2-1.3,0.2-2.4,0.2-4.1v-3.6h-4.3c-1.3,0-2,0.1-3,0.3v-2.7c1,0.2,1.7,0.3,3,0.3h4.3v-1.7
						l-1.1-2.1h-3.1c-1.3,0-2,0.1-3,0.3v-2.7c1,0.2,1.7,0.3,3,0.3h2L12.6,57c-0.8-1.6-1.3-2.5-1.7-3.2H14c0.2,0.8,0.5,1.5,1.4,3.3
						l5.1,10.2l5-10.2c0.8-1.7,1.2-2.5,1.4-3.3H30c-0.4,0.6-1,1.7-1.8,3.2l-4.5,8.6h2c1.3,0,2.1-0.1,3-0.3V68c-1-0.2-1.8-0.3-3-0.3
						h-3.1l-1.2,2.2v1.7h4.3c1.3,0,2-0.1,3-0.3v2.7c-1-0.2-1.8-0.3-3-0.3h-4.3v3.6c0,1.8,0.1,2.8,0.2,4.1H19.1z"/>
					<linearGradient id="SVGID_5_" gradientUnits="userSpaceOnUse" x1="10.8579" y1="63.4013" x2="108.5186" y2="63.4013">
						<stop  offset="0" style="stop-color:#89D29C"/>
						<stop  offset="0.5" style="stop-color:#6F9DB9"/>
						<stop  offset="1" style="stop-color:#3CBBAD"/>
					</linearGradient>
					<path class="st11" d="M37.6,58.8c-0.1,0.9-0.1,0.9-0.3,2.3c1.9-2.3,4.3-3.5,7.1-3.5c3,0,5.5,1.2,7.3,3.4
						c1.8,2.2,2.7,5.2,2.7,8.9c0,8.2-4.3,13.4-11,13.4c-3.2,0-5.8-1.2-7.7-3.4c-1-1.3-1.6-2.3-2.6-4.8l3.3-1.2
						c0.4,1.4,0.7,2.1,1.3,2.9c1.4,1.9,3.4,3,5.8,3c4.5,0,7.6-3.9,7.6-9.7c0-5.6-2.8-9.2-7.1-9.2c-2.1,0-3.9,0.7-5.3,2.1
						c-1,1-1.4,1.7-1.9,3l-3-0.4c0.3-2,0.4-3,0.6-5.2l0.9-11.5c0.1-1.5,0.1-2.1,0.1-3c0-0.7,0-0.9-0.1-2.2c1.3,0.2,1.9,0.3,4.3,0.3
						H48c2.2,0,3.1-0.1,4.7-0.4V48c-1.5-0.3-2.8-0.4-4.7-0.4h-9.5L37.6,58.8z"/>
					<linearGradient id="SVGID_6_" gradientUnits="userSpaceOnUse" x1="10.8579" y1="63.4013" x2="108.5186" y2="63.4013">
						<stop  offset="0" style="stop-color:#89D29C"/>
						<stop  offset="0.5" style="stop-color:#6F9DB9"/>
						<stop  offset="1" style="stop-color:#3CBBAD"/>
					</linearGradient>
					<path class="st12" d="M63,79.8c-1.1-1.4-1.9-2.9-2.4-4.7c-1-3.6-1.5-7.6-1.5-11.7c0-5.4,0.9-10.9,2.4-13.8
						c1.9-4.1,5.1-6.2,9.1-6.2c3,0,5.6,1.2,7.4,3.6c1.1,1.4,1.9,3,2.4,4.7c1,3.5,1.5,7.6,1.5,11.8c0,6.1-1.1,11.6-2.8,14.7
						c-2,3.6-4.9,5.3-8.6,5.3C67.4,83.4,64.9,82.2,63,79.8z M65.3,49.5c-0.9,1.2-1.5,2.4-1.8,3.7c-0.9,3.1-1.3,6.5-1.3,10.2
						c0,4.7,0.8,9.7,1.9,12.1c1.4,2.9,3.5,4.4,6.3,4.4c2,0,3.8-0.8,5-2.4c0.9-1.2,1.5-2.5,1.9-4c0.9-3.1,1.3-6.5,1.3-10.2
						c0-4.4-0.8-9.4-1.8-11.8c-1.3-3-3.5-4.6-6.4-4.6C68.3,46.9,66.6,47.8,65.3,49.5z"/>
					<linearGradient id="SVGID_7_" gradientUnits="userSpaceOnUse" x1="10.8579" y1="63.4013" x2="108.5186" y2="63.4013">
						<stop  offset="0" style="stop-color:#89D29C"/>
						<stop  offset="0.5" style="stop-color:#6F9DB9"/>
						<stop  offset="1" style="stop-color:#3CBBAD"/>
					</linearGradient>
					<path class="st13" d="M89.7,79.8c-1.1-1.4-1.9-2.9-2.4-4.7c-1-3.6-1.5-7.6-1.5-11.7c0-5.4,0.9-10.9,2.4-13.8
						c1.9-4.1,5.1-6.2,9.1-6.2c3,0,5.6,1.2,7.4,3.6c1.1,1.4,1.9,3,2.4,4.7c1,3.5,1.5,7.6,1.5,11.8c0,6.1-1.1,11.6-2.8,14.7
						c-2,3.6-4.9,5.3-8.6,5.3C94.1,83.4,91.6,82.2,89.7,79.8z M92,49.5c-0.9,1.2-1.5,2.4-1.8,3.7c-0.9,3.1-1.3,6.5-1.3,10.2
						c0,4.7,0.8,9.7,1.9,12.1c1.4,2.9,3.5,4.4,6.3,4.4c2,0,3.8-0.8,5-2.4c0.9-1.2,1.5-2.5,1.9-4c0.9-3.1,1.3-6.5,1.3-10.2
						c0-4.4-0.8-9.4-1.8-11.8c-1.3-3-3.5-4.6-6.4-4.6C95,46.9,93.3,47.8,92,49.5z"/>
				</g>
			</g>
			<linearGradient id="SVGID_8_" gradientUnits="userSpaceOnUse" x1="0" y1="61.7" x2="123.2661" y2="61.7">
				<stop  offset="0" style="stop-color:#89D29C"/>
				<stop  offset="0.5" style="stop-color:#6F9DB9"/>
				<stop  offset="1" style="stop-color:#3CBBAD"/>
			</linearGradient>
			<circle class="st14" cx="61.6" cy="61.7" r="61.1"/>
		</g>
		<g>
			<linearGradient id="SVGID_9_" gradientUnits="userSpaceOnUse" x1="163.2861" y1="61.6483" x2="244.3264" y2="61.6483">
				<stop  offset="0" style="stop-color:#7FCB91"/>
				<stop  offset="0.5" style="stop-color:#6492AF"/>
				<stop  offset="1" style="stop-color:#35B2A2"/>
			</linearGradient>
			<line class="st15" x1="163.3" y1="61.6" x2="244.3" y2="61.6"/>
			<linearGradient id="SVGID_10_" gradientUnits="userSpaceOnUse" x1="226.2079" y1="61.6483" x2="245.0335" y2="61.6483">
				<stop  offset="0" style="stop-color:#7FCB91"/>
				<stop  offset="0.5" style="stop-color:#6492AF"/>
				<stop  offset="1" style="stop-color:#35B2A2"/>
			</linearGradient>
			<polyline class="st16" points="226.6,43.9 244.3,61.6 226.6,79.4 			"/>
			
				<linearGradient id="SVGID_11_" gradientUnits="userSpaceOnUse" x1="4934.8076" y1="-10283.0703" x2="4953.6333" y2="-10283.0703" gradientTransform="matrix(-1 0 0 -1 5116.2119 -10221.4219)">
				<stop  offset="0" style="stop-color:#7FCB91"/>
				<stop  offset="0.5" style="stop-color:#6492AF"/>
				<stop  offset="1" style="stop-color:#35B2A2"/>
			</linearGradient>
			<polyline class="st17" points="181.1,79.4 163.3,61.6 181.1,43.9 			"/>
		</g>
	</g>
</g>
<g id="イラスト">
</g>
</svg>
