<?xml version="1.0" encoding="utf-8"?>
<!-- Generator: Adobe Illustrator 24.1.0, SVG Export Plug-In . SVG Version: 6.00 Build 0)  -->
<svg version="1.1" id="レイヤー_1" xmlns="http://www.w3.org/2000/svg" xmlns:xlink="http://www.w3.org/1999/xlink" x="0px"
	 y="0px" width="813.6px" height="215.5px" viewBox="0 0 813.6 215.5" style="enable-background:new 0 0 813.6 215.5;"
	 xml:space="preserve">
<style type="text/css">
	.st0{fill:#7CB3E5;}
</style>
<g id="app_x5F_tutorial">
</g>
<g id="イラスト">
</g>
<g>
	<path class="st0" d="M190.2,0c-1.9,0-3.8,0-5.6,0.1c-2.2,0.1-4.3,0.3-6.4,0.5c-4-0.4-8-0.7-12.1-0.7c-1.9,0-3.8,0-5.6,0.1
		c-2.7,0.1-5.3,0.4-7.9,0.7c-4.5-0.6-9-0.9-13.6-0.9c-1.9,0-3.8,0-5.6,0.1h0c-3.4,0.2-6.7,0.5-9.9,1C118.2,0.4,113,0,107.8,0
		C48.3,0,0,48.3,0,107.8c0,59.4,48.3,107.8,107.8,107.8c5.3,0,10.5-0.4,15.6-1.1c5.1,0.7,10.2,1.1,15.5,1.1c4.6,0,9.2-0.3,13.6-0.9
		c4.4,0.6,8.9,0.9,13.5,0.9c4.1,0,8.1-0.2,12.1-0.7c3.9,0.4,7.9,0.7,12,0.7c59.4,0,107.8-48.3,107.8-107.8
		C297.9,48.3,249.6,0,190.2,0z M236.6,107.8c0,48-34.7,88-80.3,96.2c35.1-17.8,59.2-54.2,59.2-96.2c0-42-24.1-78.4-59.2-96.2
		C201.9,19.8,236.6,59.8,236.6,107.8z M190.2,202.5c33.6-18.3,56.5-53.9,56.5-94.7c0-40.9-22.9-76.5-56.5-94.7
		c42.3,10.8,73.6,49.2,73.6,94.7C263.8,153.3,232.5,191.7,190.2,202.5z M10,107.8C10,53.9,53.9,10,107.8,10
		c53.9,0,97.8,43.9,97.8,97.8c0,53.9-43.9,97.8-97.8,97.8C53.9,205.5,10,161.7,10,107.8z M220.6,200.7
		c31.8-18.8,53.2-53.4,53.2-92.9c0-39.5-21.4-74.1-53.2-92.9c39,12.8,67.3,49.6,67.3,92.9C287.9,151,259.7,187.8,220.6,200.7z"/>
	<g>
		<g>
			<path class="st0" d="M82.6,100.3h0.3c1.7-0.8,3.6-1.2,5.9-1.2c1.9,0,3.8,0.3,5.8,1c2,0.7,3.7,1.7,5.3,3.1
				c1.6,1.4,2.9,3.1,3.9,5.3c1,2.1,1.5,4.7,1.5,7.6c0,3-0.5,5.6-1.5,7.8c-1,2.2-2.3,4.1-4,5.6s-3.6,2.6-5.8,3.4
				c-2.2,0.8-4.6,1.1-7.1,1.1c-2.5,0-4.9-0.4-7.1-1.2c-2.2-0.8-4.1-2-5.8-3.5c-1.7-1.5-3-3.3-4-5.4s-1.5-4.5-1.5-7.1
				c0-1.7,0.1-3.2,0.4-4.5c0.3-1.4,0.6-2.7,1.1-3.9c0.5-1.2,1-2.4,1.7-3.6c0.7-1.2,1.4-2.4,2.2-3.7l13.5-21.3H96L82.6,100.3z
				 M75.9,116.5c0,1.6,0.3,3.1,0.8,4.4c0.5,1.4,1.3,2.5,2.3,3.5s2.1,1.7,3.5,2.3c1.4,0.6,2.9,0.8,4.5,0.8s3.2-0.3,4.5-0.8
				c1.4-0.6,2.5-1.3,3.5-2.3s1.7-2.1,2.3-3.5c0.5-1.4,0.8-2.8,0.8-4.4c0-1.6-0.3-3.1-0.8-4.4c-0.5-1.4-1.3-2.5-2.3-3.5
				c-1-1-2.1-1.7-3.5-2.3c-1.4-0.6-2.9-0.8-4.5-0.8s-3.2,0.3-4.5,0.8c-1.4,0.6-2.5,1.3-3.5,2.3c-1,1-1.7,2.1-2.3,3.5
				C76.1,113.4,75.9,114.9,75.9,116.5z"/>
			<path class="st0" d="M114.8,79.7h18.8c3.4,0,6.2,0.5,8.4,1.4c2.2,0.9,4,2.1,5.2,3.5c1.3,1.4,2.2,3,2.7,4.8
				c0.5,1.8,0.8,3.5,0.8,5.2c0,1.7-0.3,3.4-0.8,5.2c-0.5,1.8-1.4,3.4-2.7,4.8c-1.3,1.4-3,2.6-5.2,3.5c-2.2,0.9-5,1.4-8.4,1.4H122
				V133h-7.2V79.7z M122,103.2h9.5c1.4,0,2.8-0.1,4.2-0.3c1.4-0.2,2.6-0.6,3.7-1.2c1.1-0.6,1.9-1.5,2.6-2.6c0.7-1.1,1-2.6,1-4.4
				c0-1.8-0.3-3.3-1-4.4c-0.7-1.1-1.5-2-2.6-2.6c-1.1-0.6-2.3-1-3.7-1.2c-1.4-0.2-2.8-0.3-4.2-0.3H122V103.2z"/>
		</g>
	</g>
</g>
<g>
	<polygon class="st0" points="465.9,127.2 317.6,127.2 317.6,117.2 440.7,117.2 418,95.7 424.8,88.4 	"/>
</g>
<g>
	<g>
		<g>
			<path class="st0" d="M813.6,196.5H491.5v-117l16-16h-16V19h322.1V196.5z M501.5,186.5h302.1V29H501.5v24.4h30.2l-30.2,30.2V186.5
				z"/>
		</g>
	</g>
	<g>
		<g>
			<path class="st0" d="M628.4,133.4v-12.5h-12.8v-3.1h12.8v-5.5h-12.8v-3.1h11l-14.8-23.4h6.3l10.3,17.4c1.2,2.1,1.8,3.6,2.8,5.7
				h0.3c1-1.8,1.9-3.7,3.1-5.9l10.7-17.2h6.3l-15.9,23.4h10.9v3.1h-12.7v5.5h12.7v3.1h-12.7v12.5H628.4z"/>
			<path class="st0" d="M658.5,108.7c0-1.7,0.1-3.4,0.3-5.3c0.2-1.8,0.5-3.6,0.9-5.4s1.1-3.4,1.8-5c0.8-1.6,1.7-3,2.9-4.2
				c1.2-1.2,2.6-2.1,4.2-2.9s3.5-1.1,5.7-1.1c2.2,0,4.1,0.4,5.7,1.1s3,1.7,4.2,2.9c1.2,1.2,2.2,2.6,2.9,4.2c0.8,1.6,1.4,3.3,1.8,5
				s0.8,3.5,0.9,5.4c0.2,1.8,0.3,3.6,0.3,5.3c0,2.4-0.2,5-0.6,7.8c-0.4,2.8-1.2,5.4-2.4,7.7s-2.8,4.4-4.8,5.9
				c-2.1,1.6-4.7,2.3-8,2.3s-5.9-0.8-8-2.3c-2.1-1.6-3.7-3.5-4.8-5.9s-2-5-2.4-7.7C658.8,113.7,658.5,111.1,658.5,108.7z
				 M664.8,108.7c0,1.5,0.1,3.3,0.3,5.4c0.2,2.1,0.6,4.1,1.3,6c0.7,1.9,1.6,3.6,2.9,4.9c1.3,1.3,3,2,5.2,2c2.2,0,3.9-0.7,5.2-2
				c1.3-1.3,2.2-3,2.9-4.9c0.7-1.9,1.1-3.9,1.3-6s0.3-3.9,0.3-5.4c0-1,0-2.2-0.1-3.5c-0.1-1.3-0.2-2.7-0.5-4c-0.2-1.4-0.6-2.7-1-4
				c-0.4-1.3-1-2.4-1.7-3.4c-0.7-1-1.6-1.8-2.6-2.4c-1-0.6-2.3-0.9-3.7-0.9c-1.4,0-2.7,0.3-3.7,0.9c-1,0.6-1.9,1.4-2.6,2.4
				c-0.7,1-1.3,2.2-1.7,3.4c-0.4,1.3-0.8,2.6-1,4c-0.2,1.4-0.4,2.7-0.5,4C664.8,106.5,664.8,107.7,664.8,108.7z"/>
		</g>
	</g>
</g>
</svg>
