<?xml version="1.0" encoding="utf-8"?>
<!-- Generator: Adobe Illustrator 21.1.0, SVG Export Plug-In . SVG Version: 6.00 Build 0)  -->
<svg version="1.1" xmlns="http://www.w3.org/2000/svg" xmlns:xlink="http://www.w3.org/1999/xlink" x="0px" y="0px"
	 viewBox="0 0 408.5 99.5" style="enable-background:new 0 0 408.5 99.5;" xml:space="preserve">
<style type="text/css">
	.st0{fill-rule:evenodd;clip-rule:evenodd;fill:none;stroke:url(#SVGID_1_);stroke-miterlimit:10;}
	.st1{fill-rule:evenodd;clip-rule:evenodd;fill:none;stroke:url(#SVGID_2_);stroke-miterlimit:10;}
	.st2{fill-rule:evenodd;clip-rule:evenodd;fill:none;stroke:url(#SVGID_3_);stroke-miterlimit:10;}
	.st3{fill-rule:evenodd;clip-rule:evenodd;fill:none;stroke:url(#SVGID_4_);stroke-miterlimit:10;}
	.st4{font-family:'HiraKakuProN-W3-83pv-RKSJ-H';}
	.st5{font-size:30.8696px;}
	.st6{letter-spacing:-6.7;}
	.st7{font-size:46.3044px;}
	.st8{letter-spacing:-7.8;}
	.st9{letter-spacing:-5.6;}
	.st10{letter-spacing:1.1;}
	.st11{fill:url(#SVGID_5_);}
	.st12{fill:url(#SVGID_6_);}
	.st13{fill:url(#SVGID_7_);}
	.st14{fill:url(#SVGID_8_);}
	.st15{fill:url(#SVGID_9_);}
	.st16{fill:url(#SVGID_10_);}
	.st17{font-size:30.2358px;}
	.st18{font-size:20.4px;}
	.st19{letter-spacing:2;}
	.st20{fill:url(#SVGID_11_);}
	.st21{fill:url(#SVGID_12_);}
	.st22{fill-rule:evenodd;clip-rule:evenodd;fill:none;stroke:url(#SVGID_13_);stroke-miterlimit:10;}
	.st23{fill:none;stroke:url(#SVGID_14_);stroke-miterlimit:10;}
	.st24{fill:none;stroke:url(#SVGID_15_);stroke-miterlimit:10;}
	.st25{fill:none;stroke:url(#SVGID_16_);stroke-miterlimit:10;}
	.st26{fill:none;stroke:url(#SVGID_17_);stroke-miterlimit:10;}
	.st27{fill:none;stroke:url(#SVGID_18_);stroke-miterlimit:10;}
</style>
<g id="app_x5F_tutorial">
</g>
<g id="app_x5F_tutorialNEW">
	<g>
		<linearGradient id="SVGID_1_" gradientUnits="userSpaceOnUse" x1="234.873" y1="49.7302" x2="408.5" y2="49.7302">
			<stop  offset="0" style="stop-color:#7FCD93"/>
			<stop  offset="0.5" style="stop-color:#6494B1"/>
			<stop  offset="1" style="stop-color:#34B4A4"/>
		</linearGradient>
		<polygon class="st0" points="235.4,0.5 235.4,24.3 250.2,24.3 235.4,39.2 235.4,99 408,99 408,0.5 		"/>
		<linearGradient id="SVGID_2_" gradientUnits="userSpaceOnUse" x1="266.6349" y1="76.5968" x2="267.6349" y2="76.5968">
			<stop  offset="0" style="stop-color:#7FCD93"/>
			<stop  offset="0.5" style="stop-color:#6494B1"/>
			<stop  offset="1" style="stop-color:#34B4A4"/>
		</linearGradient>
		<line class="st1" x1="267.1" y1="68.9" x2="267.1" y2="84.3"/>
		<linearGradient id="SVGID_3_" gradientUnits="userSpaceOnUse" x1="266.6349" y1="50.5385" x2="267.6349" y2="50.5385">
			<stop  offset="0" style="stop-color:#7FCD93"/>
			<stop  offset="0.5" style="stop-color:#6494B1"/>
			<stop  offset="1" style="stop-color:#34B4A4"/>
		</linearGradient>
		<line class="st2" x1="267.1" y1="42.8" x2="267.1" y2="58.2"/>
		<linearGradient id="SVGID_4_" gradientUnits="userSpaceOnUse" x1="266.6349" y1="24.4801" x2="267.6349" y2="24.4801">
			<stop  offset="0" style="stop-color:#7FCD93"/>
			<stop  offset="0.5" style="stop-color:#6494B1"/>
			<stop  offset="1" style="stop-color:#34B4A4"/>
		</linearGradient>
		<line class="st3" x1="267.1" y1="16.8" x2="267.1" y2="32.2"/>
		<g>
			<text transform="matrix(0.9 0 0 1 279.4714 67.5129)"><tspan x="0" y="0" class="st4 st5 st6">¥</tspan><tspan x="14.5" y="0" class="st4 st7 st6">1</tspan><tspan x="37.6" y="0" class="st4 st7 st8">,</tspan><tspan x="40.3" y="0" class="st4 st7 st9">1</tspan><tspan x="64.3" y="0" class="st4 st7 st10">0</tspan><tspan x="96.5" y="0" class="st4 st7">0</tspan></text>
			<g>
				<linearGradient id="SVGID_5_" gradientUnits="userSpaceOnUse" x1="279.8883" y1="52.2999" x2="391.7814" y2="52.2999">
					<stop  offset="0" style="stop-color:#7FCD93"/>
					<stop  offset="0.5" style="stop-color:#6494B1"/>
					<stop  offset="1" style="stop-color:#34B4A4"/>
				</linearGradient>
				<path class="st11" d="M287.8,67.3c0.2-1.1,0.2-2.1,0.2-3.5v-3h-4.1c-1.3,0-1.9,0.1-2.9,0.2v-2.3c0.9,0.2,1.6,0.2,2.9,0.2h4.1
					v-1.5l-1.1-1.8h-3c-1.3,0-1.9,0.1-2.9,0.2v-2.3c0.9,0.2,1.6,0.2,2.9,0.2h1.9l-4.3-7.3c-0.8-1.4-1.3-2.1-1.7-2.7h3
					c0.2,0.7,0.5,1.3,1.4,2.8l4.9,8.7l4.8-8.7c0.8-1.5,1.1-2.1,1.3-2.8h3c-0.4,0.5-1,1.4-1.7,2.7l-4.3,7.3h1.9c1.3,0,2-0.1,2.9-0.2
					V56c-0.9-0.2-1.7-0.2-2.9-0.2h-3l-1.1,1.9V59h4.1c1.2,0,1.9-0.1,2.9-0.2v2.3c-0.9-0.2-1.7-0.2-2.9-0.2h-4.1v3
					c0,1.5,0.1,2.3,0.2,3.5H287.8z"/>
				<linearGradient id="SVGID_6_" gradientUnits="userSpaceOnUse" x1="279.8883" y1="52.2999" x2="391.7814" y2="52.2999">
					<stop  offset="0" style="stop-color:#7FCD93"/>
					<stop  offset="0.5" style="stop-color:#6494B1"/>
					<stop  offset="1" style="stop-color:#34B4A4"/>
				</linearGradient>
				<path class="st12" d="M299.3,31.8c1.1,0.2,1.9,0.2,3.5,0.2h2.6c1.4,0,2.1,0,3.5-0.2c-0.2,2.8-0.4,5.2-0.4,7.7V62
					c0,2.2,0.1,3.5,0.3,5.2h-4c0.2-1.6,0.3-3.1,0.3-5.2V35.2h-2.3c-1.3,0-2.4,0.1-3.6,0.3V31.8z"/>
				<linearGradient id="SVGID_7_" gradientUnits="userSpaceOnUse" x1="279.8883" y1="52.2999" x2="391.7814" y2="52.2999">
					<stop  offset="0" style="stop-color:#7FCD93"/>
					<stop  offset="0.5" style="stop-color:#6494B1"/>
					<stop  offset="1" style="stop-color:#34B4A4"/>
				</linearGradient>
				<path class="st13" d="M320.4,67.2c0,3.4-0.5,4.5-2.6,6l-1.1-1.5c1.7-0.9,2-1.6,2-4.4h-2.4v-4.6h4.2V67.2z"/>
				<linearGradient id="SVGID_8_" gradientUnits="userSpaceOnUse" x1="279.8883" y1="52.2999" x2="391.7814" y2="52.2999">
					<stop  offset="0" style="stop-color:#7FCD93"/>
					<stop  offset="0.5" style="stop-color:#6494B1"/>
					<stop  offset="1" style="stop-color:#34B4A4"/>
				</linearGradient>
				<path class="st14" d="M322.5,31.8c1.1,0.2,1.9,0.2,3.5,0.2h2.6c1.4,0,2.1,0,3.5-0.2c-0.2,2.8-0.4,5.2-0.4,7.7V62
					c0,2.2,0.1,3.5,0.3,5.2h-4c0.2-1.6,0.3-3.1,0.3-5.2V35.2h-2.3c-1.3,0-2.4,0.1-3.6,0.3V31.8z"/>
				<linearGradient id="SVGID_9_" gradientUnits="userSpaceOnUse" x1="279.8883" y1="52.2999" x2="391.7814" y2="52.2999">
					<stop  offset="0" style="stop-color:#7FCD93"/>
					<stop  offset="0.5" style="stop-color:#6494B1"/>
					<stop  offset="1" style="stop-color:#34B4A4"/>
				</linearGradient>
				<path class="st15" d="M343.4,64.6c-1.1-1.3-2-2.7-2.5-4.3c-1-3.2-1.6-6.9-1.6-10.7c0-4.9,1-9.9,2.4-12.6c2-3.8,5.2-5.7,9.3-5.7
					c3.1,0,5.8,1.1,7.6,3.3c1.2,1.3,2,2.7,2.5,4.3c1,3.2,1.6,6.9,1.6,10.7c0,5.6-1.1,10.6-2.9,13.4c-2.1,3.2-5,4.9-8.8,4.9
					C347.9,67.9,345.3,66.8,343.4,64.6z M345.8,36.9c-0.9,1.1-1.5,2.2-1.9,3.4c-0.9,2.8-1.3,6-1.3,9.4c0,4.3,0.8,8.8,2,11
					c1.5,2.7,3.6,4,6.5,4c2.1,0,3.9-0.7,5.1-2.2c0.9-1.1,1.6-2.3,2-3.6c0.9-2.9,1.3-5.9,1.3-9.4c0-4-0.8-8.6-1.9-10.8
					c-1.4-2.8-3.6-4.2-6.5-4.2C348.8,34.6,347.1,35.4,345.8,36.9z"/>
				<linearGradient id="SVGID_10_" gradientUnits="userSpaceOnUse" x1="279.8883" y1="52.2999" x2="391.7814" y2="52.2999">
					<stop  offset="0" style="stop-color:#7FCD93"/>
					<stop  offset="0.5" style="stop-color:#6494B1"/>
					<stop  offset="1" style="stop-color:#34B4A4"/>
				</linearGradient>
				<path class="st16" d="M372.4,64.6c-1.1-1.3-2-2.7-2.5-4.3c-1-3.2-1.6-6.9-1.6-10.7c0-4.9,1-9.9,2.4-12.6c2-3.8,5.2-5.7,9.3-5.7
					c3.1,0,5.8,1.1,7.6,3.3c1.2,1.3,2,2.7,2.5,4.3c1,3.2,1.6,6.9,1.6,10.7c0,5.6-1.1,10.6-2.9,13.4c-2.1,3.2-5,4.9-8.8,4.9
					C376.9,67.9,374.4,66.8,372.4,64.6z M374.8,36.9c-0.9,1.1-1.5,2.2-1.9,3.4c-0.9,2.8-1.3,6-1.3,9.4c0,4.3,0.8,8.8,2,11
					c1.5,2.7,3.6,4,6.5,4c2.1,0,3.9-0.7,5.1-2.2c0.9-1.1,1.6-2.3,2-3.6c0.9-2.9,1.3-5.9,1.3-9.4c0-4-0.8-8.6-1.9-10.8
					c-1.4-2.8-3.6-4.2-6.5-4.2C377.9,34.6,376.2,35.4,374.8,36.9z"/>
			</g>
		</g>
		<g>
			<text transform="matrix(1 0 0 1 35.5444 48.4123)"><tspan x="0" y="0" class="st4 st17">2</tspan><tspan x="20.5" y="0.3" class="st4 st18 st19">P</tspan></text>
			<g>
				<linearGradient id="SVGID_11_" gradientUnits="userSpaceOnUse" x1="37.3288" y1="36.7122" x2="68.9074" y2="36.7122">
					<stop  offset="0" style="stop-color:#7FCD93"/>
					<stop  offset="0.5" style="stop-color:#6494B1"/>
					<stop  offset="1" style="stop-color:#34B4A4"/>
				</linearGradient>
				<path class="st20" d="M40.7,48.2c-1.9,0-2.4,0-3.3,0.2c0.3-2.4,0.4-2.8,0.9-4c0.8-1.9,2-3.6,3.9-5.2c1.1-0.9,1.1-0.9,4.6-3.3
					c3-2,4-3.4,4-5.2c0-2.3-1.9-3.8-5-3.8c-2,0-3.5,0.7-4.4,2c-0.6,0.8-0.8,1.5-1.1,3.1l-2.5-0.4c0.5-2.2,0.9-3.2,1.9-4.4
					c1.4-1.5,3.4-2.3,6.1-2.3c4.6,0,7.5,2.3,7.5,5.9c0,1.5-0.6,3-1.8,4.3c-0.9,1-1.7,1.6-5.1,3.9c-2.4,1.6-3.4,2.4-4.4,3.7
					c-0.9,1.2-1.4,2.1-1.7,3.5h9.6c1.5,0,2.5-0.1,3.7-0.2v2.5c-1.2-0.1-2.2-0.2-3.7-0.2H40.7z"/>
				<linearGradient id="SVGID_12_" gradientUnits="userSpaceOnUse" x1="37.3288" y1="36.7122" x2="68.9074" y2="36.7122">
					<stop  offset="0" style="stop-color:#7FCD93"/>
					<stop  offset="0.5" style="stop-color:#6494B1"/>
					<stop  offset="1" style="stop-color:#34B4A4"/>
				</linearGradient>
				<path class="st21" d="M57.6,48.6c0.1-0.7,0.2-1.3,0.2-2.3v-11c0-0.8,0-1.5-0.2-2.3c0.7,0,1.3,0.1,2.2,0.1H64
					c3.1,0,4.9,1.6,4.9,4.4c0,3-1.8,4.7-5,4.7h-4.5v4c0,1,0,1.6,0.2,2.3H57.6z M63.9,40.9c2.2,0,3.4-1.2,3.4-3.2
					c0-2-1.2-3.1-3.4-3.1h-4.5v6.4H63.9z"/>
			</g>
		</g>
		<linearGradient id="SVGID_13_" gradientUnits="userSpaceOnUse" x1="20.6598" y1="37.3145" x2="82.8874" y2="37.3145">
			<stop  offset="0" style="stop-color:#7FCD93"/>
			<stop  offset="0.5" style="stop-color:#6494B1"/>
			<stop  offset="1" style="stop-color:#34B4A4"/>
		</linearGradient>
		<circle class="st22" cx="51.8" cy="37.3" r="30.6"/>
		<linearGradient id="SVGID_14_" gradientUnits="userSpaceOnUse" x1="0" y1="81.4775" x2="104.2247" y2="81.4775">
			<stop  offset="0" style="stop-color:#7FCD93"/>
			<stop  offset="0.5" style="stop-color:#6494B1"/>
			<stop  offset="1" style="stop-color:#34B4A4"/>
		</linearGradient>
		<line class="st23" x1="0" y1="81.5" x2="104.2" y2="81.5"/>
		<linearGradient id="SVGID_15_" gradientUnits="userSpaceOnUse" x1="0" y1="97.9338" x2="104.2247" y2="97.9338">
			<stop  offset="0" style="stop-color:#7FCD93"/>
			<stop  offset="0.5" style="stop-color:#6494B1"/>
			<stop  offset="1" style="stop-color:#34B4A4"/>
		</linearGradient>
		<line class="st24" x1="0" y1="97.9" x2="104.2" y2="97.9"/>
		<g>
			<linearGradient id="SVGID_16_" gradientUnits="userSpaceOnUse" x1="128.253" y1="50.7696" x2="209.2932" y2="50.7696">
				<stop  offset="0" style="stop-color:#7FCB91"/>
				<stop  offset="0.5" style="stop-color:#6492AF"/>
				<stop  offset="1" style="stop-color:#35B2A2"/>
			</linearGradient>
			<line class="st25" x1="128.3" y1="50.8" x2="209.3" y2="50.8"/>
			<linearGradient id="SVGID_17_" gradientUnits="userSpaceOnUse" x1="191.1748" y1="50.7696" x2="210.0003" y2="50.7696">
				<stop  offset="0" style="stop-color:#7FCB91"/>
				<stop  offset="0.5" style="stop-color:#6492AF"/>
				<stop  offset="1" style="stop-color:#35B2A2"/>
			</linearGradient>
			<polyline class="st26" points="191.5,33 209.3,50.8 191.5,68.5 			"/>
			
				<linearGradient id="SVGID_18_" gradientUnits="userSpaceOnUse" x1="4970.1611" y1="-12077.4414" x2="4988.9868" y2="-12077.4414" gradientTransform="matrix(-1 0 0 -1 5116.5327 -12026.6719)">
				<stop  offset="0" style="stop-color:#7FCB91"/>
				<stop  offset="0.5" style="stop-color:#6492AF"/>
				<stop  offset="1" style="stop-color:#35B2A2"/>
			</linearGradient>
			<polyline class="st27" points="146,68.5 128.3,50.8 146,33 			"/>
		</g>
	</g>
</g>
<g id="イラスト">
</g>
</svg>
