<svg xmlns="http://www.w3.org/2000/svg" xmlns:xlink="http://www.w3.org/1999/xlink" viewBox="0 0 106.6 106.6"><defs><style>.cls-1{fill:url(#名称未設定グラデーション);}.cls-2{fill:none;}</style><linearGradient id="名称未設定グラデーション" x1="16.59" y1="-141.64" x2="80.09" y2="-189.97" gradientTransform="matrix(1, 0, 0, -1, 0, -114.07)" gradientUnits="userSpaceOnUse"><stop offset="0" stop-color="#7fcd93"/><stop offset="0.5" stop-color="#6494b1"/><stop offset="1" stop-color="#34b4a4"/></linearGradient></defs><title>アセット 3</title><g id="レイヤー_2" data-name="レイヤー 2"><g id="レイヤー_1-2" data-name="レイヤー 1"><path class="cls-1" d="M38.45,79.7,26.95,72l-11.6,7.7V54.5a16.2,16.2,0,1,1,27.7-11.4,16,16,0,0,1-4.7,11.4V79.7ZM17.35,56.2V76l9.5-6.3,9.5,6.3V56.2a16.58,16.58,0,0,1-9.5,3.1A16.58,16.58,0,0,1,17.35,56.2Zm9.5-27.4A14.2,14.2,0,1,0,41,43,14.25,14.25,0,0,0,26.85,28.8Zm69.1,46.1h-42v-2h42Zm-14-18.5h-28v-2h28Zm14-19.5h-42v-2h42Z"/><rect class="cls-2" width="106.6" height="106.6"/></g></g></svg>