<?xml version="1.0" encoding="utf-8"?>
<!-- Generator: Adobe Illustrator 24.0.3, SVG Export Plug-In . SVG Version: 6.00 Build 0)  -->
<svg version="1.1" id="レイヤー_1" xmlns="http://www.w3.org/2000/svg" xmlns:xlink="http://www.w3.org/1999/xlink" x="0px"
	 y="0px" width="80px" height="80px" viewBox="0 0 80 80" style="enable-background:new 0 0 80 80;" xml:space="preserve">
<style type="text/css">
	.st0{fill:#0563C1;}
	.st1{enable-background:new    ;}
	.st2{fill:#FFFFFF;}
</style>
<g id="icon" transform="translate(-20 -448)">
	<circle id="楕円形_7" class="st0" cx="60" cy="488" r="39.5"/>
	<g class="st1">
		<path class="st2" d="M56.4,501c0.2-1.3,0.2-1.8,0.2-3.6c0-2.9,0.6-4.7,2.1-6.6c1.1-1.5,1.7-1.9,4.9-4.2c2-1.4,2.9-2.2,3.8-3
			c1.3-1.3,1.9-2.9,1.9-4.6c0-4.2-3.7-7-8.9-7c-3.6,0-6.4,1.2-8.3,3.5c-0.9,1.2-1.4,2.3-2,4.6l-4.7-0.7c1.2-4,2.3-5.9,4.5-7.8
			c2.5-2.2,6.1-3.3,10.5-3.3c7.6,0,13.2,4.3,13.2,10.2c0,2.1-0.4,3.8-1.3,5.4c-1,1.7-2,2.7-5,4.8c-3.3,2.3-4.2,3-5,4.2
			c-1,1.4-1.4,2.9-1.4,5.1c0,0.9,0.1,1.8,0.2,3H56.4z M61.5,506.2v5.2h-5.4v-5.2H61.5z"/>
	</g>
</g>
</svg>
