<?xml version="1.0" encoding="utf-8"?>
<!-- Generator: Adobe Illustrator 21.1.0, SVG Export Plug-In . SVG Version: 6.00 Build 0)  -->
<svg version="1.1" id="レイヤー_1" xmlns="http://www.w3.org/2000/svg" xmlns:xlink="http://www.w3.org/1999/xlink" x="0px"
	 y="0px" viewBox="0 0 408 156.1" style="enable-background:new 0 0 408 156.1;" xml:space="preserve">
<style type="text/css">
	.st0{display:none;}
	.st1{fill:#FFFFFF;}
	.st2{fill:none;stroke:#FFFFFF;stroke-miterlimit:10;}
</style>
<g id="会員案内">
</g>
<g id="app_x5F_tutorial">
</g>
<g id="会員案内_x2F_NEW" class="st0">
</g>
<g>
	<g>
		<g>
			<path class="st1" d="M54.2,106.4c0.1-0.7,0.2-1.4,0.2-2.3V92.9c0-0.9,0-1.5-0.2-2.4c0.7,0,1.3,0.1,2.3,0.1h4.2c3.2,0,5,1.6,5,4.5
				c0,3.1-1.9,4.8-5.1,4.8H56v4.1c0,1,0,1.6,0.2,2.3L54.2,106.4L54.2,106.4z M60.6,98.5c2.2,0,3.5-1.2,3.5-3.3
				c0-2.1-1.2-3.2-3.5-3.2H56v6.5H60.6z"/>
		</g>
		<g>
			<path class="st1" d="M54.2,106.4c0.1-0.7,0.2-1.4,0.2-2.3V92.9c0-0.9,0-1.5-0.2-2.4c0.7,0,1.3,0.1,2.3,0.1h4.2c3.2,0,5,1.6,5,4.5
				c0,3.1-1.9,4.8-5.1,4.8H56v4.1c0,1,0,1.6,0.2,2.3L54.2,106.4L54.2,106.4z M60.6,98.5c2.2,0,3.5-1.2,3.5-3.3
				c0-2.1-1.2-3.2-3.5-3.2H56v6.5H60.6z"/>
		</g>
	</g>
	<circle class="st2" cx="58" cy="98" r="21.1"/>
	<g>
		<g>
			<path class="st1" d="M200,83.4c0.1-0.7,0.2-1.4,0.2-2.3V69.9c0-0.9,0-1.5-0.2-2.4c0.7,0,1.3,0.1,2.3,0.1h4.2c3.2,0,5,1.6,5,4.5
				c0,3.1-1.9,4.8-5.1,4.8h-4.6V81c0,1,0,1.6,0.2,2.3L200,83.4L200,83.4z M206.4,75.5c2.2,0,3.5-1.2,3.5-3.3c0-2.1-1.2-3.2-3.5-3.2
				h-4.6v6.5H206.4z"/>
		</g>
		<g>
			<path class="st1" d="M200,83.4c0.1-0.7,0.2-1.4,0.2-2.3V69.9c0-0.9,0-1.5-0.2-2.4c0.7,0,1.3,0.1,2.3,0.1h4.2c3.2,0,5,1.6,5,4.5
				c0,3.1-1.9,4.8-5.1,4.8h-4.6V81c0,1,0,1.6,0.2,2.3L200,83.4L200,83.4z M206.4,75.5c2.2,0,3.5-1.2,3.5-3.3c0-2.1-1.2-3.2-3.5-3.2
				h-4.6v6.5H206.4z"/>
		</g>
	</g>
	<circle class="st2" cx="203.8" cy="75" r="21.1"/>
	<g>
		<g>
			<path class="st1" d="M346.5,61.4c0.1-0.7,0.2-1.4,0.2-2.3V47.9c0-0.9,0-1.5-0.2-2.4c0.7,0,1.3,0.1,2.3,0.1h4.2c3.2,0,5,1.6,5,4.5
				c0,3.1-1.9,4.8-5.1,4.8h-4.6V59c0,1,0,1.6,0.2,2.3h-2V61.4z M352.9,53.5c2.2,0,3.5-1.2,3.5-3.3s-1.2-3.2-3.5-3.2h-4.6v6.5H352.9z
				"/>
		</g>
		<g>
			<path class="st1" d="M346.5,61.4c0.1-0.7,0.2-1.4,0.2-2.3V47.9c0-0.9,0-1.5-0.2-2.4c0.7,0,1.3,0.1,2.3,0.1h4.2c3.2,0,5,1.6,5,4.5
				c0,3.1-1.9,4.8-5.1,4.8h-4.6V59c0,1,0,1.6,0.2,2.3h-2V61.4z M352.9,53.5c2.2,0,3.5-1.2,3.5-3.3s-1.2-3.2-3.5-3.2h-4.6v6.5H352.9z
				"/>
		</g>
	</g>
	<circle class="st2" cx="350.3" cy="52.9" r="21.1"/>
	<g>
		<line class="st2" x1="32.7" y1="137.4" x2="83.2" y2="137.4"/>
	</g>
	<line class="st2" x1="178.8" y1="114.6" x2="229.3" y2="114.6"/>
	<line class="st2" x1="178.8" y1="137.4" x2="229.3" y2="137.4"/>
	<line class="st2" x1="325.3" y1="91.8" x2="375.8" y2="91.8"/>
	<line class="st2" x1="325.3" y1="114.6" x2="375.8" y2="114.6"/>
	<line class="st2" x1="325.3" y1="137.4" x2="375.8" y2="137.4"/>
	<line class="st2" x1="0" y1="155.6" x2="408" y2="155.6"/>
	<line class="st2" x1="2.8" y1="68.6" x2="405.1" y2="9.8"/>
	<polyline class="st2" points="388.4,0.4 405.1,9.8 395.8,26.5 	"/>
</g>
</svg>
