<?xml version="1.0" encoding="utf-8"?>
<!-- Generator: Adobe Illustrator 24.1.0, SVG Export Plug-In . SVG Version: 6.00 Build 0)  -->
<svg version="1.1" id="レイヤー_1" xmlns="http://www.w3.org/2000/svg" xmlns:xlink="http://www.w3.org/1999/xlink" x="0px"
	 y="0px" width="792.6px" height="215.5px" viewBox="0 0 792.6 215.5" style="enable-background:new 0 0 792.6 215.5;"
	 xml:space="preserve">
<style type="text/css">
	.st0{fill:#FFFFFF;}
</style>
<g id="app_x5F_tutorial">
</g>
<g>
	<g>
		<g>
			<path class="st0" d="M69.4,125.4l21.4-21.3c0.8-0.7,1.5-1.5,2.2-2.3c0.7-0.8,1.3-1.7,1.9-2.6c0.6-0.9,1-1.9,1.3-2.9
				c0.3-1,0.5-2.1,0.5-3.2c0-1.3-0.2-2.5-0.7-3.5c-0.5-1.1-1.1-1.9-2-2.7c-0.8-0.7-1.8-1.3-2.9-1.7c-1.1-0.4-2.3-0.6-3.6-0.6
				c-2.6,0-4.8,0.7-6.5,2.2c-1.7,1.5-2.8,3.5-3.2,6L70,92.2c0.4-2.4,1-4.4,2.1-6.1c1-1.7,2.3-3.2,3.8-4.3c1.5-1.2,3.3-2,5.3-2.6
				c2-0.6,4.1-0.8,6.4-0.8c2.3,0,4.5,0.3,6.5,0.9c2,0.6,3.8,1.6,5.4,2.8c1.5,1.2,2.7,2.8,3.6,4.6c0.9,1.8,1.3,4,1.3,6.4
				c0,1.8-0.3,3.4-0.8,4.9c-0.5,1.5-1.2,3-2.1,4.3c-0.9,1.4-1.8,2.6-2.9,3.8c-1.1,1.2-2.3,2.4-3.5,3.5l-17.6,17h26.8v6.3h-35V125.4z
				"/>
			<path class="st0" d="M114.8,79.7h18.8c3.4,0,6.2,0.5,8.4,1.4c2.2,0.9,4,2.1,5.2,3.5c1.3,1.4,2.2,3,2.7,4.8
				c0.5,1.8,0.8,3.5,0.8,5.2c0,1.7-0.3,3.4-0.8,5.2c-0.5,1.8-1.4,3.4-2.7,4.8c-1.3,1.4-3,2.6-5.2,3.5c-2.2,0.9-5,1.4-8.4,1.4H122
				V133h-7.2V79.7z M122,103.2h9.5c1.4,0,2.8-0.1,4.2-0.3c1.4-0.2,2.6-0.6,3.7-1.2c1.1-0.6,1.9-1.5,2.6-2.6c0.7-1.1,1-2.6,1-4.4
				c0-1.8-0.3-3.3-1-4.4c-0.7-1.1-1.5-2-2.6-2.6c-1.1-0.6-2.3-1-3.7-1.2c-1.4-0.2-2.8-0.3-4.2-0.3H122V103.2z"/>
		</g>
	</g>
	<g>
		<path class="st0" d="M792.6,197H470.5V80l16-16h-16V19.6h322.1V197z M480.5,187h302.1V29.6H480.5V54h30.2l-30.2,30.2V187z"/>
		<g>
			<g>
				<path class="st0" d="M557.5,88l-9.8,9l-4.2-5.1l14.9-12.3h6.4V133h-7.2V88z"/>
				<path class="st0" d="M588.9,143h-6.2l5.2-18.6h7.2L588.9,143z"/>
				<path class="st0" d="M620.4,88l-9.8,9l-4.2-5.1l14.9-12.3h6.4V133h-7.2V88z"/>
				<path class="st0" d="M644.6,106.4c0-2,0.1-4,0.3-6.1c0.2-2.1,0.6-4.2,1.1-6.2c0.5-2,1.2-4,2.1-5.8c0.9-1.9,2-3.5,3.4-4.9
					c1.4-1.4,3-2.5,4.9-3.3c1.9-0.8,4.1-1.2,6.6-1.2c2.5,0,4.7,0.4,6.6,1.2c1.9,0.8,3.5,1.9,4.9,3.3c1.4,1.4,2.5,3,3.4,4.9
					c0.9,1.9,1.6,3.8,2.1,5.8c0.5,2,0.9,4.1,1.1,6.2c0.2,2.1,0.3,4.1,0.3,6.1c0,2.8-0.3,5.8-0.8,9c-0.5,3.2-1.4,6.2-2.8,9
					c-1.4,2.8-3.2,5.1-5.6,6.9c-2.4,1.8-5.5,2.7-9.2,2.7s-6.9-0.9-9.2-2.7c-2.4-1.8-4.3-4.1-5.6-6.9c-1.4-2.8-2.3-5.8-2.8-9
					C644.8,112.2,644.6,109.2,644.6,106.4z M651.8,106.4c0,1.8,0.1,3.8,0.3,6.3c0.2,2.4,0.7,4.7,1.5,7c0.8,2.2,1.9,4.1,3.4,5.7
					c1.5,1.6,3.5,2.3,6,2.3c2.5,0,4.5-0.8,6-2.3c1.5-1.6,2.6-3.5,3.4-5.7c0.8-2.2,1.2-4.6,1.5-7c0.2-2.4,0.3-4.5,0.3-6.3
					c0-1.2,0-2.6-0.1-4.1c-0.1-1.5-0.3-3.1-0.5-4.7c-0.3-1.6-0.7-3.1-1.2-4.6c-0.5-1.5-1.2-2.8-2-4c-0.8-1.2-1.8-2.1-3.1-2.8
					c-1.2-0.7-2.6-1.1-4.3-1.1c-1.7,0-3.1,0.4-4.3,1.1c-1.2,0.7-2.2,1.6-3.1,2.8c-0.8,1.2-1.5,2.5-2,4c-0.5,1.5-0.9,3-1.2,4.6
					c-0.3,1.6-0.5,3.1-0.5,4.7C651.8,103.8,651.8,105.1,651.8,106.4z"/>
				<path class="st0" d="M686.5,106.4c0-2,0.1-4,0.3-6.1c0.2-2.1,0.6-4.2,1.1-6.2c0.5-2,1.2-4,2.1-5.8c0.9-1.9,2-3.5,3.4-4.9
					c1.4-1.4,3-2.5,4.9-3.3c1.9-0.8,4.1-1.2,6.6-1.2c2.5,0,4.7,0.4,6.6,1.2c1.9,0.8,3.5,1.9,4.9,3.3c1.4,1.4,2.5,3,3.4,4.9
					c0.9,1.9,1.6,3.8,2.1,5.8c0.5,2,0.9,4.1,1.1,6.2c0.2,2.1,0.3,4.1,0.3,6.1c0,2.8-0.3,5.8-0.8,9c-0.5,3.2-1.4,6.2-2.8,9
					c-1.4,2.8-3.2,5.1-5.6,6.9c-2.4,1.8-5.5,2.7-9.2,2.7s-6.9-0.9-9.2-2.7c-2.4-1.8-4.3-4.1-5.6-6.9c-1.4-2.8-2.3-5.8-2.8-9
					C686.7,112.2,686.5,109.2,686.5,106.4z M693.7,106.4c0,1.8,0.1,3.8,0.3,6.3c0.2,2.4,0.7,4.7,1.5,7c0.8,2.2,1.9,4.1,3.4,5.7
					c1.5,1.6,3.5,2.3,6,2.3c2.5,0,4.5-0.8,6-2.3c1.5-1.6,2.6-3.5,3.4-5.7c0.8-2.2,1.2-4.6,1.5-7c0.2-2.4,0.3-4.5,0.3-6.3
					c0-1.2,0-2.6-0.1-4.1c-0.1-1.5-0.3-3.1-0.5-4.7c-0.3-1.6-0.7-3.1-1.2-4.6c-0.5-1.5-1.2-2.8-2-4c-0.8-1.2-1.8-2.1-3.1-2.8
					c-1.2-0.7-2.6-1.1-4.3-1.1c-1.7,0-3.1,0.4-4.3,1.1c-1.2,0.7-2.2,1.6-3.1,2.8c-0.8,1.2-1.5,2.5-2,4c-0.5,1.5-0.9,3-1.2,4.6
					c-0.3,1.6-0.5,3.1-0.5,4.7C693.8,103.8,693.7,105.1,693.7,106.4z"/>
			</g>
		</g>
	</g>
	<polygon class="st0" points="442.9,117.9 294.6,117.9 294.6,107.9 417.7,107.9 395,86.4 401.8,79.2 	"/>
	<path class="st0" d="M158.7,0c-1.9,0-3.8,0-5.6,0.1c-6.8,0.4-13.4,1.3-19.8,2.9c-8.2-2-16.7-3-25.4-3C48.3,0,0,48.3,0,107.8
		c0,59.4,48.3,107.8,107.8,107.8c8.8,0,17.3-1.1,25.5-3.1c8.2,2,16.7,3.1,25.4,3.1c59.4,0,107.8-48.3,107.8-107.8
		C266.4,48.3,218.1,0,158.7,0z M10,107.8C10,53.9,53.9,10,107.8,10c53.9,0,97.8,43.9,97.8,97.8c0,53.9-43.9,97.8-97.8,97.8
		C53.9,205.5,10,161.7,10,107.8z M158.7,205.5c-1.8,0-3.5-0.1-5.3-0.2c36.7-17.2,62.1-54.5,62.1-97.6c0-43.1-25.5-80.4-62.2-97.6
		c0.1,0,0.1,0,0.2,0h0c1.7-0.1,3.4-0.1,5.1-0.1c53.9,0,97.8,43.9,97.8,97.8C256.4,161.7,212.6,205.5,158.7,205.5z"/>
</g>
</svg>
