<?xml version="1.0" encoding="utf-8"?>
<!-- Generator: Adobe Illustrator 24.1.0, SVG Export Plug-In . SVG Version: 6.00 Build 0)  -->
<svg version="1.1" id="レイヤー_1" xmlns="http://www.w3.org/2000/svg" xmlns:xlink="http://www.w3.org/1999/xlink" x="0px"
	 y="0px" width="617.2px" height="257.9px" viewBox="0 0 617.2 257.9" style="enable-background:new 0 0 617.2 257.9;"
	 xml:space="preserve">
<style type="text/css">
	.st0{fill:#FFFFFF;}
</style>
<g id="app_x5F_tutorial">
</g>
<g>
	<g>
		<g>
			<path class="st0" d="M252.5,102.6H239v-5.3h32.7v5.3h-13.5v36.6h-5.7L252.5,102.6L252.5,102.6z"/>
			<path class="st0" d="M277.7,97.2h5.7v17.4h21.7V97.2h5.7v41.9h-5.7V120h-21.7v19.2h-5.7V97.2z"/>
			<path class="st0" d="M326.5,97.2V123c0,1.3,0.2,2.7,0.5,4.1c0.4,1.4,0.9,2.7,1.8,3.9c0.8,1.2,1.9,2.2,3.3,2.9s3,1.1,5,1.1
				s3.6-0.4,5-1.1c1.3-0.8,2.4-1.7,3.3-2.9c0.8-1.2,1.4-2.5,1.8-3.9s0.5-2.8,0.5-4.1V97.2h5.7v26.6c0,2.4-0.4,4.7-1.2,6.7
				c-0.8,2-2,3.7-3.4,5.2c-1.5,1.5-3.2,2.6-5.2,3.4c-2,0.8-4.1,1.2-6.4,1.2s-4.4-0.4-6.4-1.2s-3.7-1.9-5.2-3.4s-2.6-3.2-3.4-5.2
				s-1.2-4.2-1.2-6.7V97.2H326.5z"/>
		</g>
	</g>
	<path class="st0" d="M372,15.4V6.6c0-3.3-2.7-6-6-6s-6,2.7-6,6v8.9h-18.1V6.6c0-3.3-2.7-6-6-6s-6,2.7-6,6v8.9h-70.1V7
		c0-3.3-2.7-6-6-6s-6,2.7-6,6v8.4h-18.1V7c0-3.3-2.7-6-6-6s-6,2.7-6,6v8.4h-22.5V224h138.4v-8H203.1V23.4h14.5v10c0,3.3,2.7,6,6,6
		s6-2.7,6-6v-10h18.1v10c0,3.3,2.7,6,6,6c3.3,0,6-2.7,6-6v-10h70.1V33c0,3.3,2.7,6,6,6s6-2.7,6-6v-9.5H360V33c0,3.3,2.7,6,6,6
		s6-2.7,6-6v-9.5h16v133.8h8V15.4H372z"/>
	<path class="st0" d="M411,199.9c0-18.3-14.9-33.2-33.2-33.2s-33.2,14.9-33.2,33.2c0,9.2,3.7,17.5,9.7,23.5v34.3l22.9-7.5l22.9,7.5
		v-33.2C406.7,218.5,411,209.7,411,199.9z M377.7,174.7c13.9,0,25.2,11.3,25.2,25.2s-11.3,25.2-25.2,25.2s-25.2-11.3-25.2-25.2
		S363.8,174.7,377.7,174.7z M392,246.7l-14.9-4.9l-14.9,4.9v-17.4c4.6,2.5,9.9,3.8,15.5,3.8c5.1,0,9.9-1.2,14.3-3.2V246.7z"/>
</g>
</svg>
