<?xml version="1.0" encoding="utf-8"?>
<!-- Generator: Adobe Illustrator 24.1.0, SVG Export Plug-In . SVG Version: 6.00 Build 0)  -->
<svg version="1.1" id="レイヤー_1" xmlns="http://www.w3.org/2000/svg" xmlns:xlink="http://www.w3.org/1999/xlink" x="0px"
	 y="0px" width="617.2px" height="259.5px" viewBox="0 0 617.2 259.5" style="enable-background:new 0 0 617.2 259.5;"
	 xml:space="preserve">
<style type="text/css">
	.st0{fill:#FFFFFF;}
</style>
<g id="app_x5F_tutorial">
</g>
<g>
	<g>
		<path class="st0" d="M566.7,204c-13.1,7.8-28.4,12.4-44.7,12.4c-48,0-87.1-39.1-87.1-87.1c0-48,39.1-87.1,87.1-87.1
			s87.1,39.1,87.1,87.1c0,7.7-1,15.1-2.9,22.3c2.6,0.7,5.1,1.7,7.5,2.9c2.2-8,3.4-16.5,3.4-25.2c0-52.4-42.7-95.1-95.1-95.1
			S427,76.8,427,129.2c0,52.4,42.7,95.1,95.1,95.1c18.1,0,35.1-5.1,49.5-14C569.7,208.4,568.1,206.3,566.7,204z"/>
		<polygon class="st0" points="617,181.9 601.3,181.9 601.3,166.2 593.3,166.2 593.3,181.9 577.6,181.9 577.6,189.9 593.3,189.9 
			593.3,205.5 601.3,205.5 601.3,189.9 617,189.9 		"/>
	</g>
	<g>
		<g>
			<path class="st0" d="M501.1,112.6l-9.8,9l-4.2-5.1l14.9-12.3h6.4v53.4h-7.2V112.6z"/>
			<path class="st0" d="M529.5,104.3h18.8c3.4,0,6.2,0.5,8.4,1.4c2.2,0.9,4,2.1,5.2,3.5c1.3,1.4,2.2,3,2.7,4.8
				c0.5,1.8,0.8,3.5,0.8,5.2c0,1.7-0.3,3.4-0.8,5.2c-0.5,1.8-1.4,3.4-2.7,4.8c-1.3,1.4-3,2.6-5.2,3.5c-2.2,0.9-5,1.4-8.4,1.4h-11.5
				v23.5h-7.2V104.3z M536.8,127.8h9.5c1.4,0,2.8-0.1,4.2-0.3c1.4-0.2,2.6-0.6,3.7-1.2s1.9-1.5,2.6-2.6c0.7-1.1,1-2.6,1-4.4
				c0-1.8-0.3-3.3-1-4.4c-0.7-1.1-1.5-2-2.6-2.6c-1.1-0.6-2.3-1-3.7-1.2c-1.4-0.2-2.8-0.3-4.2-0.3h-9.5V127.8z"/>
		</g>
	</g>
	<polygon class="st0" points="364.9,138.8 219.1,138.8 219.1,130.8 344.8,130.8 320.2,107.6 325.7,101.8 	"/>
	<g>
		<path class="st0" d="M130.7,0H24.5C11,0,0,11,0,24.5V235c0,13.5,11,24.5,24.5,24.5h106.2c13.5,0,24.5-11,24.5-24.5V24.5
			C155.2,11,144.2,0,130.7,0z M147.2,235c0,9.1-7.4,16.5-16.5,16.5H24.5C15.4,251.5,8,244.1,8,235V24.5C8,15.4,15.4,8,24.5,8h27.6
			v0.6c0,4.4,3.6,8,8,8h37.5c4.4,0,8-3.6,8-8V8h25.1c9.1,0,16.5,7.4,16.5,16.5V235z"/>
		<g>
			<path class="st0" d="M101.8,159.9L101.8,159.9l-45.5,0v-8.2h48.5l11.7-35.5l-61.7,0.1l-6.7-8.9H34.2v6h10.9l5.2,7v28.4v3v9.8
				c-3.1,1.9-5.1,5.2-5.1,9.1c0,5.9,4.8,10.7,10.7,10.7s10.6-4.8,10.6-10.7c0-1.7-0.4-3.2-1.1-4.6h26.5c-0.7,1.4-1.1,3-1.1,4.6
				c0,5.9,4.8,10.7,10.7,10.7s10.6-4.8,10.6-10.7C112.2,164.8,107.5,160.1,101.8,159.9z M56.3,122.3l51.9-0.1l-7.7,23.5H56.3V122.3z
				 M60.5,170.6c0,2.6-2.1,4.7-4.6,4.7c-2.6,0-4.7-2.1-4.7-4.7c0-2.6,2.1-4.6,4.7-4.6C58.4,165.9,60.5,168,60.5,170.6z M101.5,175.2
				c-2.6,0-4.7-2.1-4.7-4.7c0-2.6,2.1-4.6,4.7-4.6c2.6,0,4.6,2.1,4.6,4.6C106.2,173.1,104.1,175.2,101.5,175.2z"/>
			<polygon class="st0" points="74.2,90.6 62,79.9 66,75.4 73.9,82.3 96.2,59 100.6,63.1 			"/>
		</g>
	</g>
</g>
</svg>
