<?xml version="1.0" encoding="UTF-8"?>
<svg id="_レイヤー_2" data-name="レイヤー 2" xmlns="http://www.w3.org/2000/svg" viewBox="0 0 792.6 215.6">
  <defs>
    <style>
      .cls-1 {
        fill: #fff;
      }
    </style>
  </defs>
  <g id="_レイヤー_1-2" data-name="レイヤー 1">
    <g>
      <g>
        <path class="cls-1" d="M69.4,125.4l21.4-21.3c.8-.7,1.5-1.5,2.2-2.3s1.3-1.7,1.9-2.6,1-1.9,1.3-2.9,.5-2.1,.5-3.2c0-1.3-.2-2.5-.7-3.5-.5-1.1-1.1-1.9-2-2.7-.8-.7-1.8-1.3-2.9-1.7-1.1-.4-2.3-.6-3.6-.6-2.6,0-4.8,.7-6.5,2.2s-2.8,3.5-3.2,6l-7.8-.6c.4-2.4,1-4.4,2.1-6.1,1-1.7,2.3-3.2,3.8-4.3,1.5-1.2,3.3-2,5.3-2.6s4.1-.8,6.4-.8,4.5,.3,6.5,.9,3.8,1.6,5.4,2.8c1.5,1.2,2.7,2.8,3.6,4.6,.9,1.8,1.3,4,1.3,6.4,0,1.8-.3,3.4-.8,4.9s-1.2,3-2.1,4.3c-.9,1.4-1.8,2.6-2.9,3.8-1.1,1.2-2.3,2.4-3.5,3.5l-17.6,17h26.8v6.3h-35v-7.5h.1Z"/>
        <path class="cls-1" d="M603.57,125.4l21.4-21.3c.8-.7,1.5-1.5,2.2-2.3s1.3-1.7,1.9-2.6,1-1.9,1.3-2.9,.5-2.1,.5-3.2c0-1.3-.2-2.5-.7-3.5-.5-1.1-1.1-1.9-2-2.7-.8-.7-1.8-1.3-2.9-1.7-1.1-.4-2.3-.6-3.6-.6-2.6,0-4.8,.7-6.5,2.2s-2.8,3.5-3.2,6l-7.8-.6c.4-2.4,1-4.4,2.1-6.1,1-1.7,2.3-3.2,3.8-4.3,1.5-1.2,3.3-2,5.3-2.6s4.1-.8,6.4-.8,4.5,.3,6.5,.9,3.8,1.6,5.4,2.8c1.5,1.2,2.7,2.8,3.6,4.6,.9,1.8,1.3,4,1.3,6.4,0,1.8-.3,3.4-.8,4.9s-1.2,3-2.1,4.3c-.9,1.4-1.8,2.6-2.9,3.8-1.1,1.2-2.3,2.4-3.5,3.5l-17.6,17h26.8v6.3h-35v-7.5h.1Z"/>
        <path class="cls-1" d="M114.8,79.7h18.8c3.4,0,6.2,.5,8.4,1.4s4,2.1,5.2,3.5c1.3,1.4,2.2,3,2.7,4.8s.8,3.5,.8,5.2-.3,3.4-.8,5.2c-.5,1.8-1.4,3.4-2.7,4.8s-3,2.6-5.2,3.5-5,1.4-8.4,1.4h-11.6v23.5h-7.2v-53.3Zm7.2,23.5h9.5c1.4,0,2.8-.1,4.2-.3,1.4-.2,2.6-.6,3.7-1.2,1.1-.6,1.9-1.5,2.6-2.6,.7-1.1,1-2.6,1-4.4s-.3-3.3-1-4.4-1.5-2-2.6-2.6-2.3-1-3.7-1.2-2.8-.3-4.2-.3h-9.5v17Z"/>
      </g>
      <g>
        <path class="cls-1" d="M792.6,197H470.5V80l16-16h-16V19.6h322.1V197Zm-312.1-10h302.1V29.6H480.5v24.4h30.2l-30.2,30.2v102.8Z"/>
        <g>
          <path class="cls-1" d="M557.5,88l-9.8,9-4.2-5.1,14.9-12.3h6.4v53.4h-7.2v-45h-.1Z"/>
          <path class="cls-1" d="M588.9,143h-6.2l5.2-18.6h7.2l-6.2,18.6Z"/>
          <path class="cls-1" d="M644.6,106.4c0-2,.1-4,.3-6.1s.6-4.2,1.1-6.2,1.2-4,2.1-5.8c.9-1.9,2-3.5,3.4-4.9s3-2.5,4.9-3.3,4.1-1.2,6.6-1.2,4.7,.4,6.6,1.2c1.9,.8,3.5,1.9,4.9,3.3s2.5,3,3.4,4.9,1.6,3.8,2.1,5.8,.9,4.1,1.1,6.2c.2,2.1,.3,4.1,.3,6.1,0,2.8-.3,5.8-.8,9s-1.4,6.2-2.8,9c-1.4,2.8-3.2,5.1-5.6,6.9-2.4,1.8-5.5,2.7-9.2,2.7s-6.9-.9-9.2-2.7c-2.4-1.8-4.3-4.1-5.6-6.9-1.4-2.8-2.3-5.8-2.8-9-.6-3.2-.8-6.2-.8-9Zm7.2,0c0,1.8,.1,3.8,.3,6.3,.2,2.4,.7,4.7,1.5,7,.8,2.2,1.9,4.1,3.4,5.7s3.5,2.3,6,2.3,4.5-.8,6-2.3c1.5-1.6,2.6-3.5,3.4-5.7,.8-2.2,1.2-4.6,1.5-7,.2-2.4,.3-4.5,.3-6.3,0-1.2,0-2.6-.1-4.1s-.3-3.1-.5-4.7c-.3-1.6-.7-3.1-1.2-4.6s-1.2-2.8-2-4-1.8-2.1-3.1-2.8c-1.2-.7-2.6-1.1-4.3-1.1s-3.1,.4-4.3,1.1-2.2,1.6-3.1,2.8c-.8,1.2-1.5,2.5-2,4s-.9,3-1.2,4.6-.5,3.1-.5,4.7c-.1,1.5-.1,2.8-.1,4.1Z"/>
          <path class="cls-1" d="M686.5,106.4c0-2,.1-4,.3-6.1s.6-4.2,1.1-6.2,1.2-4,2.1-5.8c.9-1.9,2-3.5,3.4-4.9s3-2.5,4.9-3.3,4.1-1.2,6.6-1.2,4.7,.4,6.6,1.2c1.9,.8,3.5,1.9,4.9,3.3s2.5,3,3.4,4.9,1.6,3.8,2.1,5.8,.9,4.1,1.1,6.2c.2,2.1,.3,4.1,.3,6.1,0,2.8-.3,5.8-.8,9s-1.4,6.2-2.8,9c-1.4,2.8-3.2,5.1-5.6,6.9-2.4,1.8-5.5,2.7-9.2,2.7s-6.9-.9-9.2-2.7c-2.4-1.8-4.3-4.1-5.6-6.9-1.4-2.8-2.3-5.8-2.8-9-.6-3.2-.8-6.2-.8-9Zm7.2,0c0,1.8,.1,3.8,.3,6.3,.2,2.4,.7,4.7,1.5,7,.8,2.2,1.9,4.1,3.4,5.7s3.5,2.3,6,2.3,4.5-.8,6-2.3c1.5-1.6,2.6-3.5,3.4-5.7,.8-2.2,1.2-4.6,1.5-7,.2-2.4,.3-4.5,.3-6.3,0-1.2,0-2.6-.1-4.1s-.3-3.1-.5-4.7c-.3-1.6-.7-3.1-1.2-4.6s-1.2-2.8-2-4-1.8-2.1-3.1-2.8c-1.2-.7-2.6-1.1-4.3-1.1s-3.1,.4-4.3,1.1-2.2,1.6-3.1,2.8c-.8,1.2-1.5,2.5-2,4s-.9,3-1.2,4.6-.5,3.1-.5,4.7c0,1.5-.1,2.8-.1,4.1Z"/>
        </g>
      </g>
      <polygon class="cls-1" points="442.9 117.9 294.6 117.9 294.6 107.9 417.7 107.9 395 86.4 401.8 79.2 442.9 117.9"/>
      <path class="cls-1" d="M158.7,0c-1.9,0-3.8,0-5.6,.1-6.8,.4-13.4,1.3-19.8,2.9-8.2-2-16.7-3-25.4-3C48.3,0,0,48.3,0,107.8s48.3,107.8,107.8,107.8c8.8,0,17.3-1.1,25.5-3.1,8.2,2,16.7,3.1,25.4,3.1,59.4,0,107.8-48.3,107.8-107.8-.1-59.5-48.4-107.8-107.8-107.8ZM10,107.8C10,53.9,53.9,10,107.8,10s97.8,43.9,97.8,97.8-43.9,97.8-97.8,97.8c-53.9-.1-97.8-43.9-97.8-97.8Zm148.7,97.7c-1.8,0-3.5-.1-5.3-.2,36.7-17.2,62.1-54.5,62.1-97.6S190,27.3,153.3,10.1h.2c1.7-.1,3.4-.1,5.1-.1,53.9,0,97.8,43.9,97.8,97.8,0,53.9-43.8,97.7-97.7,97.7Z"/>
    </g>
  </g>
</svg>