<?xml version="1.0" encoding="utf-8"?>
<!-- Generator: Adobe Illustrator 24.1.0, SVG Export Plug-In . SVG Version: 6.00 Build 0)  -->
<svg version="1.1" id="レイヤー_1" xmlns="http://www.w3.org/2000/svg" xmlns:xlink="http://www.w3.org/1999/xlink" x="0px"
	 y="0px" width="617.2px" height="257.9px" viewBox="0 0 617.2 257.9" style="enable-background:new 0 0 617.2 257.9;"
	 xml:space="preserve">
<style type="text/css">
	.st0{fill:#FFFFFF;}
</style>
<g id="app_x5F_tutorial">
</g>
<g>
	<g>
		<path class="st0" d="M282.7,216.9h-56.6c-13.5,0-24.5-11-24.5-24.5v-165c0-13.5,11-24.5,24.5-24.5h79.5c13.5,0,24.5,11,24.5,24.5
			v13.4h-8V27.4c0-9.1-7.4-16.5-16.5-16.5h-79.5c-9.1,0-16.5,7.4-16.5,16.5v165c0,9.1,7.4,16.5,16.5,16.5h56.6V216.9z"/>
		<path class="st0" d="M280.9,17.3H253c-4.4,0-8-3.6-8-8V7.4h43.8v1.8C288.9,13.7,285.3,17.3,280.9,17.3z"/>
	</g>
</g>
<g>
	<path class="st0" d="M266.3,127.9c-16.1,0-29.2-13.1-29.2-29.2c0-16.1,13.1-29.2,29.2-29.2c3.2,0,6.3,0.5,9.3,1.5l-2.5,7.6
		c-2.2-0.7-4.4-1.1-6.7-1.1c-11.7,0-21.2,9.5-21.2,21.2c0,11.7,9.5,21.2,21.2,21.2s21.2-9.5,21.2-21.2h8
		C295.5,114.8,282.4,127.9,266.3,127.9z"/>
	<polygon class="st0" points="267,108.7 251.8,95.4 257.1,89.3 266.5,97.6 293.8,69.2 299.6,74.7 	"/>
</g>
<path class="st0" d="M363,254.8c-14.9,0-28.8-5.7-39.2-16.1c-2-1.6-4.3-3.6-6.3-6c-7-8.8-13.3-18.6-18.6-29
	c-5.4-10.9-10.3-22.3-15.1-33.2c-1.9-4.4-3.8-8.8-5.7-13.1c-0.8-1.8-1.7-4.2-2.1-6.9c-0.6-3.8,0.3-7.4,2.6-10.1
	c2.6-3.1,6.8-4.9,11.4-4.9c8.6,0,12.1,5.8,15.4,11.3l0.7,1.1c2.1,3.5,4.1,7.5,6,11.4c0.7,1.4,1.4,2.8,2.1,4.1c0-5,0-9.9,0-14.9
	c0-24.1,0-49.1,0.3-73.6c0-5,3.4-11.2,7.8-14.1c4.2-2.7,11.5-1.6,15.4,1c3.7,2.5,5.8,8.3,6,12.8c0.3,9.8,0.2,19.7,0.2,29.2
	c0,3.7,0,7.4,0,11.2c2.7-1.3,6-2,10.6-2c6.3,0,10.4,4.5,12.4,10.3c3.1-2,6.9-2.8,11.7-2.8c6.5,0,11.2,4.2,13.5,11.5
	c0.2-0.1,0.4-0.3,0.6-0.5c5.1-4,11.6-3.5,15.6-1.9c4.6,1.8,8.2,8.2,8.4,12.8l0,0.1c0.4,21.1,0.8,42.9,0,64.6
	c-0.1,5.2-1.3,10.2-3.3,14.6C405.6,241.5,385.4,254.8,363,254.8z M290.1,143.3c-2.2,0-4.2,0.8-5.3,2.1c-0.8,1-1.1,2.2-0.9,3.7l0,0.2
	c0.2,1.4,0.6,2.8,1.5,4.8c1.9,4.3,3.8,8.7,5.7,13.2c4.7,10.9,9.6,22.1,14.9,32.8c5,9.9,11,19.2,17.7,27.6c1.6,1.9,3.5,3.6,5.2,5
	l0.4,0.3c8.8,9,20.8,13.9,33.6,13.9c19.2,0,36.5-11.3,43-28.2l0.1-0.2c1.7-3.6,2.5-7.4,2.6-11.6c0.8-21.6,0.4-43.2,0-64.2
	c-0.1-2.1-2.2-5.2-3.3-5.7l-0.1,0c-2.2-0.9-5.4-1-7.7,0.8c-1.3,1-1.3,1-5,5.3l-6.5,7.6l-0.5-10c-0.2-2.9-1.1-12.3-6.9-12.3
	c-6.2,0-8.7,1.9-10.8,5.1l-6.7,10.2l-0.7-12.1c-0.2-3-1.6-10.7-5.9-10.7c-6.8,0-8.7,1.6-11.3,5.4l-7.3,10.5v-21.5
	c0-3.9,0-7.7,0-11.6c0.1-9.5,0.1-19.2-0.2-28.9c-0.1-2.8-1.6-5.9-2.4-6.5c-1.8-1.2-5.7-1.5-6.7-0.9c-2.1,1.3-4.1,5-4.1,7.4
	c-0.3,24.5-0.3,49.5-0.3,73.6c0,6.1,0,12.2,0,18.4c0,2.4,0,6-0.1,8.4l-0.2,3.1l-3,0.6c-1.5,0.3-2.7-0.2-3.5-0.7l-1.3,0.3l-1.5-2.3
	c-0.3-0.5-0.7-1.1-1.1-1.6c-0.7-1-1.4-2-2-3.1c-1.5-2.8-3-5.7-4.5-8.6c-1.9-3.7-3.8-7.6-5.7-10.8l-0.7-1.1
	C295.3,145.1,293.9,143.3,290.1,143.3z"/>
<rect x="338.4" y="26.9" transform="matrix(0.1788 -0.9839 0.9839 0.1788 264.9786 379.2155)" class="st0" width="42.6" height="8"/>
<rect x="367.1" y="55.7" transform="matrix(0.9798 -0.1999 0.1999 0.9798 -4.0907 78.9009)" class="st0" width="43" height="8"/>
</svg>
