<?xml version="1.0" encoding="utf-8"?>
<!-- Generator: Adobe Illustrator 24.1.0, SVG Export Plug-In . SVG Version: 6.00 Build 0)  -->
<svg version="1.1" id="レイヤー_1" xmlns="http://www.w3.org/2000/svg" xmlns:xlink="http://www.w3.org/1999/xlink" x="0px"
	 y="0px" width="617.2px" height="217px" viewBox="0 0 617.2 217" style="enable-background:new 0 0 617.2 217;"
	 xml:space="preserve">
<style type="text/css">
	.st0{fill:#FFFFFF;}
</style>
<g id="app_x5F_tutorial">
</g>
<g>
	<g>
		<path class="st0" d="M566.8,190.1c-13.1,7.8-28.4,12.4-44.7,12.4c-48,0-87.1-39.1-87.1-87.1c0-48,39.1-87.1,87.1-87.1
			c48,0,87.1,39.1,87.1,87.1c0,7.7-1,15.1-2.9,22.3c2.6,0.7,5.1,1.7,7.5,2.9c2.2-8,3.4-16.5,3.4-25.2c0-52.4-42.7-95.1-95.1-95.1
			c-52.4,0-95.1,42.7-95.1,95.1c0,52.4,42.7,95.1,95.1,95.1c18.1,0,35.1-5.1,49.5-14C569.8,194.6,568.2,192.4,566.8,190.1z"/>
		<polygon class="st0" points="617,168 601.4,168 601.4,152.4 593.4,152.4 593.4,168 577.7,168 577.7,176 593.4,176 593.4,191.7 
			601.4,191.7 601.4,176 617,176 		"/>
	</g>
	<g>
		<g>
			<path class="st0" d="M501.1,98.7l-9.8,9l-4.2-5.1L502,90.4h6.4v53.4h-7.2V98.7z"/>
			<path class="st0" d="M529.6,90.4h18.8c3.4,0,6.2,0.5,8.4,1.4c2.2,0.9,4,2.1,5.2,3.5c1.3,1.4,2.2,3,2.7,4.8
				c0.5,1.8,0.8,3.5,0.8,5.2c0,1.7-0.3,3.4-0.8,5.2c-0.5,1.8-1.4,3.4-2.7,4.8c-1.3,1.4-3,2.6-5.2,3.5c-2.2,0.9-5,1.4-8.4,1.4h-11.5
				v23.5h-7.2V90.4z M536.8,114h9.5c1.4,0,2.8-0.1,4.2-0.3c1.4-0.2,2.6-0.6,3.7-1.2c1.1-0.6,1.9-1.5,2.6-2.6c0.7-1.1,1-2.6,1-4.4
				c0-1.8-0.3-3.3-1-4.4c-0.7-1.1-1.5-2-2.6-2.6c-1.1-0.6-2.3-1-3.7-1.2c-1.4-0.2-2.8-0.3-4.2-0.3h-9.5V114z"/>
		</g>
	</g>
</g>
<polygon class="st0" points="381,135 235.2,135 235.2,127 360.9,127 336.2,103.8 341.7,97.9 "/>
<g>
	<g>
		<path class="st0" d="M86.5,83.4c-23,0-41.7-18.7-41.7-41.7C44.8,18.7,63.5,0,86.5,0c23,0,41.7,18.7,41.7,41.7
			C128.2,64.7,109.5,83.4,86.5,83.4z M86.5,8C68,8,52.8,23.1,52.8,41.7S68,75.4,86.5,75.4s33.7-15.1,33.7-33.7S105.1,8,86.5,8z"/>
	</g>
	<path class="st0" d="M128.3,187.9c0-1.4,0.1-2.7,0.2-4H8.1l0.7-44.1c0-13,10.5-23.5,23.5-23.5h108.4c13,0,23.5,10.5,23.5,23.5v8.3
		c1.3-0.1,2.6-0.2,4-0.2s2.7,0.1,4,0.2v-8.3c0-17.4-14.1-31.5-31.5-31.5H32.3c-17.4,0-31.5,14.1-31.5,31.4L0,191.9h128.5
		C128.3,190.6,128.3,189.2,128.3,187.9z"/>
	<g>
		<g>
			<path class="st0" d="M169,217c-16.1,0-29.2-13.1-29.2-29.2s13.1-29.2,29.2-29.2c3.2,0,6.3,0.5,9.3,1.5l-2.5,7.6
				c-2.2-0.7-4.4-1.1-6.7-1.1c-11.7,0-21.2,9.5-21.2,21.2S157.3,209,169,209c11.7,0,21.2-9.5,21.2-21.2h8
				C198.2,203.9,185.1,217,169,217z"/>
		</g>
		<g>
			<polygon class="st0" points="169.8,197.8 154.5,184.5 159.8,178.5 169.3,186.8 196.6,158.3 202.3,163.9 			"/>
		</g>
	</g>
</g>
</svg>
