<?xml version="1.0" encoding="utf-8"?>
<!-- Generator: Adobe Illustrator 24.1.0, SVG Export Plug-In . SVG Version: 6.00 Build 0)  -->
<svg version="1.1" id="レイヤー_1" xmlns="http://www.w3.org/2000/svg" xmlns:xlink="http://www.w3.org/1999/xlink" x="0px"
	 y="0px" width="661.6px" height="333.7px" viewBox="0 0 661.6 333.7" style="enable-background:new 0 0 661.6 333.7;"
	 xml:space="preserve">
<style type="text/css">
	.st0{display:none;}
	.st1{display:inline;}
	.st2{fill:none;stroke:#8E8E8E;stroke-miterlimit:10;}
	.st3{fill:none;stroke:#919191;stroke-miterlimit:10;}
	.st4{fill:#919191;}
	.st5{font-family:'HiraKakuProN-W3-83pv-RKSJ-H';}
	.st6{font-size:20px;}
	.st7{letter-spacing:2;}
	.st8{display:inline;fill:#08FFF8;}
	.st9{fill:none;stroke:#FFFFFF;stroke-width:2;stroke-miterlimit:10;}
	.st10{fill:#FFFFFF;}
	.st11{fill:none;stroke:#FFFFFF;stroke-width:2;stroke-miterlimit:10;stroke-dasharray:7.6542,7.6542;}
</style>
<g id="レイヤー_1_2_">
	<g id="レイヤー_1_1_" class="st0">
		<g id="nav_x5F_about_x5F_icon" class="st1">
			<path class="st2" d="M364.8,292.5h-17.7c-2.8,0-5-2.2-5-5v-17.7c0-2.8,2.2-5,5-5h17.7c2.8,0,5,2.2,5,5v17.7
				C369.8,290.2,367.6,292.5,364.8,292.5z"/>
		</g>
		<g id="nav_x5F_user_x5F_icon" class="st1">
			<g>
				<circle class="st2" cx="355.9" cy="269.5" r="4.7"/>
				<path class="st2" d="M356,280.1c-1.5,0-2.8-0.3-4.1-0.8l-6.3,3.9l1,9.2h18.9l1-9.2l-6.3-3.9C358.8,279.8,357.4,280.1,356,280.1z
					"/>
			</g>
		</g>
		<g id="nav_x5F_prapoly_x5F_icon" class="st1">
			<g>
				<line class="st2" x1="342" y1="267.7" x2="369.8" y2="267.7"/>
				<line class="st2" x1="342" y1="278.6" x2="358.4" y2="278.6"/>
				<line class="st2" x1="342" y1="289.6" x2="369.8" y2="289.6"/>
			</g>
		</g>
		<g id="nav_x5F_link_x5F_icon" class="st1">
			<g>
				<rect x="342.3" y="266.9" class="st2" width="22.1" height="17.7"/>
				<polyline class="st2" points="369.7,271.1 369.7,290.3 346.7,290.3 				"/>
			</g>
		</g>
		<g id="menu_x5F_buy_x5F_tk" class="st1">
			<g>
				<g>
					<g>
						<polygon class="st3" points="380.7,298.1 335.8,298.1 335.8,281.8 338.9,278.7 335.8,278.7 335.8,272.5 380.7,272.5 						"/>
					</g>
					<g>
						<g>
							<line class="st3" x1="347.6" y1="292.1" x2="347.6" y2="296.1"/>
						</g>
						<g>
							<line class="st3" x1="347.6" y1="286.2" x2="347.6" y2="290.2"/>
						</g>
						<g>
							<line class="st3" x1="347.6" y1="280.3" x2="347.6" y2="284.3"/>
						</g>
						<g>
							<line class="st3" x1="347.6" y1="274.5" x2="347.6" y2="278.5"/>
						</g>
					</g>
				</g>
				<g>
					<g>
						<polyline class="st3" points="373.6,268.2 373.6,262.8 328.7,262.8 328.7,269 331.9,269 328.7,272.1 328.7,285.6 332.1,285.6 
													"/>
					</g>
				</g>
			</g>
		</g>
		<g id="menu_x5F_point" class="st1">
			<text transform="matrix(1 0 0 1 349.0795 288.3011)" class="st4 st5 st6 st7">P</text>
			<circle class="st3" cx="355.7" cy="280.1" r="20.2"/>
		</g>
		<rect x="-57.1" y="-81.8" class="st8" width="840.2" height="759.7"/>
	</g>
	<g id="レイヤー_2_1_" class="st0">
		<g class="st1">
			<g>
				<circle class="st9" cx="198.7" cy="41.4" r="12.1"/>
				<path class="st9" d="M198.8,68.4c-3.7,0-7.3-0.8-10.5-2.1L172,76.4l2.6,23.7h48.3l2.6-23.7l-16.3-10.1
					C206.1,67.7,202.5,68.4,198.8,68.4z"/>
			</g>
			<g>
				<circle class="st9" cx="435.2" cy="41.4" r="12.1"/>
				<path class="st9" d="M435.2,68.4c-3.7,0-7.3-0.8-10.5-2.1l-16.3,10.1l2.6,23.7h48.3l2.6-23.7l-16.3-10.1
					C442.4,67.7,438.9,68.4,435.2,68.4z"/>
			</g>
			<rect x="128.9" y="129.3" class="st9" width="133.4" height="266.9"/>
			<rect x="367" y="224.2" class="st9" width="133.4" height="172"/>
			<g>
				<path class="st10" d="M26.7,2.8C26.9,1.4,27,0.1,27-1.7v-3.9h-5.9c-1.8,0-2.8,0.1-4.2,0.3v-3C18.3-8.1,19.3-8,21.1-8H27v-1.9
					l-1.6-2.4h-4.3c-1.8,0-2.8,0.1-4.2,0.3v-3c1.4,0.2,2.4,0.3,4.2,0.3h2.8l-6.1-9.4c-1.2-1.8-1.8-2.7-2.4-3.5h4.3
					c0.3,0.9,0.7,1.7,2,3.7l7,11.3l7-11.3c1.2-1.9,1.6-2.8,1.9-3.7h4.2c-0.6,0.7-1.4,1.8-2.5,3.5l-6.2,9.5h2.8
					c1.8,0,2.8-0.1,4.2-0.3v3c-1.4-0.2-2.4-0.3-4.2-0.3h-4.3l-1.5,2.4v1.9H36c1.8,0,2.8-0.1,4.2-0.3v3c-1.4-0.2-2.4-0.3-4.2-0.3
					h-5.9v3.9c0,2,0.1,3,0.3,4.5h-3.7C26.7,2.9,26.7,2.8,26.7,2.8z"/>
			</g>
			<line class="st9" x1="28.6" y1="71.2" x2="-3.2" y2="71.2"/>
			<line class="st9" x1="28.6" y1="164.8" x2="-3.2" y2="164.8"/>
			<line class="st9" x1="28.6" y1="258.3" x2="-3.2" y2="258.3"/>
			<line class="st9" x1="28.6" y1="351.9" x2="-3.2" y2="351.9"/>
			<line class="st9" x1="427.1" y1="137.6" x2="427.1" y2="210.4"/>
			<line class="st9" x1="440.5" y1="137.6" x2="440.5" y2="210.4"/>
			<polyline class="st9" points="448.4,202 433.7,216.8 418.9,202 			"/>
			<g>
				<path class="st10" d="M521.4,181.9c0-1.4-0.1-2.4-0.3-3.8c1.2,0.1,2.1,0.1,3.7,0.1h5.6c7.4,0,11.7,4.5,11.7,12.5
					c0,4.2-1.3,7.6-3.6,9.9c-2,2-4.8,3-8.1,3h-5.6c-1.6,0-2.5,0-3.7,0.1c0.2-1.3,0.3-2.3,0.3-4V181.9z M530.3,201.2
					c2.6,0,4.7-0.8,6.2-2.4c1.8-1.9,2.8-4.7,2.8-8.1c0-3.5-0.9-6.1-2.6-7.9c-1.5-1.5-3.5-2.3-6.3-2.3h-6.5v20.7H530.3z"/>
				<path class="st10" d="M549.4,178.2v3h-3.2v-3H549.4z M549.2,185.5c-0.2,1.2-0.2,2.1-0.2,3.8v10.4c0,1.5,0.1,2.5,0.2,3.8h-3
					c0.2-1.4,0.2-2.4,0.2-3.8v-10.4c0-1.6-0.1-2.6-0.2-3.8H549.2z"/>
				<path class="st10" d="M555.9,198.2c0.2,1.2,0.5,1.8,1.2,2.4c0.8,0.8,2.2,1.2,3.9,1.2c2.9,0,4.7-1.2,4.7-3.2c0-0.9-0.3-1.6-1-2.1
					c-0.8-0.5-1.5-0.7-3.9-1.2c-2.7-0.6-3.8-1-4.9-1.7c-1.2-0.8-1.8-2-1.8-3.5c0-1.2,0.5-2.3,1.4-3.2c1.2-1.1,3-1.7,5.2-1.7
					c2.3,0,4,0.5,5.2,1.6c0.9,0.7,1.3,1.5,1.8,3l-2.6,0.4c-0.2-0.9-0.4-1.3-0.8-1.8c-0.8-0.8-2-1.3-3.5-1.3c-2.4,0-4.2,1.2-4.2,3
					c0,0.8,0.4,1.4,1.1,1.8c0.8,0.4,1.6,0.7,3.7,1.1c3.2,0.7,4.3,1.1,5.3,1.9c1,0.8,1.6,2.1,1.6,3.5c0,3.3-2.8,5.4-7.4,5.4
					c-3,0-5.4-0.9-6.6-2.6c-0.5-0.7-0.7-1.3-1.1-2.6L555.9,198.2z"/>
				<path class="st10" d="M584.8,191c-1-2.6-2.6-3.8-5-3.8c-3.7,0-6,2.9-6,7.3c0,4.4,2.4,7.2,6.1,7.2c1.9,0,3.5-0.8,4.3-2.1
					c0.3-0.5,0.5-0.9,0.7-1.7l2.5,0.7c-0.5,1.2-0.8,1.8-1.4,2.6c-1.5,1.8-3.6,2.8-6.3,2.8c-5.2,0-8.6-3.6-8.6-9.3
					c0-5.8,3.3-9.5,8.4-9.5c2.8,0,5,1.1,6.4,3.1c0.5,0.6,0.8,1.2,1.2,2.1L584.8,191z"/>
				<path class="st10" d="M590.4,194.5c0-5.8,3.5-9.4,8.9-9.4s8.9,3.7,8.9,9.4s-3.5,9.4-8.8,9.4
					C593.9,203.9,590.4,200.3,590.4,194.5z M593,194.5c0,4.5,2.4,7.3,6.3,7.3c3.9,0,6.3-2.8,6.3-7.3s-2.4-7.3-6.2-7.3
					C595.5,187.2,593,190,593,194.5z"/>
				<path class="st10" d="M625.2,201.3c0-0.4,0-0.6,0.1-1.5c-1.7,2.7-3.7,4-6.7,4c-2.4,0-4.3-0.9-5.3-2.5c-0.6-1-0.9-2.3-0.9-3.9
					v-8.2c0-1.5-0.1-2.7-0.2-3.7h3c-0.2,1.2-0.2,2.3-0.2,3.8v7.8c0,3,1.4,4.6,4,4.6c1.9,0,3.5-0.8,4.8-2.6c0.9-1.2,1.2-2,1.5-3.3
					v-6.4c0-1.4-0.1-2.6-0.2-3.8h3c-0.2,1.2-0.2,2.2-0.2,3.8v10.4c0,1.5,0.1,2.4,0.3,3.8h-2.8v-2.3H625.2z"/>
				<path class="st10" d="M632.7,203.5c0.2-1.3,0.3-2.2,0.3-3.8v-10.4c0-1.5-0.1-2.4-0.3-3.8h2.8v2.3c0,0.4,0,0.7-0.1,1.4
					c1.6-2.7,3.7-4,6.7-4c2.4,0,4.3,0.9,5.3,2.5c0.6,1,0.9,2.2,0.9,3.8v8.2c0,1.7,0.1,2.6,0.2,3.7h-3c0.2-1.3,0.2-2.3,0.2-3.8v-7.8
					c0-3-1.4-4.6-4.1-4.6c-1.9,0-3.4,0.8-4.8,2.6c-0.9,1.1-1.3,2-1.5,3.3v6.4c0,1.5,0.1,2.5,0.2,3.8h-2.8L632.7,203.5L632.7,203.5z"
					/>
				<path class="st10" d="M658.4,180.6c-0.2,1.1-0.2,2.3-0.2,3.7v1.3h1.6c1.5,0,2.2,0,3.4-0.2v2.5c-1.1-0.2-1.9-0.2-3.4-0.2h-1.6
					v11.6c0,1,0.1,1.5,0.4,1.8c0.4,0.4,0.9,0.6,1.6,0.6c0.9,0,1.5-0.2,2.6-0.9l0.7,2.3c-1.4,0.6-2.4,0.8-3.8,0.8
					c-1.5,0-2.6-0.4-3.3-1c-0.7-0.7-0.9-1.6-0.9-3.2v-11.9h-1.3c-1.1,0-1.9,0.1-3,0.2v-2.5c0.9,0.2,1.6,0.2,3,0.2h1.3v-1.3
					c0-1.3-0.1-2.6-0.2-3.7h3.1L658.4,180.6L658.4,180.6z"/>
			</g>
			<line class="st9" x1="28.6" y1="31.4" x2="28.6" y2="396.1"/>
			<line class="st9" x1="610.8" y1="396.1" x2="28.6" y2="396.1"/>
			<line class="st11" x1="501.4" y1="129.3" x2="262.3" y2="129.3"/>
			<polygon class="st9" points="474.4,30 478.3,37.9 487,39.2 480.7,45.3 482.2,53.9 474.4,49.9 466.6,53.9 468.1,45.3 461.8,39.2 
				470.5,37.9 			"/>
			<g>
				<g>
					<polygon class="st9" points="632.1,275.7 550.5,275.7 550.5,246.1 556.1,240.4 550.5,240.4 550.5,229.2 632.1,229.2 					"/>
				</g>
				<g>
					<line class="st9" x1="571.9" y1="265.1" x2="571.9" y2="272.4"/>
				</g>
				<g>
					<line class="st9" x1="571.9" y1="254.2" x2="571.9" y2="261.5"/>
				</g>
				<g>
					<line class="st9" x1="571.9" y1="243.4" x2="571.9" y2="250.6"/>
				</g>
				<g>
					<line class="st9" x1="571.9" y1="232.5" x2="571.9" y2="239.8"/>
				</g>
			</g>
		</g>
	</g>
	<g id="レイヤー_3" class="st0">
		<g class="st1">
			<g>
				<g>
					<path class="st9" d="M377.7,319c-0.1-2.4-2.2-6-4.3-6.8c-2.4-1-5.9-1.1-8.6,1c-1.2,0.9-1.2,0.9-4.1,4.3
						c-0.3-5.5-2.3-11.8-8-11.8c-5.6,0-8.3,1.9-10.4,5.1c-0.2-3.6-1.8-10.6-7.3-10.6c-5.9,0-8.2,1.6-10.7,5.2c0-0.9,0-4.8,0-6.4
						c0-9.9,0.2-19.8-0.1-29.8c-0.1-2.5-1.3-5.9-3.1-7.1c-2.1-1.4-6.2-1.9-8.1-0.7c-2.3,1.5-4.4,5.1-4.4,7.9
						c-0.3,22.5-0.2,45-0.2,67.5c0,1.7,0,4.3-0.1,6c-0.5,0.1-1.1-0.8-1.6-0.7c-0.7-1.1-1.5-2.2-2.2-3.4c-2.5-4.5-4.9-10-7.5-14.3
						s-4.3-7.7-9.3-7.7c-4.5,0-8.2,3.1-7.4,7.7c0.2,1.5,0.7,2.9,1.3,4.3c5,11.3,9.7,22.8,15.2,33.9c3.7,7.3,8.2,14.4,13.3,20.8
						c1.3,1.6,2.8,2.9,4.3,4.1c6.7,6.8,16.2,11.1,26.8,11.1c15.7,0,29.2-9.4,34.3-22.6c1.3-2.8,2.1-6,2.2-9.7
						C378.3,350.4,378,334.7,377.7,319z"/>
				</g>
				<g>
					<path class="st10" d="M297.3,233.1c-1.6,0-2.7,0-4,0.1c0.3-1.5,0.3-2.4,0.3-4.5v-19.4c0-1.6-0.1-2.5-0.3-3.8
						c1.1,0.1,1.8,0.1,4,0.1h7.7c5.3,0,8.2,2.4,8.2,6.7c0,2.1-0.7,3.7-2,4.9c-0.8,0.7-1.4,1-2.9,1.5c1.7,0.3,2.5,0.7,3.5,1.5
						c1.5,1.3,2.2,3.1,2.2,5.4c0,4.9-3.2,7.6-8.7,7.6h-8L297.3,233.1L297.3,233.1z M305,217.3c3.4,0,5.4-1.8,5.4-4.8
						s-1.8-4.5-5.4-4.5h-8.5v9.4L305,217.3L305,217.3z M296.4,230.6h8.7c4,0,6.1-1.9,6.1-5.4c0-3.6-2.1-5.4-6.1-5.4h-8.7V230.6z"/>
					<path class="st10" d="M337.5,230.7c0-0.4,0-0.7,0.1-1.6c-1.8,3-4.1,4.3-7.3,4.3c-2.6,0-4.6-0.9-5.8-2.7c-0.7-1.1-1-2.5-1-4.2
						v-9c0-1.6-0.1-2.9-0.3-4.1h3.3c-0.2,1.3-0.3,2.5-0.3,4.1v8.5c0,3.2,1.6,5,4.4,5c2.1,0,3.8-0.9,5.2-2.9c0.9-1.3,1.3-2.2,1.7-3.6
						v-7c0-1.6-0.1-2.8-0.3-4.1h3.2c-0.2,1.3-0.3,2.4-0.3,4.1v11.4c0,1.6,0.1,2.6,0.3,4.1h-3L337.5,230.7L337.5,230.7z"/>
					<path class="st10" d="M349.8,217.8c-1.6-3.6-1.6-3.6-2-4.2h3.6c0.2,1,0.7,2.5,1.2,3.8l5.3,12.2l4.7-12.2
						c0.7-1.9,1.1-2.8,1.2-3.8h3.4c-0.2,0.5-0.8,2-1.8,4.2l-8.1,19.8c-0.9,2.3-2.5,3.4-5.1,3.4c-0.8,0-1.6-0.1-3-0.4l0.8-2.7
						c1,0.5,1.5,0.6,2.2,0.6c1.2,0,2.1-0.7,2.7-2l1.7-4L349.8,217.8z"/>
				</g>
				<polyline class="st9" points="289.8,277.1 116.8,277.1 116.8,173.4 541.3,173.4 541.3,277.1 342.8,277.1 				"/>
			</g>
			<g>
				<g>
					<circle class="st9" cx="428.7" cy="83.1" r="24.3"/>
					<polyline class="st9" points="414.7,85.1 423.1,91.4 442.7,73.4 					"/>
				</g>
				<g>
					<g>
						<g>
							<polyline class="st9" points="440.9,48.4 440.9,-28.4 205.1,-28.4 205.1,5.3 222,5.3 205.1,22.2 205.1,95.3 394.7,95.3 
															"/>
						</g>
						<g>
							<line class="st9" x1="268.9" y1="-28.6" x2="268.9" y2="-17.4"/>
							<line class="st9" x1="268.9" y1="-6.1" x2="268.9" y2="5.1"/>
							<line class="st9" x1="268.9" y1="16.4" x2="268.9" y2="27.6"/>
							<line class="st9" x1="268.9" y1="38.8" x2="268.9" y2="50.1"/>
							<line class="st9" x1="268.9" y1="61.3" x2="268.9" y2="72.6"/>
							<line class="st9" x1="268.9" y1="83.8" x2="268.9" y2="95.1"/>
						</g>
					</g>
				</g>
			</g>
		</g>
	</g>
</g>
<g id="レイヤー_2_2_">
</g>
<g>
	<path class="st10" d="M644.2,222.1V96.1c0-11.9-9.7-21.6-21.6-21.6h-13.3c0.1-0.8,0.1-1.5,0.1-2.3c0-15.8-12.9-28.7-28.7-28.7
		S552,56.4,552,72.2c0,0.8,0,1.5,0.1,2.3h-12.4c-11.9,0-21.5,9.7-21.5,21.6v47.3h-9.4l9.4,53.9V222c-8.3,0.8-14.7,7.8-14.7,16.3v7.8
		c0,9,7.4,16.4,16.4,16.4h11.4v-2.6l5.6,56.8c0.1,8.4,6.9,15.1,15.3,15.1h6.6c8.4,0,15.3-6.9,15.3-15.3V262h14.1v54.5
		c0,8.4,6.9,15.3,15.3,15.3h6.6c8.4,0,15.2-6.8,15.3-15.1l5.4-54.2h10.6c9,0,16.4-7.4,16.4-16.4v-7.8
		C657.8,230.2,651.9,223.5,644.2,222.1z M580.7,51.5c11.4,0,20.7,9.3,20.7,20.7c0,11.4-9.3,20.7-20.7,20.7S560,83.7,560,72.2
		C560,60.8,569.3,51.5,580.7,51.5z M526.2,96.1c0-7.5,6.1-13.6,13.5-13.6h14.2c4.1,10.8,14.6,18.4,26.8,18.4s22.6-7.7,26.8-18.4
		h15.1c7.5,0,13.6,6.1,13.6,13.6v125.8h-1.4l0,0c0-5.9-3.3-11-8.2-13.6v-71.8c0-12.1-9.9-22-22-22h-47.6c-12.1,0-22,9.9-22,22l0,6.9
		h-8.6V96.1z M588.2,221.9v0.7h-14.1v-0.7c0-8.4-6.9-15.3-15.3-15.3h-16c-0.1,0-0.2,0-0.3,0l0-8.4h9.9l9.6-54.8h-19.2l0-6.9
		c0-7.7,6.3-14,14-14h47.6c7.7,0,14,6.3,14,14v70h-15.1C595.1,206.5,588.2,213.4,588.2,221.9z M527.5,221.9L527.5,221.9l-1.3,0
		v-23.7h8.3l-0.1,10.9C530.3,211.8,527.5,216.5,527.5,221.9z M552.5,151.4l-6.8,38.8h-20.7l-6.8-38.8H552.5z M519.9,254.5
		c-4.6,0-8.4-3.8-8.4-8.4v-7.8c0-4.6,3.8-8.4,8.4-8.4h8.4l2.4,24.7H519.9z M566.1,316.5c0,4-3.3,7.3-7.3,7.3h-6.6
		c-4,0-7.3-3.3-7.3-7.3v-0.2l-9.4-94.6c0.1-4,3.3-7.1,7.3-7.1h16c4,0,7.3,3.3,7.3,7.3V316.5z M574.1,254v-23.4h14.1V254H574.1z
		 M617.4,316.1l0,0.4c0,4-3.3,7.3-7.3,7.3h-6.6c-4,0-7.3-3.3-7.3-7.3v-94.6c0-4,3.3-7.3,7.3-7.3h16c4,0,7.2,3.2,7.3,7.1L617.4,316.1
		z M649.8,246.1c0,4.6-3.8,8.4-8.4,8.4h-9.8l2.4-24.7h7.3c4.6,0,8.4,3.8,8.4,8.4V246.1z"/>
	<g>
		<path class="st10" d="M115.3,72.2H25.8c-13.5,0-24.5,11-24.5,24.5v182c0,13.5,11,24.5,24.5,24.5h89.5c13.5,0,24.5-11,24.5-24.5
			v-182C139.8,83.1,128.8,72.2,115.3,72.2z M131.8,278.7c0,9.1-7.4,16.5-16.5,16.5H25.8c-9.1,0-16.5-7.4-16.5-16.5v-182
			c0-9.1,7.4-16.5,16.5-16.5H48c0.4,4,3.8,7.2,8,7.2h31.5c4.1,0,7.6-3.2,8-7.2h19.9c9.1,0,16.5,7.4,16.5,16.5V278.7z"/>
		<g>
			<path class="st10" d="M113.3,228.5H27.1v-86.2h86.2V228.5z M33.1,222.5h74.2v-74.2H33.1V222.5z"/>
			<path class="st10" d="M61.6,176H40.5v-21.1h21.1V176z M46.5,170h9.1v-9.1h-9.1V170z"/>
			<path class="st10" d="M100,176H78.9v-21.1H100V176z M84.9,170H94v-9.1h-9.1V170z"/>
			<path class="st10" d="M61.6,214.7H40.5v-21.1h21.1V214.7z M46.5,208.7h9.1v-9.1h-9.1V208.7z"/>
			<rect x="89.8" y="204.5" class="st10" width="9.7" height="9.7"/>
			<rect x="80.1" y="194.9" class="st10" width="9.7" height="9.7"/>
			<rect x="70.5" y="185.3" class="st10" width="9.7" height="9.7"/>
			<rect x="70.3" y="204.6" class="st10" width="9.7" height="9.7"/>
			<rect x="89.7" y="185.2" class="st10" width="9.7" height="9.7"/>
		</g>
	</g>
	<g>
		<rect x="218.4" y="221.5" class="st10" width="10" height="86.3"/>
		<rect x="166.6" y="194.3" class="st10" width="198.8" height="14"/>
		<path class="st10" d="M494.1,208.3l-44.8-42.2l-9.6,10.2l19.1,18h-64V62.5H218.4v119h10v-52.9h156.5v179.2h10v-99.5H494.1z
			 M228.4,118.6V72.5h156.5v46.1H228.4z"/>
	</g>
	<g>
		
			<rect x="325.6" y="25.6" transform="matrix(0.7071 -0.7071 0.7071 0.7071 80.7659 252.115)" class="st10" width="38.4" height="6"/>
		<rect x="267" y="9.4" transform="matrix(0.7071 -0.7071 0.7071 0.7071 58.8847 199.2731)" class="st10" width="6" height="38.4"/>
		<rect x="305" y="3.1" class="st10" width="6" height="36.8"/>
	</g>
</g>
</svg>
