<svg xmlns="http://www.w3.org/2000/svg" viewBox="0 0 267.9 217.99"><defs><style>.cls-1{fill:#999;}.cls-2{fill:#00a0e9;}.cls-3{fill:none;}</style></defs><title>アセット 39</title><g id="レイヤー_2" data-name="レイヤー 2"><g id="文字"><path class="cls-1" d="M107.94,182.93,19.33,150.68l46.94-129L154.88,54ZM20.86,150l86.37,31.44L153.35,54.68,67,23.25Z"/><path class="cls-1" d="M160.72,33.57A10.54,10.54,0,0,1,167,47.06l-59.07,162.3a10.54,10.54,0,0,1-13.49,6.29L8.63,184.42a10.54,10.54,0,0,1-6.29-13.49L61.41,8.63A10.54,10.54,0,0,1,74.9,2.34l85.83,31.24m.58-1.6L75.48.74A12.22,12.22,0,0,0,59.81,8L.74,170.35A12.22,12.22,0,0,0,8,186l85.83,31.24a12.22,12.22,0,0,0,15.66-7.31l59.07-162.3A12.22,12.22,0,0,0,161.31,32Z"/><circle class="cls-1" cx="103.03" cy="23.58" r="1.99" transform="translate(45.64 112.33) rotate(-70)"/><path class="cls-1" d="M103,25.87a2.29,2.29,0,1,1,1-.22A2.3,2.3,0,0,1,103,25.87Zm0-4a1.7,1.7,0,1,0,.71,3.23,1.68,1.68,0,0,0,.88-1h0A1.7,1.7,0,0,0,103,21.88Z"/><rect class="cls-1" x="117.41" y="19.35" width="1.63" height="19.52" transform="translate(50.44 130.24) rotate(-70)"/><path class="cls-1" d="M60.86,173.49a8.33,8.33,0,1,1-10.67,5,8.34,8.34,0,0,1,10.67-5m.58-1.6a10,10,0,1,0,6,12.85,10,10,0,0,0-6-12.85Z"/><path class="cls-1" d="M96.87,212.23a9,9,0,0,1-3.51-.69L11.69,181.82c-6.65-2.42-6.06-11.1-6-11.47l1.27.1c0,.08-.54,8.09,5.2,10.18l81.72,29.74c.31.14,6.39,2.9,10.25-4.46L161.67,47.7a8.63,8.63,0,0,0-4.35-10.58l.6-1.12c7.73,4.17,5,12.05,4.94,12.13L105.26,206.41C102.77,211.17,99.39,212.23,96.87,212.23Z"/><path class="cls-2" d="M119,88.11l-16.94,46.53L55.53,117.7,72.47,71.17,119,88.11m2.61-1.22L71.25,68.56,52.92,118.92l50.37,18.33,18.33-50.37Z"/><path class="cls-2" d="M110.8,91.34l-1.44,4-4-1.44,1.44-4,4,1.44m2.61-1.22-7.79-2.84-2.84,7.8,7.79,2.84,2.84-7.8Z"/><path class="cls-2" d="M80,80.13l-1.44,4-4-1.44,1.44-4,4,1.44m2.61-1.22-7.8-2.84L72,83.87l7.8,2.84,2.84-7.8Z"/><path class="cls-2" d="M68.38,112.11l-1.44,4-4-1.44,1.44-4,4,1.44M71,110.9l-7.8-2.84-2.84,7.8,7.8,2.84L71,110.9Z"/><rect class="cls-2" x="83.1" y="95.18" width="4.63" height="4.86" transform="translate(38.54 -23.33) rotate(20)"/><rect class="cls-2" x="89.38" y="97.46" width="4.63" height="4.86" transform="translate(39.7 -25.34) rotate(20)"/><rect class="cls-2" x="83.74" y="100.48" width="6.58" height="4.93" transform="translate(40.46 -23.56) rotate(20)"/><rect class="cls-2" x="86.17" y="106.3" width="4.63" height="4.86" transform="translate(134.44 241.17) rotate(-160)"/><rect class="cls-2" x="79.88" y="104.01" width="4.63" height="4.86" transform="translate(123.04 234.58) rotate(-160)"/><rect class="cls-2" x="83.57" y="100.93" width="6.58" height="4.93" transform="translate(133.13 230.27) rotate(-160)"/><rect class="cls-2" x="71.45" y="90.94" width="4.63" height="4.86" transform="translate(36.38 -19.6) rotate(20)"/><rect class="cls-2" x="77.73" y="93.22" width="4.63" height="4.86" transform="translate(37.54 -21.61) rotate(20)"/><rect class="cls-2" x="72.09" y="96.24" width="6.58" height="4.93" transform="translate(38.3 -19.83) rotate(20)"/><rect class="cls-2" x="74.52" y="102.06" width="4.63" height="4.86" transform="translate(113.3 228.96) rotate(-160)"/><rect class="cls-2" x="68.24" y="99.77" width="4.63" height="4.86" transform="translate(101.9 222.37) rotate(-160)"/><rect class="cls-2" x="71.93" y="96.69" width="6.58" height="4.93" transform="translate(111.99 218.07) rotate(-160)"/><rect class="cls-2" x="94.6" y="99.36" width="4.63" height="4.86" transform="translate(40.66 -27.01) rotate(20)"/><rect class="cls-2" x="100.88" y="101.65" width="4.63" height="4.86" transform="translate(41.82 -29.02) rotate(20)"/><rect class="cls-2" x="95.24" y="104.66" width="6.58" height="4.93" transform="translate(42.58 -27.24) rotate(20)"/><rect class="cls-2" x="97.66" y="110.48" width="4.63" height="4.86" transform="translate(155.31 253.21) rotate(-160)"/><rect class="cls-2" x="91.38" y="108.2" width="4.63" height="4.86" transform="translate(143.91 246.63) rotate(-160)"/><rect class="cls-2" x="95.07" y="105.12" width="6.58" height="4.93" transform="translate(154 242.32) rotate(-160)"/><rect class="cls-2" x="75.85" y="114.73" width="4.63" height="3.82" transform="matrix(0.34, -0.94, 0.94, 0.34, -58.17, 150.2)"/><rect class="cls-2" x="78.14" y="108.45" width="4.63" height="3.82" transform="translate(-50.76 148.22) rotate(-70)"/><rect class="cls-2" x="79.31" y="112.76" width="6.58" height="3.87" transform="translate(-53.43 153.09) rotate(-70)"/><rect class="cls-2" x="85.08" y="110.97" width="4.63" height="3.82" transform="translate(223.36 69.37) rotate(110)"/><rect class="cls-2" x="82.79" y="117.25" width="4.63" height="3.82" transform="translate(226.19 79.94) rotate(110)"/><rect class="cls-2" x="79.67" y="112.89" width="6.58" height="3.87" transform="translate(219.24 76.14) rotate(110)"/><rect class="cls-2" x="84.28" y="91.58" width="4.63" height="3.82" transform="translate(-30.88 142.89) rotate(-70)"/><rect class="cls-2" x="86.56" y="85.3" width="4.63" height="3.82" transform="translate(-23.47 140.9) rotate(-70)"/><rect class="cls-2" x="87.73" y="89.61" width="6.58" height="3.87" transform="translate(-26.13 145.77) rotate(-70)"/><rect class="cls-2" x="93.5" y="87.83" width="4.63" height="3.82" transform="translate(212.91 30.39) rotate(110)"/><rect class="cls-2" x="91.21" y="94.11" width="4.63" height="3.82" transform="translate(215.75 40.97) rotate(110)"/><rect class="cls-2" x="88.09" y="89.74" width="6.58" height="3.87" transform="translate(208.79 37.16) rotate(110)"/><rect class="cls-2" x="93.82" y="122.15" width="6.25" height="6.25" transform="translate(48.69 -25.6) rotate(20)"/><rect class="cls-1" x="148.4" y="136.41" width="51.57" height="1.47" transform="translate(-14.24 253.94) rotate(-70.01)"/><rect class="cls-1" x="136.18" y="133.92" width="62.33" height="1.47" transform="translate(-16.41 245.87) rotate(-70.01)"/><rect class="cls-1" x="123.65" y="131.43" width="73.71" height="1.47" transform="translate(-18.57 237.8) rotate(-70.01)"/><rect class="cls-1" x="109.82" y="128.47" width="85.08" height="1.47" transform="translate(-21.14 228.21) rotate(-70.01)"/><line class="cls-3" x1="267.9" y1="132.29" x2="267.9" y2="134.91"/><line class="cls-3" x1="267.9" y1="135.94" x2="267.9" y2="210.21"/><line class="cls-1" x1="267.9" y1="210.21" x2="267.9" y2="211.76"/><line class="cls-1" x1="267.9" y1="130.74" x2="267.9" y2="132.29"/><line class="cls-1" x1="267.9" y1="134.91" x2="267.9" y2="135.94"/><rect class="cls-3" x="187.28" y="130.58" width="53.37" height="42.07" transform="translate(-1.69 300.82) rotate(-70)"/><path class="cls-3" d="M192.11,113.8l-19.19,52.73a8.56,8.56,0,0,0,5.11,11l89.88,32.71V135.94l-64-23.29a7.68,7.68,0,0,0-9.42,3.87l-.86-.46c3.65-6.76,10.54-4.35,10.61-4.32l63.67,23.18v-2.61l-64.84-23.6A8.55,8.55,0,0,0,192.11,113.8Zm10.09,4.36a.73.73,0,0,1,.94-.44L244,132.61a.73.73,0,0,1,.44.94l-18.75,51.53a.73.73,0,0,1-.69.48.74.74,0,0,1-.25,0l-40.91-14.89a.73.73,0,0,1-.44-.94Z"/><path class="cls-3" d="M267.9,211.76l-90.38-32.9a10,10,0,0,1-6-12.83l19.19-52.73a10,10,0,0,1,12.83-6l64.34,23.42"/><path class="cls-1" d="M178,177.49a8.56,8.56,0,0,1-5.11-11l19.19-52.73a8.55,8.55,0,0,1,11-5.11l64.84,23.6v-1.56l-64.34-23.42a10,10,0,0,0-12.83,6L171.54,166a10,10,0,0,0,6,12.83l90.38,32.9v-1.56Z"/><path class="cls-1" d="M204.23,111.73c-.07,0-7-2.44-10.61,4.32l.86.46a7.68,7.68,0,0,1,9.42-3.87l64,23.29v-1Z"/><path class="cls-1" d="M183.47,170.24a.73.73,0,0,0,.41.38l40.91,14.89a.74.74,0,0,0,.25,0,.73.73,0,0,0,.69-.48l18.75-51.53a.73.73,0,0,0-.44-.94l-40.91-14.89a.73.73,0,0,0-.94.44l-18.75,51.53A.73.73,0,0,0,183.47,170.24Zm19.86-50.9,39.53,14.39L224.6,183.88,185.07,169.5Z"/></g></g></svg>