<svg xmlns="http://www.w3.org/2000/svg" viewBox="0 0 100.62 173.13"><defs><style>.cls-1,.cls-3{fill:none;}.cls-1,.cls-3,.cls-5{stroke:#fff;stroke-miterlimit:10;}.cls-1,.cls-5{stroke-width:1.93px;}.cls-1{fill-rule:evenodd;}.cls-2,.cls-5{fill:#fff;}.cls-3{stroke-width:1.75px;}.cls-4{fill:#00a0e9;}</style></defs><title>アセット 14</title><g id="レイヤー_2" data-name="レイヤー 2"><g id="レイヤー_1-2" data-name="レイヤー 1"><path class="cls-1" d="M99.65,118.13h-66v-.71a3.69,3.69,0,0,0-3.91-3.79,3.69,3.69,0,0,0-3.91,3.79v.71H1V66.19h24.9v.71a3.25,3.25,0,0,0,.86,2.42,4.44,4.44,0,0,0,2.84,1.07,4.15,4.15,0,0,0,2.7-1.07A3.2,3.2,0,0,0,33,66.9v-.71H99.65Z"/><rect class="cls-2" x="28.72" y="107.14" width="1.69" height="3.75"/><rect class="cls-2" x="28.72" y="86.89" width="1.69" height="3.75"/><rect class="cls-2" x="28.72" y="93.64" width="1.69" height="3.75"/><rect class="cls-2" x="28.72" y="100.39" width="1.69" height="3.75"/><rect class="cls-2" x="28.72" y="80.17" width="1.69" height="3.75"/><rect class="cls-2" x="28.72" y="73.42" width="1.69" height="3.75"/><path class="cls-2" d="M80.59,31.43A30.55,30.55,0,1,0,45.72,61.67L50,69.47l4.33-7.8A30.55,30.55,0,0,0,80.59,31.43Z"/><path class="cls-3" d="M80.59,31.43A30.55,30.55,0,1,0,45.72,61.67L50,69.47l4.33-7.8A30.55,30.55,0,0,0,80.59,31.43Z"/><path class="cls-2" d="M32,40.39c-1.08,0-1.62,0-2.38.05a13.25,13.25,0,0,0,.17-2.51V27.86a17.69,17.69,0,0,0-.15-2.28c.78,0,1.08,0,2.34,0h4.38c2.88,0,4.49,1.3,4.49,3.62a3.32,3.32,0,0,1-1,2.62,3.15,3.15,0,0,1-1.47.78,3.39,3.39,0,0,1,1.88.85,3.67,3.67,0,0,1,1.15,2.84c0,2.6-1.73,4.07-4.81,4.07Zm4.1-8.73a2,2,0,0,0,2.25-2,1.89,1.89,0,0,0-.48-1.37A2.64,2.64,0,0,0,36,27.69H32.19v4Zm-3.86,6.63h4c1.65,0,2.58-.82,2.58-2.32a2,2,0,0,0-.59-1.62,3,3,0,0,0-2-.63h-4Z"/><path class="cls-2" d="M56.35,25.61a15,15,0,0,0-.15,2.53v6.59c0,3.84-2.28,6-6.33,6A6.39,6.39,0,0,1,45.08,39a6,6,0,0,1-1.39-4.27V28.15a15.26,15.26,0,0,0-.15-2.54H46.3a14.56,14.56,0,0,0-.15,2.54v6.55c0,2.51,1.3,3.83,3.81,3.83s3.77-1.32,3.77-3.84V28.15a15.11,15.11,0,0,0-.15-2.54Z"/><path class="cls-2" d="M63.29,40.39a17.7,17.7,0,0,0,.15-2.4V34.32l-4.29-6.8c-.28-.45-.71-1.06-1.3-1.91h3.25A7.52,7.52,0,0,0,62,27.43L64.68,32l2.73-4.55a8.12,8.12,0,0,0,.87-1.84h3.23c-.26.37-1,1.39-1.28,1.91l-4.29,6.81V38a15.33,15.33,0,0,0,.15,2.4Z"/><path class="cls-4" d="M32,40.39c-1.08,0-1.62,0-2.38.05a13.25,13.25,0,0,0,.17-2.51V27.86a17.69,17.69,0,0,0-.15-2.28c.78,0,1.08,0,2.34,0h4.38c2.88,0,4.49,1.3,4.49,3.62a3.32,3.32,0,0,1-1,2.62,3.15,3.15,0,0,1-1.47.78,3.39,3.39,0,0,1,1.88.85,3.67,3.67,0,0,1,1.15,2.84c0,2.6-1.73,4.07-4.81,4.07Zm4.1-8.73a2,2,0,0,0,2.25-2,1.89,1.89,0,0,0-.48-1.37A2.64,2.64,0,0,0,36,27.69H32.19v4Zm-3.86,6.63h4c1.65,0,2.58-.82,2.58-2.32a2,2,0,0,0-.59-1.62,3,3,0,0,0-2-.63h-4Z"/><path class="cls-4" d="M56.35,25.61a15,15,0,0,0-.15,2.53v6.59c0,3.84-2.28,6-6.33,6A6.39,6.39,0,0,1,45.08,39a6,6,0,0,1-1.39-4.27V28.15a15.26,15.26,0,0,0-.15-2.54H46.3a14.56,14.56,0,0,0-.15,2.54v6.55c0,2.51,1.3,3.83,3.81,3.83s3.77-1.32,3.77-3.84V28.15a15.11,15.11,0,0,0-.15-2.54Z"/><path class="cls-4" d="M63.29,40.39a17.7,17.7,0,0,0,.15-2.4V34.32l-4.29-6.8c-.28-.45-.71-1.06-1.3-1.91h3.25A7.52,7.52,0,0,0,62,27.43L64.68,32l2.73-4.55a8.12,8.12,0,0,0,.87-1.84h3.23c-.26.37-1,1.39-1.28,1.91l-4.29,6.81V38a15.33,15.33,0,0,0,.15,2.4Z"/><path class="cls-5" d="M92.94,132.68a4.49,4.49,0,0,0-2.14-3.4,4.44,4.44,0,0,0-4.3.48,9.85,9.85,0,0,0-2,2.16c-.12-2.72-1.17-5.86-4-5.86s-4.13,1-5.19,2.52c-.08-1.79-.9-5.29-3.61-5.29-2.95,0-4.05.82-5.32,2.59v-3.18c0-4.93.1-9.87-.07-14.8a4.91,4.91,0,0,0-1.55-3.54,4.51,4.51,0,0,0-4-.33A5.5,5.5,0,0,0,58.52,108c-.17,11.18-.09,22.36-.1,33.54,0,.83,0,2.16-.06,3-.23.05-.54-.4-.77-.35-.37-.57-.77-1.12-1.09-1.71-1.22-2.23-2.46-5-3.74-7.1s-2.13-3.83-4.61-3.83c-2.23,0-4.07,1.56-3.69,3.81a9,9,0,0,0,.64,2.12c2.49,5.63,4.8,11.35,7.58,16.84a58.06,58.06,0,0,0,6.64,10.33,12,12,0,0,0,2.15,2,18.59,18.59,0,0,0,13.34,5.53,18.14,18.14,0,0,0,17.05-11.26,13,13,0,0,0,1.1-4.8C93.27,148.31,93.12,140.49,92.94,132.68Z"/><path class="cls-2" d="M46.13,95.64a11.67,11.67,0,0,0,.11,1.83H44.12a11.86,11.86,0,0,0,.11-1.83V87.93H42.32a14.08,14.08,0,0,0-1.93.1V86.14a14.21,14.21,0,0,0,1.92.1H47.9a15,15,0,0,0,2.07-.1V88a14.93,14.93,0,0,0-2.07-.1H46.13Z"/><path class="cls-2" d="M53.83,86.24V88H51.76V86.24Zm0,3.13a12.65,12.65,0,0,0-.1,1.85v4.4a14.14,14.14,0,0,0,.1,1.85H51.76a12.64,12.64,0,0,0,.11-1.83V91.2a11.56,11.56,0,0,0-.11-1.83Z"/><path class="cls-2" d="M61.92,92.08a2.53,2.53,0,0,0-.44-.86A1.78,1.78,0,0,0,60,90.57c-1.38,0-2.24,1.09-2.24,2.84s.88,2.85,2.3,2.85a1.89,1.89,0,0,0,1.62-.79,2,2,0,0,0,.28-.71l1.75.35a4,4,0,0,1-.59,1.2A3.67,3.67,0,0,1,60,97.74a3.93,3.93,0,0,1-4.09-4.29,4.57,4.57,0,0,1,1.2-3.26A3.87,3.87,0,0,1,60,89.12a3.65,3.65,0,0,1,3.16,1.52,4.71,4.71,0,0,1,.49,1Z"/><path class="cls-2" d="M67.83,86.24a13.14,13.14,0,0,0-.1,1.85v4.64l2.12-2.1A6.49,6.49,0,0,0,71,89.37H73.6c-.8.72-.8.72-1.41,1.3l-2,1.9,2.39,3.26a10.77,10.77,0,0,0,1.28,1.64H71.34a6.79,6.79,0,0,0-.93-1.6l-1.52-2.23-1.16,1.1v.92a10.18,10.18,0,0,0,.1,1.81h-2a13.76,13.76,0,0,0,.1-1.83V88.08a12.89,12.89,0,0,0-.1-1.85Z"/><path class="cls-2" d="M77.17,93.88a2.62,2.62,0,0,0,.52,1.58,2.38,2.38,0,0,0,3.46.08,2.05,2.05,0,0,0,.41-.73l1.67.54a4,4,0,0,1-.86,1.3,4,4,0,0,1-2.91,1.09c-2.5,0-4.08-1.66-4.08-4.3s1.57-4.32,4-4.32a3.59,3.59,0,0,1,3.51,2.23,5.81,5.81,0,0,1,.41,2.14s0,.07,0,.39Zm4.3-1.4a2.22,2.22,0,0,0-.62-1.36,2,2,0,0,0-1.52-.56,2.12,2.12,0,0,0-2.12,1.92Z"/><path class="cls-2" d="M88.37,87.2a15.7,15.7,0,0,0-.1,1.74v.44h.59a8.15,8.15,0,0,0,1.43-.08v1.66a7.82,7.82,0,0,0-1.38-.08h-.64v4.38c0,.69.25.95.93.95a1.86,1.86,0,0,0,1-.31l.25,1.5a4.4,4.4,0,0,1-1.76.3c-1.62,0-2.27-.58-2.27-2.06V90.87h-.54a7.16,7.16,0,0,0-1.26.08V89.29a6.51,6.51,0,0,0,1.27.08h.52v-.44a16.19,16.19,0,0,0-.1-1.74Z"/></g></g></svg>