<svg xmlns="http://www.w3.org/2000/svg" viewBox="0 0 116.15 131.98"><defs><style>.cls-1{fill:#fff;}.cls-2,.cls-4{fill:none;stroke:#fff;stroke-miterlimit:10;}.cls-2{stroke-width:1.5px;}.cls-3{fill:#00a0e9;}.cls-4{stroke-width:0.91px;}</style></defs><title>アセット 11</title><g id="レイヤー_2" data-name="レイヤー 2"><g id="レイヤー_1-2" data-name="レイヤー 1"><path class="cls-1" d="M99.4,15.11A3.64,3.64,0,0,1,103,18.75V127a3.64,3.64,0,0,1-3.64,3.64H5A3.64,3.64,0,0,1,1.36,127V18.75A3.64,3.64,0,0,1,5,15.11H99.4m0-1.36H5a5,5,0,0,0-5,5V127a5,5,0,0,0,5,5H99.4a5,5,0,0,0,5-5V18.75a5,5,0,0,0-5-5Z"/><path class="cls-2" d="M110.4,119a5,5,0,0,0,5-5V5.75a5,5,0,0,0-5-5H16a5,5,0,0,0-5,5v3"/><path class="cls-1" d="M104.4,63H0V127a5,5,0,0,0,5,5H99.4a5,5,0,0,0,5-5Z"/><path class="cls-3" d="M72.24,78.26v39h-39v-39h39m1.61-1.61H31.64v42.21H73.85V76.66Z"/><path class="cls-3" d="M67,82.86v3.32H63.72V82.86H67m1.61-1.61H62.11v6.53h6.53V81.26Z"/><path class="cls-3" d="M41.24,82.86v3.32H37.92V82.86h3.32m1.61-1.61H36.32v6.53h6.53V81.26Z"/><path class="cls-3" d="M41.24,109.67V113H37.92v-3.32h3.32m1.61-1.61H36.32v6.53h6.53v-6.53Z"/><rect class="cls-3" x="48.12" y="92.43" width="3.65" height="3.83"/><rect class="cls-3" x="53.39" y="92.43" width="3.65" height="3.83"/><rect class="cls-3" x="49.99" y="95.91" width="5.19" height="3.88"/><rect class="cls-3" x="53.39" y="99.83" width="3.65" height="3.83" transform="translate(110.43 203.49) rotate(180)"/><rect class="cls-3" x="48.12" y="99.83" width="3.65" height="3.83" transform="translate(99.9 203.49) rotate(180)"/><rect class="cls-3" x="49.99" y="96.3" width="5.19" height="3.88" transform="translate(105.16 196.47) rotate(180)"/><rect class="cls-3" x="38.36" y="92.43" width="3.65" height="3.83"/><rect class="cls-3" x="43.63" y="92.43" width="3.65" height="3.83"/><rect class="cls-3" x="40.23" y="95.91" width="5.19" height="3.88"/><rect class="cls-3" x="43.63" y="99.83" width="3.65" height="3.83" transform="translate(90.9 203.49) rotate(180)"/><rect class="cls-3" x="38.36" y="99.83" width="3.65" height="3.83" transform="translate(80.37 203.49) rotate(180)"/><rect class="cls-3" x="40.23" y="96.3" width="5.19" height="3.88" transform="translate(85.64 196.47) rotate(180)"/><rect class="cls-3" x="57.76" y="92.43" width="3.65" height="3.83"/><rect class="cls-3" x="63.02" y="92.43" width="3.65" height="3.83"/><rect class="cls-3" x="59.62" y="95.91" width="5.19" height="3.88"/><rect class="cls-3" x="63.02" y="99.83" width="3.65" height="3.83" transform="translate(129.7 203.49) rotate(180)"/><rect class="cls-3" x="57.76" y="99.83" width="3.65" height="3.83" transform="translate(119.17 203.49) rotate(180)"/><rect class="cls-3" x="59.62" y="96.3" width="5.19" height="3.88" transform="translate(124.43 196.47) rotate(180)"/><rect class="cls-3" x="47.89" y="108.87" width="3.65" height="3.01" transform="translate(-60.67 160.09) rotate(-90)"/><rect class="cls-3" x="47.89" y="103.61" width="3.65" height="3.01" transform="translate(-55.4 154.82) rotate(-90)"/><rect class="cls-3" x="49.87" y="106.22" width="5.19" height="3.05" transform="translate(-55.28 160.21) rotate(-90)"/><rect class="cls-3" x="53.7" y="103.61" width="3.65" height="3.01" transform="translate(160.64 49.59) rotate(90)"/><rect class="cls-3" x="53.7" y="108.87" width="3.65" height="3.01" transform="translate(165.9 54.85) rotate(90)"/><rect class="cls-3" x="50.18" y="106.22" width="5.19" height="3.05" transform="translate(160.51 54.97) rotate(90)"/><rect class="cls-3" x="47.89" y="89.47" width="3.65" height="3.01" transform="translate(-41.27 140.69) rotate(-90)"/><rect class="cls-3" x="47.89" y="84.21" width="3.65" height="3.01" transform="translate(-36 135.42) rotate(-90)"/><rect class="cls-3" x="49.87" y="86.82" width="5.19" height="3.05" transform="translate(-35.88 140.81) rotate(-90)"/><rect class="cls-3" x="53.7" y="84.21" width="3.65" height="3.01" transform="translate(141.24 30.19) rotate(90)"/><rect class="cls-3" x="53.7" y="89.47" width="3.65" height="3.01" transform="translate(146.5 35.45) rotate(90)"/><rect class="cls-3" x="50.18" y="86.82" width="5.19" height="3.05" transform="translate(141.11 35.58) rotate(90)"/><rect class="cls-3" x="63.47" y="109.25" width="4.93" height="4.93"/><circle class="cls-1" cx="19.19" cy="29.32" r="2.27"/><line class="cls-4" x1="26.14" y1="29.32" x2="90.94" y2="29.32"/><circle class="cls-1" cx="19.19" cy="38.68" r="2.27"/><line class="cls-4" x1="26.14" y1="38.68" x2="90.94" y2="38.68"/><circle class="cls-1" cx="19.19" cy="48.05" r="2.27"/><line class="cls-4" x1="26.14" y1="48.05" x2="90.94" y2="48.05"/></g></g></svg>