<?xml version="1.0" encoding="utf-8"?>
<!-- Generator: Adobe Illustrator 24.1.0, SVG Export Plug-In . SVG Version: 6.00 Build 0)  -->
<svg version="1.1" id="レイヤー_1" xmlns="http://www.w3.org/2000/svg" xmlns:xlink="http://www.w3.org/1999/xlink" x="0px"
	 y="0px" width="269.5px" height="321.9px" viewBox="0 0 269.5 321.9" style="enable-background:new 0 0 269.5 321.9;"
	 xml:space="preserve">
<style type="text/css">
	.st0{fill:#7CB3E5;}
</style>
<g id="app_x5F_tutorial">
</g>
<g>
	<g>
		<g>
			<path class="st0" d="M71.7,128H54.8v-6.7h40.9v6.7H78.8v45.7h-7.1V128z"/>
			<path class="st0" d="M103.2,121.3h7.1v21.8h27.2v-21.8h7.1v52.4h-7.1v-24h-27.2v24h-7.1V121.3z"/>
			<path class="st0" d="M164.2,121.3v32.1c0,1.6,0.2,3.3,0.7,5.1c0.4,1.8,1.2,3.4,2.2,4.8c1,1.5,2.4,2.7,4.1,3.6s3.8,1.4,6.2,1.4
				c2.5,0,4.5-0.5,6.2-1.4c1.7-0.9,3-2.1,4.1-3.6c1-1.5,1.8-3.1,2.2-4.8c0.4-1.8,0.7-3.4,0.7-5.1v-32.1h7.1v33.2
				c0,3.1-0.5,5.8-1.6,8.3c-1,2.5-2.5,4.7-4.3,6.5c-1.8,1.8-4,3.2-6.4,4.2c-2.5,1-5.1,1.5-8,1.5c-2.9,0-5.5-0.5-8-1.5
				c-2.5-1-4.6-2.4-6.4-4.2c-1.8-1.8-3.3-4-4.3-6.5c-1-2.5-1.6-5.3-1.6-8.3v-33.2H164.2z"/>
		</g>
	</g>
	<path class="st0" d="M221,19.1V8c0-4.4-3.6-8-8-8s-8,3.6-8,8v11.1h-21.7V8c0-4.4-3.6-8-8-8s-8,3.6-8,8v11.1H83.7V8.5
		c0-4.4-3.6-8-8-8s-8,3.6-8,8v10.6H46V8.5c0-4.4-3.6-8-8-8s-8,3.6-8,8v10.6H0v260.6h173v-10H10V29.1h20v12.4c0,4.4,3.6,8,8,8
		s8-3.6,8-8V29.1h21.7v12.4c0,4.4,3.6,8,8,8s8-3.6,8-8V29.1h83.6V41c0,4.4,3.6,8,8,8s8-3.6,8-8V29.1H205V41c0,4.4,3.6,8,8,8
		s8-3.6,8-8V29.1h20.1v167.2h10V19.1H221z"/>
	<path class="st0" d="M269.5,249.6c0-22.9-18.6-41.5-41.5-41.5s-41.5,18.6-41.5,41.5c0,11.8,5,22.5,12.9,30.1v42.2l28.6-9.3
		l28.6,9.3v-42.2C264.5,272.1,269.5,261.4,269.5,249.6z M196.4,249.6c0-17.4,14.2-31.5,31.5-31.5c17.4,0,31.5,14.2,31.5,31.5
		s-14.2,31.5-31.5,31.5C210.6,281.1,196.4,267,196.4,249.6z M246.6,308.1L228,302l-18.6,6.1v-21.4c5.6,2.8,11.9,4.4,18.6,4.4
		c6.7,0,13-1.6,18.6-4.4V308.1z"/>
</g>
</svg>
