<?xml version="1.0" encoding="utf-8"?>
<!-- Generator: Adobe Illustrator 26.0.1, SVG Export Plug-In . SVG Version: 6.00 Build 0)  -->
<svg version="1.1" id="レイヤー_1" xmlns="http://www.w3.org/2000/svg" xmlns:xlink="http://www.w3.org/1999/xlink" x="0px"
	 y="0px" width="586.5px" height="234.4px" viewBox="0 0 586.5 234.4" style="enable-background:new 0 0 586.5 234.4;"
	 xml:space="preserve">
<style type="text/css">
	.st0{fill:#7AACDB;}
</style>
<g>
	<path class="st0" d="M500,173.2c-47.7,0-86.6-38.8-86.6-86.6C413.4,38.8,452.2,0,500,0s86.6,38.8,86.6,86.6
		C586.5,134.3,547.7,173.2,500,173.2z M500,10c-42.2,0-76.6,34.4-76.6,76.6s34.4,76.6,76.6,76.6s76.6-34.4,76.6-76.6
		S542.2,10,500,10z"/>
	<g>
		<path class="st0" d="M86.6,173.2C38.8,173.2,0,134.3,0,86.6C0,38.8,38.8,0,86.6,0s86.6,38.8,86.6,86.6
			C173.2,134.3,134.3,173.2,86.6,173.2z M86.6,10C44.4,10,10,44.4,10,86.6s34.4,76.6,76.6,76.6s76.6-34.4,76.6-76.6
			S128.8,10,86.6,10z"/>
		<polygon class="st0" points="92.3,94.7 48,94.7 48,84.7 82.3,84.7 82.3,29.1 92.3,29.1 		"/>
	</g>
	<rect x="495" y="29.1" class="st0" width="10" height="60.5"/>
	<g>
		<g>
			<path class="st0" d="M208,137.7c0.5,1.6,1,2.3,1.9,3c1.1,0.8,2.5,1.2,4.1,1.2c3.7,0,5.9-1.9,5.9-4.9c0-3.1-2.2-4.8-6.4-4.8
				c-1,0-1.8,0-2.7,0.1v-3c0.8,0.1,1.6,0.1,2.6,0.1c2,0,3.5-0.4,4.6-1.5c0.8-0.8,1.2-1.9,1.2-3.1c0-2.6-1.9-4.1-5-4.1
				c-1.9,0-3.3,0.5-4.2,1.6c-0.4,0.5-0.7,1.1-1,2.2l-3.3-0.7c0.5-1.8,1-2.6,1.9-3.5c1.5-1.6,3.8-2.5,6.7-2.5c4.9,0,8.1,2.6,8.1,6.6
				c0,2-0.8,3.8-2.3,4.8c-0.8,0.5-1.5,0.8-3.1,1.2c2.3,0.3,3.5,0.8,4.6,2c1.1,1.1,1.6,2.6,1.6,4.5c0,1.8-0.7,3.5-1.9,4.8
				c-1.6,1.6-4.1,2.5-7.2,2.5c-3.4,0-6-1-7.6-2.7c-0.8-0.8-1.1-1.6-1.8-3.3L208,137.7z"/>
			<path class="st0" d="M228.4,121.7c0-1.4,0-2.3-0.1-3.1c0.7,0,0.7,0,3,0.1h2.9c1.6,0,2.2,0,2.9-0.1c-0.1,0.8-0.1,1.2-0.1,3.3V140
				c0,1.6,0,2.5,0.1,3.3h-2.5v-1.6h-4v2.7h-2.5c0.1-1,0.1-2.2,0.1-3.5v-19.1H228.4z M230.7,128.7h4v-7.8h-4V128.7z M230.7,139.3h4
				v-8.6h-4V139.3z M242,122.8c-1.1,0-2.5,0-3.3,0.1v-2.5c0.8,0.1,1.8,0.1,3.1,0.1h3.3v-1c0-1,0-1.8-0.1-2.6h2.9
				c-0.1,0.8-0.1,1.5-0.1,2.6v1h4.4c1.4,0,2.3,0,3.1-0.1v2.5c-0.8-0.1-1.9-0.1-3.1-0.1h-4.4v4h5.5c1.5,0,2.6,0,3.4-0.1v2.6
				c-1-0.1-1.8-0.1-3.1-0.1h-0.8v3.5h0.8c1.5,0,2.5,0,3.1-0.1v2.6c-0.8-0.1-1.8-0.1-3.1-0.1h-0.8v8.7c0,2.3-0.8,2.9-4.1,2.9
				c-0.5,0-0.8,0-2.9-0.1c0-1-0.3-1.8-0.5-2.5c1.1,0.1,2.6,0.4,3.7,0.4c1.2,0,1.5-0.1,1.5-0.8v-8.5h-8.9c-1.2,0-2.3,0-3.3,0.1v-2.6
				c0.8,0.1,1.8,0.1,3.4,0.1h8.9v-3.5h-8.9c-1.4,0-2.3,0-3.4,0.1v-2.6c0.8,0.1,1.9,0.1,3.4,0.1h4.1v-4H242V122.8z M244.2,142.5
				c-1.6-2.3-2.7-3.7-4.5-5.5l1.9-1.4c1.8,1.8,3,3.1,4.6,5.3L244.2,142.5z"/>
			<path class="st0" d="M263.6,142.6c0,1.9,0,2.9,0.1,3.8h-2.9c0.1-1,0.1-1.9,0.1-3.8v-21.2c0-1.6,0-2.6-0.1-3.7
				c1,0.1,1.8,0.1,3.4,0.1h5c1.6,0,2.5,0,3.3-0.1c0,1-0.1,1.8-0.1,3.1v4.4c0,1.4,0,2.2,0.1,3c-1,0-1.9-0.1-3.3-0.1h-6v14.5H263.6z
				 M263.6,122.1h6.8v-2.3h-6.8V122.1z M263.6,126.4h6.8V124h-6.8V126.4z M280.6,139.2c0,1.2,0,2,0.1,3c-1,0-1.9-0.1-3.3-0.1h-7.1
				v2.2H268c0.1-1,0.1-1.8,0.1-3.1v-7.5c0-1.1,0-2-0.1-3c1,0.1,1.8,0.1,3.3,0.1h6.4c1.5,0,2.2,0,3.1-0.1c0,0.8-0.1,1.8-0.1,3
				L280.6,139.2L280.6,139.2z M270.4,135.2h8.1v-2.6h-8.1V135.2z M270.4,140.1h8.1v-2.9h-8.1V140.1z M287.9,143c0,2.3-0.8,3-3.7,3
				c-0.7,0-2.5,0-3.1-0.1c-0.1-1.1-0.3-1.6-0.7-2.5c1.6,0.1,2.9,0.3,3.5,0.3c1.4,0,1.6-0.1,1.6-1v-14.6h-6.7c-1.2,0-2.5,0-3.3,0.1
				c0-1,0.1-1.8,0.1-3v-4.4c0-1.1,0-2.2-0.1-3.1c1,0.1,1.6,0.1,3.3,0.1h5.7c1.6,0,2.5,0,3.4-0.1c-0.1,1.4-0.1,2.2-0.1,3.5V143z
				 M277.9,122.1h7.5v-2.3h-7.5V122.1z M277.9,126.4h7.5V124h-7.5V126.4z"/>
			<path class="st0" d="M302.1,121.3c-1-1.6-1.6-2.5-3.3-4.2l2.5-0.8c2.2,2.6,2.5,3,3.5,5.2h4.6c1.5-1.6,2.3-3,3.4-5l2.6,0.8
				c-1.2,1.8-2.3,3.3-3.3,4.2h6.3c1.5,0,2.5,0,3.3-0.1v2.6c-1-0.1-1.9-0.1-3.3-0.1h-22.2c-1.5,0-2.3,0-3.3,0.1v-2.7
				c1.1,0.1,1.1,0.1,3.3,0.1H302.1z M297.3,142.9c0,1.8,0,2.6,0.1,3.4h-2.7c0.1-1,0.1-1.9,0.1-3.5v-13.9c0-1.6,0-2-0.1-2.9
				c1.1,0.1,1.9,0.1,3.1,0.1h5.5c1.8,0,2.3,0,3-0.1c0,0.8-0.1,1.6-0.1,3.4v13.9c0,2.2-0.7,2.7-3,2.7c-0.7,0-1.6,0-2.6-0.1
				c-0.1-1.1-0.3-1.4-0.7-2.3c1.1,0.1,2,0.3,2.7,0.3c1,0,1.1-0.1,1.1-0.8v-4H297v3.8H297.3z M303.8,131.6v-3.3h-6.7v3.3H303.8z
				 M303.8,136.9v-3.3h-6.7v3.3H303.8z M312.9,126.4c-0.1,0.8-0.1,1.4-0.1,3.1v6.7c0,2.3,0,2.9,0.1,3.7h-2.7
				c0.1-0.8,0.1-1.4,0.1-3.7v-6.8c0-1.6,0-2.2-0.1-3.1h2.7V126.4z M319.8,125.4c-0.1,0.8-0.1,1.8-0.1,3.5V143c0,2.5-0.8,3.1-3.7,3.1
				c-1,0-2,0-3.7-0.1c-0.1-1-0.3-1.6-0.8-2.6c1.8,0.3,3,0.4,4.2,0.4c1.2,0,1.5-0.1,1.5-1V129c0-1.9,0-2.5-0.1-3.4h2.7V125.4z"/>
			<path class="st0" d="M325.4,125.8c1.2,0,4.5-0.4,7.2-0.8c0.5-2.7,1-5.6,1-6.8c0,0,0-0.3,0-0.4l3.1,0.3c-0.1,0.7-0.3,1.2-0.5,3
				c-0.1,0.8-0.5,3-0.7,3.7c0.8,0,1.2-0.1,2-0.1c2.2,0,3.7,0.4,4.8,1.5c1.1,1.1,1.6,2.6,1.6,5.5c0,5.2-0.8,9.6-2.3,11.5
				c-0.8,1.1-1.8,1.5-3.3,1.5c-1.4,0-2.9-0.4-4.9-1.2c0-0.5,0-0.7,0-1.1c0-0.7,0-1.1-0.1-1.8c1.8,0.8,3.7,1.5,4.8,1.5
				c0.8,0,1.4-0.5,1.8-1.5c0.8-1.9,1.4-5.3,1.4-9c0-3.3-1-4.4-3.8-4.4c-0.7,0-1.2,0-2.2,0.1c-1.2,5.3-2.6,9.3-4.8,13.6
				c-0.4,1-1.1,2.3-2.2,4.1l-2.7-1.5c1-1.2,2.3-3.5,3.4-6c1.5-3.3,2.5-5.9,3.4-10.1c-3.5,0.5-4.9,0.8-6.4,1.1L325.4,125.8z
				 M347.4,122.7c3.3,3.7,5.3,7.2,6.8,11.9l-2.6,1.4c-1.2-4.8-3.4-8.9-6.6-12.1L347.4,122.7z"/>
			<path class="st0" d="M363.2,123.9c-0.4,1.5-1.1,4.8-1.6,9c0,0.4-0.1,0.4-0.1,0.8l0,0c0.4-0.5,0.7-0.7,1.1-1
				c2.2-1.6,5.7-2.6,9.4-2.6c5.2,0,8.7,2.6,8.7,6.6c0,2.3-1.2,4.5-3.1,5.9c-2,1.5-4.8,2.2-8.2,2.2c-2.9,0-4.5-0.3-8.3-1.2
				c0-0.1,0-0.3,0-0.4v-0.4c0-0.7,0-1.2-0.3-2.3c2.7,1.1,5.7,1.6,8.6,1.6c5,0,8.5-2.2,8.5-5.3c0-2.5-2.3-4.1-6.1-4.1
				c-3.3,0-6.6,1-8.9,2.7c-0.5,0.4-0.8,0.7-1.4,1.4l-3-0.1c0.1-0.5,0.1-0.8,0.3-1.9c0.3-2.5,0.8-5.5,1.4-9.1
				c0.1-0.8,0.1-1.2,0.3-1.8L363.2,123.9z M364.3,118c2.3,1.4,7.9,3.1,11.5,3.7l-1.1,2.7c-3.3-0.8-4.6-1.2-6.6-1.9
				c-2.3-0.8-2.3-0.8-5.2-2.2L364.3,118z"/>
		</g>
		<g>
			<path class="st0" d="M233.9,178.1c-1,3-1.6,4.5-3.1,6.7c-0.8-0.8-1.1-1-1.9-1.4c1.6-2,2.3-3.5,3-6.3L233.9,178.1z M232.5,176.5
				c-1.1,0-1.8,0-2.5,0.1c0-0.7,0.1-1.9,0.1-3.4v-13.4c0-1.5,0-2.5-0.1-3.4c0.8,0,1.5,0.1,2.6,0.1h3.4c1.1,0,1.8,0,2.6-0.1
				c0,0.7-0.1,1.2-0.1,3.1v13.8c0,1.9,0,2.6,0.1,3.3c-0.7,0-1.4-0.1-2.5-0.1H232.5z M232.3,162.4h4.1v-3.8h-4.1V162.4z M232.3,168.2
				h4.1v-3.8h-4.1V168.2z M232.3,174.4h4.1v-4.2h-4.1V174.4z M236.9,177.2c0.8,2.3,1.5,3.7,2.7,5.6c-0.7,0.3-1,0.5-1.9,1.4
				c-1.2-2.2-1.9-3.5-2.7-6L236.9,177.2z M242.4,167.5c-1.4,0-2,0-3,0.1v-2.2c0.8,0.1,1.5,0.1,3,0.1h1.9v-2.2h-1.1
				c-1.1,0-1.9,0-2.6,0.1v-2c0.8,0.1,1.2,0.1,2.6,0.1h1.1v-1.9h-1.8c-1.1,0-1.9,0-2.6,0.1v-2.2c0.8,0.1,1.4,0.1,2.7,0.1h1.6
				c0-1.2,0-1.8-0.1-2.5h2.5c-0.1,0.5-0.1,1.2-0.1,2.5h4.8c0-1.5,0-1.9-0.1-2.5h2.5c-0.1,0.7-0.1,1.4-0.1,2.5h2c1.2,0,2,0,2.6-0.1
				v2.2c-1-0.1-1.5-0.1-2.6-0.1h-2v1.9h1.5c1.2,0,1.8,0,2.6-0.1v2c-0.7-0.1-1.5-0.1-2.6-0.1h-1.5v2.2h2.2c1.5,0,2.2,0,2.9-0.1v2.2
				c-0.8-0.1-1.5-0.1-2.9-0.1H250v2h3.8c1.4,0,2.3,0,3.1-0.1c-0.1,0.5-0.1,1.6-0.1,3.1v5.2c1,0,1.4,0,1.9-0.1v2.2
				c-0.7-0.1-1-0.1-1.9-0.1v2.6c0,2.2-0.7,2.6-3.3,2.6c-1.2,0-1.9,0-3.1-0.1c0-1-0.1-1.5-0.4-2.2c1.2,0.1,2.3,0.3,3.3,0.3
				c1.1,0,1.4-0.1,1.4-0.8v-2.5h-11.1v1.9c0,2.2,0,2.7,0.1,3.7h-2.5c0.1-1.1,0.1-1.9,0.1-3.7v-1.9c-1,0-1.4,0-2,0.1v-2.2
				c0.7,0.1,1.1,0.1,2,0.1v-5c0-1.2,0-2-0.1-3.1c1,0,1.8,0.1,3.4,0.1h3.3v-2L242.4,167.5L242.4,167.5z M247.7,171.3h-4.4v2.2h4.4
				V171.3z M247.7,175.3h-4.4v2.3h4.4V175.3z M246.5,161.6h4.8v-1.9h-4.8V161.6z M246.5,165.6h4.8v-2.2h-4.8V165.6z M254.4,173.5
				v-2.2h-4.5v2.2H254.4z M254.4,177.6v-2.3h-4.5v2.3H254.4z"/>
			<path class="st0" d="M270.3,159.4c-0.7,0-1.6,0-2.7,0.1v-2.7c0.8,0.1,1.4,0.1,2.6,0.1h4.6c1.5,0,2.3,0,3-0.1
				c-0.1,0.8-0.1,1.5-0.1,2.2c0,4.2,1,8.2,3,11.9c1.2,2.5,2.9,4.5,5,6.7c1.8,1.8,3,2.7,5.7,4.4c-1,1-1.4,1.2-2.2,2.6
				c-3.8-2.7-6.6-5.3-9-9c-1.9-2.9-3.1-5.6-4-9.3c-1.1,4.4-2.5,7.4-4.6,10.4c-2.2,3.1-4.6,5.5-8.5,8.1c-0.5-1.1-1.1-1.6-2-2.5
				c3.3-2,5-3.5,7.4-6c2.5-2.9,4.2-6,5.2-9.6c0.7-2.3,1-4,1.1-7h-4.5V159.4z"/>
			<path class="st0" d="M298.5,159c-1.4,0-2.5,0-3.5,0.1v-2.7c1,0.1,2.2,0.1,3.5,0.1h21.8c1.4,0,2.6,0,3.5-0.1v2.7
				c-1-0.1-2.3-0.1-3.5-0.1h-0.4v22.8c0,2.5-0.8,2.9-4.4,2.9c-1.2,0-2.5,0-4.1-0.1c-0.1-1-0.3-1.8-0.7-2.6c1.9,0.3,3.7,0.4,5,0.4
				c1.2,0,1.5-0.1,1.5-1V159L298.5,159L298.5,159z M311.7,173.8c0,1.1,0,1.8,0.1,2.5c-0.7,0-1.9-0.1-2.9-0.1h-7.8v2.9h-2.7
				c0.1-1,0.1-1.8,0.1-2.7v-10.4c0-1.4,0-2-0.1-2.9c0.8,0.1,1.6,0.1,3,0.1h7.1c1.4,0,2.2,0,3.1-0.1c-0.1,0.8-0.1,1.5-0.1,2.7v8.1
				H311.7z M301.3,173.9h7.9v-8.3h-7.9V173.9z"/>
			<path class="st0" d="M327,161.6c0.4,0,1.2,0,1.5,0c0.1,0,0.1,0,1.1,0c1.5-2.5,2.6-4.8,3.1-6.8l2.7,0.7c-0.3,0.5-0.4,0.8-0.7,1.2
				c-0.3,0.8-1.8,3.4-2.6,4.8c2.5-0.1,4.1-0.3,6.3-0.5c-1-1.6-1.1-1.8-1.9-3l1.8-1c1.6,2,2.6,3.8,4.2,6.7l-2,1.2
				c-0.4-1-0.5-1.2-1-1.9c-2.6,0.4-7.8,1-10.2,1.1c-1,0-1.6,0.1-2,0.3L327,161.6z M329.2,168.7c0-1.2,0-2-0.1-3
				c0.8,0.1,1.4,0.1,2.6,0.1h6.1c1.4,0,2.2,0,3-0.1c0,0.7-0.1,1.5-0.1,2.2v13.9c0,2.2-0.7,2.6-4.1,2.6c-0.3,0-0.7,0-1.1,0
				c0-0.7-0.3-1.6-0.5-2.5c0.7,0.1,1.5,0.1,2.3,0.1s1.1-0.1,1.1-0.7v-3.8h-6.8v3.8c0,1.6,0,2.6,0.1,3.4h-2.7c0.1-1,0.1-1.8,0.1-3.4
				v-12.7H329.2z M331.5,170.6h6.7v-2.7h-6.7V170.6z M331.5,175.5h6.7v-2.7h-6.7V175.5z M345.8,160.3c3.1-0.8,6.4-2.5,8.3-4.1
				l1.6,2.2c-0.7,0.3-0.7,0.3-1.9,1c-2.3,1.2-4.8,2.2-8.1,3.3v2.7c0,1,0.3,1,3.1,1c3,0,3.8,0,4.2-0.4c0.5-0.3,0.7-1.1,0.8-4
				c0.8,0.4,1.5,0.7,2.3,0.8c-0.3,2.9-0.5,4.1-1.1,4.8c-0.5,0.7-1.9,0.8-6.1,0.8c-4.6,0-5.6-0.4-5.6-2.3v-7.8c0-1.2,0-2-0.1-2.9h2.7
				c-0.1,0.7-0.1,1.5-0.1,2.7v2.2H345.8z M345.8,174.7c3.4-0.8,6.3-2.2,8.5-4l1.8,2c-1.2,0.7-4.1,2-5.2,2.5c-1.8,0.7-3,1.1-5,1.6
				v3.5c0,0.7,0.3,0.8,1,1c0.7,0.1,1.4,0.1,2.9,0.1c2.5,0,3.4-0.1,3.8-0.7c0.3-0.4,0.5-1.9,0.7-4.1c0.7,0.4,1.5,0.7,2.3,1
				c-0.3,3.1-0.7,4.4-1.4,5.2c-0.8,0.8-1.9,1-5.6,1c-3.1,0-4.2-0.1-5-0.5c-0.8-0.4-1.1-1-1.1-2v-8.1c0-1.6,0-2.2-0.1-2.9h2.7
				c-0.1,0.7-0.1,1.2-0.1,2.9V174.7z"/>
		</g>
	</g>
	<g>
		<path class="st0" d="M457.6,190.9c0.5,0.1,0.8,0.1,1.5,0.1h1.1c0.6,0,1.1,0,1.7-0.1c-0.1,0.7-0.1,1.2-0.1,2.2v4.3
			c0.5,0.8,0.8,1.3,1.8,1.8c0.8,0.5,2.2,0.7,4.8,0.7c3.4,0,6.1-0.1,8.9-0.5c-0.2,0.6-0.5,1.2-0.6,1.9c-2.2,0.1-5,0.1-7.1,0.1
			c-4.1,0-5.6-0.2-6.9-0.9c-0.7-0.4-1.2-0.8-1.8-1.7c-0.7,0.8-0.8,0.9-1.4,1.5c-0.4,0.4-0.5,0.4-0.7,0.7c-0.2,0.2-0.4,0.2-0.6,0.5
			l-0.8-1.7c0.7-0.4,1.9-1.3,3-2.4v-5h-1.2c-0.6,0-0.9,0-1.4,0.1v-1.8H457.6z M458.9,182.8c1.4,1.3,2.4,2.4,3.5,3.8l-1.3,1.2
			c-1.1-1.5-2-2.6-3.4-3.9L458.9,182.8z M468.7,187.2c-0.7-0.6-1.8-1.2-2.6-1.7l1.2-0.8c1.1,0.6,1.5,0.9,2.8,1.9
			c1.3-0.7,1.9-1.2,3-2h-7.6c-0.9,0-1.5,0-2.1,0.1v-1.5c0.6,0.1,1.2,0.1,2.4,0.1h7.3c1.3,0,1.8,0,2.2-0.1l0.7,0.9
			c-0.2,0.1-0.4,0.2-0.6,0.4c-1.5,1.2-2.5,1.9-3.9,2.7h2.5c1.2,0,1.8,0,2.2-0.1c-0.1,0.6-0.1,1.3-0.1,2.6v6.9c0,1.5-0.4,1.9-2.2,1.9
			c-0.2,0-0.2,0-1.2,0c-0.1-0.6-0.1-0.9-0.4-1.4c0.7,0.1,1.1,0.1,1.8,0.1c0.4,0,0.5-0.1,0.5-0.6v-1.7h-4.1v1.2c0,1.2,0,1.8,0.1,2.4
			H469c0.1-0.6,0.1-1.3,0.1-2.4v-1.2h-3.7v1.4c0,1.2,0,1.8,0.1,2.2h-1.8c0.1-0.6,0.1-1.2,0.1-2.2v-6.9c0-1.3,0-1.8-0.1-2.5
			c0.6,0.1,1.3,0.1,2.4,0.1h2.6V187.2z M465.3,188.5v1.9h3.7v-1.9H465.3z M465.3,193.5h3.7v-1.9h-3.7V193.5z M470.5,190.3h4.1v-1.9
			h-4.1V190.3z M474.7,191.6h-4.1v1.9h4.1V191.6z"/>
		<path class="st0" d="M488,184.1c0-0.6,0-1.1-0.1-1.5h1.8c-0.1,0.5-0.1,0.9-0.1,1.5v1.5h2c0.7-0.9,1.2-1.7,1.8-2.7l1.5,0.6
			c-0.7,1.2-0.9,1.5-1.5,2.1h2.2c1.2,0,1.8,0,2.4-0.1c-0.1,0.6-0.1,1.1-0.1,2v1.2c0,0.5,0,0.9,0.1,1.3h-1.7v-3h-14.5v2.8h-1.7
			c0.1-0.5,0.1-0.9,0.1-1.4v-1.2c0-0.7,0-1.2-0.1-1.8c0.6,0.1,1.2,0.1,2.1,0.1h2.1c-0.5-0.8-0.9-1.4-1.7-2.2l1.5-0.5
			c0.8,1.1,1.3,1.7,1.9,2.7h1.9V184.1z M485.3,193c-0.8,0-1.4,0-1.9,0.1c0.1-0.5,0.1-0.7,0.1-1.8v-1.4c0-0.7,0-1.2-0.1-1.7
			c0.6,0.1,1.3,0.1,2,0.1h7.4c0.8,0,1.4,0,2-0.1c0,0.5-0.1,0.9-0.1,1.7v1.3c0,1.1,0,1.4,0.1,1.8c-0.6-0.1-1.3-0.1-2.1-0.1h-3.1v1.7
			h4.8c1.1,0,1.7,0,2-0.1c-0.1,0.5-0.1,1.1-0.1,1.9v2.8c0,1.3-0.5,1.7-2.2,1.7c-0.6,0-0.9,0-2-0.1c-0.1-0.7-0.1-0.9-0.4-1.5
			c0.8,0.1,1.7,0.1,2.1,0.1c0.7,0,0.9-0.1,0.9-0.5v-2.8h-5.3v3.7c0,0.9,0,1.5,0.1,2.2H488c0.1-0.7,0.1-1.3,0.1-2.2v-3.7h-4.8v2.8
			c0,1.1,0,1.7,0.1,2.1h-1.8c0.1-0.6,0.1-1.3,0.1-2.1v-2.5c0-0.7,0-1.3-0.1-1.8c0.6,0.1,1.2,0.1,2,0.1h4.6V193H485.3z M484.9,189.7
			v2h8.3v-2H484.9z"/>
		<path class="st0" d="M504.5,197.8c-0.7,1.9-1.2,2.7-2.2,4c-0.4-0.5-0.7-0.7-1.3-1.1c1.2-1.2,1.5-1.9,2.2-3.5L504.5,197.8z
			 M503.6,196.7c-0.9,0-1.3,0-1.7,0.1c0-0.6,0.1-1.3,0.1-2v-9.5c0-0.7,0-1.4-0.1-1.9c0.6,0,1.1,0.1,1.9,0.1h2.5c1.1,0,1.3,0,1.8-0.1
			c-0.1,0.5-0.1,0.7-0.1,1.8v9.7c0,0.9,0,1.4,0.1,1.9c-0.6,0-0.9-0.1-1.7-0.1H503.6z M503.5,187.3h3.1v-2.6h-3.1V187.3z
			 M503.5,191.2h3.1v-2.6h-3.1V191.2z M503.5,195.2h3.1v-2.7h-3.1V195.2z M506.6,197.1c0.6,1.3,0.9,1.9,1.4,2.7
			c-0.6,0.4-0.8,0.6-1.2,0.9c-0.6-0.8-0.8-1.4-1.5-3.1L506.6,197.1z M511.4,190c-0.2,6.1-0.8,9.1-2.6,11.8c-0.5-0.6-0.7-0.7-1.3-1.2
			c1.8-2.5,2.4-5.7,2.4-14.7c0-1.2,0-1.8-0.1-2.6c0.7,0.1,1.4,0.1,2.2,0.1h6.1c0.9,0,1.7,0,2.1-0.1v1.8c-0.6-0.1-1.2-0.1-2.1-0.1
			h-6.9v3.5h5.9c0.8,0,1.4,0,1.8-0.1l0.8,0.9c-0.1,0.4-0.1,0.4-0.6,1.7c-0.8,2.4-1.7,4.1-2.7,5.7c1.2,1.4,2.5,2.5,4.3,3.3
			c-0.5,0.5-0.7,0.9-1.1,1.5c-1.9-1.2-3.1-2.1-4.3-3.5c-1.4,1.7-2.6,2.6-4.5,3.8c-0.4-0.6-0.7-0.9-1.2-1.3c2.1-1.1,3.3-2,4.7-3.7
			c-1.3-2-2-4-2.6-6.9L511.4,190L511.4,190z M513.6,190c0.4,2.1,1.1,3.8,2.1,5.6c1.1-1.7,1.7-3.1,2.4-5.6H513.6z"/>
		<path class="st0" d="M530.9,193.5c-0.1,0.4-0.1,0.5-0.1,0.9c-0.1,0.9-0.4,2.2-0.7,3c-0.6,1.3-1.4,2.2-2.7,3.1
			c-0.9,0.6-1.7,0.9-3.3,1.4c-0.4-0.7-0.6-1.1-1.1-1.7c1.4-0.2,2-0.5,2.8-0.9c1.2-0.7,2.2-1.5,2.7-2.4c0.4-0.7,0.6-1.8,0.6-2.6v-0.1
			V194c0-0.1,0-0.5-0.1-0.7L530.9,193.5z M531.5,184.4c0-0.8,0-1.3-0.1-1.9h1.9c-0.1,0.5-0.1,0.9-0.1,1.9v0.4h6.3
			c1.1,0,1.9,0,2.4-0.1v1.7c-0.6-0.1-1.4-0.1-2.4-0.1h-6.3v2h4.8c1.2,0,1.7,0,2.2-0.1v1.7c-0.7-0.1-1.2-0.1-2.2-0.1h-11.1
			c-1.1,0-1.5,0-2.2,0.1V188c0.6,0.1,1.1,0.1,2.2,0.1h4.6v-2h-5.8c-1.1,0-1.7,0-2.4,0.1v-1.7c0.5,0.1,1.3,0.1,2.5,0.1h5.8v-0.4
			H531.5z M523.4,195.3c0.1-0.5,0.1-0.8,0.1-1.5v-1.3c0-0.6,0-0.9-0.1-1.4c0.7,0.1,1.2,0.1,2.1,0.1h13.8c0.9,0,1.5,0,2.2-0.1
			c-0.1,0.5-0.1,0.8-0.1,1.4v1.3c0,0.6,0,1.1,0.1,1.5h-1.8v-2.7h-14.7v2.7H523.4z M535.2,199.1c0,0.6,0.2,0.7,2,0.7
			c1.9,0,2.4-0.1,2.7-0.5c0.2-0.4,0.4-1.2,0.5-2.8c0.5,0.2,0.9,0.5,1.7,0.6c-0.1,1.9-0.5,3-0.9,3.4c-0.5,0.5-1.4,0.7-3.9,0.7
			c-3.1,0-3.7-0.2-3.7-1.7V195c0-0.9,0-1.3-0.1-1.8h1.9c-0.1,0.5-0.1,0.8-0.1,1.7L535.2,199.1L535.2,199.1z"/>
		<path class="st0" d="M437.8,232.9c-1.4,0-1.8,0-2.5,0.1c0.2-1.7,0.2-2,0.6-2.7c0.6-1.4,1.4-2.6,2.8-3.8c0.7-0.6,1.2-0.9,3.3-2.4
			c2-1.4,2.7-2.2,2.7-3.5c0-1.5-1.3-2.5-3.3-2.5c-1.4,0-2.4,0.5-3,1.3c-0.4,0.6-0.6,1.1-0.7,2.1l-2.1-0.4c0.4-1.5,0.7-2.4,1.4-3.2
			c0.9-1.2,2.5-1.7,4.5-1.7c3.3,0,5.4,1.7,5.4,4.3c0,0.9-0.4,2-0.9,2.7c-0.7,0.8-1.2,1.3-3.7,2.8c-2.8,1.9-3.9,3.1-4.5,5h6.6
			c1.2,0,2,0,2.7-0.1v2c-0.9-0.1-1.7-0.1-2.8-0.1H437.8z"/>
		<path class="st0" d="M451.5,218.4c0-0.8,0-1.5-0.1-2.1c0.7,0.1,1.3,0.1,2.4,0.1h9.7c0.9,0,1.7,0,2.2-0.1c-0.1,0.6-0.1,1.2-0.1,2
			v13.6c0,1.1,0,1.7,0.1,2.4h-1.9v-1.4h-10.6v1.4h-1.8c0.1-0.7,0.1-1.4,0.1-2.4V218.4z M453.3,223.6h10.6v-5.7h-10.6V223.6z
			 M453.3,231.3h10.6v-6.1h-10.6V231.3z"/>
		<path class="st0" d="M476,218.2c-0.6-1.1-1.1-1.7-2.1-2.8l1.5-0.6c1.4,1.8,1.5,2,2.4,3.3h3c0.9-1.1,1.5-1.9,2.2-3.3l1.7,0.6
			c-0.7,1.2-1.5,2.1-2.1,2.7h4c0.9,0,1.5,0,2.1-0.1v1.7c-0.7-0.1-1.2-0.1-2.1-0.1h-14.5c-0.9,0-1.5,0-2.1,0.1v-1.7
			c0.7,0.1,0.7,0.1,2.1,0.1h4V218.2z M472.9,232.1c0,1.2,0,1.7,0.1,2.2h-1.8c0.1-0.6,0.1-1.3,0.1-2.4v-9c0-1.1,0-1.4-0.1-1.9
			c0.7,0.1,1.2,0.1,2,0.1h3.5c1.2,0,1.4,0,1.9-0.1c0,0.5-0.1,1.1-0.1,2.2v9.1c0,1.4-0.5,1.8-1.9,1.8c-0.5,0-1.1,0-1.7-0.1
			c-0.1-0.7-0.1-0.9-0.4-1.5c0.7,0.1,1.3,0.2,1.8,0.2c0.6,0,0.7-0.1,0.7-0.6v-2.6h-4.4v2.5H472.9z M477.3,224.8v-2.1h-4.4v2.1H477.3
			z M477.3,228.3v-2.1h-4.4v2.1H477.3z M483.1,221.5c-0.1,0.5-0.1,0.9-0.1,2v4.4c0,1.5,0,1.8,0.1,2.4h-1.8c0.1-0.6,0.1-0.9,0.1-2.4
			v-4.4c0-1.1,0-1.4-0.1-2H483.1z M487.5,220.9c-0.1,0.6-0.1,1.2-0.1,2.2v9.1c0,1.7-0.5,2-2.4,2c-0.6,0-1.4,0-2.5-0.1
			c-0.1-0.6-0.2-1.1-0.5-1.7c1.2,0.2,2,0.2,2.7,0.2c0.8,0,0.9-0.1,0.9-0.7v-9.1c0-1.3,0-1.7-0.1-2.2h1.9V220.9z"/>
		<path class="st0" d="M503.9,230.3c2.1-1.2,3.3-3.2,3.3-5.7c0-2.4-1.2-4.1-3.2-5.2c-0.7-0.4-1.3-0.5-2.4-0.6
			c-0.4,3.1-1.2,6.3-2.1,8.5c-1.2,2.8-2.5,4-4.1,4c-2.1,0-3.8-2.2-3.8-5.4c0-2.2,0.8-4.4,2.2-5.9c1.8-1.9,4.1-2.8,7-2.8
			c4.8,0,8,3,8,7.4c0,3.3-1.7,5.9-4.6,7.3c-1.1,0.5-1.9,0.7-3.5,1.1c-0.2-0.8-0.5-1.2-0.9-1.8C501.9,231.2,502.8,230.9,503.9,230.3z
			 M496.9,219.9c-2,1.3-3.3,3.7-3.3,6.1c0,1.9,0.8,3.4,2,3.4c0.8,0,1.7-0.9,2.5-3c0.8-2,1.7-5,1.9-7.7
			C498.7,219.1,497.7,219.4,496.9,219.9z"/>
		<path class="st0" d="M514,231.6c-0.6-0.6-1.1-1.3-1.3-2c-0.6-1.5-0.8-3.2-0.8-4.8c0-2.2,0.5-4.6,1.3-5.8c1.1-1.8,2.7-2.7,5-2.7
			c1.7,0,3.1,0.6,4,1.5c0.6,0.6,1.1,1.3,1.3,2c0.6,1.5,0.8,3.2,0.8,5c0,2.6-0.6,4.8-1.5,6.1c-1.1,1.5-2.7,2.2-4.7,2.2
			C516.4,233.2,515.1,232.7,514,231.6z M515.4,219c-0.5,0.5-0.7,1.1-0.9,1.5c-0.4,1.2-0.6,2.6-0.6,4.1c0,1.9,0.4,3.9,0.9,5
			c0.7,1.2,1.8,1.8,3.2,1.8c1.1,0,1.9-0.4,2.5-0.9c0.5-0.5,0.8-1.1,0.9-1.7c0.5-1.3,0.6-2.6,0.6-4.1c0-1.8-0.4-3.9-0.9-4.8
			c-0.7-1.3-1.8-1.9-3.3-1.9C517,217.9,516.2,218.3,515.4,219z"/>
		<path class="st0" d="M532.2,221.4h-2.4V219h2.4V221.4z M529.8,230.7v-2.4h2.4v2.4H529.8z"/>
		<path class="st0" d="M539.8,231.6c-0.6-0.6-1.1-1.3-1.3-2c-0.6-1.5-0.8-3.2-0.8-4.8c0-2.2,0.5-4.6,1.3-5.8c1.1-1.8,2.7-2.7,5-2.7
			c1.7,0,3.1,0.6,4,1.5c0.6,0.6,1.1,1.3,1.3,2c0.6,1.5,0.8,3.2,0.8,5c0,2.6-0.6,4.8-1.5,6.1c-1.1,1.5-2.7,2.2-4.7,2.2
			C542.2,233.2,540.9,232.7,539.8,231.6z M541.3,219c-0.5,0.5-0.7,1.1-0.9,1.5c-0.4,1.2-0.6,2.6-0.6,4.1c0,1.9,0.4,3.9,0.9,5
			c0.7,1.2,1.8,1.8,3.2,1.8c1.1,0,1.9-0.4,2.5-0.9c0.5-0.5,0.8-1.1,0.9-1.7c0.5-1.3,0.6-2.6,0.6-4.1c0-1.8-0.4-3.9-0.9-4.8
			c-0.7-1.3-1.8-1.9-3.3-1.9C542.8,217.9,541.9,218.3,541.3,219z"/>
		<path class="st0" d="M554.6,231.6c-0.6-0.6-1.1-1.3-1.3-2c-0.6-1.5-0.8-3.2-0.8-4.8c0-2.2,0.5-4.6,1.3-5.8c1.1-1.8,2.7-2.7,5-2.7
			c1.7,0,3.1,0.6,4,1.5c0.6,0.6,1.1,1.3,1.3,2c0.6,1.5,0.8,3.2,0.8,5c0,2.6-0.6,4.8-1.5,6.1c-1.1,1.5-2.7,2.2-4.7,2.2
			C556.9,233.2,555.6,232.7,554.6,231.6z M556,219c-0.5,0.5-0.7,1.1-0.9,1.5c-0.4,1.2-0.6,2.6-0.6,4.1c0,1.9,0.4,3.9,0.9,5
			c0.7,1.2,1.8,1.8,3.2,1.8c1.1,0,1.9-0.4,2.5-0.9c0.5-0.5,0.8-1.1,0.9-1.7c0.5-1.3,0.6-2.6,0.6-4.1c0-1.8-0.4-3.9-0.9-4.8
			c-0.7-1.3-1.8-1.9-3.3-1.9C557.5,217.9,556.7,218.3,556,219z"/>
	</g>
	<g>
		<path class="st0" d="M54.2,182.6c1.1,1.5,1.9,2.5,3.5,3.8c1.9,1.4,3.8,2.5,5.8,3.3c-0.5,0.6-0.7,1.1-0.9,1.7c-2-0.9-4-2.2-5.8-3.5
			c-1.4-1.2-2.5-2.2-3.4-3.5c-0.9,1.4-1.9,2.2-3.3,3.4c-1.9,1.5-3.5,2.6-5.7,3.5c-0.2-0.6-0.6-1.1-0.9-1.5c2.1-0.9,3.8-1.9,5.6-3.3
			c1.4-1.2,2.5-2.2,3.4-3.8L54.2,182.6L54.2,182.6z M46.9,194.6c-1.1,0-1.8,0-2.5,0.1V193c0.7,0.1,1.4,0.1,2.5,0.1H60
			c1.1,0,1.8,0,2.5-0.1v1.8c-0.6-0.1-1.4-0.1-2.5-0.1h-7.6c-0.9,2.1-1.5,3.2-2.5,4.8c2-0.1,5.1-0.4,7.8-0.7
			c-1.1-1.2-1.4-1.7-2.5-2.5l1.4-0.7c2.4,2.2,3.7,3.8,5.1,5.7l-1.4,1.1c-0.7-1.1-0.9-1.4-1.4-2c-3.5,0.5-7.3,0.8-10.5,1.1
			c-2.1,0.1-2.8,0.2-3.3,0.4l-0.2-1.9c0.4,0,0.8,0.1,1.1,0.1c0.4,0,0.4,0,2.1-0.1c1.2-1.8,1.8-3.1,2.6-4.8h-3.8V194.6z M48.2,189.1
			c0.5,0.1,0.9,0.1,1.8,0.1h7c0.8,0,1.3,0,1.8-0.1v1.7c-0.5-0.1-1.1-0.1-1.8-0.1h-7c-0.6,0-1.2,0-1.7,0.1v-1.7H48.2z"/>
		<path class="st0" d="M69.7,198.3c-1.1,0-1.7,0-2.4,0.1c0.1-0.5,0.1-0.5,0.1-2.2v-5.1c0-1.1,0-1.8-0.1-2.2c0.7,0.1,1.3,0.1,2.4,0.1
			h10.9c1.1,0,1.7,0,2.4-0.1c-0.1,0.5-0.1,1.2-0.1,2.2v5.1v1.2v0.4c0,0.1,0,0.4,0.1,0.7c-0.7-0.1-1.3-0.1-2.4-0.1h-2
			c1.7,1.2,3.8,1.9,6.4,2.4c-0.5,0.5-0.8,0.9-1.1,1.4c-3.3-0.8-4.5-1.4-6.6-2.8l1.2-0.9h-6.9l1.3,0.9c-1.2,0.8-2,1.2-3.3,1.8
			c-0.8,0.4-1.3,0.5-3.3,1.1c-0.4-0.7-0.5-0.9-1.1-1.5c2.5-0.4,4.8-1.2,6.3-2.4h-1.8V198.3z M82.1,186.1c0,0.6,0,1.1,0.1,1.5
			c-0.7,0-1.4-0.1-2.4-0.1h-9.3c-0.9,0-1.7,0-2.4,0.1c0.1-0.6,0.1-0.9,0.1-1.5v-1.4c0-0.6,0-0.9-0.1-1.5c0.7,0.1,1.2,0.1,2.4,0.1
			h9.2c1.2,0,1.8,0,2.4-0.1c-0.1,0.6-0.1,0.9-0.1,1.5v1.4H82.1z M69,191.6h12.3v-1.4H69V191.6z M69,194.3h12.3v-1.4H69V194.3z
			 M69,197h12.3v-1.5H69V197z M69.8,184.6v1.8h10.6v-1.8H69.8z"/>
		<path class="st0" d="M88.2,184.8c0-0.6,0-1.1-0.1-1.7c0.4,0,0.7,0.1,1.4,0.1h3.1c0.7,0,1.2,0,1.4-0.1l0.8,1.1
			c-0.1,0.4-0.1,0.4-0.7,1.7c-0.5,1.2-1.1,2.4-1.9,3.9c1.2,1.4,1.7,2.2,1.9,3.4c0.1,0.6,0.2,1.1,0.2,1.7c0,1.2-0.5,1.9-1.2,2.1
			c-0.5,0.1-1.1,0.2-1.8,0.2c-0.2,0-0.5,0-0.8,0c0-0.7-0.1-1.1-0.4-1.7c0.5,0.1,0.9,0.1,1.3,0.1c0.9,0,1.2-0.2,1.2-1.1
			c0-0.7-0.1-1.5-0.5-2.2c-0.4-0.8-0.7-1.4-1.8-2.5c1.2-2.1,1.4-2.8,2.4-5.2h-3.3v15.1c0,0.8,0,1.4,0.1,2.1h-1.8
			c0.1-0.6,0.1-1.2,0.1-2.1v-15H88.2z M97.1,192.4v6.9c1.9-0.5,2.5-0.6,3.8-1.1l0.1,1.5c-2.2,0.7-3.5,1.1-6.7,1.8
			c-0.5,0.1-0.7,0.2-0.9,0.4l-0.4-1.7c0.6,0,1.4-0.1,2.7-0.5v-14.1c0-0.8,0-1.5-0.1-2.2c0.6,0.1,1.1,0.1,2,0.1h5.7
			c1.1,0,1.5,0,2-0.1c0,0.6-0.1,1.1-0.1,2.4v4.6c0,1.3,0,1.7,0.1,2.2c-0.6,0-1.2-0.1-2-0.1h-2.7c0.4,1.4,0.6,2,1.2,3.1
			c1.5-0.9,3-2.2,3.4-2.8l1.2,1.2c0,0-0.5,0.4-1.3,1.1c-0.7,0.6-1.7,1.2-2.6,1.9c1.1,1.5,2.5,2.6,4.5,3.5c-0.5,0.5-0.7,0.7-1.1,1.4
			c-2.4-1.4-3.7-2.6-5-4.5c-0.9-1.4-1.4-2.7-2-4.8h-1.8V192.4z M97.1,187.2h6.6v-2.4h-6.6V187.2z M97.1,191.1h6.6v-2.5h-6.6V191.1z"
			/>
		<path class="st0" d="M118.3,190.1h-3.5c-0.9,0-1.5,0-2.1,0.1v-1.7c0.6,0.1,1.2,0.1,2.1,0.1h8.6c0.9,0,1.5,0,2.1-0.1v1.7
			c-0.6-0.1-1.2-0.1-2.1-0.1h-3.4v3.3h4c0.9,0,1.5,0,2-0.1v1.7c-0.6-0.1-1.2-0.1-2-0.1h-4v4.4c1.1,0.1,2,0.2,3.4,0.2
			c1.7,0,3.1-0.1,5-0.2c-0.2,0.6-0.4,0.9-0.5,1.8c-1.7,0.1-2.1,0.1-4.1,0.1c-5.2,0-8.2-1.2-9.7-4c-0.8,1.9-1.7,3.1-3.2,4.6
			c-0.5-0.6-0.6-0.7-1.3-1.2c1.4-1.4,2.1-2.2,2.8-3.7c0.7-1.4,1.3-3.8,1.3-4.8v-0.1l1.8,0.4c-0.1,0.4-0.1,0.4-0.2,1.2
			c0,0.4-0.4,1.4-0.6,2.1c0.9,1.8,1.9,2.7,3.8,3.4v-8.9H118.3z M118,184c0-0.5,0-0.8-0.1-1.3h1.9c-0.1,0.5-0.1,0.8-0.1,1.3v0.9h6
			c0.8,0,1.4,0,2.2-0.1c-0.1,0.5-0.1,0.9-0.1,1.4v1.4c0,0.6,0,1.1,0.1,1.5h-1.7v-2.8h-14.5v2.8h-1.7c0.1-0.5,0.1-0.8,0.1-1.5v-1.4
			c0-0.6,0-1.1-0.1-1.4c0.7,0.1,1.4,0.1,2.2,0.1h5.7C118,184.9,118,184,118,184z"/>
		<path class="st0" d="M14.3,228.7c0.4,1.1,0.6,1.5,1.2,1.9c0.7,0.6,1.7,0.8,2.7,0.8c2.4,0,3.9-1.2,3.9-3.2s-1.4-3.1-4.1-3.1
			c-0.6,0-1.2,0-1.8,0.1v-2c0.5,0.1,1.1,0.1,1.7,0.1c1.4,0,2.4-0.4,3-0.9c0.5-0.5,0.8-1.2,0.8-2c0-1.7-1.2-2.7-3.3-2.7
			c-1.3,0-2.1,0.4-2.7,1.1c-0.4,0.4-0.5,0.7-0.7,1.4l-2.1-0.5c0.4-1.2,0.7-1.7,1.3-2.2c0.9-1.1,2.5-1.5,4.4-1.5
			c3.2,0,5.2,1.7,5.2,4.3c0,1.3-0.6,2.5-1.5,3.1c-0.6,0.4-0.9,0.6-2,0.7c1.4,0.2,2.2,0.6,3.1,1.3c0.7,0.7,1.1,1.7,1.1,3
			c0,1.2-0.5,2.2-1.2,3.1c-1.1,1.1-2.7,1.7-4.7,1.7c-2.2,0-3.9-0.6-5-1.8c-0.5-0.6-0.7-1.1-1.2-2.1L14.3,228.7z"/>
		<path class="st0" d="M29.1,218.4c0-0.8,0-1.5-0.1-2.1c0.7,0.1,1.3,0.1,2.4,0.1h9.7c0.9,0,1.7,0,2.2-0.1c-0.1,0.6-0.1,1.2-0.1,2
			v13.6c0,1.1,0,1.7,0.1,2.4h-1.9v-1.4H30.8v1.4h-1.9c0.1-0.7,0.1-1.4,0.1-2.4v-13.5H29.1z M30.8,223.6h10.6v-5.7H30.8V223.6z
			 M30.8,231.3h10.6v-6.1H30.8V231.3z"/>
		<path class="st0" d="M54.1,218.2c-0.6-1.1-1.1-1.7-2.1-2.8l1.5-0.6c1.4,1.8,1.5,2,2.4,3.3h3c0.9-1.1,1.5-1.9,2.2-3.3l1.7,0.6
			c-0.7,1.2-1.5,2.1-2.1,2.7h4c0.9,0,1.5,0,2.1-0.1v1.7c-0.7-0.1-1.2-0.1-2.1-0.1H50.2c-0.9,0-1.5,0-2.1,0.1v-1.7
			c0.7,0.1,0.7,0.1,2.1,0.1h3.9V218.2z M50.9,232.1c0,1.2,0,1.7,0.1,2.2h-1.8c0.1-0.6,0.1-1.3,0.1-2.4v-9c0-1.1,0-1.4-0.1-1.9
			c0.7,0.1,1.2,0.1,2,0.1h3.5c1.2,0,1.4,0,1.9-0.1c0,0.5-0.1,1.1-0.1,2.2v9.1c0,1.4-0.5,1.8-1.9,1.8c-0.5,0-1.1,0-1.7-0.1
			c-0.1-0.7-0.1-0.9-0.4-1.5c0.7,0.1,1.3,0.2,1.8,0.2c0.6,0,0.7-0.1,0.7-0.6v-2.6h-4.4v2.5H50.9z M55.2,224.8v-2.1h-4.4v2.1H55.2z
			 M55.2,228.3v-2.1h-4.4v2.1H55.2z M61,221.5c-0.1,0.5-0.1,0.9-0.1,2v4.4c0,1.5,0,1.8,0.1,2.4h-1.8c0.1-0.6,0.1-0.9,0.1-2.4v-4.4
			c0-1.1,0-1.4-0.1-2H61z M65.5,220.9c-0.1,0.6-0.1,1.2-0.1,2.2v9.1c0,1.7-0.5,2-2.4,2c-0.6,0-1.4,0-2.5-0.1
			c-0.1-0.6-0.2-1.1-0.5-1.7c1.2,0.2,2,0.2,2.7,0.2c0.8,0,0.9-0.1,0.9-0.7v-9.1c0-1.3,0-1.7-0.1-2.2h1.9V220.9z"/>
		<path class="st0" d="M82.3,230.3c2.1-1.2,3.3-3.2,3.3-5.7c0-2.4-1.2-4.1-3.2-5.2c-0.7-0.4-1.3-0.5-2.4-0.6
			c-0.4,3.1-1.2,6.3-2.1,8.5c-1.2,2.8-2.5,4-4.1,4c-2.1,0-3.8-2.2-3.8-5.4c0-2.2,0.8-4.4,2.2-5.9c1.8-1.9,4.1-2.8,7-2.8
			c4.8,0,8,3,8,7.4c0,3.3-1.7,5.9-4.6,7.3c-1.1,0.5-1.9,0.7-3.5,1.1c-0.2-0.8-0.5-1.2-0.9-1.8C80.2,231.2,81.3,230.9,82.3,230.3z
			 M75.2,219.9c-2,1.3-3.3,3.7-3.3,6.1c0,1.9,0.8,3.4,2,3.4c0.8,0,1.7-0.9,2.5-3s1.7-5,1.9-7.7C77.1,219.1,76.2,219.4,75.2,219.9z"
			/>
		<path class="st0" d="M93.4,232.9c-1.4,0-1.8,0-2.5,0.1c0.2-1.7,0.2-2,0.6-2.7c0.6-1.4,1.4-2.6,2.8-3.8c0.7-0.6,1.2-0.9,3.3-2.4
			c2-1.4,2.7-2.2,2.7-3.5c0-1.5-1.3-2.5-3.3-2.5c-1.4,0-2.4,0.5-3,1.3c-0.4,0.6-0.6,1.1-0.7,2.1l-2.1-0.4c0.4-1.5,0.7-2.4,1.4-3.2
			c0.9-1.2,2.5-1.7,4.5-1.7c3.3,0,5.4,1.7,5.4,4.3c0,0.9-0.4,2-0.9,2.7c-0.7,0.8-1.2,1.3-3.7,2.8c-2.8,1.9-3.9,3.1-4.5,5h6.6
			c1.2,0,2,0,2.7-0.1v2c-0.9-0.1-1.7-0.1-2.8-0.1H93.4z"/>
		<path class="st0" d="M108.3,216.4c0.6,0.1,1.1,0.1,1.9,0.1h1.5c0.8,0,1.2,0,1.9-0.1c-0.1,1.3-0.2,2.4-0.2,3.5v10.5
			c0,1.1,0,1.7,0.1,2.5h-2.4c0.1-0.8,0.1-1.5,0.1-2.5v-12.2h-1.1c-0.7,0-1.3,0-2,0.1v-2H108.3z"/>
		<path class="st0" d="M126.7,221.4h-2.4V219h2.4V221.4z M124.3,230.7v-2.4h2.4v2.4H124.3z"/>
		<path class="st0" d="M134.7,231.6c-0.6-0.6-1.1-1.3-1.3-2c-0.6-1.5-0.8-3.2-0.8-4.8c0-2.2,0.5-4.6,1.3-5.8c1.1-1.8,2.7-2.7,5-2.7
			c1.7,0,3.1,0.6,4,1.5c0.6,0.6,1.1,1.3,1.3,2c0.6,1.5,0.8,3.2,0.8,5c0,2.6-0.6,4.8-1.5,6.1c-1.1,1.5-2.7,2.2-4.7,2.2
			C137.1,233.2,135.8,232.7,134.7,231.6z M136.1,219c-0.5,0.5-0.7,1.1-0.9,1.5c-0.4,1.2-0.6,2.6-0.6,4.1c0,1.9,0.4,3.9,0.9,5
			c0.7,1.2,1.8,1.8,3.2,1.8c1.1,0,1.9-0.4,2.5-0.9c0.5-0.5,0.8-1.1,0.9-1.7c0.5-1.3,0.6-2.6,0.6-4.1c0-1.8-0.4-3.9-0.9-4.8
			c-0.7-1.3-1.8-1.9-3.3-1.9C137.7,217.9,136.8,218.3,136.1,219z"/>
		<path class="st0" d="M149.8,231.6c-0.6-0.6-1.1-1.3-1.3-2c-0.6-1.5-0.8-3.2-0.8-4.8c0-2.2,0.5-4.6,1.3-5.8c1.1-1.8,2.7-2.7,5-2.7
			c1.7,0,3.1,0.6,4,1.5c0.6,0.6,1.1,1.3,1.3,2c0.6,1.5,0.8,3.2,0.8,5c0,2.6-0.6,4.8-1.5,6.1c-1.1,1.5-2.7,2.2-4.7,2.2
			C152.3,233.2,150.9,232.7,149.8,231.6z M151.4,219c-0.5,0.5-0.7,1.1-0.9,1.5c-0.4,1.2-0.6,2.6-0.6,4.1c0,1.9,0.4,3.9,0.9,5
			c0.7,1.2,1.8,1.8,3.2,1.8c1.1,0,1.9-0.4,2.5-0.9c0.5-0.5,0.8-1.1,0.9-1.7c0.5-1.3,0.6-2.6,0.6-4.1c0-1.8-0.4-3.9-0.9-4.8
			c-0.7-1.3-1.8-1.9-3.3-1.9C152.8,217.9,152,218.3,151.4,219z"/>
	</g>
</g>
<polygon class="st0" points="372,94.3 203.1,94.3 246.5,50.3 253.6,57.4 227,84.3 372,84.3 "/>
</svg>
