<?xml version="1.0" encoding="utf-8"?>
<!-- Generator: Adobe Illustrator 26.0.1, SVG Export Plug-In . SVG Version: 6.00 Build 0)  -->
<svg version="1.1" id="レイヤー_1" xmlns="http://www.w3.org/2000/svg" xmlns:xlink="http://www.w3.org/1999/xlink" x="0px"
	 y="0px" width="593.5px" height="261.5px" viewBox="0 0 593.5 261.5" style="enable-background:new 0 0 593.5 261.5;"
	 xml:space="preserve">
<style type="text/css">
	.st0{fill:#7CB3E5;}
	.st1{fill:#79ACDA;}
</style>
<g>
	<g id="app_x5F_tutorial">
	</g>
	<g>
		<polygon class="st0" points="368.8,150.1 220.4,150.1 220.4,140.1 343.6,140.1 320.8,118.6 327.7,111.4 		"/>
	</g>
	<g>
		<path class="st0" d="M153.7,0H47.5C33.4,0,22,11.4,22,25.5V236c0,14.1,11.4,25.5,25.5,25.5h106.2c14.1,0,25.5-11.4,25.5-25.5V25.5
			C179.2,11.4,167.7,0,153.7,0z M169.2,236c0,8.5-6.9,15.5-15.5,15.5H47.5C39,251.5,32,244.6,32,236V25.5C32,16.9,38.9,10,47.5,10
			h27.6c0.2,4.2,3.7,7.6,8,7.6h37.5c4.3,0,7.8-3.4,8-7.6h25.1c8.5,0,15.5,6.9,15.5,15.5V236z"/>
	</g>
	<path class="st0" d="M519.7,251.5H437c-8.5,0-15.5-6.9-15.5-15.5V25.5c0-8.6,6.9-15.5,15.5-15.5h27.6c0.2,4.2,3.7,7.6,8,7.6h37.5
		c4.3,0,7.8-3.4,8-7.6h25.1c8.5,0,15.5,6.9,15.5,15.5v170.8c0.7,0,1.3,0,2,0c2.7,0,5.4,0.3,8,0.8V25.5c0-14.1-11.5-25.5-25.5-25.5
		H437c-14.1,0-25.5,11.4-25.5,25.5V236c0,14.1,11.4,25.5,25.5,25.5h87.2C522.3,258.4,520.8,255.1,519.7,251.5z"/>
	<path class="st1" d="M556.8,208.8c-14.3,0-25.8,11.6-25.8,25.8c0,14.3,11.6,25.8,25.8,25.8c14.3,0,25.8-11.6,25.8-25.8
		C582.6,220.3,571.1,208.8,556.8,208.8z M551.7,245.5l-12-10.7l4.7-5.2l7.5,6.7l16.5-13.7l4.5,5.4L551.7,245.5z"/>
</g>
<g>
	<rect x="52.7" y="53.9" class="st1" width="14.4" height="10"/>
	<rect x="52.7" y="92.3" class="st1" width="14.4" height="10"/>
	<rect x="52.7" y="130.6" class="st1" width="14.4" height="10"/>
	<rect x="52.7" y="168.9" class="st1" width="14.4" height="10"/>
	<rect x="52.7" y="207.3" class="st1" width="14.4" height="10"/>
</g>
<g>
	<rect x="440.4" y="53.9" class="st1" width="14.4" height="10"/>
	<rect x="440.4" y="92.3" class="st1" width="14.4" height="10"/>
	<rect x="440.4" y="130.6" class="st1" width="14.4" height="10"/>
	<rect x="440.4" y="168.9" class="st1" width="14.4" height="10"/>
	<rect x="440.4" y="207.3" class="st1" width="14.4" height="10"/>
</g>
<g>
	<rect x="466.4" y="53.9" class="st1" width="72.1" height="10"/>
	<rect x="466.4" y="92.3" class="st1" width="72.1" height="10"/>
	<rect x="466.4" y="130.6" class="st1" width="72.1" height="10"/>
	<rect x="466.4" y="168.9" class="st1" width="72.1" height="10"/>
	<rect x="466.4" y="207.3" class="st1" width="56" height="10"/>
</g>
</svg>
