<?xml version="1.0" encoding="utf-8"?>
<!-- Generator: Adobe Illustrator 26.0.1, SVG Export Plug-In . SVG Version: 6.00 Build 0)  -->
<svg version="1.1" id="レイヤー_21" xmlns="http://www.w3.org/2000/svg" xmlns:xlink="http://www.w3.org/1999/xlink" x="0px"
	 y="0px" width="377.4px" height="197.4px" viewBox="0 0 377.4 197.4" style="enable-background:new 0 0 377.4 197.4;"
	 xml:space="preserve">
<style type="text/css">
	.st0{fill:#7CB3E5;}
</style>
<g>
	<g>
		<path class="st0" d="M40.6,110.3c-10.6,0-19.2-8.6-19.2-19.2S30,71.9,40.6,71.9s19.2,8.6,19.2,19.2S51.2,110.3,40.6,110.3z
			 M40.6,76.9c-7.8,0-14.2,6.4-14.2,14.2s6.4,14.2,14.2,14.2c7.8,0,14.2-6.4,14.2-14.2S48.4,76.9,40.6,76.9z"/>
		<path class="st0" d="M74.7,172H6.5v-26.3c0-13.9,11.3-25.2,25.2-25.2h17.9c13.8,0,25.1,11.3,25.1,25.2V172z M11.5,167h58.2v-21.3
			c0-11.1-9-20.2-20.1-20.2H31.7c-11.1,0-20.2,9.1-20.2,20.2V167z"/>
	</g>
	<g>
		<g>
			<path class="st0" d="M345.2,36.4c-10,0-18.2-8.2-18.2-18.2c0-10,8.2-18.2,18.2-18.2s18.2,8.2,18.2,18.2
				C363.4,28.2,355.3,36.4,345.2,36.4z M345.2,5C338,5,332,10.9,332,18.2c0,7.3,5.9,13.2,13.2,13.2s13.2-5.9,13.2-13.2
				C358.4,10.9,352.5,5,345.2,5z"/>
			<path class="st0" d="M377.4,90.4H313V66.9c0-13.9,11.3-25.2,25.2-25.2h14c13.9,0,25.2,11.3,25.2,25.2V90.4z M318,85.4h54.4V66.9
				c0-11.1-9.1-20.2-20.2-20.2h-14c-11.1,0-20.2,9.1-20.2,20.2V85.4z"/>
		</g>
		<g>
			<path class="st0" d="M345.2,143.4c-10,0-18.2-8.2-18.2-18.2s8.2-18.2,18.2-18.2s18.2,8.2,18.2,18.2S355.3,143.4,345.2,143.4z
				 M345.2,112c-7.3,0-13.2,5.9-13.2,13.2s5.9,13.2,13.2,13.2s13.2-5.9,13.2-13.2S352.5,112,345.2,112z"/>
			<path class="st0" d="M377.4,197.4H313v-23.5c0-13.9,11.3-25.2,25.2-25.2h14c13.9,0,25.2,11.3,25.2,25.2V197.4z M318,192.4h54.4
				v-18.5c0-11.1-9.1-20.2-20.2-20.2h-14c-11.1,0-20.2,9.1-20.2,20.2V192.4z"/>
		</g>
	</g>
	<polygon class="st0" points="5.2,43.1 0,43.1 0,9.2 58.8,9.2 58.8,14.9 53.8,14.9 53.8,14.2 5,14.2 5,38.1 5.2,38.1 	"/>
	<polygon class="st0" points="15.2,51.4 8.4,51.4 8.4,17.5 67.2,17.5 67.2,25.2 62.2,25.2 62.2,22.5 13.4,22.5 13.4,46.4 15.2,46.4 
			"/>
	<path class="st0" d="M75.5,60H16.7V26.1h58.8V60z M21.7,55h48.8V31.1H21.7V55z"/>
	<polygon class="st0" points="156.4,152.1 125.9,152.1 125.9,42 156.4,42 156.4,47 130.9,47 130.9,147.1 156.4,147.1 	"/>
	<rect x="84.4" y="94.6" class="st0" width="43.1" height="5"/>
	<polygon class="st0" points="281,167 277.5,163.4 291.5,149.4 277.5,135.5 281,131.9 298.6,149.4 	"/>
	<polygon class="st0" points="281,61.3 277.5,57.7 291.5,43.7 277.5,29.7 281,26.1 298.6,43.7 	"/>
	<g>
		<g>
			<path class="st0" d="M189.9,141.6c0.7,0.1,1.2,0.1,2.2,0.1h1.8c1,0,1.4,0,2.3-0.1c-0.2,1.5-0.2,2.8-0.2,4.2v12.4
				c0,1.2,0.1,2,0.2,3h-2.8c0.2-0.9,0.2-1.8,0.2-3v-14.4h-1.3c-0.9,0-1.5,0.1-2.3,0.2v-2.4H189.9z"/>
			<path class="st0" d="M203.9,161.1c0.2-1,0.2-1.7,0.2-3v-13.6c0-1.1-0.1-1.9-0.2-3c0.9,0.1,1.7,0.1,2.9,0.1h5.2
				c4.1,0,6.3,2.1,6.3,5.7c0,3.9-2.4,6.1-6.5,6.1h-5.4v4.8c0,1.3,0.1,2.1,0.2,3h-2.7V161.1z M211.9,151.3c2.6,0,4-1.4,4-3.9
				c0-2.4-1.4-3.7-4-3.7h-5.4v7.6L211.9,151.3L211.9,151.3z"/>
		</g>
		<path class="st0" d="M201.9,182.4c-3.6,0-7.2-0.6-10.6-1.8l1.7-4.7c2.9,1,5.9,1.6,9,1.6c14.8,0,26.8-12,26.8-26.8
			s-12-26.8-26.8-26.8s-26.8,12-26.8,26.8c0,2.7,0.4,5.2,1.1,7.6l-4.8,1.5c-0.9-2.8-1.3-5.9-1.3-9c0-17.5,14.3-31.8,31.8-31.8
			s31.8,14.3,31.8,31.8S219.5,182.4,201.9,182.4z"/>
		<rect x="172.4" y="167.5" class="st0" width="14.7" height="5"/>
		<rect x="177.3" y="162.7" class="st0" width="5" height="14.7"/>
	</g>
	<g>
		<g>
			<path class="st0" d="M190,35.6c0.7,0.1,1.2,0.1,2.2,0.1h1.8c1,0,1.4,0,2.3-0.1c-0.2,1.5-0.2,2.8-0.2,4.2v12.4c0,1.2,0.1,2,0.2,3
				h-2.9c0.2-0.9,0.2-1.8,0.2-3V37.9h-1.3c-0.9,0-1.5,0.1-2.3,0.2L190,35.6L190,35.6z"/>
			<path class="st0" d="M204,55.2c0.2-1,0.2-1.7,0.2-3V38.5c0-1.1-0.1-1.9-0.2-3c0.9,0.1,1.7,0.1,2.9,0.1h5.2c4.1,0,6.3,2.1,6.3,5.7
				c0,3.9-2.4,6.1-6.5,6.1h-5.4v4.8c0,1.3,0.1,2.1,0.2,3C206.7,55.2,204,55.2,204,55.2z M211.9,45.3c2.6,0,4-1.4,4-3.9
				c0-2.4-1.4-3.7-4-3.7h-5.4v7.6C206.5,45.3,211.9,45.3,211.9,45.3z"/>
		</g>
		<path class="st0" d="M201.9,76.4c-3.6,0-7.2-0.6-10.6-1.8l1.7-4.7c2.9,1,5.9,1.6,9,1.6c14.8,0,26.8-12,26.8-26.8
			s-12-26.8-26.8-26.8s-26.8,12-26.8,26.8c0,2.7,0.4,5.2,1.1,7.6l-4.8,1.5c-0.9-2.8-1.3-5.9-1.3-9c0-17.5,14.3-31.8,31.8-31.8
			s31.8,14.3,31.8,31.8S219.5,76.4,201.9,76.4z"/>
		<rect x="172.5" y="61.6" class="st0" width="14.6" height="5"/>
		<rect x="177.3" y="56.7" class="st0" width="5" height="14.7"/>
	</g>
	<rect x="248.7" y="41.3" class="st0" width="46.5" height="5"/>
	<rect x="248.7" y="146.8" class="st0" width="46.5" height="5"/>
	<g>
		<g>
			<rect x="31.5" y="33.8" class="st0" width="3" height="3.5"/>
			<rect x="31.5" y="41.5" class="st0" width="3" height="4.2"/>
			<rect x="31.5" y="50" class="st0" width="3" height="3.5"/>
		</g>
	</g>
</g>
</svg>
