<?xml version="1.0" encoding="utf-8"?>
<!-- Generator: Adobe Illustrator 24.1.0, SVG Export Plug-In . SVG Version: 6.00 Build 0)  -->
<svg version="1.1" id="レイヤー_1" xmlns="http://www.w3.org/2000/svg" xmlns:xlink="http://www.w3.org/1999/xlink" x="0px"
	 y="0px" width="564.2px" height="374.3px" viewBox="0 0 564.2 374.3" style="enable-background:new 0 0 564.2 374.3;"
	 xml:space="preserve">
<style type="text/css">
	.st0{fill:#7CB3E5;}
</style>
<g id="app_x5F_tutorial">
</g>
<g>
	<g>
		<polygon class="st0" points="507.4,199.7 291.1,199.7 291.1,189.7 497.4,189.7 497.4,78.2 10,78.2 10,189.7 191.2,189.7 
			191.2,199.7 0,199.7 0,68.2 507.4,68.2 		"/>
	</g>
	<g>
		
			<rect x="491.9" y="16.8" transform="matrix(0.1789 -0.9839 0.9839 0.1789 399.8576 522.7888)" class="st0" width="42.6" height="10"/>
	</g>
	<g>
		<rect x="520.6" y="45.7" transform="matrix(0.9798 -0.2 0.2 0.9798 0.8189 109.439)" class="st0" width="43" height="10"/>
	</g>
	<g>
		<path class="st0" d="M213.6,145.6c-1.2,4-2.2,6-4.2,8.8c-1.1-1.1-1.5-1.3-2.5-1.8c2.1-2.7,3-4.7,4-8.3L213.6,145.6z M211.9,143.5
			c-1.5,0-2.3,0-3.3,0.1c0.1-0.9,0.1-2.6,0.1-4.5v-17.6c0-2,0-3.2-0.2-4.5c1,0.1,1.9,0.1,3.5,0.1h4.5c1.5,0,2.4,0,3.3-0.1
			c-0.1,0.9-0.1,1.6-0.1,4.2v18.1c0,2.5,0,3.4,0.1,4.3c-0.9-0.1-1.8-0.1-3.2-0.1H211.9z M211.5,124.9h5.4v-5h-5.4V124.9z
			 M211.5,132.5h5.4v-5h-5.4V132.5z M211.5,140.7h5.4v-5.5h-5.4V140.7z M217.5,144.4c1,3,1.9,4.8,3.6,7.4c-0.8,0.4-1.3,0.8-2.4,1.8
			c-1.7-2.9-2.5-4.7-3.7-7.9L217.5,144.4z M224.8,131.6c-1.8,0-2.7,0-3.9,0.2v-2.9c1.1,0.2,2.1,0.2,3.9,0.2h2.5v-2.8h-1.4
			c-1.5,0-2.5,0-3.4,0.2v-2.7c1.1,0.1,1.7,0.2,3.4,0.2h1.4v-2.6H225c-1.5,0-2.5,0-3.5,0.2v-2.8c1.1,0.2,1.9,0.2,3.6,0.2h2.2
			c0-1.7,0-2.4-0.3-3.3h3.3c-0.2,0.8-0.3,1.6-0.3,3.3h6.2c0-2,0-2.5-0.3-3.3h3.3c-0.2,1-0.3,1.8-0.3,3.3h2.8c1.7,0,2.6,0,3.5-0.2
			v2.8c-1.2-0.1-2-0.2-3.5-0.2H239v2.6h1.9c1.6,0,2.4,0,3.4-0.2v2.7c-0.9-0.1-2-0.2-3.4-0.2H239v2.8h2.9c1.9,0,2.9,0,3.8-0.2v2.9
			c-1.1-0.2-2-0.2-3.8-0.2h-7.4v2.6h5c1.7,0,3,0,4.1-0.2c-0.1,0.7-0.2,2.2-0.2,4.1v6.8c1.3,0,1.7-0.1,2.5-0.2v2.9
			c-0.8-0.1-1.2-0.1-2.5-0.2v3.4c0,2.8-0.8,3.5-4.3,3.5c-1.5,0-2.5,0-4.1-0.1c-0.1-1.2-0.3-1.9-0.6-2.9c1.6,0.2,3.1,0.3,4.2,0.3
			c1.4,0,1.8-0.2,1.8-1.1v-3.2h-14.4v2.5c0,2.9,0,3.6,0.2,4.9h-3.3c0.2-1.4,0.2-2.6,0.2-4.9v-2.5c-1.3,0-1.7,0.1-2.7,0.2v-2.9
			c0.9,0.1,1.5,0.2,2.7,0.2v-6.7c0-1.6,0-2.7-0.2-4.1c1.2,0.1,2.2,0.1,4.5,0.1h4.3v-2.6H224.8z M231.8,136.6h-5.7v2.9h5.7V136.6z
			 M231.8,141.9h-5.7v3h5.7V141.9z M230,123.9h6.2v-2.6H230V123.9z M230,129.1h6.2v-2.8H230V129.1z M240.5,139.5v-2.9h-6v2.9H240.5z
			 M240.5,144.9v-3h-6v3H240.5z"/>
		<path class="st0" d="M271.2,121c-0.9,0-2.1,0.1-3.5,0.2v-3.7c1,0.2,1.8,0.2,3.5,0.2h6c2.1,0,3.1,0,4-0.2c-0.1,1-0.2,1.8-0.2,2.8
			c0,5.6,1.3,10.7,4,15.6c1.7,3.2,3.8,6,6.6,8.7c2.4,2.4,4,3.6,7.6,5.8c-1.3,1.1-1.7,1.6-2.8,3.3c-5.1-3.6-8.6-7.1-11.8-11.9
			c-2.5-3.9-4-7.4-5.2-12.2c-1.4,5.7-3.2,9.7-6.1,13.7c-2.9,4-6.1,7.1-11.1,10.4c-0.8-1.4-1.4-2.1-2.7-3.1c4.3-2.6,6.7-4.6,9.6-8
			c3.2-3.7,5.5-7.9,6.8-12.6c0.9-3,1.2-5.2,1.4-9.2H271.2z"/>
	</g>
	<g>
		<path class="st0" d="M276.9,374.3c-17.1,0-33.1-6.6-44.9-18.5c-2.3-1.8-4.9-4.1-7.2-6.9c-8-10.1-15.2-21.2-21.2-33.2
			c-6.2-12.5-11.8-25.4-17.2-37.9c-2.1-4.9-4.3-10-6.5-15c-0.9-2.1-2-4.8-2.4-7.9c-0.7-4.4,0.4-8.6,3.1-11.9
			c3.1-3.7,7.9-5.8,13.3-5.8c10.1,0,14.1,6.7,18,13.1l0.7,1.2c2.4,4,4.7,8.6,6.9,13c0.5,1,1,2,1.5,3c0-5,0-10.1,0-15.1
			c0-27.5,0-55.9,0.3-83.9c0-5.8,4-13.1,9.1-16.4c5-3.2,13.5-1.9,18.1,1.1c4.9,3.2,6.9,10.7,7,15c0.3,11.2,0.3,22.5,0.2,33.3
			c0,4,0,8-0.1,12c3-1.3,6.7-2,11.6-2c7.2,0,11.9,5,14.4,11.6c3.6-2.1,7.8-3.1,13.1-3.1c7.4,0,12.9,4.6,15.6,12.8
			c0.1,0,0.1-0.1,0.2-0.1c6-4.7,13.6-4.1,18.2-2.2c5.3,2.1,9.6,9.6,9.8,15l0,0.1c0.5,24,0.9,48.9,0,73.7c-0.2,6-1.4,11.7-3.8,16.8
			C325.9,359,302.7,374.3,276.9,374.3z M193.9,247.2c-2.4,0-4.5,0.8-5.7,2.2c-0.9,1-1.2,2.3-0.9,3.9l0,0.2c0.2,1.5,0.7,3.1,1.7,5.4
			c2.2,5,4.4,10.1,6.5,15c5.4,12.4,10.9,25.2,16.9,37.4c5.7,11.3,12.5,21.9,20.1,31.4c1.8,2.2,3.9,4,5.9,5.6l0.4,0.4
			c10,10.1,23.5,15.7,38,15.7c21.7,0,41.2-12.8,48.6-31.9l0.1-0.3c1.9-4,2.8-8.3,3-13.1c0.9-24.6,0.5-49.2,0-73.1
			c-0.1-2.1-2.4-5.6-3.5-6.1l-0.1-0.1c-2.3-1-5.8-1.1-8.4,0.9c-1.5,1.1-1.5,1.1-5.6,6l-8.1,9.5l-0.7-12.5
			c-0.2-3.2-1.2-13.6-7.4-13.6c-6.9,0-9.6,2-12,5.7l-8.3,12.7l-0.8-15.2c-0.2-3.3-1.7-11.7-6.3-11.7c-7.6,0-9.6,1.7-12.5,5.9
			l-9.1,13.1v-25.9c0-4.4,0-8.8,0.1-13.2c0.1-10.8,0.1-21.9-0.2-32.9c-0.1-3.2-1.8-6.5-2.6-7c-2-1.3-6.1-1.6-7.1-1
			c-2.2,1.4-4.5,5.5-4.5,8c-0.4,28-0.3,56.4-0.3,83.8c0,7,0,14,0,21c0,2.7,0,6.8-0.2,9.6l-0.2,3.9l-3.8,0.8
			c-1.8,0.4-3.2-0.2-4.2-0.7l-1.7,0.3l-1.8-2.9c-0.4-0.6-0.8-1.2-1.2-1.8c-0.8-1.1-1.6-2.3-2.3-3.6l-0.1-0.1c-1.7-3.1-3.4-6.5-5-9.8
			c-2.1-4.2-4.3-8.6-6.5-12.3l-0.8-1.3C199.6,249.3,198.1,247.2,193.9,247.2z"/>
	</g>
</g>
</svg>
