<?xml version="1.0" encoding="utf-8"?>
<!-- Generator: Adobe Illustrator 24.0.3, SVG Export Plug-In . SVG Version: 6.00 Build 0)  -->
<svg version="1.1" id="レイヤー_1" xmlns="http://www.w3.org/2000/svg" xmlns:xlink="http://www.w3.org/1999/xlink" x="0px"
	 y="0px" width="80px" height="80px" viewBox="0 0 80 80" style="enable-background:new 0 0 80 80;" xml:space="preserve">
<style type="text/css">
	.st0{fill:#FFFFFF;}
</style>
<g id="グループ_48" transform="translate(0.5 0.5)">
	<g id="グループ_40" transform="translate(0 16.188)">
		<g id="グループ_39" transform="translate(0 0)">
			<path class="st0" d="M78.5,61.4h-3V43.9H53.9c-0.9,5.5-6.3,9.8-12.7,9.8c-6.1,0.3-11.3-4-12.4-9.8H3.5v17.4h-3V40.9h30.9l0.1,1.4
				c0.4,5,4.6,8.7,9.6,8.5c5.3,0,9.9-3.9,9.9-8.3V41h27.5V61.4z"/>
		</g>
	</g>
	<g id="グループ_47" transform="translate(4.157)">
		<g id="グループ_41" transform="translate(0)">
			<polygon class="st0" points="62.4,58.9 59.4,58.9 59.4,4.6 48.5,4.6 48.5,13.7 39.4,4.6 11.3,4.6 11.3,58.9 8.3,58.9 8.3,1.6 
				40.6,1.6 45.5,6.5 45.5,1.6 62.4,1.6 			"/>
		</g>
		<g id="グループ_46" transform="translate(2.177 9.189)">
			<g id="グループ_42">
				<rect x="13.9" y="18.8" class="st0" width="6.3" height="3"/>
			</g>
			<g id="グループ_43" transform="translate(3.758)">
				<rect x="20.9" y="18.8" class="st0" width="6.3" height="3"/>
			</g>
			<g id="グループ_44" transform="translate(7.516)">
				<rect x="27.9" y="18.8" class="st0" width="6.3" height="3"/>
			</g>
			<g id="グループ_45" transform="translate(11.273)">
				<rect x="35" y="18.8" class="st0" width="6.3" height="3"/>
			</g>
		</g>
	</g>
</g>
</svg>
