<?xml version="1.0" encoding="utf-8"?>
<!-- Generator: Adobe Illustrator 24.0.3, SVG Export Plug-In . SVG Version: 6.00 Build 0)  -->
<svg version="1.1" id="レイヤー_1" xmlns="http://www.w3.org/2000/svg" xmlns:xlink="http://www.w3.org/1999/xlink" x="0px"
	 y="0px" width="80px" height="80px" viewBox="0 0 80 80" style="enable-background:new 0 0 80 80;" xml:space="preserve">
<style type="text/css">
	.st0{fill:#FFFFFF;}
</style>
<g id="グループ_62" transform="translate(0.5 0.5)">
	<path class="st0" d="M39.7,41.4c-9.9,0-17.9-9.2-17.9-20.5s8-20.5,17.9-20.5S57.6,9.7,57.6,21S49.6,41.4,39.7,41.4z M39.7,3.5
		c-8.2,0-14.9,7.8-14.9,17.5c0,9.6,6.7,17.5,14.9,17.5S54.6,30.6,54.6,21C54.6,11.3,47.9,3.5,39.7,3.5z"/>
	<path class="st0" d="M78.6,78.7h-3c0-17.5-13.1-27.6-35.9-27.6S3.8,61.2,3.8,78.7h-3c0-19.2,14.5-30.6,38.9-30.6
		C64,48.1,78.6,59.5,78.6,78.7z"/>
</g>
</svg>
