<?xml version="1.0" encoding="utf-8"?>
<!-- Generator: Adobe Illustrator 24.0.3, SVG Export Plug-In . SVG Version: 6.00 Build 0)  -->
<svg version="1.1" id="レイヤー_1" xmlns="http://www.w3.org/2000/svg" xmlns:xlink="http://www.w3.org/1999/xlink" x="0px"
	 y="0px" width="80px" height="80px" viewBox="0 0 80 80" style="enable-background:new 0 0 80 80;" xml:space="preserve">
<style type="text/css">
	.st0{fill:#FFFFFF;}
</style>
<g id="icon" transform="translate(0.5 0.5)">
	<g id="グループ_36" transform="translate(3.982 5.445)">
		<g id="グループ_30">
			<path class="st0" d="M74.1,64.1H6.7V38.4L9.1,36H6.7V24h67.4V64.1z M9.7,61.1h61.4V27H9.7v6h6.5l-6.5,6.6
				C9.7,39.6,9.7,61.1,9.7,61.1z"/>
		</g>
		<g id="グループ_35" transform="translate(6.638 1.136)">
			<g id="グループ_31" transform="translate(0 10.008)">
				<rect x="17" y="42.8" class="st0" width="3" height="5.8"/>
			</g>
			<g id="グループ_32" transform="translate(0 6.672)">
				<rect x="17" y="37.6" class="st0" width="3" height="5.8"/>
			</g>
			<g id="グループ_33" transform="translate(0 3.336)">
				<rect x="17" y="32.5" class="st0" width="3" height="5.8"/>
			</g>
			<g id="グループ_34">
				<rect x="17" y="27.3" class="st0" width="3" height="5.8"/>
			</g>
		</g>
	</g>
	<g id="グループ_38">
		<g id="グループ_37">
			<polygon class="st0" points="7,47.5 0.6,47.5 0.6,26 2.9,23.6 0.6,23.6 0.6,11.6 68,11.6 68,25.8 65,25.8 65,14.6 3.6,14.6 
				3.6,20.6 10.1,20.6 3.6,27.2 3.6,44.5 7,44.5 			"/>
		</g>
	</g>
</g>
</svg>
