<?xml version="1.0" encoding="utf-8"?>
<!-- Generator: Adobe Illustrator 24.0.3, SVG Export Plug-In . SVG Version: 6.00 Build 0)  -->
<svg version="1.1" id="レイヤー_1" xmlns="http://www.w3.org/2000/svg" xmlns:xlink="http://www.w3.org/1999/xlink" x="0px"
	 y="0px" width="80px" height="80px" viewBox="0 0 80 80" style="enable-background:new 0 0 80 80;" xml:space="preserve">
<style type="text/css">
	.st0{fill:#5D5E5E;}
</style>
<g id="icon" transform="translate(0 0.796)">
	<path class="st0" d="M5.6,56.6c-2.7-5.4-4.2-11.4-4.2-17.5c0-10.3,4-20,11.3-27.4s17-11.3,27.4-11.3c6.1,0,12.1,1.4,17.5,4.2
		L55.4,9c-4.7-2.4-9.9-3.6-15.2-3.6c0,0,0,0-0.1,0c-9,0-17.5,3.5-23.8,9.9C10,21.6,6.5,30.1,6.5,39.1c0,5.3,1.2,10.5,3.6,15.2
		L5.6,56.6z"/>
	<path class="st0" d="M40.1,77.8c-6,0-12-1.4-17.4-4.2l2.3-4.5c4.7,2.4,10,3.6,15.2,3.6c18.6,0,33.7-15.1,33.7-33.7
		c0-5.3-1.2-10.5-3.6-15.2l4.5-2.3c2.7,5.4,4.2,11.4,4.2,17.5C78.8,60.4,61.5,77.8,40.1,77.8C40.1,77.8,40.1,77.8,40.1,77.8z"/>
	<path id="パス_177" class="st0" d="M12.5,47.1l0.6,13.2l-12.6-4L12.5,47.1z"/>
	<path id="パス_178" class="st0" d="M67,29.6l-0.2-13.2l12.5,4.3L67,29.6z"/>
</g>
</svg>
