<?xml version="1.0" encoding="utf-8"?>
<!-- Generator: Adobe Illustrator 24.1.0, SVG Export Plug-In . SVG Version: 6.00 Build 0)  -->
<svg version="1.1" id="レイヤー_1" xmlns="http://www.w3.org/2000/svg" xmlns:xlink="http://www.w3.org/1999/xlink" x="0px"
	 y="0px" width="659.1px" height="386px" viewBox="0 0 659.1 386" style="enable-background:new 0 0 659.1 386;"
	 xml:space="preserve">
<style type="text/css">
	.st0{fill:#7CB3E5;}
</style>
<g id="app_x5F_tutorial">
</g>
<g>
	<g>
		<polygon class="st0" points="557.8,200.2 342.5,200.2 342.5,192.2 549.8,192.2 549.8,78.7 60.3,78.7 60.3,192.2 242.6,192.2 
			242.6,200.2 52.3,200.2 52.3,70.7 557.8,70.7 		"/>
		
			<rect x="543.1" y="19.3" transform="matrix(0.1788 -0.9839 0.9839 0.1788 440.5952 574.4258)" class="st0" width="42.6" height="8"/>
		<rect x="571.9" y="48.2" transform="matrix(0.9798 -0.1999 0.1999 0.9798 1.5376 119.6703)" class="st0" width="43" height="8"/>
		<g>
			<path class="st0" d="M259.7,146.5c-1.4,4.5-2.4,6.8-4.7,10c-1.3-1.2-1.7-1.5-2.8-2.1c2.3-3.1,3.4-5.3,4.5-9.4L259.7,146.5z
				 M257.7,144.1c-1.7,0-2.6,0-3.8,0.1c0.1-1,0.1-2.9,0.1-5.1v-20c0-2.3,0-3.6-0.2-5.1c1.1,0.1,2.2,0.1,4,0.1h5.1
				c1.7,0,2.7,0,3.8-0.1c-0.1,1-0.1,1.8-0.1,4.7v20.6c0,2.8,0,3.9,0.1,4.8c-1-0.1-2-0.1-3.7-0.1h-5.3V144.1z M257.3,123h6.2v-5.6
				h-6.2V123z M257.3,131.7h6.2V126h-6.2V131.7z M257.3,140.9h6.2v-6.2h-6.2V140.9z M264,145.1c1.1,3.4,2.2,5.5,4.1,8.4
				c-0.9,0.5-1.5,0.9-2.7,2c-1.9-3.2-2.8-5.3-4.2-9L264,145.1z M272.3,130.6c-2.1,0-3.1,0-4.4,0.2v-3.3c1.3,0.2,2.3,0.2,4.4,0.2h2.8
				v-3.2h-1.5c-1.7,0-2.8,0-3.9,0.2v-3.1c1.2,0.1,1.9,0.2,3.9,0.2h1.5V119h-2.5c-1.7,0-2.8,0-4,0.2V116c1.2,0.2,2.1,0.2,4.1,0.2h2.4
				c0-1.9,0-2.7-0.3-3.7h3.8c-0.2,0.9-0.3,1.8-0.3,3.7h7c0-2.3,0-2.8-0.3-3.7h3.8c-0.2,1.1-0.3,2-0.3,3.7h3.1c1.9,0,2.9,0,3.9-0.2
				v3.2c-1.4-0.1-2.2-0.2-3.9-0.2h-3.1v2.9h2.1c1.8,0,2.7,0,3.8-0.2v3.1c-1-0.1-2.3-0.2-3.8-0.2h-2.1v3.2h3.3c2.1,0,3.2,0,4.3-0.2
				v3.3c-1.2-0.2-2.2-0.2-4.3-0.2h-8.4v3h5.7c1.9,0,3.4,0,4.7-0.2c-0.1,0.8-0.2,2.5-0.2,4.6v7.7c1.5,0,1.9-0.1,2.8-0.2v3.2
				c-0.9-0.1-1.3-0.1-2.8-0.2v3.8c0,3.2-0.9,4-4.8,4c-1.7,0-2.8,0-4.6-0.1c-0.1-1.4-0.3-2.2-0.6-3.2c1.8,0.2,3.5,0.3,4.8,0.3
				c1.6,0,2-0.2,2-1.2v-3.6H274v2.8c0,3.3,0,4.1,0.2,5.6h-3.8c0.2-1.5,0.2-2.9,0.2-5.6v-2.8c-1.5,0-1.9,0.1-3.1,0.2v-3.3
				c1,0.1,1.7,0.2,3.1,0.2v-7.6c0-1.8,0-3-0.2-4.7c1.4,0.1,2.5,0.1,5.1,0.1h4.8v-3L272.3,130.6L272.3,130.6z M280.2,136.3h-6.4v3.3
				h6.4V136.3z M280.2,142.2h-6.4v3.4h6.4V142.2z M278.3,121.9h7V119h-7V121.9z M278.3,127.8h7v-3.2h-7V127.8z M290.2,139.6v-3.3
				h-6.8v3.3H290.2z M290.2,145.7v-3.4h-6.8v3.4H290.2z"/>
			<path class="st0" d="M325,118.6c-1,0-2.3,0.1-4,0.2v-4.2c1.1,0.2,2,0.2,3.9,0.2h6.8c2.3,0,3.5,0,4.5-0.2
				c-0.1,1.1-0.2,2.1-0.2,3.1c0,6.3,1.4,12.1,4.5,17.7c1.9,3.6,4.3,6.8,7.5,9.9c2.7,2.7,4.5,4.1,8.6,6.6c-1.5,1.3-1.9,1.8-3.1,3.8
				c-5.8-4-9.7-8-13.3-13.4c-2.9-4.4-4.6-8.4-5.9-13.8c-1.6,6.5-3.6,11-6.9,15.5s-7,8.1-12.5,11.8c-0.9-1.5-1.6-2.4-3-3.5
				c4.9-3,7.6-5.2,10.9-9.1c3.6-4.2,6.3-9,7.8-14.2c1-3.4,1.4-5.9,1.6-10.5L325,118.6L325,118.6z"/>
		</g>
	</g>
	<path class="st0" d="M328.3,382.8c-16.9,0-32.6-6.5-44.3-18.2c-2.2-1.8-4.8-4-7.1-6.8c-8-10-15.1-21.1-21.1-33
		c-6.2-12.5-11.8-25.3-17.1-37.8c-2.1-4.9-4.3-10-6.5-15c-0.9-2-1.9-4.7-2.3-7.7c-0.7-4.1,0.3-8.1,2.9-11.1
		c2.9-3.5,7.5-5.4,12.6-5.4c9.5,0,13.4,6.4,17.1,12.6l0.7,1.2c2.4,4,4.7,8.5,6.9,12.9c1.1,2.2,2.3,4.5,3.4,6.7c0-6.4,0-12.8,0-19.2
		c0-27.5,0-55.9,0.3-83.9c0-5.5,3.8-12.4,8.6-15.6c4.7-2.9,12.7-1.8,17,1.1c4.1,2.7,6.4,9.2,6.6,14.2c0.3,11.2,0.3,22.4,0.2,33.3
		c0,4.4-0.1,8.8-0.1,13.1v0.5c3.1-1.7,7-2.7,12.6-2.7c7.1,0,11.7,5.3,13.8,12.1c3.6-2.4,8-3.5,13.6-3.5c7.3,0,12.7,4.9,15.1,13.5
		c0.4-0.3,0.8-0.6,1.3-1c5.7-4.4,12.8-3.9,17.2-2.1c5,2,9,9,9.2,14.1v0.1c0.5,24,0.9,48.8,0,73.6c-0.2,5.9-1.4,11.4-3.7,16.5
		C376.4,367.7,353.6,382.8,328.3,382.8z M245.2,255.7c-2.7,0-5.1,1-6.4,2.6c-1.1,1.3-1.4,2.8-1.1,4.7v0.2c0.2,1.6,0.7,3.3,1.7,5.6
		c2.2,5,4.4,10.1,6.5,15c5.4,12.4,10.9,25.2,17,37.4c5.8,11.4,12.6,22,20.2,31.6c1.8,2.3,4.1,4.2,6,5.7l0.4,0.3
		c10.2,10.3,23.9,16,38.7,16c22.1,0,42-13.1,49.5-32.5l0.1-0.2c1.9-4.1,2.9-8.5,3-13.5c0.9-24.6,0.5-49.3,0-73.2
		c-0.1-2.4-2.6-6.4-4.1-6.9h-0.1c-2.4-1-6.3-1.3-9.4,1c-1.6,1.2-1.6,1.2-5.8,6.1l-6.5,7.6l-0.5-10c-0.2-3.4-1.3-14.5-8.4-14.5
		c-7.3,0-10.3,2.2-12.8,6.1l-6.7,10.2l-0.7-12.1c0-0.1-0.8-12.7-7.3-12.7c-8,0-10.3,2-13.3,6.4l-7.3,10.5v-22.7
		c0-4.4,0-8.8,0.1-13.2c0.1-10.8,0.1-21.9-0.2-32.9c-0.1-3.3-1.8-7-3-7.8c-2.4-1.6-7-1.8-8.2-1c-2.5,1.6-5,6-5,8.9
		c-0.4,28-0.3,56.4-0.3,83.8c0,7,0,14,0,20.9c0,2.7,0,6.8-0.2,9.5l-0.2,3.1l-3,0.6c-1.7,0.3-3-0.3-3.8-0.8l-1.4,0.3l-1.5-2.3
		c-0.4-0.6-0.8-1.2-1.2-1.8c-0.8-1.1-1.5-2.3-2.3-3.6c-1.7-3.1-3.4-6.5-5.1-9.8c-2.1-4.3-4.3-8.7-6.5-12.3l-0.8-1.3
		C251.7,258.2,250,255.7,245.2,255.7z"/>
</g>
</svg>
