<?xml version="1.0" encoding="utf-8"?>
<!-- Generator: Adobe Illustrator 21.1.0, SVG Export Plug-In . SVG Version: 6.00 Build 0)  -->
<svg version="1.1" id="レイヤー_1" xmlns="http://www.w3.org/2000/svg" xmlns:xlink="http://www.w3.org/1999/xlink" x="0px"
	 y="0px" viewBox="0 0 408.5 159.1" style="enable-background:new 0 0 408.5 159.1;" xml:space="preserve">
<style type="text/css">
	.st0{fill:none;stroke:#FFFFFF;stroke-miterlimit:10;}
	.st1{enable-background:new    ;}
	.st2{fill:#FFFFFF;}
</style>
<g id="app_x5F_tutorial">
</g>
<g>
	<line class="st0" x1="128.3" y1="115.3" x2="209.3" y2="115.3"/>
	<polyline class="st0" points="191.5,97.5 209.3,115.3 191.5,133.1 	"/>
	<polyline class="st0" points="146,133.1 128.3,115.3 146,97.5 	"/>
</g>
<polygon class="st0" points="235.4,60.1 235.4,84 250.2,84 235.4,98.8 235.4,158.6 408,158.6 408,60.1 "/>
<line class="st0" x1="274.6" y1="128.5" x2="274.6" y2="143.9"/>
<line class="st0" x1="274.6" y1="102.5" x2="274.6" y2="117.9"/>
<line class="st0" x1="274.6" y1="76.4" x2="274.6" y2="91.8"/>
<g class="st1">
	<path class="st2" d="M318.1,127c0.2-1.1,0.2-2.1,0.2-3.5v-3h-4.5c-1.4,0-2.2,0.1-3.2,0.2v-2.3c1,0.2,1.8,0.2,3.2,0.2h4.5v-1.5
		l-1.2-1.8h-3.3c-1.4,0-2.2,0.1-3.2,0.2v-2.3c1,0.2,1.8,0.2,3.2,0.2h2.2l-4.8-7.3c-0.9-1.4-1.4-2.1-1.9-2.7h3.3
		c0.2,0.7,0.5,1.3,1.5,2.8l5.4,8.7l5.4-8.7c0.9-1.5,1.3-2.1,1.5-2.8h3.3c-0.4,0.5-1.1,1.4-1.9,2.7l-4.8,7.3h2.2
		c1.4,0,2.2-0.1,3.2-0.2v2.3c-1-0.2-1.9-0.2-3.2-0.2h-3.3l-1.2,1.9v1.5h4.5c1.4,0,2.2-0.1,3.2-0.2v2.3c-1-0.2-1.9-0.2-3.2-0.2h-4.5
		v3c0,1.5,0.1,2.3,0.2,3.5H318.1z"/>
</g>
<g class="st1">
	<path class="st2" d="M340.5,124.3c-1.2-1.3-2.2-2.7-2.8-4.3c-1.2-3.2-1.8-6.9-1.8-10.7c0-4.9,1.1-9.9,2.7-12.6
		c2.2-3.8,5.8-5.7,10.4-5.7c3.4,0,6.4,1.1,8.5,3.3c1.3,1.3,2.2,2.7,2.8,4.3c1.2,3.2,1.8,6.9,1.8,10.7c0,5.6-1.2,10.6-3.2,13.4
		c-2.3,3.2-5.6,4.9-9.8,4.9C345.6,127.6,342.7,126.4,340.5,124.3z M343.2,96.6c-1,1.1-1.7,2.2-2.1,3.4c-1,2.8-1.4,6-1.4,9.4
		c0,4.3,0.9,8.8,2.2,11c1.6,2.7,4,4,7.2,4c2.3,0,4.3-0.7,5.7-2.2c1-1.1,1.8-2.3,2.2-3.6c1-2.9,1.4-5.9,1.4-9.4c0-4-0.9-8.6-2.1-10.8
		c-1.5-2.8-4-4.2-7.3-4.2C346.6,94.2,344.7,95,343.2,96.6z"/>
</g>
<g class="st1">
	<path class="st2" d="M50.1,24.3c-0.4-1-0.6-1.4-1.1-1.9c-0.9-1-2.1-1.5-3.6-1.5c-2.4,0-4.1,1.3-5.2,3.8c-0.8,1.8-1.1,3.2-1.3,6.5
		c0.5-0.9,0.8-1.4,1.5-1.9c1.4-1.3,3-1.8,5.1-1.8c4.7,0,7.6,2.9,7.6,7.6c0,4.7-3.1,7.8-7.9,7.8c-2.1,0-4.2-0.7-5.5-1.9
		c-2-1.8-3.1-5.2-3.1-9.5c0-3.8,0.8-7.2,2.3-9.1c1.6-2.2,3.8-3.3,6.4-3.3c1.8,0,3.4,0.5,4.6,1.3c1.1,0.8,1.7,1.6,2.5,3.4L50.1,24.3z
		 M45.3,29.3c-1.5,0-3.1,0.7-4.2,1.7c-1,1-1.5,2.3-1.5,3.8c0,3.3,2.5,5.7,5.7,5.7c2,0,3.8-0.9,4.7-2.5c0.5-0.8,0.8-2,0.8-3.2
		C50.8,31.4,48.8,29.3,45.3,29.3z"/>
</g>
<g class="st1">
	<path class="st2" d="M58.2,42.6c0.1-0.7,0.2-1.3,0.2-2.3v-11c0-0.8,0-1.5-0.2-2.3c0.7,0,1.3,0.1,2.2,0.1h4.2c3.1,0,4.9,1.6,4.9,4.4
		c0,3-1.8,4.7-5,4.7H60v4c0,1,0,1.6,0.2,2.3H58.2z M64.5,34.9c2.2,0,3.4-1.2,3.4-3.2c0-2-1.2-3.1-3.4-3.1H60v6.4H64.5z"/>
</g>
<circle class="st0" cx="51.8" cy="31.1" r="30.6"/>
<line class="st0" x1="0" y1="75.3" x2="104.2" y2="75.3"/>
<line class="st0" x1="0" y1="91.7" x2="104.2" y2="91.7"/>
<line class="st0" x1="0" y1="108.2" x2="104.2" y2="108.2"/>
<line class="st0" x1="0" y1="124.6" x2="104.2" y2="124.6"/>
<line class="st0" x1="0" y1="157.6" x2="104.2" y2="157.6"/>
<line class="st0" x1="0" y1="141.1" x2="104.2" y2="141.1"/>
</svg>
