<?xml version="1.0" encoding="utf-8"?>
<!-- Generator: Adobe Illustrator 21.1.0, SVG Export Plug-In . SVG Version: 6.00 Build 0)  -->
<svg version="1.1" id="レイヤー_1" xmlns="http://www.w3.org/2000/svg" xmlns:xlink="http://www.w3.org/1999/xlink" x="0px"
	 y="0px" viewBox="0 0 103.3 66.2" style="enable-background:new 0 0 103.3 66.2;" xml:space="preserve">
<style type="text/css">
	.st0{fill:#FFFFFF;}
</style>
<title>アセット 1</title>
<g id="レイヤー_2">
	<g id="レイヤー_1-2">
		<path class="st0" d="M1.3,48.3H0V39h1.3V48.3z M1.3,35.7H0V25.1h1.3V35.7z M1.3,21.8H0V11.2h1.3V21.8z M1.3,7.9H0V0.7
			C0,0.3,0.3,0,0.7,0H4v1.3H1.3V7.9z M90.7,7.3h-1.3v-6H86V0h4c0.4,0,0.7,0.3,0.7,0.7c0,0,0,0,0,0L90.7,7.3z M29.4,5.4
			c-1-0.2-4-0.9-4.4-4h-3.8V0h4.4c0.4,0,0.7,0.3,0.7,0.7c0,2.5,2.1,3.2,3.3,3.4L29.4,5.4z M33,4.5l-0.7-1.1c0.9-0.6,1.4-1.6,1.4-2.7
			c0-0.4,0.3-0.7,0.7-0.7H41v1.3h-6.1C34.8,2.6,34.1,3.8,33,4.5z M82.7,1.3H72.2V0h10.6V1.3z M68.8,1.3H58.2V0h10.6V1.3z M54.9,1.3
			H44.3V0h10.6L54.9,1.3z M17.9,1.3H7.3V0h10.6L17.9,1.3z"/>
		<path class="st0" d="M103.3,15.9H92.7v1.3h9.3v9.9h1.3V15.9z M89.4,15.9H78.8v1.3h10.6V15.9z M75.5,15.9H64.9v1.3h10.6V15.9z
			 M61.6,15.9H51v1.3h10.6C61.6,17.2,61.6,15.9,61.6,15.9z M49,15.9h-1.6c0,4-4.4,4.1-4.4,4.1l0,0v-0.1l0,0v-0.1l0,0V20l0,0v-0.1
			l0,0V20l0,0v-0.1l0,0l0,0l0,0V20l0,0c-1.2-0.1-2.4-0.5-3.3-1.3l-0.9,0.9c1.2,1,2.6,1.6,4.2,1.7h0.1C45,21.2,49,20,49,15.9L49,15.9
			z M38.4,15.9H27.8v1.3h10.6L38.4,15.9L38.4,15.9z M24.5,15.9H13.9v1.3h10.6L24.5,15.9L24.5,15.9z M15.2,19.2h-1.3v10.6h1.3
			C15.2,29.8,15.2,19.2,15.2,19.2z M15.2,33.1h-1.3v10.6h1.3C15.2,43.7,15.2,33.1,15.2,33.1z M15.2,47h-1.3v10.6h1.3
			C15.2,57.6,15.2,47,15.2,47z M15.2,60.9h-1.3v5.3h5.3v-1.3h-4L15.2,60.9L15.2,60.9z M33.1,64.9H22.5v1.3h10.6L33.1,64.9L33.1,64.9
			z M43.2,60.5c-3.2,0-5.2,1.5-5.6,4.4h-1.2v1.3h2.4v-0.1l0,0c0-3.3,2-4.5,4.4-4.5h0.5v0.2c0,0,0.4,0,0.6,0.1l0.2-1.3
			C44.1,60.5,43.6,60.5,43.2,60.5L43.2,60.5z M48.1,62.9L47,63.5c0.2,0.4,0.4,0.8,0.5,1.3l0,0l0,0l0,0l0,0l0,0l0,0l0,0l0,0l0,0l0,0
			l0,0l0,0l0,0l0,0l0,0l0,0l0,0l0,0l0,0l0,0l0,0l0,0l0,0l0,0l0,0l0,0l0,0l0,0l0,0l0,0l0,0l0,0l0,0l0,0l0,0l0,0l0,0v0.3h0.1l0.1-0.3
			l0,0l-0.1,0.3l0,0v-0.3l0,0l-0.1,0.3l0,0v-0.2l0,0l0,0.2l0,0v-0.2l0,0l0,0l0,0l0,0l0,0l0,0l0,0l0,0l0,0l0,0l0,0l0,0l0,0l0,0l0,0
			l0,0h8.2v-0.1h-6.8C48.7,64.2,48.5,63.5,48.1,62.9L48.1,62.9z M69.5,64.9H58.9v1.3h10.6L69.5,64.9L69.5,64.9z M83.4,64.9H72.8v1.3
			h10.6L83.4,64.9L83.4,64.9z M97.3,64.9H86.7v1.3h10.6L97.3,64.9L97.3,64.9z M103.3,58.3H102v6.6h-1.3v1.3h2.7L103.3,58.3
			L103.3,58.3z M103.3,44.4H102v10.6h1.3V44.4L103.3,44.4z M103.3,30.5H102V41h1.3V30.5L103.3,30.5z"/>
	</g>
</g>
</svg>
