<?xml version="1.0" encoding="utf-8"?>
<!-- Generator: Adobe Illustrator 21.1.0, SVG Export Plug-In . SVG Version: 6.00 Build 0)  -->
<svg version="1.1" xmlns="http://www.w3.org/2000/svg" xmlns:xlink="http://www.w3.org/1999/xlink" x="0px" y="0px"
	 viewBox="0 0 408.5 159.1" style="enable-background:new 0 0 408.5 159.1;" xml:space="preserve">
<style type="text/css">
	.st0{display:none;}
	.st1{fill:none;stroke:url(#SVGID_1_);stroke-miterlimit:10;}
	.st2{fill:none;stroke:url(#SVGID_2_);stroke-miterlimit:10;}
	.st3{fill-rule:evenodd;clip-rule:evenodd;fill:none;stroke:url(#SVGID_3_);stroke-miterlimit:10;}
	.st4{fill-rule:evenodd;clip-rule:evenodd;fill:none;stroke:url(#SVGID_4_);stroke-miterlimit:10;}
	.st5{fill-rule:evenodd;clip-rule:evenodd;fill:none;stroke:url(#SVGID_5_);stroke-miterlimit:10;}
	.st6{fill-rule:evenodd;clip-rule:evenodd;fill:none;stroke:url(#SVGID_6_);stroke-miterlimit:10;}
	.st7{fill:url(#SVGID_7_);}
	.st8{fill:url(#SVGID_8_);}
	.st9{fill:url(#SVGID_9_);}
	.st10{fill-rule:evenodd;clip-rule:evenodd;fill:none;stroke:url(#SVGID_10_);stroke-miterlimit:10;}
	.st11{fill:none;stroke:url(#SVGID_11_);stroke-miterlimit:10;}
	.st12{fill:none;stroke:url(#SVGID_12_);stroke-miterlimit:10;}
	.st13{fill:none;stroke:url(#SVGID_13_);stroke-miterlimit:10;}
	.st14{fill:none;stroke:url(#SVGID_14_);stroke-miterlimit:10;}
	.st15{fill:none;stroke:url(#SVGID_15_);stroke-miterlimit:10;}
	.st16{fill:none;stroke:url(#SVGID_16_);stroke-miterlimit:10;}
</style>
<g id="会員案内">
</g>
<g id="app_x5F_tutorial">
</g>
<g id="会員案内_x2F_NEW" class="st0">
</g>
<g id="app_x5F_tutorialNEW">
	<g>
		<linearGradient id="SVGID_1_" gradientUnits="userSpaceOnUse" x1="148.9374" y1="99.3928" x2="188.6985" y2="99.3928">
			<stop  offset="0" style="stop-color:#7FCD93"/>
			<stop  offset="0.5" style="stop-color:#6494B1"/>
			<stop  offset="1" style="stop-color:#34B4A4"/>
		</linearGradient>
		<line class="st1" x1="148.9" y1="99.4" x2="188.7" y2="99.4"/>
		<linearGradient id="SVGID_2_" gradientUnits="userSpaceOnUse" x1="148.9374" y1="123.3451" x2="188.6985" y2="123.3451">
			<stop  offset="0" style="stop-color:#7FCD93"/>
			<stop  offset="0.5" style="stop-color:#6494B1"/>
			<stop  offset="1" style="stop-color:#34B4A4"/>
		</linearGradient>
		<line class="st2" x1="148.9" y1="123.3" x2="188.7" y2="123.3"/>
		<linearGradient id="SVGID_3_" gradientUnits="userSpaceOnUse" x1="234.873" y1="109.3548" x2="408.5" y2="109.3548">
			<stop  offset="0" style="stop-color:#7FCD93"/>
			<stop  offset="0.5" style="stop-color:#6494B1"/>
			<stop  offset="1" style="stop-color:#34B4A4"/>
		</linearGradient>
		<polygon class="st3" points="235.4,60.1 235.4,84 250.2,84 235.4,98.8 235.4,158.6 408,158.6 408,60.1 		"/>
		<linearGradient id="SVGID_4_" gradientUnits="userSpaceOnUse" x1="280.2349" y1="136.2214" x2="281.2349" y2="136.2214">
			<stop  offset="0" style="stop-color:#7FCD93"/>
			<stop  offset="0.5" style="stop-color:#6494B1"/>
			<stop  offset="1" style="stop-color:#34B4A4"/>
		</linearGradient>
		<line class="st4" x1="280.7" y1="128.5" x2="280.7" y2="143.9"/>
		<linearGradient id="SVGID_5_" gradientUnits="userSpaceOnUse" x1="280.2349" y1="110.1631" x2="281.2349" y2="110.1631">
			<stop  offset="0" style="stop-color:#7FCD93"/>
			<stop  offset="0.5" style="stop-color:#6494B1"/>
			<stop  offset="1" style="stop-color:#34B4A4"/>
		</linearGradient>
		<line class="st5" x1="280.7" y1="102.5" x2="280.7" y2="117.9"/>
		<linearGradient id="SVGID_6_" gradientUnits="userSpaceOnUse" x1="280.2349" y1="84.1047" x2="281.2349" y2="84.1047">
			<stop  offset="0" style="stop-color:#7FCD93"/>
			<stop  offset="0.5" style="stop-color:#6494B1"/>
			<stop  offset="1" style="stop-color:#34B4A4"/>
		</linearGradient>
		<line class="st6" x1="280.7" y1="76.4" x2="280.7" y2="91.8"/>
		<g>
			<g>
				<path d="M324.2,127c0.2-1.1,0.2-2.1,0.2-3.5v-3h-4.5c-1.4,0-2.2,0.1-3.2,0.2v-2.3c1,0.2,1.8,0.2,3.2,0.2h4.5v-1.5l-1.2-1.8h-3.3
					c-1.4,0-2.2,0.1-3.2,0.2v-2.3c1,0.2,1.8,0.2,3.2,0.2h2.2l-4.8-7.3c-0.9-1.4-1.4-2.1-1.9-2.7h3.3c0.2,0.7,0.5,1.3,1.5,2.8
					l5.4,8.7l5.4-8.7c0.9-1.5,1.3-2.1,1.5-2.8h3.3c-0.4,0.5-1.1,1.4-1.9,2.7l-4.8,7.3h2.2c1.4,0,2.2-0.1,3.2-0.2v2.3
					c-1-0.2-1.9-0.2-3.2-0.2H328l-1.2,1.9v1.5h4.5c1.4,0,2.2-0.1,3.2-0.2v2.3c-1-0.2-1.9-0.2-3.2-0.2h-4.5v3c0,1.5,0.1,2.3,0.2,3.5
					H324.2z"/>
				<path d="M346.7,124.3c-1.2-1.3-2.2-2.7-2.8-4.3c-1.2-3.2-1.8-6.9-1.8-10.7c0-4.9,1.1-9.9,2.7-12.6c2.2-3.8,5.8-5.7,10.4-5.7
					c3.4,0,6.4,1.1,8.5,3.3c1.3,1.3,2.2,2.7,2.8,4.3c1.2,3.2,1.8,6.9,1.8,10.7c0,5.6-1.2,10.6-3.2,13.4c-2.3,3.2-5.6,4.9-9.8,4.9
					C351.8,127.6,348.9,126.4,346.7,124.3z M349.4,96.6c-1,1.1-1.7,2.2-2.1,3.4c-1,2.8-1.4,6-1.4,9.4c0,4.3,0.9,8.8,2.2,11
					c1.6,2.7,4,4,7.2,4c2.3,0,4.3-0.7,5.7-2.2c1-1.1,1.8-2.3,2.2-3.6c1-2.9,1.4-5.9,1.4-9.4c0-4-0.9-8.6-2.1-10.8
					c-1.5-2.8-4-4.2-7.3-4.2C352.8,94.2,350.9,95,349.4,96.6z"/>
			</g>
			<g>
				<linearGradient id="SVGID_7_" gradientUnits="userSpaceOnUse" x1="315.4478" y1="109.2846" x2="368.2691" y2="109.2846">
					<stop  offset="0" style="stop-color:#7FCD93"/>
					<stop  offset="0.5" style="stop-color:#6494B1"/>
					<stop  offset="1" style="stop-color:#34B4A4"/>
				</linearGradient>
				<path class="st7" d="M324.2,127c0.2-1.1,0.2-2.1,0.2-3.5v-3h-4.5c-1.4,0-2.2,0.1-3.2,0.2v-2.3c1,0.2,1.8,0.2,3.2,0.2h4.5v-1.5
					l-1.2-1.8h-3.3c-1.4,0-2.2,0.1-3.2,0.2v-2.3c1,0.2,1.8,0.2,3.2,0.2h2.2l-4.8-7.3c-0.9-1.4-1.4-2.1-1.9-2.7h3.3
					c0.2,0.7,0.5,1.3,1.5,2.8l5.4,8.7l5.4-8.7c0.9-1.5,1.3-2.1,1.5-2.8h3.3c-0.4,0.5-1.1,1.4-1.9,2.7l-4.8,7.3h2.2
					c1.4,0,2.2-0.1,3.2-0.2v2.3c-1-0.2-1.9-0.2-3.2-0.2H328l-1.2,1.9v1.5h4.5c1.4,0,2.2-0.1,3.2-0.2v2.3c-1-0.2-1.9-0.2-3.2-0.2
					h-4.5v3c0,1.5,0.1,2.3,0.2,3.5H324.2z"/>
				<linearGradient id="SVGID_8_" gradientUnits="userSpaceOnUse" x1="315.4478" y1="109.2846" x2="368.2691" y2="109.2846">
					<stop  offset="0" style="stop-color:#7FCD93"/>
					<stop  offset="0.5" style="stop-color:#6494B1"/>
					<stop  offset="1" style="stop-color:#34B4A4"/>
				</linearGradient>
				<path class="st8" d="M346.7,124.3c-1.2-1.3-2.2-2.7-2.8-4.3c-1.2-3.2-1.8-6.9-1.8-10.7c0-4.9,1.1-9.9,2.7-12.6
					c2.2-3.8,5.8-5.7,10.4-5.7c3.4,0,6.4,1.1,8.5,3.3c1.3,1.3,2.2,2.7,2.8,4.3c1.2,3.2,1.8,6.9,1.8,10.7c0,5.6-1.2,10.6-3.2,13.4
					c-2.3,3.2-5.6,4.9-9.8,4.9C351.8,127.6,348.9,126.4,346.7,124.3z M349.4,96.6c-1,1.1-1.7,2.2-2.1,3.4c-1,2.8-1.4,6-1.4,9.4
					c0,4.3,0.9,8.8,2.2,11c1.6,2.7,4,4,7.2,4c2.3,0,4.3-0.7,5.7-2.2c1-1.1,1.8-2.3,2.2-3.6c1-2.9,1.4-5.9,1.4-9.4
					c0-4-0.9-8.6-2.1-10.8c-1.5-2.8-4-4.2-7.3-4.2C352.8,94.2,350.9,95,349.4,96.6z"/>
			</g>
		</g>
		<g>
			<g>
				<path d="M46.2,43.4c0.2-1.1,0.2-2,0.2-3.4V23.8c0-1.2-0.1-2.2-0.2-3.4c1.1,0.1,1.9,0.1,3.3,0.1h6.2c4.7,0,7.3,2.4,7.3,6.6
					c0,4.4-2.7,7-7.4,7h-6.7v6c0,1.5,0.1,2.4,0.2,3.4H46.2z M55.6,31.9c3.2,0,5-1.7,5-4.8c0-3-1.8-4.6-5-4.6h-6.7v9.4H55.6z"/>
			</g>
			<g>
				<linearGradient id="SVGID_9_" gradientUnits="userSpaceOnUse" x1="46.2135" y1="31.8524" x2="62.9977" y2="31.8524">
					<stop  offset="0" style="stop-color:#7FCD93"/>
					<stop  offset="0.5" style="stop-color:#6494B1"/>
					<stop  offset="1" style="stop-color:#34B4A4"/>
				</linearGradient>
				<path class="st9" d="M46.2,43.4c0.2-1.1,0.2-2,0.2-3.4V23.8c0-1.2-0.1-2.2-0.2-3.4c1.1,0.1,1.9,0.1,3.3,0.1h6.2
					c4.7,0,7.3,2.4,7.3,6.6c0,4.4-2.7,7-7.4,7h-6.7v6c0,1.5,0.1,2.4,0.2,3.4H46.2z M55.6,31.9c3.2,0,5-1.7,5-4.8c0-3-1.8-4.6-5-4.6
					h-6.7v9.4H55.6z"/>
			</g>
		</g>
		<linearGradient id="SVGID_10_" gradientUnits="userSpaceOnUse" x1="20.6598" y1="31.1138" x2="82.8874" y2="31.1138">
			<stop  offset="0" style="stop-color:#7FCD93"/>
			<stop  offset="0.5" style="stop-color:#6494B1"/>
			<stop  offset="1" style="stop-color:#34B4A4"/>
		</linearGradient>
		<circle class="st10" cx="51.8" cy="31.1" r="30.6"/>
		<linearGradient id="SVGID_11_" gradientUnits="userSpaceOnUse" x1="0" y1="75.2767" x2="104.2247" y2="75.2767">
			<stop  offset="0" style="stop-color:#7FCD93"/>
			<stop  offset="0.5" style="stop-color:#6494B1"/>
			<stop  offset="1" style="stop-color:#34B4A4"/>
		</linearGradient>
		<line class="st11" x1="0" y1="75.3" x2="104.2" y2="75.3"/>
		<linearGradient id="SVGID_12_" gradientUnits="userSpaceOnUse" x1="0" y1="91.7331" x2="104.2247" y2="91.7331">
			<stop  offset="0" style="stop-color:#7FCD93"/>
			<stop  offset="0.5" style="stop-color:#6494B1"/>
			<stop  offset="1" style="stop-color:#34B4A4"/>
		</linearGradient>
		<line class="st12" x1="0" y1="91.7" x2="104.2" y2="91.7"/>
		<linearGradient id="SVGID_13_" gradientUnits="userSpaceOnUse" x1="0" y1="108.1894" x2="104.2247" y2="108.1894">
			<stop  offset="0" style="stop-color:#7FCD93"/>
			<stop  offset="0.5" style="stop-color:#6494B1"/>
			<stop  offset="1" style="stop-color:#34B4A4"/>
		</linearGradient>
		<line class="st13" x1="0" y1="108.2" x2="104.2" y2="108.2"/>
		<linearGradient id="SVGID_14_" gradientUnits="userSpaceOnUse" x1="0" y1="124.6457" x2="104.2247" y2="124.6457">
			<stop  offset="0" style="stop-color:#7FCD93"/>
			<stop  offset="0.5" style="stop-color:#6494B1"/>
			<stop  offset="1" style="stop-color:#34B4A4"/>
		</linearGradient>
		<line class="st14" x1="0" y1="124.6" x2="104.2" y2="124.6"/>
		<linearGradient id="SVGID_15_" gradientUnits="userSpaceOnUse" x1="0" y1="157.5584" x2="104.2247" y2="157.5584">
			<stop  offset="0" style="stop-color:#7FCD93"/>
			<stop  offset="0.5" style="stop-color:#6494B1"/>
			<stop  offset="1" style="stop-color:#34B4A4"/>
		</linearGradient>
		<line class="st15" x1="0" y1="157.6" x2="104.2" y2="157.6"/>
		<linearGradient id="SVGID_16_" gradientUnits="userSpaceOnUse" x1="0" y1="141.1021" x2="104.2247" y2="141.1021">
			<stop  offset="0" style="stop-color:#7FCD93"/>
			<stop  offset="0.5" style="stop-color:#6494B1"/>
			<stop  offset="1" style="stop-color:#34B4A4"/>
		</linearGradient>
		<line class="st16" x1="0" y1="141.1" x2="104.2" y2="141.1"/>
	</g>
</g>
</svg>
