<?xml version="1.0" encoding="utf-8"?>
<!-- Generator: Adobe Illustrator 21.1.0, SVG Export Plug-In . SVG Version: 6.00 Build 0)  -->
<svg version="1.1" id="会員案内_x2F_NEW" xmlns="http://www.w3.org/2000/svg" xmlns:xlink="http://www.w3.org/1999/xlink"
	 x="0px" y="0px" viewBox="0 0 409 106.6" style="enable-background:new 0 0 409 106.6;" xml:space="preserve">
<style type="text/css">
	.st0{fill:none;stroke:url(#SVGID_1_);stroke-miterlimit:10;}
	.st1{fill:none;stroke:url(#SVGID_2_);stroke-miterlimit:10;}
	.st2{fill:none;stroke:url(#SVGID_3_);stroke-miterlimit:10;}
	.st3{fill:none;stroke:url(#SVGID_4_);stroke-miterlimit:10;}
	.st4{fill:none;stroke:url(#SVGID_5_);stroke-miterlimit:10;}
	.st5{fill:none;stroke:url(#SVGID_6_);stroke-miterlimit:10;}
	.st6{fill:url(#SVGID_7_);}
	.st7{fill:url(#SVGID_8_);}
	.st8{fill:url(#SVGID_9_);}
	.st9{fill:url(#SVGID_10_);}
	.st10{fill:url(#SVGID_11_);}
	.st11{fill:url(#SVGID_12_);}
	.st12{fill:none;stroke:url(#SVGID_13_);stroke-miterlimit:10;}
	.st13{fill:none;stroke:url(#SVGID_14_);stroke-miterlimit:10;}
	.st14{fill:url(#SVGID_15_);}
	.st15{fill:url(#SVGID_16_);}
	.st16{fill:url(#SVGID_17_);}
	.st17{fill:url(#SVGID_18_);}
	.st18{fill:url(#SVGID_19_);}
	.st19{fill:url(#SVGID_20_);}
	.st20{fill:url(#SVGID_21_);}
	.st21{fill:url(#SVGID_22_);}
	.st22{fill:url(#SVGID_23_);}
	.st23{fill:url(#SVGID_24_);}
</style>
<g>
	<g>
		
			<linearGradient id="SVGID_1_" gradientUnits="userSpaceOnUse" x1="153.4" y1="-2597.1602" x2="186.6" y2="-2597.1602" gradientTransform="matrix(1 0 0 -1 0 -2556.3599)">
			<stop  offset="0" style="stop-color:#7FCD93"/>
			<stop  offset="0.5" style="stop-color:#6494B1"/>
			<stop  offset="1" style="stop-color:#34B4A4"/>
		</linearGradient>
		<line class="st0" x1="153.4" y1="40.8" x2="186.6" y2="40.8"/>
		
			<linearGradient id="SVGID_2_" gradientUnits="userSpaceOnUse" x1="153.4" y1="-2624.5601" x2="186.6" y2="-2624.5601" gradientTransform="matrix(1 0 0 -1 0 -2556.3599)">
			<stop  offset="0" style="stop-color:#7FCD93"/>
			<stop  offset="0.5" style="stop-color:#6494B1"/>
			<stop  offset="1" style="stop-color:#34B4A4"/>
		</linearGradient>
		<line class="st1" x1="153.4" y1="68.2" x2="186.6" y2="68.2"/>
	</g>
	
		<linearGradient id="SVGID_3_" gradientUnits="userSpaceOnUse" x1="223" y1="-2609.6599" x2="409.0001" y2="-2609.6599" gradientTransform="matrix(1 0 0 -1 0 -2556.3599)">
		<stop  offset="0" style="stop-color:#7FCD93"/>
		<stop  offset="0.5" style="stop-color:#6494B1"/>
		<stop  offset="1" style="stop-color:#34B4A4"/>
	</linearGradient>
	<polygon class="st2" points="223.5,0.5 223.5,26.1 239.4,26.1 223.5,42 223.5,106.1 408.5,106.1 408.5,0.5 	"/>
	<g>
		
			<linearGradient id="SVGID_4_" gradientUnits="userSpaceOnUse" x1="257.5833" y1="-2638.51" x2="258.5833" y2="-2638.51" gradientTransform="matrix(1 0 0 -1 0 -2556.3599)">
			<stop  offset="0" style="stop-color:#7FCD93"/>
			<stop  offset="0.5" style="stop-color:#6494B1"/>
			<stop  offset="1" style="stop-color:#34B4A4"/>
		</linearGradient>
		<line class="st3" x1="258.1" y1="73.9" x2="258.1" y2="90.4"/>
		
			<linearGradient id="SVGID_5_" gradientUnits="userSpaceOnUse" x1="257.5833" y1="-2610.51" x2="258.5833" y2="-2610.51" gradientTransform="matrix(1 0 0 -1 0 -2556.3599)">
			<stop  offset="0" style="stop-color:#7FCD93"/>
			<stop  offset="0.5" style="stop-color:#6494B1"/>
			<stop  offset="1" style="stop-color:#34B4A4"/>
		</linearGradient>
		<line class="st4" x1="258.1" y1="45.9" x2="258.1" y2="62.4"/>
		
			<linearGradient id="SVGID_6_" gradientUnits="userSpaceOnUse" x1="257.5833" y1="-2582.6099" x2="258.5833" y2="-2582.6099" gradientTransform="matrix(1 0 0 -1 0 -2556.3599)">
			<stop  offset="0" style="stop-color:#7FCD93"/>
			<stop  offset="0.5" style="stop-color:#6494B1"/>
			<stop  offset="1" style="stop-color:#34B4A4"/>
		</linearGradient>
		<line class="st5" x1="258.1" y1="18" x2="258.1" y2="34.5"/>
	</g>
	<g>
		<g>
			<path d="M284.4,69c0.1-1,0.2-1.9,0.2-3.1v-2.7h-3.5c-1.1,0-1.7,0.1-2.5,0.2v-2.1c0.8,0.2,1.4,0.2,2.5,0.2h3.5v-1.3l-0.9-1.7h-2.6
				c-1.1,0-1.7,0.1-2.5,0.2v-2.1c0.8,0.2,1.4,0.2,2.5,0.2h1.7l-3.7-6.7c-0.7-1.3-1.1-1.9-1.4-2.4h2.6c0.2,0.6,0.4,1.2,1.2,2.6
				l4.2,7.9l4.1-7.9c0.7-1.3,1-1.9,1.1-2.6h2.6c-0.3,0.5-0.8,1.3-1.5,2.4l-3.7,6.7h1.7c1.1,0,1.7-0.1,2.5-0.2v2.1
				c-0.8-0.2-1.5-0.2-2.5-0.2h-2.5l-1,1.7v1.3h3.5c1,0,1.7-0.1,2.5-0.2v2.1c-0.8-0.2-1.5-0.2-2.5-0.2h-3.5v2.7c0,1.4,0,2.1,0.2,3.1
				H284.4z"/>
			<path d="M299,36.7c0.9,0.2,1.6,0.2,3,0.2h2.3c1.2,0,1.8,0,3-0.2c-0.2,2.6-0.3,4.7-0.3,7v20.4c0,2,0.1,3.2,0.3,4.8h-3.4
				c0.2-1.5,0.3-2.8,0.3-4.8V39.8h-1.9c-1.1,0-2.1,0.1-3.1,0.3v-3.4H299z"/>
			<path d="M318.5,68.9c0,3.1-0.4,4.1-2.3,5.4l-1-1.4c1.5-0.8,1.7-1.4,1.7-4h-2.1v-4.2h3.6v4.2H318.5z"/>
			<path d="M322.5,36.7c0.9,0.2,1.6,0.2,3,0.2h2.3c1.2,0,1.8,0,3-0.2c-0.2,2.6-0.3,4.7-0.3,7v20.4c0,2,0.1,3.2,0.3,4.8h-3.4
				c0.2-1.5,0.3-2.8,0.3-4.8V39.8h-1.9c-1.1,0-2.1,0.1-3.1,0.3v-3.4H322.5z"/>
			<path d="M342.5,66.6c-1-1.1-1.7-2.4-2.1-3.9c-0.9-2.9-1.4-6.3-1.4-9.7c0-4.5,0.8-9,2.1-11.4c1.7-3.4,4.5-5.2,8-5.2
				c2.6,0,4.9,1,6.5,3c1,1.2,1.7,2.5,2.1,3.9c0.9,2.9,1.4,6.3,1.4,9.8c0,5.1-0.9,9.6-2.5,12.2c-1.8,2.9-4.3,4.4-7.6,4.4
				C346.4,69.5,344.2,68.5,342.5,66.6z M344.6,41.4c-0.8,1-1.3,2-1.6,3.1c-0.8,2.6-1.1,5.4-1.1,8.5c0,3.9,0.7,8,1.7,10
				c1.3,2.4,3.1,3.7,5.5,3.7c1.8,0,3.3-0.7,4.4-2c0.8-1,1.4-2.1,1.7-3.3c0.8-2.6,1.1-5.4,1.1-8.5c0-3.7-0.7-7.8-1.6-9.8
				c-1.2-2.5-3.1-3.8-5.6-3.8C347.2,39.3,345.8,40,344.6,41.4z"/>
			<path d="M369.6,66.6c-1-1.1-1.7-2.4-2.1-3.9c-0.9-2.9-1.4-6.3-1.4-9.7c0-4.5,0.8-9,2.1-11.4c1.7-3.4,4.5-5.2,8-5.2
				c2.6,0,4.9,1,6.5,3c1,1.2,1.7,2.5,2.1,3.9c0.9,2.9,1.4,6.3,1.4,9.8c0,5.1-0.9,9.6-2.5,12.2c-1.8,2.9-4.3,4.4-7.6,4.4
				C373.5,69.5,371.3,68.5,369.6,66.6z M371.7,41.4c-0.8,1-1.3,2-1.6,3.1c-0.8,2.6-1.1,5.4-1.1,8.5c0,3.9,0.7,8,1.7,10
				c1.3,2.4,3.1,3.7,5.5,3.7c1.8,0,3.3-0.7,4.4-2c0.8-1,1.4-2.1,1.7-3.3c0.8-2.6,1.1-5.4,1.1-8.5c0-3.7-0.7-7.8-1.6-9.8
				c-1.2-2.5-3.1-3.8-5.6-3.8C374.3,39.3,372.8,40,371.7,41.4z"/>
		</g>
		<g>
			
				<linearGradient id="SVGID_7_" gradientUnits="userSpaceOnUse" x1="277.6189" y1="-2614.71" x2="386.2352" y2="-2614.71" gradientTransform="matrix(1 0 0 -1 0 -2556.3599)">
				<stop  offset="0" style="stop-color:#7FCD93"/>
				<stop  offset="0.5" style="stop-color:#6494B1"/>
				<stop  offset="1" style="stop-color:#34B4A4"/>
			</linearGradient>
			<path class="st6" d="M284.4,69c0.1-1,0.2-1.9,0.2-3.1v-2.7h-3.5c-1.1,0-1.7,0.1-2.5,0.2v-2.1c0.8,0.2,1.4,0.2,2.5,0.2h3.5v-1.3
				l-0.9-1.7h-2.6c-1.1,0-1.7,0.1-2.5,0.2v-2.1c0.8,0.2,1.4,0.2,2.5,0.2h1.7l-3.7-6.7c-0.7-1.3-1.1-1.9-1.4-2.4h2.6
				c0.2,0.6,0.4,1.2,1.2,2.6l4.2,7.9l4.1-7.9c0.7-1.3,1-1.9,1.1-2.6h2.6c-0.3,0.5-0.8,1.3-1.5,2.4l-3.7,6.7h1.7
				c1.1,0,1.7-0.1,2.5-0.2v2.1c-0.8-0.2-1.5-0.2-2.5-0.2h-2.5l-1,1.7v1.3h3.5c1,0,1.7-0.1,2.5-0.2v2.1c-0.8-0.2-1.5-0.2-2.5-0.2
				h-3.5v2.7c0,1.4,0,2.1,0.2,3.1H284.4z"/>
			
				<linearGradient id="SVGID_8_" gradientUnits="userSpaceOnUse" x1="277.6189" y1="-2609.1602" x2="386.2352" y2="-2609.1602" gradientTransform="matrix(1 0 0 -1 0 -2556.3599)">
				<stop  offset="0" style="stop-color:#7FCD93"/>
				<stop  offset="0.5" style="stop-color:#6494B1"/>
				<stop  offset="1" style="stop-color:#34B4A4"/>
			</linearGradient>
			<path class="st7" d="M299,36.7c0.9,0.2,1.6,0.2,3,0.2h2.3c1.2,0,1.8,0,3-0.2c-0.2,2.6-0.3,4.7-0.3,7v20.4c0,2,0.1,3.2,0.3,4.8
				h-3.4c0.2-1.5,0.3-2.8,0.3-4.8V39.8h-1.9c-1.1,0-2.1,0.1-3.1,0.3v-3.4H299z"/>
			
				<linearGradient id="SVGID_9_" gradientUnits="userSpaceOnUse" x1="277.6189" y1="-2625.8601" x2="386.2352" y2="-2625.8601" gradientTransform="matrix(1 0 0 -1 0 -2556.3599)">
				<stop  offset="0" style="stop-color:#7FCD93"/>
				<stop  offset="0.5" style="stop-color:#6494B1"/>
				<stop  offset="1" style="stop-color:#34B4A4"/>
			</linearGradient>
			<path class="st8" d="M318.5,68.9c0,3.1-0.4,4.1-2.3,5.4l-1-1.4c1.5-0.8,1.7-1.4,1.7-4h-2.1v-4.2h3.6v4.2H318.5z"/>
			
				<linearGradient id="SVGID_10_" gradientUnits="userSpaceOnUse" x1="277.6189" y1="-2609.1602" x2="386.2352" y2="-2609.1602" gradientTransform="matrix(1 0 0 -1 0 -2556.3599)">
				<stop  offset="0" style="stop-color:#7FCD93"/>
				<stop  offset="0.5" style="stop-color:#6494B1"/>
				<stop  offset="1" style="stop-color:#34B4A4"/>
			</linearGradient>
			<path class="st9" d="M322.5,36.7c0.9,0.2,1.6,0.2,3,0.2h2.3c1.2,0,1.8,0,3-0.2c-0.2,2.6-0.3,4.7-0.3,7v20.4c0,2,0.1,3.2,0.3,4.8
				h-3.4c0.2-1.5,0.3-2.8,0.3-4.8V39.8h-1.9c-1.1,0-2.1,0.1-3.1,0.3v-3.4H322.5z"/>
			
				<linearGradient id="SVGID_11_" gradientUnits="userSpaceOnUse" x1="277.6189" y1="-2609.4102" x2="386.2352" y2="-2609.4102" gradientTransform="matrix(1 0 0 -1 0 -2556.3599)">
				<stop  offset="0" style="stop-color:#7FCD93"/>
				<stop  offset="0.5" style="stop-color:#6494B1"/>
				<stop  offset="1" style="stop-color:#34B4A4"/>
			</linearGradient>
			<path class="st10" d="M342.5,66.6c-1-1.1-1.7-2.4-2.1-3.9c-0.9-2.9-1.4-6.3-1.4-9.7c0-4.5,0.8-9,2.1-11.4c1.7-3.4,4.5-5.2,8-5.2
				c2.6,0,4.9,1,6.5,3c1,1.2,1.7,2.5,2.1,3.9c0.9,2.9,1.4,6.3,1.4,9.8c0,5.1-0.9,9.6-2.5,12.2c-1.8,2.9-4.3,4.4-7.6,4.4
				C346.4,69.5,344.2,68.5,342.5,66.6z M344.6,41.4c-0.8,1-1.3,2-1.6,3.1c-0.8,2.6-1.1,5.4-1.1,8.5c0,3.9,0.7,8,1.7,10
				c1.3,2.4,3.1,3.7,5.5,3.7c1.8,0,3.3-0.7,4.4-2c0.8-1,1.4-2.1,1.7-3.3c0.8-2.6,1.1-5.4,1.1-8.5c0-3.7-0.7-7.8-1.6-9.8
				c-1.2-2.5-3.1-3.8-5.6-3.8C347.2,39.3,345.8,40,344.6,41.4z"/>
			
				<linearGradient id="SVGID_12_" gradientUnits="userSpaceOnUse" x1="277.6189" y1="-2609.4102" x2="386.2352" y2="-2609.4102" gradientTransform="matrix(1 0 0 -1 0 -2556.3599)">
				<stop  offset="0" style="stop-color:#7FCD93"/>
				<stop  offset="0.5" style="stop-color:#6494B1"/>
				<stop  offset="1" style="stop-color:#34B4A4"/>
			</linearGradient>
			<path class="st11" d="M369.6,66.6c-1-1.1-1.7-2.4-2.1-3.9c-0.9-2.9-1.4-6.3-1.4-9.7c0-4.5,0.8-9,2.1-11.4c1.7-3.4,4.5-5.2,8-5.2
				c2.6,0,4.9,1,6.5,3c1,1.2,1.7,2.5,2.1,3.9c0.9,2.9,1.4,6.3,1.4,9.8c0,5.1-0.9,9.6-2.5,12.2c-1.8,2.9-4.3,4.4-7.6,4.4
				C373.5,69.5,371.3,68.5,369.6,66.6z M371.7,41.4c-0.8,1-1.3,2-1.6,3.1c-0.8,2.6-1.1,5.4-1.1,8.5c0,3.9,0.7,8,1.7,10
				c1.3,2.4,3.1,3.7,5.5,3.7c1.8,0,3.3-0.7,4.4-2c0.8-1,1.4-2.1,1.7-3.3c0.8-2.6,1.1-5.4,1.1-8.5c0-3.7-0.7-7.8-1.6-9.8
				c-1.2-2.5-3.1-3.8-5.6-3.8C374.3,39.3,372.8,40,371.7,41.4z"/>
		</g>
	</g>
	
		<linearGradient id="SVGID_13_" gradientUnits="userSpaceOnUse" x1="0" y1="-2609.6599" x2="119.8" y2="-2609.6599" gradientTransform="matrix(1 0 0 -1 0 -2556.3599)">
		<stop  offset="0" style="stop-color:#7FCD93"/>
		<stop  offset="0.5" style="stop-color:#6494B1"/>
		<stop  offset="1" style="stop-color:#34B4A4"/>
	</linearGradient>
	<rect x="0.5" y="0.5" class="st12" width="118.8" height="105.6"/>
	
		<linearGradient id="SVGID_14_" gradientUnits="userSpaceOnUse" x1="15.9" y1="-2615.6099" x2="103.9" y2="-2615.6099" gradientTransform="matrix(1 0 0 -1 0 -2556.3599)">
		<stop  offset="0" style="stop-color:#7FCD93"/>
		<stop  offset="0.5" style="stop-color:#6494B1"/>
		<stop  offset="1" style="stop-color:#34B4A4"/>
	</linearGradient>
	<rect x="16.4" y="27" class="st13" width="87" height="64.5"/>
	<g>
		
			<linearGradient id="SVGID_15_" gradientUnits="userSpaceOnUse" x1="44.3" y1="-2599.26" x2="58.0676" y2="-2599.26" gradientTransform="matrix(1 0 0 -1 0 -2556.3599)">
			<stop  offset="0" style="stop-color:#7FCD93"/>
			<stop  offset="0.5" style="stop-color:#6494B1"/>
			<stop  offset="1" style="stop-color:#34B4A4"/>
		</linearGradient>
		<path class="st14" d="M57.1,38.2v9.4H45.3v-9.4H57.1 M58.1,37.2H44.3v11.4h13.8V37.2L58.1,37.2z"/>
	</g>
	
		<linearGradient id="SVGID_16_" gradientUnits="userSpaceOnUse" x1="62.8" y1="-2599.26" x2="76.5676" y2="-2599.26" gradientTransform="matrix(1 0 0 -1 0 -2556.3599)">
		<stop  offset="0" style="stop-color:#7FCD93"/>
		<stop  offset="0.5" style="stop-color:#6494B1"/>
		<stop  offset="1" style="stop-color:#34B4A4"/>
	</linearGradient>
	<rect x="62.8" y="37.2" class="st15" width="13.8" height="11.4"/>
	<g>
		
			<linearGradient id="SVGID_17_" gradientUnits="userSpaceOnUse" x1="81.8" y1="-2599.26" x2="95.5676" y2="-2599.26" gradientTransform="matrix(1 0 0 -1 0 -2556.3599)">
			<stop  offset="0" style="stop-color:#7FCD93"/>
			<stop  offset="0.5" style="stop-color:#6494B1"/>
			<stop  offset="1" style="stop-color:#34B4A4"/>
		</linearGradient>
		<path class="st16" d="M94.6,38.2v9.4H82.8v-9.4H94.6 M95.6,37.2H81.8v11.4h13.8V37.2L95.6,37.2z"/>
	</g>
	<g>
		
			<linearGradient id="SVGID_18_" gradientUnits="userSpaceOnUse" x1="25.3" y1="-2615.3601" x2="39.0676" y2="-2615.3601" gradientTransform="matrix(1 0 0 -1 0 -2556.3599)">
			<stop  offset="0" style="stop-color:#7FCD93"/>
			<stop  offset="0.5" style="stop-color:#6494B1"/>
			<stop  offset="1" style="stop-color:#34B4A4"/>
		</linearGradient>
		<path class="st17" d="M38.1,54.3v9.4H26.3v-9.4H38.1 M39.1,53.3H25.3v11.4h13.8V53.3L39.1,53.3z"/>
	</g>
	<g>
		
			<linearGradient id="SVGID_19_" gradientUnits="userSpaceOnUse" x1="44.3" y1="-2615.3601" x2="58.0676" y2="-2615.3601" gradientTransform="matrix(1 0 0 -1 0 -2556.3599)">
			<stop  offset="0" style="stop-color:#7FCD93"/>
			<stop  offset="0.5" style="stop-color:#6494B1"/>
			<stop  offset="1" style="stop-color:#34B4A4"/>
		</linearGradient>
		<path class="st18" d="M57.1,54.3v9.4H45.3v-9.4H57.1 M58.1,53.3H44.3v11.4h13.8V53.3L58.1,53.3z"/>
	</g>
	
		<linearGradient id="SVGID_20_" gradientUnits="userSpaceOnUse" x1="62.8" y1="-2615.3601" x2="76.5676" y2="-2615.3601" gradientTransform="matrix(1 0 0 -1 0 -2556.3599)">
		<stop  offset="0" style="stop-color:#7FCD93"/>
		<stop  offset="0.5" style="stop-color:#6494B1"/>
		<stop  offset="1" style="stop-color:#34B4A4"/>
	</linearGradient>
	<rect x="62.8" y="53.3" class="st19" width="13.8" height="11.4"/>
	<g>
		
			<linearGradient id="SVGID_21_" gradientUnits="userSpaceOnUse" x1="81.8" y1="-2615.3601" x2="95.5676" y2="-2615.3601" gradientTransform="matrix(1 0 0 -1 0 -2556.3599)">
			<stop  offset="0" style="stop-color:#7FCD93"/>
			<stop  offset="0.5" style="stop-color:#6494B1"/>
			<stop  offset="1" style="stop-color:#34B4A4"/>
		</linearGradient>
		<path class="st20" d="M94.6,54.3v9.4H82.8v-9.4H94.6 M95.6,53.3H81.8v11.4h13.8V53.3L95.6,53.3z"/>
	</g>
	<g>
		
			<linearGradient id="SVGID_22_" gradientUnits="userSpaceOnUse" x1="25.3" y1="-2631.3601" x2="39.0676" y2="-2631.3601" gradientTransform="matrix(1 0 0 -1 0 -2556.3599)">
			<stop  offset="0" style="stop-color:#7FCD93"/>
			<stop  offset="0.5" style="stop-color:#6494B1"/>
			<stop  offset="1" style="stop-color:#34B4A4"/>
		</linearGradient>
		<path class="st21" d="M38.1,70.3v9.4H26.3v-9.4H38.1 M39.1,69.3H25.3v11.4h13.8V69.3L39.1,69.3z"/>
	</g>
	<g>
		
			<linearGradient id="SVGID_23_" gradientUnits="userSpaceOnUse" x1="44.3" y1="-2631.3601" x2="58.0676" y2="-2631.3601" gradientTransform="matrix(1 0 0 -1 0 -2556.3599)">
			<stop  offset="0" style="stop-color:#7FCD93"/>
			<stop  offset="0.5" style="stop-color:#6494B1"/>
			<stop  offset="1" style="stop-color:#34B4A4"/>
		</linearGradient>
		<path class="st22" d="M57.1,70.3v9.4H45.3v-9.4H57.1 M58.1,69.3H44.3v11.4h13.8V69.3L58.1,69.3z"/>
	</g>
	
		<linearGradient id="SVGID_24_" gradientUnits="userSpaceOnUse" x1="62.8" y1="-2631.3601" x2="76.5676" y2="-2631.3601" gradientTransform="matrix(1 0 0 -1 0 -2556.3599)">
		<stop  offset="0" style="stop-color:#7FCD93"/>
		<stop  offset="0.5" style="stop-color:#6494B1"/>
		<stop  offset="1" style="stop-color:#34B4A4"/>
	</linearGradient>
	<rect x="62.8" y="69.3" class="st23" width="13.8" height="11.4"/>
</g>
</svg>
