<?xml version="1.0" encoding="utf-8"?>
<!-- Generator: Adobe Illustrator 24.1.0, SVG Export Plug-In . SVG Version: 6.00 Build 0)  -->
<svg version="1.1" id="レイヤー_1" xmlns="http://www.w3.org/2000/svg" xmlns:xlink="http://www.w3.org/1999/xlink" x="0px"
	 y="0px" width="619.2px" height="219px" viewBox="0 0 619.2 219" style="enable-background:new 0 0 619.2 219;"
	 xml:space="preserve">
<style type="text/css">
	.st0{fill:#7CB3E5;}
</style>
<g id="app_x5F_tutorial">
</g>
<g>
	<g>
		<g>
			<path class="st0" d="M567.3,190.2c-12.9,7.8-28,12.2-44.2,12.2c-47.5,0-86.1-38.6-86.1-86.1s38.6-86.1,86.1-86.1
				s86.1,38.6,86.1,86.1c0,7.6-1,15-2.9,22c3.3,0.8,6.5,2,9.4,3.6c2.3-8.2,3.5-16.8,3.5-25.6c0-53-43.1-96.1-96.1-96.1
				S427,63.4,427,116.4s43.1,96.1,96.1,96.1c18.4,0,35.6-5.2,50.2-14.2C571,195.9,568.9,193.2,567.3,190.2z"/>
			<polygon class="st0" points="618,168 603.4,168 603.4,153.4 593.4,153.4 593.4,168 578.7,168 578.7,178 593.4,178 593.4,192.7 
				603.4,192.7 603.4,178 618,178 			"/>
			<g>
				<g>
					<path class="st0" d="M502.2,99.7l-9.8,9l-4.2-5.1L503,91.4h6.4v53.4h-7.2V99.7z"/>
					<path class="st0" d="M530.6,91.4h18.8c3.4,0,6.2,0.5,8.4,1.4c2.2,0.9,4,2.1,5.2,3.5c1.3,1.4,2.2,3,2.7,4.8
						c0.5,1.8,0.8,3.5,0.8,5.2s-0.3,3.4-0.8,5.2c-0.5,1.8-1.4,3.4-2.7,4.8c-1.3,1.4-3,2.6-5.2,3.5c-2.2,0.9-5,1.4-8.4,1.4h-11.5
						v23.5h-7.2V91.4z M537.8,115h9.5c1.4,0,2.8-0.1,4.2-0.3c1.4-0.2,2.6-0.6,3.7-1.2c1.1-0.6,1.9-1.5,2.6-2.6c0.7-1.1,1-2.6,1-4.4
						s-0.3-3.3-1-4.4c-0.7-1.1-1.5-2-2.6-2.6c-1.1-0.6-2.3-1-3.7-1.2c-1.4-0.2-2.8-0.3-4.2-0.3h-9.5V115z"/>
				</g>
			</g>
		</g>
		<g>
			<polygon class="st0" points="384.5,137 236.2,137 236.2,127 359.4,127 336.6,105.5 343.4,98.2 			"/>
		</g>
	</g>
	<g>
		<path class="st0" d="M129.3,188.9c0-1.7,0.1-3.4,0.3-5H10.2l0.7-43.1c0-12.4,10.1-22.5,22.5-22.5h108.4
			c12.4,0,22.5,10.1,22.5,22.5v8.4c1.6-0.2,3.3-0.3,5-0.3c1.7,0,3.4,0.1,5,0.3v-8.4c0-17.9-14.6-32.5-32.5-32.5H33.4
			c-17.9,0-32.5,14.6-32.5,32.4L0,193.9h129.6C129.4,192.2,129.3,190.6,129.3,188.9z"/>
		<g>
			<path class="st0" d="M87.6,85.4c-23.5,0-42.7-19.2-42.7-42.7C44.9,19.2,64,0,87.6,0c23.5,0,42.7,19.2,42.7,42.7
				C130.3,66.2,111.1,85.4,87.6,85.4z M87.6,10c-18,0-32.7,14.7-32.7,32.7s14.7,32.7,32.7,32.7s32.7-14.7,32.7-32.7
				S105.6,10,87.6,10z"/>
		</g>
		<g>
			<g>
				<path class="st0" d="M170,219c-16.7,0-30.2-13.6-30.2-30.2s13.6-30.2,30.2-30.2c3.3,0,6.5,0.5,9.6,1.6l-3.2,9.5
					c-2.1-0.7-4.2-1-6.4-1c-11.1,0-20.2,9.1-20.2,20.2S158.9,209,170,209c11.1,0,20.2-9.1,20.2-20.2h10
					C200.3,205.5,186.7,219,170,219z"/>
			</g>
			<g>
				<polygon class="st0" points="170.8,200.2 154.9,186.3 161.5,178.7 170.2,186.4 196.9,158.6 204.1,165.6 				"/>
			</g>
		</g>
	</g>
</g>
</svg>
