<?xml version="1.0" encoding="utf-8"?>
<!-- Generator: Adobe Illustrator 21.1.0, SVG Export Plug-In . SVG Version: 6.00 Build 0)  -->
<svg version="1.1" id="レイヤー_1" xmlns="http://www.w3.org/2000/svg" xmlns:xlink="http://www.w3.org/1999/xlink" x="0px"
	 y="0px" viewBox="0 0 106.6 106.6" style="enable-background:new 0 0 106.6 106.6;" xml:space="preserve">
<style type="text/css">
	.st0{fill:none;}
	.st1{fill:none;stroke:url(#SVGID_1_);stroke-width:2;stroke-miterlimit:10;}
	.st2{fill:url(#SVGID_2_);}
	.st3{fill:none;stroke:url(#SVGID_3_);stroke-width:2;stroke-miterlimit:10;}
	.st4{fill:none;stroke:url(#SVGID_4_);stroke-width:2;stroke-miterlimit:10;}
</style>
<title>アセット 4</title>
<rect class="st0" width="106.6" height="106.6"/>
<g>
	<g>
		<g>
			<g>
				
					<linearGradient id="SVGID_1_" gradientUnits="userSpaceOnUse" x1="55.6479" y1="43.75" x2="95.9091" y2="43.75" gradientTransform="matrix(1 0 0 -1 0 108)">
					<stop  offset="0" style="stop-color:#7FCD93"/>
					<stop  offset="0.5" style="stop-color:#6494B1"/>
					<stop  offset="1" style="stop-color:#34B4A4"/>
				</linearGradient>
				<path class="st1" d="M58.3,72.6c3.4,7,10.8,11.6,19.2,10.8c9.4-0.9,16.9-8.8,17.3-18.2c0.5-11-8.3-20.2-19.2-20.2
					c-9.7,0-17.8,7.2-19,16.6"/>
				
					<linearGradient id="SVGID_2_" gradientUnits="userSpaceOnUse" x1="52.6061" y1="46.1451" x2="61.9272" y2="46.1451" gradientTransform="matrix(1 0 0 -1 0 108)">
					<stop  offset="0" style="stop-color:#7FCD93"/>
					<stop  offset="0.5" style="stop-color:#6494B1"/>
					<stop  offset="1" style="stop-color:#34B4A4"/>
				</linearGradient>
				<polygon class="st2" points="61.9,59.8 55.9,65.8 52.6,57.9 				"/>
			</g>
			
				<linearGradient id="SVGID_3_" gradientUnits="userSpaceOnUse" x1="74.1928" y1="46.3827" x2="82.7584" y2="46.3827" gradientTransform="matrix(1 0 0 -1 0 108)">
				<stop  offset="0" style="stop-color:#7FCD93"/>
				<stop  offset="0.5" style="stop-color:#6494B1"/>
				<stop  offset="1" style="stop-color:#34B4A4"/>
			</linearGradient>
			<polyline class="st3" points="75.2,51.6 75.2,66 82.2,70.8 			"/>
		</g>
	</g>
	
		<linearGradient id="SVGID_4_" gradientUnits="userSpaceOnUse" x1="10.7398" y1="63.5063" x2="83.8398" y2="63.5063" gradientTransform="matrix(1 0 0 -1 0 108)">
		<stop  offset="0" style="stop-color:#7FCD93"/>
		<stop  offset="0.5" style="stop-color:#6494B1"/>
		<stop  offset="1" style="stop-color:#34B4A4"/>
	</linearGradient>
	<path class="st4" d="M46.8,62.9c-23.8,0-35.1,2.9-35.1,2.9V23.1c0,0,14.5,2.8,35.1,2.8s36-2.8,36-2.8v16"/>
</g>
</svg>
