<?xml version="1.0" encoding="utf-8"?>
<!-- Generator: Adobe Illustrator 24.1.0, SVG Export Plug-In . SVG Version: 6.00 Build 0)  -->
<svg version="1.1" id="レイヤー_1" xmlns="http://www.w3.org/2000/svg" xmlns:xlink="http://www.w3.org/1999/xlink" x="0px"
	 y="0px" width="60px" height="60px" viewBox="0 0 60 60" style="enable-background:new 0 0 60 60;" xml:space="preserve">
<style type="text/css">
	.st0{display:none;}
	.st1{display:inline;fill:none;stroke:#8E8E8E;stroke-miterlimit:10;}
	.st2{display:inline;}
	.st3{fill:none;stroke:#8E8E8E;stroke-miterlimit:10;}
	.st4{fill:#FFFFFF;}
</style>
<g id="nav_x5F_about_x5F_icon" class="st0">
	<path class="st1" d="M40.1,42.4H22.4c-2.8,0-5-2.2-5-5V19.7c0-2.8,2.2-5,5-5h17.7c2.8,0,5,2.2,5,5v17.7
		C45.1,40.1,42.9,42.4,40.1,42.4z"/>
</g>
<g id="nav_x5F_user_x5F_icon" class="st0">
	<g class="st2">
		<circle class="st3" cx="31.2" cy="19.4" r="4.7"/>
		<path class="st3" d="M31.3,30c-1.5,0-2.8-0.3-4.1-0.8l-6.3,3.9l1,9.2h18.9l1-9.2l-6.3-3.9C34.1,29.7,32.7,30,31.3,30z"/>
	</g>
</g>
<g id="nav_x5F_prapoly_x5F_icon" class="st0">
	<g class="st2">
		<line class="st3" x1="17.3" y1="17.6" x2="45.1" y2="17.6"/>
		<line class="st3" x1="17.3" y1="28.5" x2="33.7" y2="28.5"/>
		<line class="st3" x1="17.3" y1="39.5" x2="45.1" y2="39.5"/>
	</g>
</g>
<path class="st4" d="M54.8,60.1H6.3V0.2h48.6V60.1z M9.3,57.1h42.6V3.2H9.3V57.1z"/>
<rect x="18.1" y="13.6" class="st4" width="25.5" height="3"/>
<rect x="18.1" y="23.4" class="st4" width="25.5" height="3"/>
<rect x="18.1" y="33.3" class="st4" width="25.5" height="3"/>
<rect x="18.1" y="43.1" class="st4" width="13.3" height="3"/>
</svg>
