<?xml version="1.0" encoding="utf-8"?>
<!-- Generator: Adobe Illustrator 24.1.0, SVG Export Plug-In . SVG Version: 6.00 Build 0)  -->
<svg version="1.1" id="レイヤー_1" xmlns="http://www.w3.org/2000/svg" xmlns:xlink="http://www.w3.org/1999/xlink" x="0px"
	 y="0px" width="60.3px" height="57px" viewBox="0 0 60.3 57" style="enable-background:new 0 0 60.3 57;" xml:space="preserve">
<style type="text/css">
	.st0{display:none;}
	.st1{display:inline;fill:none;stroke:#8E8E8E;stroke-miterlimit:10;}
	.st2{display:inline;}
	.st3{fill:none;stroke:#8E8E8E;stroke-miterlimit:10;}
	.st4{fill:none;stroke:#919191;stroke-miterlimit:10;}
	.st5{display:inline;fill:#919191;}
	.st6{font-family:'HiraKakuProN-W3-83pv-RKSJ-H';}
	.st7{font-size:20px;}
	.st8{letter-spacing:2;}
	.st9{display:inline;fill:none;stroke:#919191;stroke-miterlimit:10;}
	.st10{fill:#5D5E5E;}
</style>
<g id="nav_x5F_about_x5F_icon" class="st0">
	<path class="st1" d="M40.5,40.8H22.8c-2.8,0-5-2.2-5-5V18.1c0-2.8,2.2-5,5-5h17.7c2.8,0,5,2.2,5,5v17.7
		C45.5,38.5,43.3,40.8,40.5,40.8z"/>
</g>
<g id="nav_x5F_user_x5F_icon" class="st0">
	<g class="st2">
		<circle class="st3" cx="31.6" cy="17.8" r="4.7"/>
		<path class="st3" d="M31.7,28.4c-1.5,0-2.8-0.3-4.1-0.8l-6.3,3.9l1,9.2h18.9l1-9.2l-6.3-3.9C34.5,28.1,33.1,28.4,31.7,28.4z"/>
	</g>
</g>
<g id="nav_x5F_prapoly_x5F_icon" class="st0">
	<g class="st2">
		<line class="st3" x1="17.7" y1="16" x2="45.5" y2="16"/>
		<line class="st3" x1="17.7" y1="26.9" x2="34.1" y2="26.9"/>
		<line class="st3" x1="17.7" y1="37.9" x2="45.5" y2="37.9"/>
	</g>
</g>
<g id="nav_x5F_link_x5F_icon" class="st0">
	<g class="st2">
		<rect x="18" y="15.2" class="st3" width="22.1" height="17.7"/>
		<polyline class="st3" points="45.4,19.4 45.4,38.6 22.4,38.6 		"/>
	</g>
</g>
<g id="menu_x5F_buy_x5F_tk" class="st0">
	<g class="st2">
		<g>
			<g>
				<polygon class="st4" points="56.4,46.4 11.5,46.4 11.5,30.1 14.6,27 11.5,27 11.5,20.8 56.4,20.8 				"/>
			</g>
			<g>
				<g>
					<line class="st4" x1="23.3" y1="40.4" x2="23.3" y2="44.4"/>
				</g>
				<g>
					<line class="st4" x1="23.3" y1="34.5" x2="23.3" y2="38.5"/>
				</g>
				<g>
					<line class="st4" x1="23.3" y1="28.6" x2="23.3" y2="32.6"/>
				</g>
				<g>
					<line class="st4" x1="23.3" y1="22.8" x2="23.3" y2="26.8"/>
				</g>
			</g>
		</g>
		<g>
			<g>
				<polyline class="st4" points="49.3,16.5 49.3,11.1 4.4,11.1 4.4,17.3 7.6,17.3 4.4,20.4 4.4,33.9 7.8,33.9 				"/>
			</g>
		</g>
	</g>
</g>
<g id="menu_x5F_point" class="st0">
	<text transform="matrix(1 0 0 1 24.7802 36.6395)" class="st5 st6 st7 st8">P</text>
	<circle class="st9" cx="31.4" cy="28.4" r="20.2"/>
</g>
<g>
	<g>
		<path class="st10" d="M28.5,57C12.8,57,0,44.2,0,28.5C0,12.8,12.8,0,28.5,0c14.1,0,26.3,10.6,28.2,24.6l-3,0.4
			C52,12.5,41.2,3,28.5,3C14.4,3,3,14.4,3,28.5C3,42.6,14.4,54,28.5,54c12,0,22.5-8.6,24.9-20.4l2.9,0.6C53.7,47.4,42,57,28.5,57z"
			/>
		<polygon class="st10" points="34.2,36.6 26.2,31.2 26.2,13.2 29.2,13.2 29.2,29.6 35.8,34.2 		"/>
	</g>
	<polygon class="st10" points="48.4,22.2 55.9,29.1 60.3,19.9 	"/>
</g>
</svg>
