<svg xmlns="http://www.w3.org/2000/svg" viewBox="0 0 118.54 201.86"><defs><style>.cls-1,.cls-4{fill:#fff;}.cls-2,.cls-3{fill:none;stroke:#fff;stroke-miterlimit:10;}.cls-2{stroke-width:1.67px;}.cls-3{stroke-width:1.3px;}.cls-4{fill-rule:evenodd;}.cls-5{fill:#00a0e9;}.cls-6{fill:#999;}.cls-7{fill:#13a4db;}</style></defs><title>アセット 3</title><g id="レイヤー_2" data-name="レイヤー 2"><g id="レイヤー_1-2" data-name="レイヤー 1"><path class="cls-1" d="M106,1.74A10.79,10.79,0,0,1,116.8,12.51V189.35A10.79,10.79,0,0,1,106,200.13H12.51A10.79,10.79,0,0,1,1.74,189.35V12.51A10.79,10.79,0,0,1,12.51,1.74H106M106,0H12.51A12.51,12.51,0,0,0,0,12.51V189.35a12.51,12.51,0,0,0,12.51,12.51H106a12.51,12.51,0,0,0,12.51-12.51V12.51A12.51,12.51,0,0,0,106,0Z"/><circle class="cls-1" cx="47.02" cy="12.32" r="2.04"/><line class="cls-2" x1="53.58" y1="12.32" x2="73.56" y2="12.32"/><path class="cls-1" d="M58.94,171.33a8.53,8.53,0,1,1-8.53,8.53,8.54,8.54,0,0,1,8.53-8.53m0-1.74a10.27,10.27,0,1,0,10.27,10.27,10.27,10.27,0,0,0-10.27-10.27Z"/><path class="cls-3" d="M5.36,187.45s2.36,8.45,9.19,8.45h89s7.7.74,8.94-8.45V15s0-8.06-8.45-9.3"/><path class="cls-4" d="M11.6,24V163.24h95.33V24Z"/><path class="cls-5" d="M82.89,64.26a6.51,6.51,0,0,1,6.5,6.5v46.79a6.51,6.51,0,0,1-6.5,6.5H36.1a6.51,6.51,0,0,1-6.5-6.5V70.76a6.51,6.51,0,0,1,6.5-6.5H82.89m0-1.3H36.1a7.82,7.82,0,0,0-7.8,7.8v46.79a7.82,7.82,0,0,0,7.8,7.8H82.89a7.82,7.82,0,0,0,7.8-7.8V70.76a7.82,7.82,0,0,0-7.8-7.8Z"/><path class="cls-5" d="M85.53,79.24l-1.47.29a138.3,138.3,0,0,1-24.59,1.89,138.28,138.28,0,0,1-24.59-1.89l-1.47-.29v31.7l1.47-.29a138.19,138.19,0,0,1,24.59-1.89,138.21,138.21,0,0,1,24.59,1.89l1.47.29Z"/><path d="M84.44,80.56l-.18,0a139.35,139.35,0,0,1-24.8,1.91,139.33,139.33,0,0,1-24.8-1.91l-.18,0v29.07l.18,0a139.3,139.3,0,0,1,24.8-1.91,139.33,139.33,0,0,1,24.8,1.91l.18,0Z"/><path class="cls-6" d="M37.71,85c0,.15-.09.27-.2.27H35.56c-.11,0-.21-.12-.21-.27V83.5a.25.25,0,0,1,.21-.27H37.5c.11,0,.2.12.2.27Z"/><path class="cls-6" d="M37.71,90.4c0,.15-.09.27-.2.27H35.56c-.11,0-.21-.12-.21-.27V88.89a.25.25,0,0,1,.21-.27H37.5c.11,0,.2.12.2.27Z"/><path class="cls-6" d="M37.71,95.79c0,.15-.09.27-.2.27H35.56c-.11,0-.21-.12-.21-.27V94.28a.25.25,0,0,1,.21-.27H37.5c.11,0,.2.12.2.27Z"/><path class="cls-6" d="M37.71,101.18c0,.15-.09.27-.2.27H35.56c-.11,0-.21-.12-.21-.27V99.67a.25.25,0,0,1,.21-.27H37.5c.11,0,.2.12.2.27Z"/><path class="cls-6" d="M37.71,106.58c0,.15-.09.27-.2.27H35.56c-.11,0-.21-.12-.21-.27v-1.51a.25.25,0,0,1,.21-.27H37.5c.11,0,.2.12.2.27Z"/><path class="cls-6" d="M83.57,85c0,.15-.09.27-.2.27H81.43c-.11,0-.21-.12-.21-.27V83.5c0-.15.09-.27.21-.27h1.94c.11,0,.2.12.2.27Z"/><path class="cls-6" d="M83.57,90.4c0,.15-.09.27-.2.27H81.43c-.11,0-.21-.12-.21-.27V88.89c0-.15.09-.27.21-.27h1.94c.11,0,.2.12.2.27Z"/><path class="cls-6" d="M83.57,95.79c0,.15-.09.27-.2.27H81.43c-.11,0-.21-.12-.21-.27V94.28c0-.15.09-.27.21-.27h1.94c.11,0,.2.12.2.27Z"/><path class="cls-6" d="M83.57,101.18c0,.15-.09.27-.2.27H81.43c-.11,0-.21-.12-.21-.27V99.67c0-.15.09-.27.21-.27h1.94c.11,0,.2.12.2.27Z"/><path class="cls-6" d="M83.57,106.58c0,.15-.09.27-.2.27H81.43c-.11,0-.21-.12-.21-.27v-1.51c0-.15.09-.27.21-.27h1.94c.11,0,.2.12.2.27Z"/><path class="cls-1" d="M48,87.58a3.36,3.36,0,0,0-2.11.6,2.4,2.4,0,0,0,0,3.57,3.47,3.47,0,0,0,2,.56v1.54l-.27,0h-.3a3.88,3.88,0,0,1-2.65-1.06A3.62,3.62,0,0,1,43.53,90a3.73,3.73,0,0,1,1.15-2.87,3.84,3.84,0,0,1,2.7-1.07H48Z"/><rect class="cls-1" x="49.05" y="86.11" width="1.54" height="7.8"/><path class="cls-1" d="M57,92.9a1,1,0,0,1-.31.76A1,1,0,0,1,56,94a1.09,1.09,0,0,1-.53-.15.83.83,0,0,1-.38-.45L53.18,88.5h-.08v5.37H51.76V87.1a1.23,1.23,0,0,1,.27-.77A.81.81,0,0,1,52.7,86a1,1,0,0,1,.54.18,1,1,0,0,1,.39.47l1.95,4.85h.09v-5.4H57Z"/><path class="cls-1" d="M61.83,93.87H59.3a1,1,0,0,1-.81-.39,1.37,1.37,0,0,1-.31-.88V87.42a1.72,1.72,0,0,1,.26-1,.79.79,0,0,1,.69-.39h2.71V87.6H59.67V89h2.06v1.52H59.67V92.3h2.17Z"/><path class="cls-1" d="M68.91,93.87H67.76V88.34l-1,4.72a1.76,1.76,0,0,1-.26.64.56.56,0,0,1-.49.23.59.59,0,0,1-.52-.24,2,2,0,0,1-.28-.69L64.06,88.4v5.47H62.88V87.1a1.08,1.08,0,0,1,.27-.78.89.89,0,0,1,.66-.29.84.84,0,0,1,.59.21,1.25,1.25,0,0,1,.33.62l1.22,5,1.1-5.29a.78.78,0,0,1,.31-.44.86.86,0,0,1,.53-.19,1.14,1.14,0,0,1,.65.29,1,1,0,0,1,.38.87Z"/><path class="cls-1" d="M71.73,91.14l.69-3.39L73,91.14ZM73.53,87a1.73,1.73,0,0,0-.44-.76,1,1,0,0,0-.73-.31.85.85,0,0,0-.64.29,1.7,1.7,0,0,0-.39.69l-1.94,6.93h1.55l.41-1.49h2.1l.38,1.49h1.55Z"/><path class="cls-1" d="M43.57,98.32a3.18,3.18,0,0,0-.72-.43,1.94,1.94,0,0,0-.76-.15,1.09,1.09,0,0,0-.68.23.77.77,0,0,0-.31.65q0,.58.92.93a5.13,5.13,0,0,1,1.36.71q.44.36.44,1.67a2.21,2.21,0,0,1-.65,1.74,2.31,2.31,0,0,1-1.6.58,3.76,3.76,0,0,1-.88-.11,5.49,5.49,0,0,1-.9-.31v-1.66q.4.18.88.36a2.54,2.54,0,0,0,.86.18,1,1,0,0,0,.76-.24.82.82,0,0,0,.24-.6q0-.48-.92-.86a5.59,5.59,0,0,1-1.42-.78,2.05,2.05,0,0,1-.5-1.63,2.31,2.31,0,0,1,.64-1.66,2.14,2.14,0,0,1,1.62-.67,4.51,4.51,0,0,1,.86.07,2.62,2.62,0,0,1,.76.28Z"/><path class="cls-1" d="M49.49,101.6a2.75,2.75,0,0,1-.72,1.86,2.22,2.22,0,0,1-3.39.07,2.4,2.4,0,0,1-.75-1.74V96.37H46v5.29a1.07,1.07,0,0,0,.3.75.94.94,0,0,0,1.43,0,1.09,1.09,0,0,0,.29-.74v-5.3h1.44Z"/><path class="cls-1" d="M55.47,103.22a1.07,1.07,0,0,1-.29.76.86.86,0,0,1-.63.31.94.94,0,0,1-.5-.15.85.85,0,0,1-.35-.45l-1.76-4.86h-.06v5.37H50.62V97.41a1.3,1.3,0,0,1,.25-.77.73.73,0,0,1,.61-.35.83.83,0,0,1,.49.18,1,1,0,0,1,.36.47l1.79,4.85h.09V96.4h1.26Z"/><path class="cls-1" d="M60.26,98.32a3.18,3.18,0,0,0-.72-.43,1.94,1.94,0,0,0-.76-.15,1.09,1.09,0,0,0-.68.23.77.77,0,0,0-.31.65q0,.58.92.93a5.12,5.12,0,0,1,1.36.71q.44.36.44,1.67a2.21,2.21,0,0,1-.65,1.74,2.31,2.31,0,0,1-1.6.58,3.75,3.75,0,0,1-.88-.11,5.53,5.53,0,0,1-.9-.31v-1.66q.4.18.88.36a2.53,2.53,0,0,0,.86.18,1,1,0,0,0,.76-.24.82.82,0,0,0,.24-.6q0-.48-.92-.86a5.6,5.6,0,0,1-1.42-.78,2.05,2.05,0,0,1-.5-1.63A2.31,2.31,0,0,1,57,96.95a2.14,2.14,0,0,1,1.62-.67,4.52,4.52,0,0,1,.86.07,2.62,2.62,0,0,1,.76.28Z"/><polygon class="cls-1" points="66.28 104.18 64.85 104.18 64.85 100.93 62.79 100.93 62.79 104.18 61.36 104.18 61.36 96.37 62.79 96.37 62.79 99.34 64.85 99.34 64.85 96.37 66.28 96.37 66.28 104.18"/><rect class="cls-1" x="67.46" y="96.42" width="1.41" height="7.8"/><path class="cls-1" d="M74.85,103.22a1.07,1.07,0,0,1-.29.76.86.86,0,0,1-.63.31.94.94,0,0,1-.5-.15.85.85,0,0,1-.35-.45l-1.76-4.86h-.06v5.37H70V97.41a1.3,1.3,0,0,1,.25-.77.73.73,0,0,1,.61-.35.83.83,0,0,1,.49.18,1,1,0,0,1,.36.47l1.79,4.85h.09V96.4h1.26Z"/><path class="cls-1" d="M79.18,104.18H76.85a.89.89,0,0,1-.75-.39,1.44,1.44,0,0,1-.28-.88V97.73a1.84,1.84,0,0,1,.24-1,.71.71,0,0,1,.62-.39h2.51v1.54h-2v1.39h1.89v1.52H77.2v1.78h2Z"/><path class="cls-7" d="M94.08,55.4c0,3.9-3.78,5.36-3.78,5.36,3.53.85,3.78,5.66,3.78,5.66s.24-4.81,3.78-5.66C97.85,60.76,94.08,59.3,94.08,55.4Z"/><path class="cls-7" d="M25.18,121.7c0,3.9-3.78,5.36-3.78,5.36,3.53.85,3.78,5.66,3.78,5.66s.24-4.81,3.78-5.66C29,127.06,25.18,125.6,25.18,121.7Z"/><path class="cls-7" d="M31.68,128.61a4.19,4.19,0,0,1-2.6,3.69c2.43.59,2.6,3.9,2.6,3.9s.17-3.32,2.6-3.9A4.19,4.19,0,0,1,31.68,128.61Z"/><path class="cls-5" d="M38.42,56.26a11.06,11.06,0,0,0-.26-1.11L37,51.05a13.83,13.83,0,0,1-.32-1.41c-.12.63-.23,1.06-.33,1.41l-1.17,4.09a9.22,9.22,0,0,0-.25,1.11H33.45c-.06-.27-.06-.27-.3-1.13L31.4,48.81A10.92,10.92,0,0,0,31,47.5h1.76a6.08,6.08,0,0,0,.2,1.19l1,4.19c.08.34.2.9.26,1.29.14-.68.22-1,.31-1.3l1.22-4.25A7,7,0,0,0,36,47.5h1.35a7.87,7.87,0,0,0,.25,1.1l1.23,4.24c.08.29.13.51.31,1.33.06-.25.06-.25.12-.64,0-.18.12-.61.14-.7l1-4.15a5.82,5.82,0,0,0,.19-1.18h1.76a10.12,10.12,0,0,0-.43,1.31l-1.76,6.3c-.08.31-.13.51-.15.6a2.76,2.76,0,0,0-.12.54Z"/><path class="cls-5" d="M44.84,53.46a2,2,0,0,0,.41,1.23,1.85,1.85,0,0,0,2.7.07,1.59,1.59,0,0,0,.32-.57l1.3.42a3,3,0,0,1-2.94,1.86,3,3,0,0,1-3.18-3.36,3,3,0,0,1,3.1-3.37,2.79,2.79,0,0,1,2.74,1.74,4.53,4.53,0,0,1,.32,1.67s0,.05,0,.31Zm3.36-1.09a1.72,1.72,0,0,0-.48-1.06,1.57,1.57,0,0,0-1.19-.44,1.65,1.65,0,0,0-1.65,1.5Z"/><path class="cls-5" d="M52.86,47.5a10.16,10.16,0,0,0-.08,1.44v5.89a11.3,11.3,0,0,0,.08,1.43h-1.6a10.62,10.62,0,0,0,.08-1.43v-5.9a9.89,9.89,0,0,0-.08-1.43Z"/><path class="cls-5" d="M59.19,52.06a2,2,0,0,0-.34-.67,1.38,1.38,0,0,0-1.13-.51c-1.08,0-1.75.85-1.75,2.21s.68,2.22,1.79,2.22A1.47,1.47,0,0,0,59,54.7a1.54,1.54,0,0,0,.22-.55l1.36.28a3.07,3.07,0,0,1-.46.94,2.86,2.86,0,0,1-2.42,1.11,3.06,3.06,0,0,1-3.19-3.34,3.56,3.56,0,0,1,.94-2.54,3,3,0,0,1,2.21-.84,2.85,2.85,0,0,1,2.46,1.19,3.67,3.67,0,0,1,.39.8Z"/><path class="cls-5" d="M62,53.11a3.27,3.27,0,1,1,3.29,3.36A3.1,3.1,0,0,1,62,53.11Zm1.42,0c0,1.35.7,2.19,1.85,2.19s1.85-.83,1.85-2.17-.67-2.23-1.84-2.23S63.38,51.74,63.38,53.11Z"/><path class="cls-5" d="M70.14,56.26a11.06,11.06,0,0,0,.08-1.43V51.37a9.6,9.6,0,0,0-.08-1.43h1.47v.56c0,.07,0,.23,0,.41a2.22,2.22,0,0,1,2-1.1,2,2,0,0,1,1.42.5,1.42,1.42,0,0,1,.42.66,2.54,2.54,0,0,1,.92-.87,2.43,2.43,0,0,1,1.23-.29,2.17,2.17,0,0,1,1.65.63,2.28,2.28,0,0,1,.52,1.67v2.72a9,9,0,0,0,.09,1.43H78.3a8.7,8.7,0,0,0,.09-1.43V52.36c0-1-.34-1.41-1.08-1.41a1.27,1.27,0,0,0-.9.33,2.08,2.08,0,0,0-.69,1.36v2.18a10.82,10.82,0,0,0,.08,1.43H74.2a9,9,0,0,0,.09-1.43V52.36c0-.92-.35-1.39-1.07-1.39a1.36,1.36,0,0,0-1.13.57,2.48,2.48,0,0,0-.47,1.1v2.18a11.41,11.41,0,0,0,.08,1.43Z"/><path class="cls-5" d="M82.94,53.46a2,2,0,0,0,.41,1.23,1.85,1.85,0,0,0,2.7.07,1.59,1.59,0,0,0,.32-.57l1.3.42a3,3,0,0,1-2.94,1.86,3,3,0,0,1-3.18-3.36,3,3,0,0,1,3.1-3.37,2.79,2.79,0,0,1,2.74,1.74,4.53,4.53,0,0,1,.32,1.67s0,.05,0,.31Zm3.36-1.09a1.72,1.72,0,0,0-.48-1.06,1.57,1.57,0,0,0-1.19-.44A1.65,1.65,0,0,0,83,52.37Z"/></g></g></svg>