<?xml version="1.0" encoding="utf-8"?>
<!-- Generator: Adobe Illustrator 21.1.0, SVG Export Plug-In . SVG Version: 6.00 Build 0)  -->
<svg version="1.1" xmlns="http://www.w3.org/2000/svg" xmlns:xlink="http://www.w3.org/1999/xlink" x="0px" y="0px"
	 viewBox="0 0 408.5 159.1" style="enable-background:new 0 0 408.5 159.1;" xml:space="preserve">
<style type="text/css">
	.st0{fill:none;stroke:url(#SVGID_1_);stroke-miterlimit:10;}
	.st1{fill:none;stroke:url(#SVGID_2_);stroke-miterlimit:10;}
	.st2{fill:none;stroke:url(#SVGID_3_);stroke-miterlimit:10;}
	.st3{fill-rule:evenodd;clip-rule:evenodd;fill:none;stroke:url(#SVGID_4_);stroke-miterlimit:10;}
	.st4{fill-rule:evenodd;clip-rule:evenodd;fill:none;stroke:url(#SVGID_5_);stroke-miterlimit:10;}
	.st5{fill-rule:evenodd;clip-rule:evenodd;fill:none;stroke:url(#SVGID_6_);stroke-miterlimit:10;}
	.st6{fill-rule:evenodd;clip-rule:evenodd;fill:none;stroke:url(#SVGID_7_);stroke-miterlimit:10;}
	.st7{font-family:'HiraKakuProN-W3-83pv-RKSJ-H';}
	.st8{font-size:30.8696px;}
	.st9{letter-spacing:3;}
	.st10{font-size:46.3044px;}
	.st11{letter-spacing:5;}
	.st12{fill:url(#SVGID_8_);}
	.st13{fill:url(#SVGID_9_);}
	.st14{font-size:30.2358px;}
	.st15{letter-spacing:1;}
	.st16{font-size:20.4px;}
	.st17{letter-spacing:2;}
	.st18{fill:url(#SVGID_10_);}
	.st19{fill:url(#SVGID_11_);}
	.st20{fill-rule:evenodd;clip-rule:evenodd;fill:none;stroke:url(#SVGID_12_);stroke-miterlimit:10;}
	.st21{fill:none;stroke:url(#SVGID_13_);stroke-miterlimit:10;}
	.st22{fill:none;stroke:url(#SVGID_14_);stroke-miterlimit:10;}
	.st23{fill:none;stroke:url(#SVGID_15_);stroke-miterlimit:10;}
	.st24{fill:none;stroke:url(#SVGID_16_);stroke-miterlimit:10;}
	.st25{fill:none;stroke:url(#SVGID_17_);stroke-miterlimit:10;}
	.st26{fill:none;stroke:url(#SVGID_18_);stroke-miterlimit:10;}
</style>
<g id="app_x5F_tutorial">
</g>
<g id="app_x5F_tutorialNEW">
	<g>
		<g>
			<linearGradient id="SVGID_1_" gradientUnits="userSpaceOnUse" x1="128.253" y1="115.2904" x2="209.2932" y2="115.2904">
				<stop  offset="0" style="stop-color:#7FCB91"/>
				<stop  offset="0.5" style="stop-color:#6492AF"/>
				<stop  offset="1" style="stop-color:#35B2A2"/>
			</linearGradient>
			<line class="st0" x1="128.3" y1="115.3" x2="209.3" y2="115.3"/>
			<linearGradient id="SVGID_2_" gradientUnits="userSpaceOnUse" x1="191.1748" y1="115.2904" x2="210.0003" y2="115.2904">
				<stop  offset="0" style="stop-color:#7FCB91"/>
				<stop  offset="0.5" style="stop-color:#6492AF"/>
				<stop  offset="1" style="stop-color:#35B2A2"/>
			</linearGradient>
			<polyline class="st1" points="191.5,97.5 209.3,115.3 191.5,133.1 			"/>
			
				<linearGradient id="SVGID_3_" gradientUnits="userSpaceOnUse" x1="4970.1611" y1="-12909.3291" x2="4988.9868" y2="-12909.3291" gradientTransform="matrix(-1 0 0 -1 5116.5327 -12794.0391)">
				<stop  offset="0" style="stop-color:#7FCB91"/>
				<stop  offset="0.5" style="stop-color:#6492AF"/>
				<stop  offset="1" style="stop-color:#35B2A2"/>
			</linearGradient>
			<polyline class="st2" points="146,133.1 128.3,115.3 146,97.5 			"/>
		</g>
		<linearGradient id="SVGID_4_" gradientUnits="userSpaceOnUse" x1="234.873" y1="109.3548" x2="408.5" y2="109.3548">
			<stop  offset="0" style="stop-color:#7FCD93"/>
			<stop  offset="0.5" style="stop-color:#6494B1"/>
			<stop  offset="1" style="stop-color:#34B4A4"/>
		</linearGradient>
		<polygon class="st3" points="235.4,60.1 235.4,84 250.2,84 235.4,98.8 235.4,158.6 408,158.6 408,60.1 		"/>
		<linearGradient id="SVGID_5_" gradientUnits="userSpaceOnUse" x1="274.0757" y1="136.2214" x2="275.0757" y2="136.2214">
			<stop  offset="0" style="stop-color:#7FCD93"/>
			<stop  offset="0.5" style="stop-color:#6494B1"/>
			<stop  offset="1" style="stop-color:#34B4A4"/>
		</linearGradient>
		<line class="st4" x1="274.6" y1="128.5" x2="274.6" y2="143.9"/>
		<linearGradient id="SVGID_6_" gradientUnits="userSpaceOnUse" x1="274.0757" y1="110.1631" x2="275.0757" y2="110.1631">
			<stop  offset="0" style="stop-color:#7FCD93"/>
			<stop  offset="0.5" style="stop-color:#6494B1"/>
			<stop  offset="1" style="stop-color:#34B4A4"/>
		</linearGradient>
		<line class="st5" x1="274.6" y1="102.5" x2="274.6" y2="117.9"/>
		<linearGradient id="SVGID_7_" gradientUnits="userSpaceOnUse" x1="274.0757" y1="84.1047" x2="275.0757" y2="84.1047">
			<stop  offset="0" style="stop-color:#7FCD93"/>
			<stop  offset="0.5" style="stop-color:#6494B1"/>
			<stop  offset="1" style="stop-color:#34B4A4"/>
		</linearGradient>
		<line class="st6" x1="274.6" y1="76.4" x2="274.6" y2="91.8"/>
		<g>
			<text transform="matrix(1 0 0 1 308.8239 127.1376)"><tspan x="0" y="0" class="st7 st8 st9">¥</tspan><tspan x="25" y="0" class="st7 st10 st11">0</tspan></text>
			<g>
				<linearGradient id="SVGID_8_" gradientUnits="userSpaceOnUse" x1="309.2868" y1="109.2852" x2="362.1086" y2="109.2852">
					<stop  offset="0" style="stop-color:#7FCD93"/>
					<stop  offset="0.5" style="stop-color:#6494B1"/>
					<stop  offset="1" style="stop-color:#34B4A4"/>
				</linearGradient>
				<path class="st12" d="M318.1,127c0.2-1.1,0.2-2.1,0.2-3.5v-3h-4.5c-1.4,0-2.2,0.1-3.2,0.2v-2.3c1,0.2,1.8,0.2,3.2,0.2h4.5v-1.5
					l-1.2-1.8h-3.3c-1.4,0-2.2,0.1-3.2,0.2v-2.3c1,0.2,1.8,0.2,3.2,0.2h2.2l-4.8-7.3c-0.9-1.4-1.4-2.1-1.9-2.7h3.3
					c0.2,0.7,0.5,1.3,1.5,2.8l5.4,8.7l5.4-8.7c0.9-1.5,1.3-2.1,1.5-2.8h3.3c-0.4,0.5-1.1,1.4-1.9,2.7l-4.8,7.3h2.2
					c1.4,0,2.2-0.1,3.2-0.2v2.3c-1-0.2-1.9-0.2-3.2-0.2h-3.3l-1.2,1.9v1.5h4.5c1.4,0,2.2-0.1,3.2-0.2v2.3c-1-0.2-1.9-0.2-3.2-0.2
					h-4.5v3c0,1.5,0.1,2.3,0.2,3.5H318.1z"/>
				<linearGradient id="SVGID_9_" gradientUnits="userSpaceOnUse" x1="309.2868" y1="109.2852" x2="362.1086" y2="109.2852">
					<stop  offset="0" style="stop-color:#7FCD93"/>
					<stop  offset="0.5" style="stop-color:#6494B1"/>
					<stop  offset="1" style="stop-color:#34B4A4"/>
				</linearGradient>
				<path class="st13" d="M340.6,124.3c-1.2-1.3-2.2-2.7-2.8-4.3c-1.2-3.2-1.8-6.9-1.8-10.7c0-4.9,1.1-9.9,2.7-12.6
					c2.2-3.8,5.8-5.7,10.4-5.7c3.4,0,6.4,1.1,8.5,3.3c1.3,1.3,2.2,2.7,2.8,4.3c1.2,3.2,1.8,6.9,1.8,10.7c0,5.6-1.2,10.6-3.2,13.4
					c-2.3,3.2-5.6,4.9-9.8,4.9C345.6,127.6,342.8,126.4,340.6,124.3z M343.3,96.6c-1,1.1-1.7,2.2-2.1,3.4c-1,2.8-1.4,6-1.4,9.4
					c0,4.3,0.9,8.8,2.2,11c1.6,2.7,4,4,7.2,4c2.3,0,4.3-0.7,5.7-2.2c1-1.1,1.8-2.3,2.2-3.6c1-2.9,1.4-5.9,1.4-9.4
					c0-4-0.9-8.6-2.1-10.8c-1.5-2.8-4-4.2-7.3-4.2C346.6,94.2,344.7,95,343.3,96.6z"/>
			</g>
		</g>
		<g>
			<text transform="matrix(1 0 0 1 34.9397 42.4105)"><tspan x="0" y="0" class="st7 st14 st15">6</tspan><tspan x="21.7" y="0.3" class="st7 st16 st17">P</tspan></text>
			<g>
				<linearGradient id="SVGID_10_" gradientUnits="userSpaceOnUse" x1="36.7243" y1="30.7369" x2="69.5119" y2="30.7369">
					<stop  offset="0" style="stop-color:#7FCD93"/>
					<stop  offset="0.5" style="stop-color:#6494B1"/>
					<stop  offset="1" style="stop-color:#34B4A4"/>
				</linearGradient>
				<path class="st18" d="M50.1,24.3c-0.4-1-0.6-1.4-1.1-1.9c-0.9-1-2.1-1.5-3.6-1.5c-2.4,0-4.1,1.3-5.2,3.8
					c-0.8,1.8-1.1,3.2-1.3,6.5c0.5-0.9,0.8-1.4,1.5-1.9c1.4-1.3,3-1.8,5.1-1.8c4.7,0,7.6,2.9,7.6,7.6c0,4.7-3.1,7.8-7.9,7.8
					c-2.1,0-4.2-0.7-5.5-1.9c-2-1.8-3.1-5.2-3.1-9.5c0-3.8,0.8-7.2,2.3-9.1c1.6-2.2,3.8-3.3,6.4-3.3c1.8,0,3.4,0.5,4.6,1.3
					c1.1,0.8,1.7,1.6,2.5,3.4L50.1,24.3z M45.3,29.3c-1.5,0-3.1,0.7-4.2,1.7c-1,1-1.5,2.3-1.5,3.8c0,3.3,2.4,5.7,5.7,5.7
					c2,0,3.8-0.9,4.7-2.4c0.5-0.8,0.8-2,0.8-3.2C50.8,31.4,48.8,29.3,45.3,29.3z"/>
				<linearGradient id="SVGID_11_" gradientUnits="userSpaceOnUse" x1="36.7243" y1="30.7369" x2="69.5119" y2="30.7369">
					<stop  offset="0" style="stop-color:#7FCD93"/>
					<stop  offset="0.5" style="stop-color:#6494B1"/>
					<stop  offset="1" style="stop-color:#34B4A4"/>
				</linearGradient>
				<path class="st19" d="M58.2,42.6c0.1-0.7,0.2-1.3,0.2-2.3v-11c0-0.8,0-1.5-0.2-2.3c0.7,0,1.3,0.1,2.2,0.1h4.2
					c3.1,0,4.9,1.6,4.9,4.4c0,3-1.8,4.7-5,4.7h-4.5v4c0,1,0,1.6,0.2,2.3H58.2z M64.5,34.9c2.2,0,3.4-1.2,3.4-3.2
					c0-2-1.2-3.1-3.4-3.1h-4.5v6.4H64.5z"/>
			</g>
		</g>
		<linearGradient id="SVGID_12_" gradientUnits="userSpaceOnUse" x1="20.6598" y1="31.1138" x2="82.8874" y2="31.1138">
			<stop  offset="0" style="stop-color:#7FCD93"/>
			<stop  offset="0.5" style="stop-color:#6494B1"/>
			<stop  offset="1" style="stop-color:#34B4A4"/>
		</linearGradient>
		<circle class="st20" cx="51.8" cy="31.1" r="30.6"/>
		<linearGradient id="SVGID_13_" gradientUnits="userSpaceOnUse" x1="0" y1="75.2767" x2="104.2247" y2="75.2767">
			<stop  offset="0" style="stop-color:#7FCD93"/>
			<stop  offset="0.5" style="stop-color:#6494B1"/>
			<stop  offset="1" style="stop-color:#34B4A4"/>
		</linearGradient>
		<line class="st21" x1="0" y1="75.3" x2="104.2" y2="75.3"/>
		<linearGradient id="SVGID_14_" gradientUnits="userSpaceOnUse" x1="0" y1="91.7331" x2="104.2247" y2="91.7331">
			<stop  offset="0" style="stop-color:#7FCD93"/>
			<stop  offset="0.5" style="stop-color:#6494B1"/>
			<stop  offset="1" style="stop-color:#34B4A4"/>
		</linearGradient>
		<line class="st22" x1="0" y1="91.7" x2="104.2" y2="91.7"/>
		<linearGradient id="SVGID_15_" gradientUnits="userSpaceOnUse" x1="0" y1="108.1894" x2="104.2247" y2="108.1894">
			<stop  offset="0" style="stop-color:#7FCD93"/>
			<stop  offset="0.5" style="stop-color:#6494B1"/>
			<stop  offset="1" style="stop-color:#34B4A4"/>
		</linearGradient>
		<line class="st23" x1="0" y1="108.2" x2="104.2" y2="108.2"/>
		<linearGradient id="SVGID_16_" gradientUnits="userSpaceOnUse" x1="0" y1="124.6457" x2="104.2247" y2="124.6457">
			<stop  offset="0" style="stop-color:#7FCD93"/>
			<stop  offset="0.5" style="stop-color:#6494B1"/>
			<stop  offset="1" style="stop-color:#34B4A4"/>
		</linearGradient>
		<line class="st24" x1="0" y1="124.6" x2="104.2" y2="124.6"/>
		<linearGradient id="SVGID_17_" gradientUnits="userSpaceOnUse" x1="0" y1="157.5584" x2="104.2247" y2="157.5584">
			<stop  offset="0" style="stop-color:#7FCD93"/>
			<stop  offset="0.5" style="stop-color:#6494B1"/>
			<stop  offset="1" style="stop-color:#34B4A4"/>
		</linearGradient>
		<line class="st25" x1="0" y1="157.6" x2="104.2" y2="157.6"/>
		<linearGradient id="SVGID_18_" gradientUnits="userSpaceOnUse" x1="0" y1="141.1021" x2="104.2247" y2="141.1021">
			<stop  offset="0" style="stop-color:#7FCD93"/>
			<stop  offset="0.5" style="stop-color:#6494B1"/>
			<stop  offset="1" style="stop-color:#34B4A4"/>
		</linearGradient>
		<line class="st26" x1="0" y1="141.1" x2="104.2" y2="141.1"/>
	</g>
</g>
<g id="イラスト">
</g>
</svg>
