<?xml version="1.0" encoding="utf-8"?>
<!-- Generator: Adobe Illustrator 21.1.0, SVG Export Plug-In . SVG Version: 6.00 Build 0)  -->
<svg version="1.1" xmlns="http://www.w3.org/2000/svg" xmlns:xlink="http://www.w3.org/1999/xlink" x="0px" y="0px"
	 viewBox="0 0 408 156.1" style="enable-background:new 0 0 408 156.1;" xml:space="preserve">
<style type="text/css">
	.st0{display:none;}
	.st1{fill:url(#SVGID_1_);}
	.st2{fill-rule:evenodd;clip-rule:evenodd;fill:none;stroke:url(#SVGID_2_);stroke-miterlimit:10;}
	.st3{fill:url(#SVGID_3_);}
	.st4{fill-rule:evenodd;clip-rule:evenodd;fill:none;stroke:url(#SVGID_4_);stroke-miterlimit:10;}
	.st5{fill:url(#SVGID_5_);}
	.st6{fill-rule:evenodd;clip-rule:evenodd;fill:none;stroke:url(#SVGID_6_);stroke-miterlimit:10;}
	.st7{fill:none;stroke:url(#SVGID_7_);stroke-miterlimit:10;}
	.st8{fill:none;stroke:url(#SVGID_8_);stroke-miterlimit:10;}
	.st9{fill:none;stroke:url(#SVGID_9_);stroke-miterlimit:10;}
	.st10{fill:none;stroke:url(#SVGID_10_);stroke-miterlimit:10;}
	.st11{fill:none;stroke:url(#SVGID_11_);stroke-miterlimit:10;}
	.st12{fill:none;stroke:url(#SVGID_12_);stroke-miterlimit:10;}
	.st13{fill:none;stroke:url(#SVGID_13_);stroke-miterlimit:10;}
	.st14{fill:none;stroke:url(#SVGID_14_);stroke-miterlimit:10;}
	.st15{fill:none;stroke:url(#SVGID_15_);stroke-miterlimit:10;}
</style>
<g id="会員案内">
</g>
<g id="app_x5F_tutorial">
</g>
<g id="会員案内_x2F_NEW" class="st0">
</g>
<g id="app_x5F_tutorialNEW">
	<g>
		<g>
			<g>
				<g>
					<path d="M54.2,106.4c0.1-0.7,0.2-1.4,0.2-2.3V92.9c0-0.9,0-1.5-0.2-2.4c0.7,0,1.3,0.1,2.3,0.1h4.2c3.2,0,5,1.6,5,4.5
						c0,3.1-1.9,4.8-5.1,4.8h-4.6v4.1c0,1,0,1.6,0.2,2.3H54.2z M60.6,98.5c2.2,0,3.5-1.2,3.5-3.3c0-2.1-1.2-3.2-3.5-3.2h-4.6v6.5
						H60.6z"/>
				</g>
				<g>
					<linearGradient id="SVGID_1_" gradientUnits="userSpaceOnUse" x1="54.1566" y1="98.4832" x2="65.6996" y2="98.4832">
						<stop  offset="0" style="stop-color:#89D29C"/>
						<stop  offset="0.5" style="stop-color:#6F9DB9"/>
						<stop  offset="1" style="stop-color:#3CBBAD"/>
					</linearGradient>
					<path class="st1" d="M54.2,106.4c0.1-0.7,0.2-1.4,0.2-2.3V92.9c0-0.9,0-1.5-0.2-2.4c0.7,0,1.3,0.1,2.3,0.1h4.2
						c3.2,0,5,1.6,5,4.5c0,3.1-1.9,4.8-5.1,4.8h-4.6v4.1c0,1,0,1.6,0.2,2.3H54.2z M60.6,98.5c2.2,0,3.5-1.2,3.5-3.3
						c0-2.1-1.2-3.2-3.5-3.2h-4.6v6.5H60.6z"/>
				</g>
			</g>
			<linearGradient id="SVGID_2_" gradientUnits="userSpaceOnUse" x1="36.4324" y1="97.9765" x2="79.533" y2="97.9765">
				<stop  offset="0" style="stop-color:#89D29C"/>
				<stop  offset="0.5" style="stop-color:#6F9DB9"/>
				<stop  offset="1" style="stop-color:#3CBBAD"/>
			</linearGradient>
			<circle class="st2" cx="58" cy="98" r="21.1"/>
		</g>
		<g>
			<g>
				<g>
					<path d="M200,83.4c0.1-0.7,0.2-1.4,0.2-2.3V69.9c0-0.9,0-1.5-0.2-2.4c0.7,0,1.3,0.1,2.3,0.1h4.2c3.2,0,5,1.6,5,4.5
						c0,3.1-1.9,4.8-5.1,4.8h-4.6v4.1c0,1,0,1.6,0.2,2.3H200z M206.4,75.5c2.2,0,3.5-1.2,3.5-3.3c0-2.1-1.2-3.2-3.5-3.2h-4.6v6.5
						H206.4z"/>
				</g>
				<g>
					<linearGradient id="SVGID_3_" gradientUnits="userSpaceOnUse" x1="199.9516" y1="75.4939" x2="211.4945" y2="75.4939">
						<stop  offset="0" style="stop-color:#89D29C"/>
						<stop  offset="0.5" style="stop-color:#6F9DB9"/>
						<stop  offset="1" style="stop-color:#3CBBAD"/>
					</linearGradient>
					<path class="st3" d="M200,83.4c0.1-0.7,0.2-1.4,0.2-2.3V69.9c0-0.9,0-1.5-0.2-2.4c0.7,0,1.3,0.1,2.3,0.1h4.2c3.2,0,5,1.6,5,4.5
						c0,3.1-1.9,4.8-5.1,4.8h-4.6v4.1c0,1,0,1.6,0.2,2.3H200z M206.4,75.5c2.2,0,3.5-1.2,3.5-3.3c0-2.1-1.2-3.2-3.5-3.2h-4.6v6.5
						H206.4z"/>
				</g>
			</g>
			<linearGradient id="SVGID_4_" gradientUnits="userSpaceOnUse" x1="182.2257" y1="74.9873" x2="225.3263" y2="74.9873">
				<stop  offset="0" style="stop-color:#89D29C"/>
				<stop  offset="0.5" style="stop-color:#6F9DB9"/>
				<stop  offset="1" style="stop-color:#3CBBAD"/>
			</linearGradient>
			<circle class="st4" cx="203.8" cy="75" r="21.1"/>
		</g>
		<g>
			<g>
				<g>
					<path d="M346.5,61.4c0.1-0.7,0.2-1.4,0.2-2.3V47.9c0-0.9,0-1.5-0.2-2.4c0.7,0,1.3,0.1,2.3,0.1h4.2c3.2,0,5,1.6,5,4.5
						c0,3.1-1.9,4.8-5.1,4.8h-4.6V59c0,1,0,1.6,0.2,2.3H346.5z M352.9,53.5c2.2,0,3.5-1.2,3.5-3.3c0-2.1-1.2-3.2-3.5-3.2h-4.6v6.5
						H352.9z"/>
				</g>
				<g>
					<linearGradient id="SVGID_5_" gradientUnits="userSpaceOnUse" x1="346.4945" y1="53.4344" x2="358.0375" y2="53.4344">
						<stop  offset="0" style="stop-color:#89D29C"/>
						<stop  offset="0.5" style="stop-color:#6F9DB9"/>
						<stop  offset="1" style="stop-color:#3CBBAD"/>
					</linearGradient>
					<path class="st5" d="M346.5,61.4c0.1-0.7,0.2-1.4,0.2-2.3V47.9c0-0.9,0-1.5-0.2-2.4c0.7,0,1.3,0.1,2.3,0.1h4.2
						c3.2,0,5,1.6,5,4.5c0,3.1-1.9,4.8-5.1,4.8h-4.6V59c0,1,0,1.6,0.2,2.3H346.5z M352.9,53.5c2.2,0,3.5-1.2,3.5-3.3
						c0-2.1-1.2-3.2-3.5-3.2h-4.6v6.5H352.9z"/>
				</g>
			</g>
			<linearGradient id="SVGID_6_" gradientUnits="userSpaceOnUse" x1="328.7705" y1="52.9277" x2="371.8711" y2="52.9277">
				<stop  offset="0" style="stop-color:#89D29C"/>
				<stop  offset="0.5" style="stop-color:#6F9DB9"/>
				<stop  offset="1" style="stop-color:#3CBBAD"/>
			</linearGradient>
			<circle class="st6" cx="350.3" cy="52.9" r="21.1"/>
		</g>
		<g>
			<linearGradient id="SVGID_7_" gradientUnits="userSpaceOnUse" x1="32.7249" y1="137.3987" x2="83.2405" y2="137.3987">
				<stop  offset="0" style="stop-color:#89D29C"/>
				<stop  offset="0.5" style="stop-color:#6F9DB9"/>
				<stop  offset="1" style="stop-color:#3CBBAD"/>
			</linearGradient>
			<line class="st7" x1="32.7" y1="137.4" x2="83.2" y2="137.4"/>
		</g>
		<linearGradient id="SVGID_8_" gradientUnits="userSpaceOnUse" x1="178.7511" y1="114.5956" x2="229.2667" y2="114.5956">
			<stop  offset="0" style="stop-color:#89D29C"/>
			<stop  offset="0.5" style="stop-color:#6F9DB9"/>
			<stop  offset="1" style="stop-color:#3CBBAD"/>
		</linearGradient>
		<line class="st8" x1="178.8" y1="114.6" x2="229.3" y2="114.6"/>
		<linearGradient id="SVGID_9_" gradientUnits="userSpaceOnUse" x1="178.7511" y1="137.3987" x2="229.2667" y2="137.3987">
			<stop  offset="0" style="stop-color:#89D29C"/>
			<stop  offset="0.5" style="stop-color:#6F9DB9"/>
			<stop  offset="1" style="stop-color:#3CBBAD"/>
		</linearGradient>
		<line class="st9" x1="178.8" y1="137.4" x2="229.3" y2="137.4"/>
		<linearGradient id="SVGID_10_" gradientUnits="userSpaceOnUse" x1="325.2959" y1="91.7925" x2="375.8116" y2="91.7925">
			<stop  offset="0" style="stop-color:#89D29C"/>
			<stop  offset="0.5" style="stop-color:#6F9DB9"/>
			<stop  offset="1" style="stop-color:#3CBBAD"/>
		</linearGradient>
		<line class="st10" x1="325.3" y1="91.8" x2="375.8" y2="91.8"/>
		<linearGradient id="SVGID_11_" gradientUnits="userSpaceOnUse" x1="325.2959" y1="114.5956" x2="375.8116" y2="114.5956">
			<stop  offset="0" style="stop-color:#89D29C"/>
			<stop  offset="0.5" style="stop-color:#6F9DB9"/>
			<stop  offset="1" style="stop-color:#3CBBAD"/>
		</linearGradient>
		<line class="st11" x1="325.3" y1="114.6" x2="375.8" y2="114.6"/>
		<linearGradient id="SVGID_12_" gradientUnits="userSpaceOnUse" x1="325.2959" y1="137.3987" x2="375.8116" y2="137.3987">
			<stop  offset="0" style="stop-color:#89D29C"/>
			<stop  offset="0.5" style="stop-color:#6F9DB9"/>
			<stop  offset="1" style="stop-color:#3CBBAD"/>
		</linearGradient>
		<line class="st12" x1="325.3" y1="137.4" x2="375.8" y2="137.4"/>
		<linearGradient id="SVGID_13_" gradientUnits="userSpaceOnUse" x1="0" y1="155.6011" x2="408" y2="155.6011">
			<stop  offset="0" style="stop-color:#89D29C"/>
			<stop  offset="0.5" style="stop-color:#6F9DB9"/>
			<stop  offset="1" style="stop-color:#3CBBAD"/>
		</linearGradient>
		<line class="st13" x1="0" y1="155.6" x2="408" y2="155.6"/>
		<linearGradient id="SVGID_14_" gradientUnits="userSpaceOnUse" x1="2.7713" y1="39.1705" x2="405.1861" y2="39.1705">
			<stop  offset="0" style="stop-color:#89D29C"/>
			<stop  offset="0.5" style="stop-color:#6F9DB9"/>
			<stop  offset="1" style="stop-color:#3CBBAD"/>
		</linearGradient>
		<line class="st14" x1="2.8" y1="68.6" x2="405.1" y2="9.8"/>
		
			<linearGradient id="SVGID_15_" gradientUnits="userSpaceOnUse" x1="1753.7201" y1="3902.9417" x2="1773.3571" y2="3902.9417" gradientTransform="matrix(0.4868 -0.8735 0.8735 0.4868 -3875.3362 -345.988)">
			<stop  offset="0" style="stop-color:#89D29C"/>
			<stop  offset="0.5" style="stop-color:#6F9DB9"/>
			<stop  offset="1" style="stop-color:#3CBBAD"/>
		</linearGradient>
		<polyline class="st15" points="388.4,0.4 405.1,9.8 395.8,26.5 		"/>
	</g>
</g>
</svg>
