<?xml version="1.0" encoding="utf-8"?>
<!-- Generator: Adobe Illustrator 24.1.0, SVG Export Plug-In . SVG Version: 6.00 Build 0)  -->
<svg version="1.1" id="レイヤー_1" xmlns="http://www.w3.org/2000/svg" xmlns:xlink="http://www.w3.org/1999/xlink" x="0px"
	 y="0px" width="593.5px" height="261.5px" viewBox="0 0 593.5 261.5" style="enable-background:new 0 0 593.5 261.5;"
	 xml:space="preserve">
<style type="text/css">
	.st0{fill:#7CB3E5;}
</style>
<g>
	<g id="app_x5F_tutorial">
	</g>
	<g>
		<path class="st0" d="M541.5,204.6c-12.9,7.8-28,12.2-44.2,12.2c-47.5,0-86.1-38.6-86.1-86.1c0-47.5,38.6-86.1,86.1-86.1
			c47.5,0,86.1,38.6,86.1,86.1c0,7.6-1,15-2.9,22c3.3,0.8,6.5,2,9.4,3.6c2.3-8.2,3.5-16.8,3.5-25.6c0-53-43.1-96.1-96.1-96.1
			s-96.1,43.1-96.1,96.1s43.1,96.1,96.1,96.1c18.4,0,35.6-5.2,50.2-14.2C545.2,210.3,543.2,207.6,541.5,204.6z"/>
		<g>
			<g>
				<rect x="552.9" y="182.4" class="st0" width="39.3" height="10"/>
			</g>
			<g>
				<rect x="567.6" y="167.7" class="st0" width="10" height="39.3"/>
			</g>
		</g>
		<g>
			<g>
				<path class="st0" d="M476.4,114.1l-9.8,9l-4.2-5.1l14.9-12.3h6.4v53.4h-7.2V114.1z"/>
				<path class="st0" d="M504.8,105.8h18.8c3.4,0,6.2,0.5,8.4,1.4c2.2,0.9,4,2.1,5.2,3.5s2.2,3,2.7,4.8c0.5,1.8,0.8,3.5,0.8,5.2
					c0,1.7-0.3,3.4-0.8,5.2c-0.5,1.8-1.4,3.4-2.7,4.8c-1.3,1.4-3,2.6-5.2,3.5c-2.2,0.9-5,1.4-8.4,1.4h-11.5v23.5h-7.2V105.8z
					 M512.1,129.3h9.5c1.4,0,2.8-0.1,4.2-0.3c1.4-0.2,2.6-0.6,3.7-1.2c1.1-0.6,1.9-1.5,2.6-2.6c0.7-1.1,1-2.6,1-4.4
					c0-1.8-0.3-3.3-1-4.4c-0.7-1.1-1.5-2-2.6-2.6c-1.1-0.6-2.3-1-3.7-1.2c-1.4-0.2-2.8-0.3-4.2-0.3h-9.5V129.3z"/>
			</g>
		</g>
	</g>
	<g>
		<polygon class="st0" points="352.8,150.1 204.4,150.1 204.4,140.1 327.6,140.1 304.8,118.6 311.7,111.4 		"/>
	</g>
	<g>
		<path class="st0" d="M131.7,0H25.5C11.4,0,0,11.4,0,25.5V236c0,14.1,11.4,25.5,25.5,25.5h106.2c14.1,0,25.5-11.4,25.5-25.5V25.5
			C157.2,11.4,145.7,0,131.7,0z M147.2,236c0,8.5-6.9,15.5-15.5,15.5H25.5c-8.5,0-15.5-6.9-15.5-15.5V25.5C10,16.9,16.9,10,25.5,10
			h27.6c0.2,4.2,3.7,7.6,8,7.6h37.5c4.3,0,7.8-3.4,8-7.6h25.1c8.5,0,15.5,6.9,15.5,15.5V236z"/>
		<path class="st0" d="M102.8,159.9L102.8,159.9l-44.5,0v-6.2h48.2l12.3-37.5l-62.5,0.1l-6.7-8.9H35.2v8h10.4l4.7,6.3v28.1v4v8.3
			c-3.1,2.1-5.1,5.6-5.1,9.6c0,6.4,5.2,11.7,11.6,11.7s11.7-5.2,11.7-11.7c0-1.3-0.2-2.5-0.6-3.6h23.5c-0.4,1.1-0.6,2.4-0.6,3.6
			c0,6.4,5.2,11.7,11.7,11.7s11.6-5.2,11.6-11.7C114.2,165.2,109.1,160.1,102.8,159.9z M58.3,124.3l49.5-0.1l-7.1,21.5H58.3V124.3z
			 M60.5,171.6c0,2-1.6,3.7-3.7,3.7s-3.6-1.6-3.6-3.7s1.6-3.6,3.6-3.6S60.5,169.6,60.5,171.6z M102.5,175.2c-2,0-3.7-1.6-3.7-3.7
			s1.6-3.6,3.7-3.6s3.6,1.6,3.6,3.6S104.5,175.2,102.5,175.2z"/>
		<polygon class="st0" points="75.3,93 62.4,81.6 67.6,75.6 74.8,81.9 96.5,59.3 102.3,64.8 		"/>
	</g>
</g>
</svg>
