<svg xmlns="http://www.w3.org/2000/svg" xmlns:xlink="http://www.w3.org/1999/xlink" viewBox="0 0 106.6 106.6"><defs><style>.cls-1{fill:url(#名称未設定グラデーション);}.cls-2{fill:none;}</style><linearGradient id="名称未設定グラデーション" x1="25.97" y1="-143.59" x2="79.42" y2="-197.04" gradientTransform="matrix(1, 0, 0, -1, 0, -118.02)" gradientUnits="userSpaceOnUse"><stop offset="0" stop-color="#7fcd93"/><stop offset="0.5" stop-color="#6494b1"/><stop offset="1" stop-color="#34b4a4"/></linearGradient></defs><title>アセット 1</title><g id="レイヤー_2" data-name="レイヤー 2"><g id="レイヤー_1-2" data-name="レイヤー 1"><path class="cls-1" d="M51.85,106.6h-6.6V70H52l1.6-23.1-7.7-5.4a16.83,16.83,0,0,1-11.9.1l-7.5,5.3L28.25,70H35v36.5h-6.6l-5-36.5h2.8l-1.8-24.1,9.4-6.6.5.2a14.56,14.56,0,0,0,11.4-.1l.5-.2,9.5,6.7L53.95,70h2.8Zm-4.6-2H50l4.5-32.5h-7.3Zm-17.1,0h2.8V72h-7.3Zm31.3-14.2h-3.9v-2h3.9a2.43,2.43,0,0,0,2.4-2.4V80.6a2.43,2.43,0,0,0-2.4-2.4h-1.8v-2h1.1V40.4c0-5.8-3.5-9.8-8.6-9.8v-2c6.1,0,10.6,5,10.6,11.8v36a4.32,4.32,0,0,1,3.1,4.2V86A4.37,4.37,0,0,1,61.45,90.4ZM42,90.4h-3.7v-2H42Zm-19.3,0H18a4.44,4.44,0,0,1-4.4-4.4V80.6a4.41,4.41,0,0,1,3.1-4.2V39.1a10.39,10.39,0,0,1,10.4-10.4v2a8.39,8.39,0,0,0-8.4,8.4V76.3H21v2H18a2.43,2.43,0,0,0-2.4,2.4v5.4A2.43,2.43,0,0,0,18,88.5h4.7ZM42,78.2h-3.7v-2H42ZM70.25,48l-.1-2a22,22,0,1,0-21.7-29.7l-1.9-.7A24,24,0,0,1,92.95,24,23.88,23.88,0,0,1,70.25,48ZM39.95,33.3a7.4,7.4,0,1,1,7.4-7.4A7.38,7.38,0,0,1,39.95,33.3Zm0-12.9a5.4,5.4,0,1,0,5.4,5.4A5.38,5.38,0,0,0,39.95,20.4Zm28.7,6.5L57.35,16.7l1.3-1.5,10.3,9.4,10.7-4.7.8,1.8Z"/><rect class="cls-2" width="106.6" height="106.6"/></g></g></svg>