<svg xmlns="http://www.w3.org/2000/svg" xmlns:xlink="http://www.w3.org/1999/xlink" viewBox="0 0 106.6 106.6"><defs><style>.cls-1{fill:url(#名称未設定グラデーション_5);}.cls-2{fill:url(#名称未設定グラデーション_5-2);}.cls-3{fill:url(#名称未設定グラデーション_5-3);}.cls-4{fill:url(#名称未設定グラデーション_5-4);}.cls-5{fill:url(#名称未設定グラデーション_5-5);}.cls-6{fill:none;}</style><linearGradient id="名称未設定グラデーション_5" x1="14.99" y1="-149.46" x2="90.16" y2="-200.29" gradientTransform="matrix(1, 0, 0, -1, 0, -119.1)" gradientUnits="userSpaceOnUse"><stop offset="0" stop-color="#7fcd93"/><stop offset="0.5" stop-color="#6494b1"/><stop offset="1" stop-color="#34b4a4"/></linearGradient><linearGradient id="名称未設定グラデーション_5-2" x1="5.52" y1="-163.46" x2="80.69" y2="-214.29" xlink:href="#名称未設定グラデーション_5"/><linearGradient id="名称未設定グラデーション_5-3" x1="10.03" y1="-156.8" x2="85.19" y2="-207.63" xlink:href="#名称未設定グラデーション_5"/><linearGradient id="名称未設定グラデーション_5-4" x1="14.57" y1="-150.08" x2="89.74" y2="-200.91" xlink:href="#名称未設定グラデーション_5"/><linearGradient id="名称未設定グラデーション_5-5" x1="18.68" y1="-144" x2="93.85" y2="-194.84" xlink:href="#名称未設定グラデーション_5"/></defs><title>アセット 4</title><g id="レイヤー_2" data-name="レイヤー 2"><g id="レイヤー_1-2" data-name="レイヤー 1"><path class="cls-1" d="M93.55,80.35H26.85V56.55l4.2-4.2h-4.2V41.45h66.6v38.9Zm-64.7-2h62.6V43.45H28.85v6.9h7l-7,7Z"/><rect class="cls-2" x="43.85" y="68.05" width="2" height="5.8"/><rect class="cls-3" x="43.85" y="58.35" width="2" height="5.8"/><rect class="cls-4" x="43.85" y="48.55" width="2" height="5.8"/><polygon class="cls-5" points="18.95 61.05 13.05 61.05 13.05 41.35 17.25 37.25 13.05 37.25 13.05 26.25 79.75 26.25 79.75 34.95 77.75 34.95 77.75 28.25 15.05 28.25 15.05 35.25 22.05 35.25 15.05 42.15 15.05 59.05 18.95 59.05 18.95 61.05"/><rect class="cls-6" width="106.6" height="106.6"/></g></g></svg>