<?xml version="1.0" encoding="utf-8"?>
<!-- Generator: Adobe Illustrator 21.1.0, SVG Export Plug-In . SVG Version: 6.00 Build 0)  -->
<svg version="1.1" id="鑑賞履歴" xmlns="http://www.w3.org/2000/svg" xmlns:xlink="http://www.w3.org/1999/xlink" x="0px"
	 y="0px" viewBox="0 0 85.2 62.6" style="enable-background:new 0 0 85.2 62.6;" xml:space="preserve">
<style type="text/css">
	.st0{fill:none;stroke:url(#SVGID_1_);stroke-width:2;stroke-miterlimit:10;}
	.st1{fill:url(#SVGID_2_);}
	.st2{fill:none;stroke:url(#SVGID_3_);stroke-width:2;stroke-miterlimit:10;}
	.st3{fill:none;stroke:url(#SVGID_4_);stroke-width:2;stroke-miterlimit:10;}
</style>
<g id="レイヤー_2_2_">
</g>
<g>
	<g>
		<g>
			<g>
				<linearGradient id="SVGID_1_" gradientUnits="userSpaceOnUse" x1="44.9018" y1="42.4059" x2="85.163" y2="42.4059">
					<stop  offset="0" style="stop-color:#7FCD93"/>
					<stop  offset="0.5" style="stop-color:#6494B1"/>
					<stop  offset="1" style="stop-color:#34B4A4"/>
				</linearGradient>
				<path class="st0" d="M47.6,50.7c3.4,7,10.8,11.6,19.2,10.8c9.4-0.9,16.9-8.8,17.3-18.2c0.5-11-8.3-20.2-19.2-20.2
					c-9.7,0-17.8,7.2-19,16.6"/>
				<linearGradient id="SVGID_2_" gradientUnits="userSpaceOnUse" x1="41.8663" y1="39.9579" x2="51.1874" y2="39.9579">
					<stop  offset="0" style="stop-color:#7FCD93"/>
					<stop  offset="0.5" style="stop-color:#6494B1"/>
					<stop  offset="1" style="stop-color:#34B4A4"/>
				</linearGradient>
				<polygon class="st1" points="51.2,37.9 45.2,43.9 41.9,36 				"/>
			</g>
			<linearGradient id="SVGID_3_" gradientUnits="userSpaceOnUse" x1="63.453" y1="39.692" x2="72.023" y2="39.692">
				<stop  offset="0" style="stop-color:#7FCD93"/>
				<stop  offset="0.5" style="stop-color:#6494B1"/>
				<stop  offset="1" style="stop-color:#34B4A4"/>
			</linearGradient>
			<polyline class="st2" points="64.5,29.7 64.5,44.1 71.5,48.9 			"/>
		</g>
	</g>
	<linearGradient id="SVGID_4_" gradientUnits="userSpaceOnUse" x1="9.094947e-13" y1="22.5848" x2="73.1159" y2="22.5848">
		<stop  offset="0" style="stop-color:#7FCD93"/>
		<stop  offset="0.5" style="stop-color:#6494B1"/>
		<stop  offset="1" style="stop-color:#34B4A4"/>
	</linearGradient>
	<path class="st3" d="M36.1,41C12.3,41,1,43.9,1,43.9V1.2c0,0,14.5,2.8,35.1,2.8s36-2.8,36-2.8v16"/>
</g>
</svg>
