<?xml version="1.0" encoding="utf-8"?>
<!-- Generator: Adobe Illustrator 22.1.0, SVG Export Plug-In . SVG Version: 6.00 Build 0)  -->
<svg version="1.1" id="レイヤー_1" xmlns="http://www.w3.org/2000/svg" xmlns:xlink="http://www.w3.org/1999/xlink" x="0px"
	 y="0px" width="666.8px" height="435px" viewBox="0 0 666.8 435" style="enable-background:new 0 0 666.8 435;"
	 xml:space="preserve">
<style type="text/css">
	.st0{display:none;}
	.st1{display:inline;}
	.st2{fill:none;stroke:#8E8E8E;stroke-miterlimit:10;}
	.st3{fill:none;stroke:#919191;stroke-miterlimit:10;}
	.st4{fill:#919191;}
	.st5{font-family:'HiraKakuProN-W3-83pv-RKSJ-H';}
	.st6{font-size:20px;}
	.st7{letter-spacing:2;}
	.st8{display:inline;fill:#08FFF8;}
	.st9{fill:none;stroke:#FFFFFF;stroke-width:2;stroke-miterlimit:10;}
	.st10{fill:#FFFFFF;}
	.st11{fill:none;stroke:#FFFFFF;stroke-width:2;stroke-miterlimit:10;stroke-dasharray:7.6542,7.6542;}
	.st12{fill:none;stroke:url(#SVGID_1_);stroke-width:2;stroke-miterlimit:10;}
	.st13{fill:url(#SVGID_2_);}
</style>
<g id="レイヤー_1_1_" class="st0">
	<g id="nav_x5F_about_x5F_icon" class="st1">
		<path class="st2" d="M368,325.3h-17.7c-2.8,0-5-2.2-5-5v-17.7c0-2.8,2.2-5,5-5H368c2.8,0,5,2.2,5,5v17.7
			C373,323,370.8,325.3,368,325.3z"/>
	</g>
	<g id="nav_x5F_user_x5F_icon" class="st1">
		<g>
			<circle class="st2" cx="359.1" cy="302.3" r="4.7"/>
			<path class="st2" d="M359.2,312.9c-1.5,0-2.8-0.3-4.1-0.8l-6.3,3.9l1,9.2h18.9l1-9.2l-6.3-3.9C362,312.6,360.6,312.9,359.2,312.9
				z"/>
		</g>
	</g>
	<g id="nav_x5F_prapoly_x5F_icon" class="st1">
		<g>
			<line class="st2" x1="345.2" y1="300.5" x2="373" y2="300.5"/>
			<line class="st2" x1="345.2" y1="311.4" x2="361.6" y2="311.4"/>
			<line class="st2" x1="345.2" y1="322.4" x2="373" y2="322.4"/>
		</g>
	</g>
	<g id="nav_x5F_link_x5F_icon" class="st1">
		<g>
			<rect x="345.5" y="299.7" class="st2" width="22.1" height="17.7"/>
			<polyline class="st2" points="372.9,303.9 372.9,323.1 349.9,323.1 			"/>
		</g>
	</g>
	<g id="menu_x5F_buy_x5F_tk" class="st1">
		<g>
			<g>
				<g>
					<polygon class="st3" points="383.9,330.9 339,330.9 339,314.6 342.1,311.5 339,311.5 339,305.3 383.9,305.3 					"/>
				</g>
				<g>
					<g>
						<line class="st3" x1="350.8" y1="324.9" x2="350.8" y2="328.9"/>
					</g>
					<g>
						<line class="st3" x1="350.8" y1="319" x2="350.8" y2="323"/>
					</g>
					<g>
						<line class="st3" x1="350.8" y1="313.1" x2="350.8" y2="317.1"/>
					</g>
					<g>
						<line class="st3" x1="350.8" y1="307.3" x2="350.8" y2="311.3"/>
					</g>
				</g>
			</g>
			<g>
				<g>
					<polyline class="st3" points="376.8,301 376.8,295.6 331.9,295.6 331.9,301.8 335.1,301.8 331.9,304.9 331.9,318.4 
						335.3,318.4 					"/>
				</g>
			</g>
		</g>
	</g>
	<g id="menu_x5F_point" class="st1">
		<text transform="matrix(1 0 0 1 352.2719 321.1335)" class="st4 st5 st6 st7">P</text>
		<circle class="st3" cx="358.9" cy="312.9" r="20.2"/>
	</g>
	<rect x="-53.9" y="-49" class="st8" width="840.2" height="759.7"/>
</g>
<g id="レイヤー_2_1_" class="st0">
	<g class="st1">
		<g>
			<circle class="st9" cx="201.9" cy="74.2" r="12.1"/>
			<path class="st9" d="M202,101.2c-3.7,0-7.3-0.8-10.5-2.1l-16.3,10.1l2.6,23.7h48.3l2.6-23.7l-16.3-10.1
				C209.3,100.5,205.7,101.2,202,101.2z"/>
		</g>
		<g>
			<circle class="st9" cx="438.4" cy="74.2" r="12.1"/>
			<path class="st9" d="M438.4,101.2c-3.7,0-7.3-0.8-10.5-2.1l-16.3,10.1l2.6,23.7h48.3l2.6-23.7l-16.3-10.1
				C445.6,100.5,442.1,101.2,438.4,101.2z"/>
		</g>
		<rect x="132.1" y="162.1" class="st9" width="133.4" height="266.9"/>
		<rect x="370.2" y="257" class="st9" width="133.4" height="172"/>
		<g>
			<path class="st10" d="M29.9,35.6c0.2-1.4,0.3-2.7,0.3-4.5v-3.9h-5.9c-1.8,0-2.8,0.1-4.2,0.3v-3c1.4,0.2,2.4,0.3,4.2,0.3h5.9v-1.9
				l-1.6-2.4h-4.3c-1.8,0-2.8,0.1-4.2,0.3v-3c1.4,0.2,2.4,0.3,4.2,0.3h2.8L21,8.7c-1.2-1.8-1.8-2.7-2.4-3.5h4.3
				c0.3,0.9,0.7,1.7,2,3.7l7,11.3l7-11.3c1.2-1.9,1.6-2.8,1.9-3.7H45c-0.6,0.7-1.4,1.8-2.5,3.5l-6.2,9.5h2.8c1.8,0,2.8-0.1,4.2-0.3
				v3c-1.4-0.2-2.4-0.3-4.2-0.3h-4.3L33.3,23v1.9h5.9c1.8,0,2.8-0.1,4.2-0.3v3c-1.4-0.2-2.4-0.3-4.2-0.3h-5.9v3.9c0,2,0.1,3,0.3,4.5
				h-3.7C29.9,35.7,29.9,35.6,29.9,35.6z"/>
		</g>
		<line class="st9" x1="31.8" y1="104" x2="0" y2="104"/>
		<line class="st9" x1="31.8" y1="197.6" x2="0" y2="197.6"/>
		<line class="st9" x1="31.8" y1="291.1" x2="0" y2="291.1"/>
		<line class="st9" x1="31.8" y1="384.7" x2="0" y2="384.7"/>
		<line class="st9" x1="430.3" y1="170.4" x2="430.3" y2="243.2"/>
		<line class="st9" x1="443.7" y1="170.4" x2="443.7" y2="243.2"/>
		<polyline class="st9" points="451.6,234.8 436.9,249.6 422.1,234.8 		"/>
		<g>
			<path class="st10" d="M524.6,214.7c0-1.4-0.1-2.4-0.3-3.8c1.2,0.1,2.1,0.1,3.7,0.1h5.6c7.4,0,11.7,4.5,11.7,12.5
				c0,4.2-1.3,7.6-3.6,9.9c-2,2-4.8,3-8.1,3H528c-1.6,0-2.5,0-3.7,0.1c0.2-1.3,0.3-2.3,0.3-4V214.7z M533.5,234
				c2.6,0,4.7-0.8,6.2-2.4c1.8-1.9,2.8-4.7,2.8-8.1c0-3.5-0.9-6.1-2.6-7.9c-1.5-1.5-3.5-2.3-6.3-2.3h-6.5V234H533.5z"/>
			<path class="st10" d="M552.6,211v3h-3.2v-3H552.6z M552.4,218.3c-0.2,1.2-0.2,2.1-0.2,3.8v10.4c0,1.5,0.1,2.5,0.2,3.8h-3
				c0.2-1.4,0.2-2.4,0.2-3.8v-10.4c0-1.6-0.1-2.6-0.2-3.8H552.4z"/>
			<path class="st10" d="M559.1,231c0.2,1.2,0.5,1.8,1.2,2.4c0.8,0.8,2.2,1.2,3.9,1.2c2.9,0,4.7-1.2,4.7-3.2c0-0.9-0.3-1.6-1-2.1
				c-0.8-0.5-1.5-0.7-3.9-1.2c-2.7-0.6-3.8-1-4.9-1.7c-1.2-0.8-1.8-2-1.8-3.5c0-1.2,0.5-2.3,1.4-3.2c1.2-1.1,3-1.7,5.2-1.7
				c2.3,0,4,0.5,5.2,1.6c0.9,0.7,1.3,1.5,1.8,3l-2.6,0.4c-0.2-0.9-0.4-1.3-0.8-1.8c-0.8-0.8-2-1.3-3.5-1.3c-2.4,0-4.2,1.2-4.2,3
				c0,0.8,0.4,1.4,1.1,1.8c0.8,0.4,1.6,0.7,3.7,1.1c3.2,0.7,4.3,1.1,5.3,1.9c1,0.8,1.6,2.1,1.6,3.5c0,3.3-2.8,5.4-7.4,5.4
				c-3,0-5.4-0.9-6.6-2.6c-0.5-0.7-0.7-1.3-1.1-2.6L559.1,231z"/>
			<path class="st10" d="M588,223.8c-1-2.6-2.6-3.8-5-3.8c-3.7,0-6,2.9-6,7.3c0,4.4,2.4,7.2,6.1,7.2c1.9,0,3.5-0.8,4.3-2.1
				c0.3-0.5,0.5-0.9,0.7-1.7l2.5,0.7c-0.5,1.2-0.8,1.8-1.4,2.6c-1.5,1.8-3.6,2.8-6.3,2.8c-5.2,0-8.6-3.6-8.6-9.3
				c0-5.8,3.3-9.5,8.4-9.5c2.8,0,5,1.1,6.4,3.1c0.5,0.6,0.8,1.2,1.2,2.1L588,223.8z"/>
			<path class="st10" d="M593.6,227.3c0-5.8,3.5-9.4,8.9-9.4s8.9,3.7,8.9,9.4s-3.5,9.4-8.8,9.4C597.1,236.7,593.6,233.1,593.6,227.3
				z M596.2,227.3c0,4.5,2.4,7.3,6.3,7.3c3.9,0,6.3-2.8,6.3-7.3s-2.4-7.3-6.2-7.3C598.7,220,596.2,222.8,596.2,227.3z"/>
			<path class="st10" d="M628.4,234.1c0-0.4,0-0.6,0.1-1.5c-1.7,2.7-3.7,4-6.7,4c-2.4,0-4.3-0.9-5.3-2.5c-0.6-1-0.9-2.3-0.9-3.9V222
				c0-1.5-0.1-2.7-0.2-3.7h3c-0.2,1.2-0.2,2.3-0.2,3.8v7.8c0,3,1.4,4.6,4,4.6c1.9,0,3.5-0.8,4.8-2.6c0.9-1.2,1.2-2,1.5-3.3v-6.4
				c0-1.4-0.1-2.6-0.2-3.8h3c-0.2,1.2-0.2,2.2-0.2,3.8v10.4c0,1.5,0.1,2.4,0.3,3.8h-2.8v-2.3H628.4z"/>
			<path class="st10" d="M635.9,236.3c0.2-1.3,0.3-2.2,0.3-3.8v-10.4c0-1.5-0.1-2.4-0.3-3.8h2.8v2.3c0,0.4,0,0.7-0.1,1.4
				c1.6-2.7,3.7-4,6.7-4c2.4,0,4.3,0.9,5.3,2.5c0.6,1,0.9,2.2,0.9,3.8v8.2c0,1.7,0.1,2.6,0.2,3.7h-3c0.2-1.3,0.2-2.3,0.2-3.8v-7.8
				c0-3-1.4-4.6-4.1-4.6c-1.9,0-3.4,0.8-4.8,2.6c-0.9,1.1-1.3,2-1.5,3.3v6.4c0,1.5,0.1,2.5,0.2,3.8h-2.8L635.9,236.3L635.9,236.3z"
				/>
			<path class="st10" d="M661.6,213.4c-0.2,1.1-0.2,2.3-0.2,3.7v1.3h1.6c1.5,0,2.2,0,3.4-0.2v2.5c-1.1-0.2-1.9-0.2-3.4-0.2h-1.6
				v11.6c0,1,0.1,1.5,0.4,1.8c0.4,0.4,0.9,0.6,1.6,0.6c0.9,0,1.5-0.2,2.6-0.9l0.7,2.3c-1.4,0.6-2.4,0.8-3.8,0.8
				c-1.5,0-2.6-0.4-3.3-1c-0.7-0.7-0.9-1.6-0.9-3.2v-11.9h-1.3c-1.1,0-1.9,0.1-3,0.2v-2.5c0.9,0.2,1.6,0.2,3,0.2h1.3v-1.3
				c0-1.3-0.1-2.6-0.2-3.7h3.1L661.6,213.4L661.6,213.4z"/>
		</g>
		<line class="st9" x1="31.8" y1="64.2" x2="31.8" y2="428.9"/>
		<line class="st9" x1="614" y1="428.9" x2="31.8" y2="428.9"/>
		<line class="st11" x1="504.6" y1="162.1" x2="265.5" y2="162.1"/>
		<polygon class="st9" points="477.6,62.8 481.5,70.7 490.2,72 483.9,78.1 485.4,86.7 477.6,82.7 469.8,86.7 471.3,78.1 465,72 
			473.7,70.7 		"/>
		<g>
			<g>
				<polygon class="st9" points="635.3,308.5 553.7,308.5 553.7,278.9 559.3,273.2 553.7,273.2 553.7,262 635.3,262 				"/>
			</g>
			<g>
				<line class="st9" x1="575.1" y1="297.9" x2="575.1" y2="305.2"/>
			</g>
			<g>
				<line class="st9" x1="575.1" y1="287" x2="575.1" y2="294.3"/>
			</g>
			<g>
				<line class="st9" x1="575.1" y1="276.2" x2="575.1" y2="283.4"/>
			</g>
			<g>
				<line class="st9" x1="575.1" y1="265.3" x2="575.1" y2="272.6"/>
			</g>
		</g>
	</g>
</g>
<g id="レイヤー_3" class="st0">
	<g class="st1">
		<g>
			<g>
				<path class="st9" d="M380.9,351.8c-0.1-2.4-2.2-6-4.3-6.8c-2.4-1-5.9-1.1-8.6,1c-1.2,0.9-1.2,0.9-4.1,4.3
					c-0.3-5.5-2.3-11.8-8-11.8c-5.6,0-8.3,1.9-10.4,5.1c-0.2-3.6-1.8-10.6-7.3-10.6c-5.9,0-8.2,1.6-10.7,5.2c0-0.9,0-4.8,0-6.4
					c0-9.9,0.2-19.8-0.1-29.8c-0.1-2.5-1.3-5.9-3.1-7.1c-2.1-1.4-6.2-1.9-8.1-0.7c-2.3,1.5-4.4,5.1-4.4,7.9
					c-0.3,22.5-0.2,45-0.2,67.5c0,1.7,0,4.3-0.1,6c-0.5,0.1-1.1-0.8-1.6-0.7c-0.7-1.1-1.5-2.2-2.2-3.4c-2.5-4.5-4.9-10-7.5-14.3
					s-4.3-7.7-9.3-7.7c-4.5,0-8.2,3.1-7.4,7.7c0.2,1.5,0.7,2.9,1.3,4.3c5,11.3,9.7,22.8,15.2,33.9c3.7,7.3,8.2,14.4,13.3,20.8
					c1.3,1.6,2.8,2.9,4.3,4.1c6.7,6.8,16.2,11.1,26.8,11.1c15.7,0,29.2-9.4,34.3-22.6c1.3-2.8,2.1-6,2.2-9.7
					C381.5,383.2,381.2,367.5,380.9,351.8z"/>
			</g>
			<g>
				<path class="st10" d="M300.5,265.9c-1.6,0-2.7,0-4,0.1c0.3-1.5,0.3-2.4,0.3-4.5v-19.4c0-1.6-0.1-2.5-0.3-3.8
					c1.1,0.1,1.8,0.1,4,0.1h7.7c5.3,0,8.2,2.4,8.2,6.7c0,2.1-0.7,3.7-2,4.9c-0.8,0.7-1.4,1-2.9,1.5c1.7,0.3,2.5,0.7,3.5,1.5
					c1.5,1.3,2.2,3.1,2.2,5.4c0,4.9-3.2,7.6-8.7,7.6h-8L300.5,265.9L300.5,265.9z M308.2,250.1c3.4,0,5.4-1.8,5.4-4.8
					s-1.8-4.5-5.4-4.5h-8.5v9.4L308.2,250.1L308.2,250.1z M299.6,263.4h8.7c4,0,6.1-1.9,6.1-5.4c0-3.6-2.1-5.4-6.1-5.4h-8.7V263.4z"
					/>
				<path class="st10" d="M340.7,263.5c0-0.4,0-0.7,0.1-1.6c-1.8,3-4.1,4.3-7.3,4.3c-2.6,0-4.6-0.9-5.8-2.7c-0.7-1.1-1-2.5-1-4.2v-9
					c0-1.6-0.1-2.9-0.3-4.1h3.3c-0.2,1.3-0.3,2.5-0.3,4.1v8.5c0,3.2,1.6,5,4.4,5c2.1,0,3.8-0.9,5.2-2.9c0.9-1.3,1.3-2.2,1.7-3.6v-7
					c0-1.6-0.1-2.8-0.3-4.1h3.2c-0.2,1.3-0.3,2.4-0.3,4.1v11.4c0,1.6,0.1,2.6,0.3,4.1h-3L340.7,263.5L340.7,263.5z"/>
				<path class="st10" d="M353,250.6c-1.6-3.6-1.6-3.6-2-4.2h3.6c0.2,1,0.7,2.5,1.2,3.8l5.3,12.2l4.7-12.2c0.7-1.9,1.1-2.8,1.2-3.8
					h3.4c-0.2,0.5-0.8,2-1.8,4.2l-8.1,19.8c-0.9,2.3-2.5,3.4-5.1,3.4c-0.8,0-1.6-0.1-3-0.4l0.8-2.7c1,0.5,1.5,0.6,2.2,0.6
					c1.2,0,2.1-0.7,2.7-2l1.7-4L353,250.6z"/>
			</g>
			<polyline class="st9" points="293,309.9 120,309.9 120,206.2 544.5,206.2 544.5,309.9 346,309.9 			"/>
		</g>
		<g>
			<g>
				<circle class="st9" cx="431.9" cy="115.9" r="24.3"/>
				<polyline class="st9" points="417.9,117.9 426.3,124.2 445.9,106.2 				"/>
			</g>
			<g>
				<g>
					<g>
						<polyline class="st9" points="444.1,81.2 444.1,4.4 208.3,4.4 208.3,38.1 225.2,38.1 208.3,55 208.3,128.1 397.9,128.1 						
							"/>
					</g>
					<g>
						<line class="st9" x1="272.1" y1="4.2" x2="272.1" y2="15.4"/>
						<line class="st9" x1="272.1" y1="26.7" x2="272.1" y2="37.9"/>
						<line class="st9" x1="272.1" y1="49.2" x2="272.1" y2="60.4"/>
						<line class="st9" x1="272.1" y1="71.6" x2="272.1" y2="82.9"/>
						<line class="st9" x1="272.1" y1="94.1" x2="272.1" y2="105.4"/>
						<line class="st9" x1="272.1" y1="116.6" x2="272.1" y2="127.9"/>
					</g>
				</g>
			</g>
		</g>
	</g>
</g>
<linearGradient id="SVGID_1_" gradientUnits="userSpaceOnUse" x1="6" y1="216.45" x2="661" y2="216.45">
	<stop  offset="0" style="stop-color:#7FCD93"/>
	<stop  offset="0.5" style="stop-color:#6494B1"/>
	<stop  offset="1" style="stop-color:#34B4A4"/>
</linearGradient>
<path class="st12" d="M409.4,269.4c21,0,38,17,38,38s-17,38-38,38s-38-17-38-38S388.4,269.4,409.4,269.4z M521.3,192.6h58.8
	 M521.3,209.1h58.8 M521.3,225.6h58.8 M521.3,242.1h58.8 M521.3,258.5h58.8 M521.3,275h58.8 M521.3,291.5h58.8 M521.3,308h58.8
	 M521.3,324.5h58.8 M521.3,340.9h58.8 M598.7,275h58.9 M598.7,291.5h58.9 M598.7,308h58.9 M598.7,324.5h58.9 M598.7,340.9h58.9
	 M442,225.6h58.8 M442,242.1h58.8 M442,258.5h58.8 M449.1,275h51.7 M460.8,291.5h40 M463.6,308h37.2 M460.8,324.5h40 M447.9,340.9
	h52.9 M510.8,69.6c6.2,0,11.3,5.1,11.3,11.3s-5.1,11.3-11.3,11.3c-6.2,0-11.3-5.1-11.3-11.3S504.6,69.6,510.8,69.6z M535.1,120.1
	l0.7-6.4l-15.2-9.5c-3,1.3-6.3,2-9.8,2s-6.8-0.7-9.8-2l-15.2,9.5l2.4,22.2H523 M533.8,123.5l2.9,5.9l6.6,1l-4.8,4.6l1.2,6.5
	l-5.9-3.1l-5.9,3.1l1.1-6.5l-4.7-4.6l6.6-1L533.8,123.5z M160.2,278.2c5.6,0,10.1,4.5,10.1,10.1s-4.5,10.1-10.1,10.1
	s-10.1-4.5-10.1-10.1S154.6,278.2,160.2,278.2z M160.3,310.7c-3.1,0-6.1-0.6-8.7-1.8l-13.5,8.4l2.2,19.7h40.2l2.2-19.7l-13.5-8.4
	C166.4,310.1,163.4,310.7,160.3,310.7z M378.6,363.3H661 M6,363.3h282.4"/>
<g>
	<g>
		<g>
			<linearGradient id="SVGID_2_" gradientUnits="userSpaceOnUse" x1="399.9" y1="308.25" x2="420.7" y2="308.25">
				<stop  offset="0" style="stop-color:#7FCD93"/>
				<stop  offset="0.5" style="stop-color:#6494B1"/>
				<stop  offset="1" style="stop-color:#34B4A4"/>
			</linearGradient>
			<path class="st13" d="M399.9,322.6c0.2-1.4,0.3-2.4,0.3-4.2v-20.2c0-1.5-0.1-2.7-0.3-4.3c1.4,0.1,2.4,0.1,4.1,0.1h7.7
				c5.8,0,9,3,9,8.2c0,5.5-3.4,8.7-9.2,8.7h-8.4v7.4c0,1.8,0.1,3,0.3,4.2L399.9,322.6L399.9,322.6z M411.5,308.4c4,0,6.2-2.1,6.2-6
				c0-3.8-2.2-5.7-6.2-5.7h-8.4v11.7H411.5z"/>
		</g>
	</g>
</g>
</svg>
