<svg xmlns="http://www.w3.org/2000/svg" viewBox="0 0 118.54 201.86"><defs><style>.cls-1,.cls-4,.cls-7{fill:#fff;}.cls-2,.cls-3,.cls-6,.cls-8{fill:none;}.cls-2,.cls-3{stroke:#fff;}.cls-2,.cls-3,.cls-4,.cls-6,.cls-7,.cls-8{stroke-miterlimit:10;}.cls-2{stroke-width:1.67px;}.cls-3,.cls-4{stroke-width:1.3px;}.cls-4,.cls-6,.cls-7,.cls-8{stroke:#00a0e9;}.cls-4,.cls-7{fill-rule:evenodd;}.cls-5{fill:#00a0e9;}.cls-6{stroke-width:0.78px;}.cls-7{stroke-width:0.83px;}</style></defs><title>アセット 10</title><g id="レイヤー_2" data-name="レイヤー 2"><g id="レイヤー_1-2" data-name="レイヤー 1"><path class="cls-1" d="M106,1.74A10.79,10.79,0,0,1,116.8,12.51V189.35A10.79,10.79,0,0,1,106,200.13H12.51A10.79,10.79,0,0,1,1.74,189.35V12.51A10.79,10.79,0,0,1,12.51,1.74H106M106,0H12.51A12.51,12.51,0,0,0,0,12.51V189.35a12.51,12.51,0,0,0,12.51,12.51H106a12.51,12.51,0,0,0,12.51-12.51V12.51A12.51,12.51,0,0,0,106,0Z"/><rect class="cls-1" x="11.6" y="24.02" width="95.33" height="139.29"/><circle class="cls-1" cx="47.02" cy="12.32" r="2.04"/><line class="cls-2" x1="53.58" y1="12.32" x2="73.56" y2="12.32"/><path class="cls-1" d="M58.94,171.32a8.53,8.53,0,1,1-8.53,8.53,8.54,8.54,0,0,1,8.53-8.53m0-1.74a10.27,10.27,0,1,0,10.27,10.27,10.27,10.27,0,0,0-10.27-10.27Z"/><path class="cls-3" d="M5.36,187.45s2.36,8.45,9.19,8.45h89s7.7.75,8.94-8.45V15s0-8.06-8.45-9.3"/><path class="cls-4" d="M92.5,152.53H48.08V152a2.64,2.64,0,0,0-5.27,0v.48H26v-35H42.81V118a2.19,2.19,0,0,0,.58,1.63,3,3,0,0,0,1.91.72,2.79,2.79,0,0,0,1.82-.72,2.15,2.15,0,0,0,.48-1.63v-.48H92.5Z"/><rect class="cls-5" x="44.73" y="145.13" width="1.14" height="2.53"/><rect class="cls-5" x="44.73" y="131.49" width="1.14" height="2.53"/><rect class="cls-5" x="44.73" y="136.04" width="1.14" height="2.53"/><rect class="cls-5" x="44.73" y="140.58" width="1.14" height="2.53"/><rect class="cls-5" x="44.73" y="126.96" width="1.14" height="2.53"/><rect class="cls-5" x="44.73" y="122.42" width="1.14" height="2.53"/><path class="cls-5" d="M56.46,138.38a7.88,7.88,0,0,0,.08,1.24H55.1a8,8,0,0,0,.08-1.24v-5.19H53.89a9.37,9.37,0,0,0-1.3.07V132a9.51,9.51,0,0,0,1.29.07h3.76A10,10,0,0,0,59,132v1.27a9.91,9.91,0,0,0-1.4-.07H56.46Z"/><path class="cls-5" d="M61.65,132v1.21h-1.4V132Zm0,2.11a8.57,8.57,0,0,0-.07,1.25v3a9.58,9.58,0,0,0,.07,1.25H60.25a8.53,8.53,0,0,0,.08-1.24v-3a7.8,7.8,0,0,0-.08-1.24Z"/><path class="cls-5" d="M67.09,136a1.72,1.72,0,0,0-.29-.58,1.2,1.2,0,0,0-1-.44c-.93,0-1.51.73-1.51,1.91s.59,1.92,1.55,1.92a1.27,1.27,0,0,0,1.09-.53,1.33,1.33,0,0,0,.19-.48l1.18.24a2.67,2.67,0,0,1-.4.81,2.47,2.47,0,0,1-2.09,1,2.65,2.65,0,0,1-2.76-2.89,3.07,3.07,0,0,1,.81-2.2,2.6,2.6,0,0,1,1.91-.72,2.46,2.46,0,0,1,2.13,1,3.17,3.17,0,0,1,.33.69Z"/><path class="cls-5" d="M71.07,132a8.93,8.93,0,0,0-.07,1.25v3.13L72.43,135a4.36,4.36,0,0,0,.75-.85H75c-.54.49-.54.49-1,.88l-1.35,1.28,1.61,2.2a7.27,7.27,0,0,0,.86,1.1H73.44a4.57,4.57,0,0,0-.63-1.07l-1-1.5-.78.74v.62a6.88,6.88,0,0,0,.07,1.22H69.73a9.33,9.33,0,0,0,.07-1.24v-5.09a8.74,8.74,0,0,0-.07-1.25Z"/><path class="cls-5" d="M77.36,137.2a1.77,1.77,0,0,0,.35,1.07,1.6,1.6,0,0,0,2.33.06,1.38,1.38,0,0,0,.28-.49l1.12.36a2.66,2.66,0,0,1-.58.87,2.7,2.7,0,0,1-2,.73,2.91,2.91,0,0,1-.07-5.81,2.42,2.42,0,0,1,2.37,1.5,3.9,3.9,0,0,1,.28,1.45s0,0,0,.27Zm2.9-.94a1.49,1.49,0,0,0-.42-.91,1.36,1.36,0,0,0-1-.38,1.43,1.43,0,0,0-1.43,1.29Z"/><path class="cls-5" d="M84.9,132.69a10.5,10.5,0,0,0-.07,1.17v.29h.4a5.43,5.43,0,0,0,1-.06v1.12a5.2,5.2,0,0,0-.93-.06h-.43v2.95c0,.47.17.64.63.64a1.26,1.26,0,0,0,.69-.21l.17,1a3,3,0,0,1-1.19.2c-1.09,0-1.53-.39-1.53-1.39v-3.19h-.36a4.77,4.77,0,0,0-.85.06V134.1a4.35,4.35,0,0,0,.86.06h.35v-.29a10.94,10.94,0,0,0-.07-1.17Z"/><polygon class="cls-5" points="104.23 114.45 101.75 115.83 103.92 117.66 101.22 118.53 102.98 120.75 100.16 121.08 101.45 123.6 98.63 123.37 99.4 126.09 96.68 125.32 96.91 128.14 94.39 126.85 94.06 129.67 91.84 127.91 90.97 130.6 89.14 128.44 87.76 130.92 86.38 128.44 84.54 130.6 83.67 127.91 81.45 129.67 81.13 126.85 78.6 128.14 78.83 125.32 76.11 126.09 76.89 123.37 74.06 123.6 75.35 121.08 72.53 120.75 74.3 118.53 71.6 117.66 73.76 115.83 71.28 114.45 73.76 113.07 71.6 111.23 74.3 110.36 72.53 108.14 75.35 107.82 74.06 105.29 76.89 105.53 76.11 102.8 78.84 103.57 78.6 100.75 81.13 102.04 81.45 99.22 83.67 100.99 84.54 98.29 86.38 100.45 87.76 97.97 89.14 100.45 90.97 98.29 91.84 100.99 94.06 99.22 94.39 102.04 96.91 100.75 96.68 103.58 99.41 102.8 98.63 105.53 101.45 105.29 100.16 107.82 102.98 108.14 101.22 110.36 103.92 111.23 101.75 113.07 104.23 114.45"/><polygon class="cls-6" points="104.23 114.45 101.75 115.83 103.92 117.66 101.22 118.53 102.98 120.75 100.16 121.08 101.45 123.6 98.63 123.37 99.4 126.09 96.68 125.32 96.91 128.14 94.39 126.85 94.06 129.67 91.84 127.91 90.97 130.6 89.14 128.44 87.76 130.92 86.38 128.44 84.54 130.6 83.67 127.91 81.45 129.67 81.13 126.85 78.6 128.14 78.83 125.32 76.11 126.09 76.89 123.37 74.06 123.6 75.35 121.08 72.53 120.75 74.3 118.53 71.6 117.66 73.76 115.83 71.28 114.45 73.76 113.07 71.6 111.23 74.3 110.36 72.53 108.14 75.35 107.82 74.06 105.29 76.89 105.53 76.11 102.8 78.84 103.57 78.6 100.75 81.13 102.04 81.45 99.22 83.67 100.99 84.54 98.29 86.38 100.45 87.76 97.97 89.14 100.45 90.97 98.29 91.84 100.99 94.06 99.22 94.39 102.04 96.91 100.75 96.68 103.58 99.41 102.8 98.63 105.53 101.45 105.29 100.16 107.82 102.98 108.14 101.22 110.36 103.92 111.23 101.75 113.07 104.23 114.45"/><path class="cls-5" d="M87.2,110a7.84,7.84,0,0,0,.08-1.23v-5.2h-.45a8.34,8.34,0,0,0-1,.06v-1.2a5.19,5.19,0,0,0,.94.06h.87a6.83,6.83,0,0,0,1,0,14.24,14.24,0,0,0-.08,1.56v4.78a7.92,7.92,0,0,0,.08,1.23Z"/><path class="cls-5" d="M80.24,115.71a5,5,0,0,0,0,.79h-.92a5,5,0,0,0,0-.79V112.4H78.6a6,6,0,0,0-.83,0v-.81a6.08,6.08,0,0,0,.82,0H81a6.42,6.42,0,0,0,.89,0v.81a6.35,6.35,0,0,0-.89,0h-.76Z"/><path class="cls-5" d="M83.24,111.67v.77h-.89v-.77Zm0,1.34a5.37,5.37,0,0,0,0,.79v1.89a6,6,0,0,0,0,.79h-.88a5.4,5.4,0,0,0,0-.79v-1.9a4.94,4.94,0,0,0,0-.79Z"/><path class="cls-5" d="M86.41,114.18a1.1,1.1,0,0,0-.19-.37.76.76,0,0,0-.62-.28c-.59,0-1,.47-1,1.22s.38,1.22,1,1.22a.81.81,0,0,0,.7-.34.84.84,0,0,0,.12-.3l.75.15a1.7,1.7,0,0,1-.25.51,1.58,1.58,0,0,1-1.33.61,1.69,1.69,0,0,1-1.76-1.84,2,2,0,0,1,.52-1.4,1.66,1.66,0,0,1,1.22-.46,1.57,1.57,0,0,1,1.36.65,2,2,0,0,1,.21.44Z"/><path class="cls-5" d="M88.64,111.67a5.66,5.66,0,0,0,0,.79v2l.91-.9A2.78,2.78,0,0,0,90,113h1.13l-.61.56-.86.82,1,1.4a4.52,4.52,0,0,0,.55.7H90.15a2.92,2.92,0,0,0-.4-.68l-.65-1-.5.47v.39a4.39,4.39,0,0,0,0,.78h-.85a5.92,5.92,0,0,0,0-.79v-3.24a5.54,5.54,0,0,0,0-.79Z"/><path class="cls-5" d="M92.34,115a1.13,1.13,0,0,0,.22.68,1,1,0,0,0,1.48,0,.89.89,0,0,0,.18-.32l.71.23a1.7,1.7,0,0,1-.37.56,1.72,1.72,0,0,1-1.25.47,1.85,1.85,0,0,1,0-3.7,1.54,1.54,0,0,1,1.51,1,2.49,2.49,0,0,1,.18.92s0,0,0,.17Zm1.85-.6a1,1,0,0,0-.27-.58.87.87,0,0,0-.65-.24.91.91,0,0,0-.91.82Z"/><path class="cls-5" d="M96.85,112.08a6.64,6.64,0,0,0,0,.75V113h.25a3.48,3.48,0,0,0,.61,0v.71a3.33,3.33,0,0,0-.59,0h-.27v1.88c0,.3.11.41.4.41a.8.8,0,0,0,.44-.13l.11.64a1.9,1.9,0,0,1-.76.13c-.7,0-1-.25-1-.88v-2h-.23a3.06,3.06,0,0,0-.54,0V113a2.78,2.78,0,0,0,.54,0H96v-.19a6.92,6.92,0,0,0,0-.75Z"/><path class="cls-5" d="M79.54,122.44a5.37,5.37,0,0,0,0,.89h-.92a5.19,5.19,0,0,0,0-.88V119.2a5.3,5.3,0,0,0,0-.8l.78,0h1.73a6.39,6.39,0,0,0,.84,0v.83a5.83,5.83,0,0,0-.84,0H79.54v1.31h1.32a6.17,6.17,0,0,0,.84,0v.82a6.11,6.11,0,0,0-.84,0H79.54Z"/><path class="cls-5" d="M85,120.56a1.84,1.84,0,0,0-.55-.1.88.88,0,0,0-.71.3,1,1,0,0,0-.25.62v1.14a6.5,6.5,0,0,0,0,.8H82.6a6.79,6.79,0,0,0,0-.8v-1.94a4.87,4.87,0,0,0,0-.8h.84v.58a1.18,1.18,0,0,1,1.16-.65,3.24,3.24,0,0,1,.57.07Z"/><path class="cls-5" d="M86.26,121.76a1.14,1.14,0,0,0,.23.69,1,1,0,0,0,1.51,0,.89.89,0,0,0,.18-.32l.73.23a1.73,1.73,0,0,1-.38.57,1.75,1.75,0,0,1-1.27.47,1.89,1.89,0,0,1,0-3.77,1.57,1.57,0,0,1,1.54,1,2.54,2.54,0,0,1,.18.94s0,0,0,.17Zm1.88-.61a1,1,0,0,0-.27-.59.88.88,0,0,0-.67-.25.93.93,0,0,0-.92.84Z"/><path class="cls-5" d="M90.19,121.76a1.14,1.14,0,0,0,.23.69,1,1,0,0,0,1.51,0,.9.9,0,0,0,.18-.32l.73.23a1.73,1.73,0,0,1-.38.57,1.75,1.75,0,0,1-1.27.47,1.89,1.89,0,0,1,0-3.77,1.57,1.57,0,0,1,1.54,1,2.53,2.53,0,0,1,.18.94s0,0,0,.17Zm1.88-.61a1,1,0,0,0-.27-.59.88.88,0,0,0-.67-.25.93.93,0,0,0-.92.84Z"/><path class="cls-5" d="M93.78,122c0-.13,0-.19,0-.26s0-.07,0-.44l-.09-2.1c0-.27,0-.58-.06-.75h1c0,.17,0,.49-.06.75l-.09,2.1c0,.36,0,.36,0,.45a2.13,2.13,0,0,0,0,.26Zm-.09,1.35v-.84h.89v.84Z"/><path class="cls-5" d="M95.87,122c0-.13,0-.19,0-.26s0-.07,0-.44l-.09-2.1c0-.27,0-.58-.06-.75h1c0,.17,0,.49-.06.75l-.09,2.1c0,.36,0,.36,0,.45a2.22,2.22,0,0,0,0,.26Zm-.09,1.35v-.84h.89v.84Z"/><path class="cls-1" d="M87.2,110a7.84,7.84,0,0,0,.08-1.23v-5.2h-.45a8.34,8.34,0,0,0-1,.06v-1.2a5.19,5.19,0,0,0,.94.06h.87a6.83,6.83,0,0,0,1,0,14.24,14.24,0,0,0-.08,1.56v4.78a7.92,7.92,0,0,0,.08,1.23Z"/><path class="cls-1" d="M80.24,115.71a5,5,0,0,0,0,.79h-.92a5,5,0,0,0,0-.79V112.4H78.6a6,6,0,0,0-.83,0v-.81a6.08,6.08,0,0,0,.82,0H81a6.42,6.42,0,0,0,.89,0v.81a6.35,6.35,0,0,0-.89,0h-.76Z"/><path class="cls-1" d="M83.24,111.67v.77h-.89v-.77Zm0,1.34a5.37,5.37,0,0,0,0,.79v1.89a6,6,0,0,0,0,.79h-.88a5.4,5.4,0,0,0,0-.79v-1.9a4.94,4.94,0,0,0,0-.79Z"/><path class="cls-1" d="M86.41,114.18a1.1,1.1,0,0,0-.19-.37.76.76,0,0,0-.62-.28c-.59,0-1,.47-1,1.22s.38,1.22,1,1.22a.81.81,0,0,0,.7-.34.84.84,0,0,0,.12-.3l.75.15a1.7,1.7,0,0,1-.25.51,1.58,1.58,0,0,1-1.33.61,1.69,1.69,0,0,1-1.76-1.84,2,2,0,0,1,.52-1.4,1.66,1.66,0,0,1,1.22-.46,1.57,1.57,0,0,1,1.36.65,2,2,0,0,1,.21.44Z"/><path class="cls-1" d="M88.64,111.67a5.66,5.66,0,0,0,0,.79v2l.91-.9A2.78,2.78,0,0,0,90,113h1.13l-.61.56-.86.82,1,1.4a4.52,4.52,0,0,0,.55.7H90.15a2.92,2.92,0,0,0-.4-.68l-.65-1-.5.47v.39a4.39,4.39,0,0,0,0,.78h-.85a5.92,5.92,0,0,0,0-.79v-3.24a5.54,5.54,0,0,0,0-.79Z"/><path class="cls-1" d="M92.34,115a1.13,1.13,0,0,0,.22.68,1,1,0,0,0,1.48,0,.89.89,0,0,0,.18-.32l.71.23a1.7,1.7,0,0,1-.37.56,1.72,1.72,0,0,1-1.25.47,1.85,1.85,0,0,1,0-3.7,1.54,1.54,0,0,1,1.51,1,2.49,2.49,0,0,1,.18.92s0,0,0,.17Zm1.85-.6a1,1,0,0,0-.27-.58.87.87,0,0,0-.65-.24.91.91,0,0,0-.91.82Z"/><path class="cls-1" d="M96.85,112.08a6.64,6.64,0,0,0,0,.75V113h.25a3.48,3.48,0,0,0,.61,0v.71a3.33,3.33,0,0,0-.59,0h-.27v1.88c0,.3.11.41.4.41a.8.8,0,0,0,.44-.13l.11.64a1.9,1.9,0,0,1-.76.13c-.7,0-1-.25-1-.88v-2h-.23a3.06,3.06,0,0,0-.54,0V113a2.78,2.78,0,0,0,.54,0H96v-.19a6.92,6.92,0,0,0,0-.75Z"/><path class="cls-1" d="M79.54,122.44a5.37,5.37,0,0,0,0,.89h-.92a5.19,5.19,0,0,0,0-.88V119.2a5.3,5.3,0,0,0,0-.8l.78,0h1.73a6.39,6.39,0,0,0,.84,0v.83a5.83,5.83,0,0,0-.84,0H79.54v1.31h1.32a6.17,6.17,0,0,0,.84,0v.82a6.11,6.11,0,0,0-.84,0H79.54Z"/><path class="cls-1" d="M85,120.56a1.84,1.84,0,0,0-.55-.1.88.88,0,0,0-.71.3,1,1,0,0,0-.25.62v1.14a6.5,6.5,0,0,0,0,.8H82.6a6.79,6.79,0,0,0,0-.8v-1.94a4.87,4.87,0,0,0,0-.8h.84v.58a1.18,1.18,0,0,1,1.16-.65,3.24,3.24,0,0,1,.57.07Z"/><path class="cls-1" d="M86.26,121.76a1.14,1.14,0,0,0,.23.69,1,1,0,0,0,1.51,0,.89.89,0,0,0,.18-.32l.73.23a1.73,1.73,0,0,1-.38.57,1.75,1.75,0,0,1-1.27.47,1.89,1.89,0,0,1,0-3.77,1.57,1.57,0,0,1,1.54,1,2.54,2.54,0,0,1,.18.94s0,0,0,.17Zm1.88-.61a1,1,0,0,0-.27-.59.88.88,0,0,0-.67-.25.93.93,0,0,0-.92.84Z"/><path class="cls-1" d="M90.19,121.76a1.14,1.14,0,0,0,.23.69,1,1,0,0,0,1.51,0,.9.9,0,0,0,.18-.32l.73.23a1.73,1.73,0,0,1-.38.57,1.75,1.75,0,0,1-1.27.47,1.89,1.89,0,0,1,0-3.77,1.57,1.57,0,0,1,1.54,1,2.53,2.53,0,0,1,.18.94s0,0,0,.17Zm1.88-.61a1,1,0,0,0-.27-.59.88.88,0,0,0-.67-.25.93.93,0,0,0-.92.84Z"/><path class="cls-1" d="M93.78,122c0-.13,0-.19,0-.26s0-.07,0-.44l-.09-2.1c0-.27,0-.58-.06-.75h1c0,.17,0,.49-.06.75l-.09,2.1c0,.36,0,.36,0,.45a2.13,2.13,0,0,0,0,.26Zm-.09,1.35v-.84h.89v.84Z"/><path class="cls-1" d="M95.87,122c0-.13,0-.19,0-.26s0-.07,0-.44l-.09-2.1c0-.27,0-.58-.06-.75h1c0,.17,0,.49-.06.75l-.09,2.1c0,.36,0,.36,0,.45a2.22,2.22,0,0,0,0,.26Zm-.09,1.35v-.84h.89v.84Z"/><path class="cls-7" d="M66,69.53,38.52,76.88l-.08-.3a1.69,1.69,0,0,0-3.26.87l.08.3L24.89,80.53,19.1,58.91l10.37-2.78.08.3a1.4,1.4,0,0,0,.63.91,1.92,1.92,0,0,0,1.3.13,1.79,1.79,0,0,0,1-.75,1.38,1.38,0,0,0,0-1.09l-.08-.3L60.18,47.9Z"/><rect class="cls-5" x="35.42" y="72.74" width="0.73" height="1.62" transform="translate(-17.82 11.77) rotate(-15)"/><rect class="cls-5" x="33.16" y="64.31" width="0.73" height="1.62" transform="translate(-15.71 10.9) rotate(-15)"/><rect class="cls-5" x="33.91" y="67.12" width="0.73" height="1.62" transform="matrix(0.97, -0.26, 0.26, 0.97, -16.41, 11.19)"/><rect class="cls-5" x="34.67" y="69.93" width="0.73" height="1.62" transform="matrix(0.97, -0.26, 0.26, 0.97, -17.12, 11.48)"/><rect class="cls-5" x="32.41" y="61.51" width="0.73" height="1.62" transform="matrix(0.97, -0.26, 0.26, 0.97, -15.01, 10.61)"/><rect class="cls-5" x="31.66" y="58.7" width="0.73" height="1.62" transform="translate(-14.31 10.32) rotate(-15)"/><path class="cls-5" d="M41.38,66.78a5,5,0,0,0,.25.75l-.89.24a5.14,5.14,0,0,0-.16-.77l-.86-3.2-.79.21a6.11,6.11,0,0,0-.79.25l-.21-.79a6.1,6.1,0,0,0,.81-.17l2.32-.62a6.47,6.47,0,0,0,.85-.27l.21.79a6.33,6.33,0,0,0-.87.19l-.73.2Z"/><path class="cls-5" d="M43.54,62l.2.74-.86.23-.2-.74Zm.34,1.3a5.5,5.5,0,0,0,.16.78l.49,1.83a6.05,6.05,0,0,0,.25.76l-.86.23a5.46,5.46,0,0,0-.16-.78l-.49-1.84a5,5,0,0,0-.25-.75Z"/><path class="cls-5" d="M47.56,63.54a1.09,1.09,0,0,0-.28-.31.76.76,0,0,0-.68-.11c-.57.15-.81.7-.62,1.43s.68,1.09,1.27.93a.81.81,0,0,0,.59-.51.85.85,0,0,0,0-.33l.77,0a1.72,1.72,0,0,1-.11.56,1.58,1.58,0,0,1-1.13.94,1.69,1.69,0,0,1-2.18-1.33,2,2,0,0,1,.14-1.49,1.66,1.66,0,0,1,1.06-.76,1.57,1.57,0,0,1,1.48.28,2,2,0,0,1,.32.37Z"/><path class="cls-5" d="M49.37,60.45a5.64,5.64,0,0,0,.17.78l.52,1.93.65-1.11a2.78,2.78,0,0,0,.32-.65l1.1-.29c-.25.39-.25.39-.44.7l-.62,1,1.35,1.09a4.61,4.61,0,0,0,.72.54l-1,.28a2.89,2.89,0,0,0-.56-.56l-.88-.76-.36.59.1.38a4.42,4.42,0,0,0,.24.74l-.83.22a6,6,0,0,0-.16-.77l-.84-3.14a5.65,5.65,0,0,0-.25-.76Z"/><path class="cls-5" d="M54.11,62.59a1.13,1.13,0,0,0,.39.6A1,1,0,0,0,56,62.84a.89.89,0,0,0,.09-.35l.75,0a1.63,1.63,0,0,1-1.3,1.41,1.86,1.86,0,0,1-1-3.57,1.55,1.55,0,0,1,1.71.54,2.53,2.53,0,0,1,.41.85l.06.16Zm1.63-1.06a1,1,0,0,0-.41-.49.87.87,0,0,0-.7-.07A.91.91,0,0,0,54,62Z"/><path class="cls-5" d="M58,58.56a6.66,6.66,0,0,0,.15.73l0,.18.25-.07a3.55,3.55,0,0,0,.58-.19l.19.69a3.24,3.24,0,0,0-.58.12l-.26.07.49,1.82c.08.29.21.37.49.29a.79.79,0,0,0,.39-.24l.27.59a1.88,1.88,0,0,1-.7.32c-.67.18-1,0-1.17-.6l-.53-2-.22.06a3,3,0,0,0-.51.18l-.19-.69a2.8,2.8,0,0,0,.54-.11l.22-.06,0-.18a6.88,6.88,0,0,0-.23-.71Z"/><path class="cls-7" d="M68.11,70.59,40.65,77.95l-.08-.3a1.69,1.69,0,0,0-3.26.87l.08.3L27,81.6,21.23,60,31.6,57.2l.08.3a1.4,1.4,0,0,0,.63.91,1.92,1.92,0,0,0,1.3.13,1.79,1.79,0,0,0,1-.75,1.38,1.38,0,0,0,0-1.09l-.08-.3L62.31,49Z"/><rect class="cls-5" x="37.55" y="73.81" width="0.73" height="1.62" transform="translate(-18.02 12.36) rotate(-15)"/><rect class="cls-5" x="35.29" y="65.38" width="0.73" height="1.62" transform="translate(-15.92 11.48) rotate(-15)"/><rect class="cls-5" x="36.05" y="68.19" width="0.73" height="1.62" transform="translate(-16.62 11.77) rotate(-15)"/><rect class="cls-5" x="36.8" y="71" width="0.73" height="1.62" transform="translate(-17.32 12.07) rotate(-15)"/><rect class="cls-5" x="34.54" y="62.58" width="0.73" height="1.62" transform="translate(-15.22 11.19) rotate(-15)"/><rect class="cls-5" x="33.79" y="59.77" width="0.73" height="1.62" transform="translate(-14.52 10.9) rotate(-15)"/><path class="cls-5" d="M43.52,67.85a5.09,5.09,0,0,0,.25.75l-.89.24a5.13,5.13,0,0,0-.16-.77l-.86-3.2-.79.21a6.09,6.09,0,0,0-.79.25l-.21-.79a6.21,6.21,0,0,0,.81-.17l2.32-.62a6.46,6.46,0,0,0,.85-.27l.21.79a6.32,6.32,0,0,0-.87.19l-.73.2Z"/><path class="cls-5" d="M45.68,63.08l.2.74-.86.23-.2-.74Zm.34,1.3a5.36,5.36,0,0,0,.16.78L46.68,67a6,6,0,0,0,.25.76l-.86.23a5.4,5.4,0,0,0-.16-.78l-.49-1.84a5,5,0,0,0-.25-.75Z"/><path class="cls-5" d="M49.69,64.61a1.09,1.09,0,0,0-.28-.31.76.76,0,0,0-.68-.11c-.58.15-.81.7-.62,1.43s.68,1.09,1.27.93A.81.81,0,0,0,50,66a.85.85,0,0,0,0-.32l.77,0a1.74,1.74,0,0,1-.11.56,1.58,1.58,0,0,1-1.13.94,1.69,1.69,0,0,1-2.18-1.33,2,2,0,0,1,.14-1.49,1.66,1.66,0,0,1,1.06-.76,1.57,1.57,0,0,1,1.48.28,2,2,0,0,1,.32.37Z"/><path class="cls-5" d="M51.5,61.52a5.65,5.65,0,0,0,.16.78l.52,1.93.65-1.11a2.77,2.77,0,0,0,.32-.65l1.1-.29c-.25.39-.25.39-.44.7l-.62,1L54.54,65a4.63,4.63,0,0,0,.72.54l-1,.28a2.89,2.89,0,0,0-.56-.56l-.88-.76-.36.59.1.38a4.36,4.36,0,0,0,.24.74l-.83.22a5.88,5.88,0,0,0-.16-.77l-.84-3.14a5.5,5.5,0,0,0-.25-.76Z"/><path class="cls-5" d="M56.24,63.66a1.13,1.13,0,0,0,.39.6,1,1,0,0,0,1.45-.35.87.87,0,0,0,.09-.35l.75,0A1.63,1.63,0,0,1,57.62,65a1.86,1.86,0,0,1-1-3.57,1.54,1.54,0,0,1,1.71.54,2.48,2.48,0,0,1,.41.85l.06.16Zm1.63-1.06a1,1,0,0,0-.41-.49.87.87,0,0,0-.7-.06.91.91,0,0,0-.67,1Z"/><path class="cls-5" d="M60.16,59.63a6.83,6.83,0,0,0,.15.73l0,.18.25-.07a3.47,3.47,0,0,0,.58-.19l.19.69a3.23,3.23,0,0,0-.58.12l-.26.07L61,63c.08.29.21.37.49.29A.79.79,0,0,0,61.9,63l.27.59a1.9,1.9,0,0,1-.7.32c-.67.18-1,0-1.17-.6l-.53-2-.22.06a2.92,2.92,0,0,0-.51.18l-.19-.69a2.79,2.79,0,0,0,.54-.11l.22-.06,0-.18a6.94,6.94,0,0,0-.23-.71Z"/><path class="cls-7" d="M70.24,71.66,42.79,79l-.08-.3a1.69,1.69,0,0,0-3.26.87l.08.3L29.16,82.67,23.37,61l10.37-2.78.08.3a1.4,1.4,0,0,0,.63.91,1.92,1.92,0,0,0,1.3.13,1.79,1.79,0,0,0,1-.75,1.38,1.38,0,0,0,0-1.09l-.08-.3L64.45,50Z"/><rect class="cls-5" x="39.69" y="74.88" width="0.73" height="1.62" transform="matrix(0.97, -0.26, 0.26, 0.97, -18.22, 12.94)"/><rect class="cls-5" x="37.43" y="66.45" width="0.73" height="1.62" transform="translate(-16.12 12.07) rotate(-15)"/><rect class="cls-5" x="38.18" y="69.26" width="0.73" height="1.62" transform="translate(-16.82 12.36) rotate(-15)"/><rect class="cls-5" x="38.93" y="72.07" width="0.73" height="1.62" transform="translate(-17.52 12.65) rotate(-15)"/><rect class="cls-5" x="36.68" y="63.65" width="0.73" height="1.62" transform="translate(-15.42 11.78) rotate(-15)"/><rect class="cls-5" x="35.92" y="60.84" width="0.73" height="1.62" transform="translate(-14.72 11.49) rotate(-15)"/><path class="cls-5" d="M45.65,68.91a5,5,0,0,0,.25.75L45,69.9a5,5,0,0,0-.16-.78L44,65.92l-.79.21a6.07,6.07,0,0,0-.79.26l-.21-.79a6.2,6.2,0,0,0,.81-.17l2.32-.62a6.53,6.53,0,0,0,.85-.27l.21.79a6.28,6.28,0,0,0-.87.19l-.73.2Z"/><path class="cls-5" d="M47.81,64.15l.2.75-.86.23-.2-.75Zm.34,1.3a5.44,5.44,0,0,0,.17.78l.49,1.83a6.19,6.19,0,0,0,.25.76L48.2,69a5.46,5.46,0,0,0-.16-.78l-.49-1.84a4.94,4.94,0,0,0-.25-.75Z"/><path class="cls-5" d="M51.83,65.67a1.09,1.09,0,0,0-.28-.31.76.76,0,0,0-.68-.11c-.58.15-.81.7-.62,1.43s.68,1.09,1.27.93a.81.81,0,0,0,.59-.51.87.87,0,0,0,0-.32l.77,0a1.71,1.71,0,0,1-.11.56,1.58,1.58,0,0,1-1.13.94,1.69,1.69,0,0,1-2.18-1.33,2,2,0,0,1,.14-1.49,1.66,1.66,0,0,1,1.06-.76,1.57,1.57,0,0,1,1.48.28,2,2,0,0,1,.32.37Z"/><path class="cls-5" d="M53.64,62.59a5.64,5.64,0,0,0,.17.78l.52,1.93L55,64.19a2.83,2.83,0,0,0,.32-.65l1.1-.29c-.25.39-.25.39-.44.7l-.62,1L56.68,66a4.61,4.61,0,0,0,.72.54l-1,.28a2.88,2.88,0,0,0-.56-.56l-.88-.76-.36.59.1.38a4.53,4.53,0,0,0,.24.74l-.83.22a6,6,0,0,0-.16-.77l-.84-3.14a5.51,5.51,0,0,0-.25-.76Z"/><path class="cls-5" d="M58.38,64.72a1.13,1.13,0,0,0,.39.6A1,1,0,0,0,60.22,65a.89.89,0,0,0,.09-.35l.75,0a1.7,1.7,0,0,1-.21.63,1.72,1.72,0,0,1-1.09.78,1.86,1.86,0,0,1-1-3.57,1.54,1.54,0,0,1,1.71.54,2.52,2.52,0,0,1,.41.85l.06.16ZM60,63.66a1,1,0,0,0-.41-.49.87.87,0,0,0-.7-.06.91.91,0,0,0-.67,1Z"/><path class="cls-5" d="M62.29,60.69a6.57,6.57,0,0,0,.15.73l0,.18.25-.07a3.59,3.59,0,0,0,.58-.19l.19.69a3.23,3.23,0,0,0-.58.12l-.26.07L63.15,64c.08.29.21.36.49.29a.8.8,0,0,0,.39-.24l.27.59a1.89,1.89,0,0,1-.7.32c-.67.18-1,0-1.17-.6l-.53-2-.22.06a2.93,2.93,0,0,0-.51.18L61,62a2.79,2.79,0,0,0,.54-.11l.22-.06,0-.18a7,7,0,0,0-.23-.71Z"/><path class="cls-7" d="M93.92,69.53,66.46,76.88l-.08-.3a1.69,1.69,0,0,0-3.26.87l.08.3L52.84,80.53,47,58.91l10.37-2.78.08.3a1.4,1.4,0,0,0,.63.91,1.92,1.92,0,0,0,1.3.13,1.79,1.79,0,0,0,1-.75,1.38,1.38,0,0,0,0-1.09l-.08-.3L88.12,47.9Z"/><rect class="cls-5" x="63.36" y="72.74" width="0.73" height="1.62" transform="matrix(0.97, -0.26, 0.26, 0.97, -16.87, 19)"/><rect class="cls-5" x="61.1" y="64.31" width="0.73" height="1.62" transform="translate(-14.76 18.13) rotate(-15)"/><rect class="cls-5" x="61.86" y="67.12" width="0.73" height="1.62" transform="matrix(0.97, -0.26, 0.26, 0.97, -15.46, 18.42)"/><rect class="cls-5" x="62.61" y="69.93" width="0.73" height="1.62" transform="translate(-16.16 18.71) rotate(-15)"/><rect class="cls-5" x="60.35" y="61.51" width="0.73" height="1.62" transform="translate(-14.06 17.84) rotate(-15)"/><rect class="cls-5" x="59.6" y="58.7" width="0.73" height="1.62" transform="translate(-13.36 17.55) rotate(-15)"/><path class="cls-5" d="M69.33,66.78a5.08,5.08,0,0,0,.25.75l-.89.24a5,5,0,0,0-.16-.78l-.86-3.2-.79.21a5.92,5.92,0,0,0-.79.26l-.21-.79a6.07,6.07,0,0,0,.81-.17L69,62.68a6.38,6.38,0,0,0,.85-.27l.21.79a6.33,6.33,0,0,0-.87.19l-.73.2Z"/><path class="cls-5" d="M71.49,62l.2.74-.86.23-.2-.75Zm.34,1.3a5.44,5.44,0,0,0,.17.78l.49,1.83a6.19,6.19,0,0,0,.25.76l-.86.23a5.46,5.46,0,0,0-.16-.78l-.49-1.84a4.94,4.94,0,0,0-.25-.75Z"/><path class="cls-5" d="M75.5,63.54a1.08,1.08,0,0,0-.28-.31.76.76,0,0,0-.68-.11c-.57.15-.81.7-.62,1.43s.68,1.09,1.27.93a.82.82,0,0,0,.59-.51.88.88,0,0,0,0-.32l.77,0a1.74,1.74,0,0,1-.11.57,1.58,1.58,0,0,1-1.13.94,1.69,1.69,0,0,1-2.18-1.33,2,2,0,0,1,.14-1.49,1.66,1.66,0,0,1,1.06-.76,1.57,1.57,0,0,1,1.48.28,2,2,0,0,1,.32.37Z"/><path class="cls-5" d="M77.31,60.45a5.57,5.57,0,0,0,.17.78L78,63.16l.65-1.11a2.85,2.85,0,0,0,.32-.65l1.1-.29c-.25.39-.25.39-.44.7l-.62,1,1.35,1.09a4.58,4.58,0,0,0,.72.54l-1,.28a2.91,2.91,0,0,0-.56-.56l-.88-.76-.36.59.1.38a4.49,4.49,0,0,0,.24.74l-.83.22a6,6,0,0,0-.16-.77l-.84-3.14a5.65,5.65,0,0,0-.25-.76Z"/><path class="cls-5" d="M82.05,62.59a1.13,1.13,0,0,0,.39.6,1,1,0,0,0,1.45-.35.9.9,0,0,0,.09-.35l.75,0a1.7,1.7,0,0,1-.21.63,1.72,1.72,0,0,1-1.09.78,1.86,1.86,0,0,1-1-3.57,1.54,1.54,0,0,1,1.71.54,2.5,2.5,0,0,1,.41.85l.06.16Zm1.63-1.06a1,1,0,0,0-.41-.49.87.87,0,0,0-.7-.06.91.91,0,0,0-.67,1Z"/><path class="cls-5" d="M86,58.56a6.6,6.6,0,0,0,.15.73l0,.18.25-.07a3.41,3.41,0,0,0,.58-.19l.19.69a3.24,3.24,0,0,0-.58.12l-.26.07.49,1.82c.08.29.21.36.49.29a.81.81,0,0,0,.39-.24l.27.59a1.89,1.89,0,0,1-.7.32c-.67.18-1,0-1.17-.6l-.53-2-.22.06a2.94,2.94,0,0,0-.51.18l-.19-.69a2.72,2.72,0,0,0,.54-.11l.22-.06,0-.18a7.06,7.06,0,0,0-.23-.71Z"/><path class="cls-7" d="M96.05,70.59,68.6,77.95l-.08-.3a1.69,1.69,0,0,0-3.26.87l.08.3L55,81.6,49.18,60,59.54,57.2l.08.3a1.4,1.4,0,0,0,.63.91,1.92,1.92,0,0,0,1.3.13,1.79,1.79,0,0,0,1-.75,1.38,1.38,0,0,0,0-1.09l-.08-.3L90.26,49Z"/><rect class="cls-5" x="65.5" y="73.81" width="0.73" height="1.62" transform="translate(-17.07 19.59) rotate(-15)"/><rect class="cls-5" x="63.24" y="65.38" width="0.73" height="1.62" transform="translate(-14.96 18.72) rotate(-15)"/><rect class="cls-5" x="63.99" y="68.19" width="0.73" height="1.62" transform="translate(-15.66 19.01) rotate(-15)"/><rect class="cls-5" x="64.74" y="71" width="0.73" height="1.62" transform="translate(-16.37 19.3) rotate(-15)"/><rect class="cls-5" x="62.49" y="62.58" width="0.73" height="1.62" transform="translate(-14.26 18.43) rotate(-15)"/><rect class="cls-5" x="61.73" y="59.77" width="0.73" height="1.62" transform="translate(-13.56 18.14) rotate(-15)"/><path class="cls-5" d="M71.46,67.85a5,5,0,0,0,.25.75l-.89.24a5.14,5.14,0,0,0-.16-.78l-.86-3.2-.79.21a6,6,0,0,0-.79.26L68,64.54a6.07,6.07,0,0,0,.81-.17l2.32-.62a6.44,6.44,0,0,0,.85-.27l.21.79a6.47,6.47,0,0,0-.87.19l-.73.2Z"/><path class="cls-5" d="M73.62,63.08l.2.74-.86.23-.2-.74Zm.34,1.3a5.44,5.44,0,0,0,.17.78L74.62,67a6.1,6.1,0,0,0,.25.76L74,68a5.48,5.48,0,0,0-.16-.78l-.49-1.84a5,5,0,0,0-.25-.75Z"/><path class="cls-5" d="M77.64,64.61a1.06,1.06,0,0,0-.28-.31.76.76,0,0,0-.68-.11c-.57.15-.81.7-.62,1.43s.68,1.09,1.27.93a.82.82,0,0,0,.59-.51.86.86,0,0,0,0-.32l.77,0a1.71,1.71,0,0,1-.11.57,1.58,1.58,0,0,1-1.13.94,1.69,1.69,0,0,1-2.18-1.33,2,2,0,0,1,.14-1.49,1.66,1.66,0,0,1,1.06-.76,1.57,1.57,0,0,1,1.48.28,2,2,0,0,1,.32.37Z"/><path class="cls-5" d="M79.45,61.52a5.8,5.8,0,0,0,.16.78l.52,1.93.65-1.11a2.79,2.79,0,0,0,.32-.65l1.1-.29c-.25.39-.25.39-.44.7l-.62,1L82.49,65a4.65,4.65,0,0,0,.72.54l-1,.28a2.91,2.91,0,0,0-.56-.56l-.88-.76-.36.59.1.38a4.36,4.36,0,0,0,.24.74l-.83.22a6,6,0,0,0-.16-.77l-.84-3.14a5.59,5.59,0,0,0-.25-.76Z"/><path class="cls-5" d="M84.19,63.66a1.14,1.14,0,0,0,.39.6A1,1,0,0,0,86,63.91a.87.87,0,0,0,.09-.35l.75,0a1.7,1.7,0,0,1-.21.63,1.72,1.72,0,0,1-1.09.78,1.86,1.86,0,0,1-1-3.57,1.54,1.54,0,0,1,1.71.54,2.48,2.48,0,0,1,.41.85l.06.16Zm1.63-1.06a1,1,0,0,0-.41-.49.87.87,0,0,0-.7-.06.91.91,0,0,0-.67,1Z"/><path class="cls-5" d="M88.1,59.63a6.72,6.72,0,0,0,.15.73l0,.18.25-.07a3.48,3.48,0,0,0,.58-.19l.19.69a3.24,3.24,0,0,0-.58.12l-.26.07L89,63c.08.29.21.37.49.29a.8.8,0,0,0,.39-.24l.27.59a1.89,1.89,0,0,1-.7.32c-.67.18-1,0-1.17-.6l-.53-2-.22.06a3,3,0,0,0-.51.18l-.19-.69a2.72,2.72,0,0,0,.54-.11l.22-.06,0-.18a7.06,7.06,0,0,0-.23-.71Z"/><path class="cls-7" d="M98.18,71.66,70.73,79l-.08-.3a1.69,1.69,0,0,0-3.26.87l.08.3L57.1,82.67,51.31,61l10.37-2.78.08.3a1.4,1.4,0,0,0,.63.91,1.92,1.92,0,0,0,1.3.13,1.79,1.79,0,0,0,1-.75,1.38,1.38,0,0,0,0-1.09l-.08-.3L92.39,50Z"/><rect class="cls-5" x="67.63" y="74.88" width="0.73" height="1.62" transform="translate(-17.27 20.18) rotate(-15)"/><rect class="cls-5" x="65.37" y="66.45" width="0.73" height="1.62" transform="translate(-15.17 19.3) rotate(-15)"/><rect class="cls-5" x="66.12" y="69.26" width="0.73" height="1.62" transform="translate(-15.87 19.6) rotate(-15)"/><rect class="cls-5" x="66.88" y="72.07" width="0.73" height="1.62" transform="translate(-16.57 19.89) rotate(-15)"/><rect class="cls-5" x="64.62" y="63.65" width="0.73" height="1.62" transform="translate(-14.47 19.02) rotate(-15)"/><rect class="cls-5" x="63.87" y="60.84" width="0.73" height="1.62" transform="translate(-13.77 18.72) rotate(-15)"/><path class="cls-5" d="M73.59,68.91a5.06,5.06,0,0,0,.25.75L73,69.9a5.07,5.07,0,0,0-.16-.78l-.86-3.2-.79.21a6.28,6.28,0,0,0-.79.26l-.21-.79a6.08,6.08,0,0,0,.81-.17l2.32-.62a6.49,6.49,0,0,0,.85-.27l.21.79a6.68,6.68,0,0,0-.87.19l-.73.2Z"/><path class="cls-5" d="M75.75,64.15l.2.74-.86.23-.2-.74Zm.34,1.3a5.53,5.53,0,0,0,.17.78l.49,1.83a6.27,6.27,0,0,0,.25.76l-.86.23a5.43,5.43,0,0,0-.16-.78l-.49-1.84a5,5,0,0,0-.25-.75Z"/><path class="cls-5" d="M79.77,65.67a1.05,1.05,0,0,0-.28-.31.76.76,0,0,0-.68-.11c-.57.15-.81.7-.62,1.43s.68,1.09,1.27.93a.82.82,0,0,0,.59-.51.88.88,0,0,0,0-.33l.77,0a1.7,1.7,0,0,1-.11.57,1.58,1.58,0,0,1-1.13.94,1.69,1.69,0,0,1-2.18-1.33,2,2,0,0,1,.14-1.49,1.66,1.66,0,0,1,1.06-.76,1.57,1.57,0,0,1,1.48.28,2.06,2.06,0,0,1,.32.37Z"/><path class="cls-5" d="M81.58,62.59a5.66,5.66,0,0,0,.16.78l.52,1.93.65-1.11a2.81,2.81,0,0,0,.32-.65l1.1-.29c-.25.39-.25.39-.44.7l-.62,1L84.62,66a4.59,4.59,0,0,0,.72.54l-1,.28a2.91,2.91,0,0,0-.57-.56l-.88-.76-.36.59.1.38a4.4,4.4,0,0,0,.24.74l-.83.22a6,6,0,0,0-.16-.77L81,63.57a5.62,5.62,0,0,0-.25-.76Z"/><path class="cls-5" d="M86.32,64.72a1.14,1.14,0,0,0,.39.6A1,1,0,0,0,88.16,65a.89.89,0,0,0,.09-.35l.75,0a1.64,1.64,0,0,1-1.3,1.41,1.86,1.86,0,0,1-1-3.57,1.54,1.54,0,0,1,1.71.54,2.5,2.5,0,0,1,.41.84l.06.16ZM88,63.66a1,1,0,0,0-.41-.49.87.87,0,0,0-.7-.06.91.91,0,0,0-.67,1Z"/><path class="cls-5" d="M90.24,60.69a6.49,6.49,0,0,0,.15.73l0,.18.25-.07a3.49,3.49,0,0,0,.58-.19l.19.69a3.26,3.26,0,0,0-.58.12l-.26.07L91.09,64c.08.29.21.37.49.29a.81.81,0,0,0,.39-.24l.27.59a1.89,1.89,0,0,1-.7.32c-.67.18-1,0-1.17-.6l-.53-2-.22.06a3,3,0,0,0-.51.18L88.93,62a2.74,2.74,0,0,0,.54-.11l.22-.06,0-.18a7,7,0,0,0-.23-.71Z"/><path class="cls-1" d="M99.84,36.79A13.32,13.32,0,0,0,79.76,54.2l-1.07,3.74,3.74-1.07A13.32,13.32,0,0,0,99.84,36.79Z"/><path class="cls-8" d="M99.84,36.79A13.32,13.32,0,0,0,79.76,54.2l-1.07,3.74,3.74-1.07A13.32,13.32,0,0,0,99.84,36.79Z"/><path class="cls-5" d="M82.38,47.21h-.6a3.35,3.35,0,0,0,0-.63V44.07a4.41,4.41,0,0,0,0-.57h1.69c.72,0,1.13.33,1.13.91a.83.83,0,0,1-.26.66.78.78,0,0,1-.37.2.86.86,0,0,1,.47.21.92.92,0,0,1,.29.71c0,.65-.43,1-1.21,1Zm1-2.19a.49.49,0,0,0,.56-.51.48.48,0,0,0-.12-.34A.66.66,0,0,0,83.4,44h-1v1Zm-1,1.66h1c.41,0,.65-.21.65-.58a.51.51,0,0,0-.15-.41.77.77,0,0,0-.51-.16h-1Z"/><path class="cls-5" d="M87.8,44.54a3.35,3.35,0,0,0,0,.6V46.6a3.83,3.83,0,0,0,0,.6h-.63V47c0-.07,0-.08,0-.2a1,1,0,0,1-1,.5,1,1,0,0,1-.56-.14.87.87,0,0,1-.38-.8V45.14a4.24,4.24,0,0,0,0-.6h.67a4.17,4.17,0,0,0,0,.6v1a.57.57,0,0,0,.21.53.58.58,0,0,0,.26.06c.34,0,.6-.23.81-.69v-.94a5,5,0,0,0,0-.6Z"/><path class="cls-5" d="M88.41,45.11c-.2-.46-.21-.47-.27-.58h.71a2.65,2.65,0,0,0,.18.54l.57,1.32.52-1.32a2.79,2.79,0,0,0,.18-.55H91l-.25.58L89.67,47.6a.82.82,0,0,1-.86.52,2.4,2.4,0,0,1-.49-.06l.11-.53a.78.78,0,0,0,.33.08.39.39,0,0,0,.36-.23l.16-.36Z"/><path class="cls-5" d="M97,40.35a1.45,1.45,0,0,0-1.55-1.17,1.92,1.92,0,0,0-1.81,1.2,5.07,5.07,0,0,0-.47,2,2.68,2.68,0,0,1,2.47-1.16,3,3,0,0,1,2.68,1.38,3.31,3.31,0,0,1,.42,1.73,3.11,3.11,0,0,1-3.35,3.12A3.64,3.64,0,0,1,93,46.74a5.06,5.06,0,0,1-1.34-3.87,6.29,6.29,0,0,1,.95-3.57,3.28,3.28,0,0,1,2.82-1.37,3.18,3.18,0,0,1,2.37.88A3.34,3.34,0,0,1,98.51,40Zm-3.6,4a2,2,0,0,0,3.53,1,2,2,0,0,0,.27-1.05,1.67,1.67,0,0,0-1.83-1.81A1.86,1.86,0,0,0,93.35,44.38Z"/><path class="cls-5" d="M82.38,47.21h-.6a3.35,3.35,0,0,0,0-.63V44.07a4.41,4.41,0,0,0,0-.57h1.69c.72,0,1.13.33,1.13.91a.83.83,0,0,1-.26.66.78.78,0,0,1-.37.2.86.86,0,0,1,.47.21.92.92,0,0,1,.29.71c0,.65-.43,1-1.21,1Zm1-2.19a.49.49,0,0,0,.56-.51.48.48,0,0,0-.12-.34A.66.66,0,0,0,83.4,44h-1v1Zm-1,1.66h1c.41,0,.65-.21.65-.58a.51.51,0,0,0-.15-.41.77.77,0,0,0-.51-.16h-1Z"/><path class="cls-5" d="M87.8,44.54a3.35,3.35,0,0,0,0,.6V46.6a3.83,3.83,0,0,0,0,.6h-.63V47c0-.07,0-.08,0-.2a1,1,0,0,1-1,.5,1,1,0,0,1-.56-.14.87.87,0,0,1-.38-.8V45.14a4.24,4.24,0,0,0,0-.6h.67a4.17,4.17,0,0,0,0,.6v1a.57.57,0,0,0,.21.53.58.58,0,0,0,.26.06c.34,0,.6-.23.81-.69v-.94a5,5,0,0,0,0-.6Z"/><path class="cls-5" d="M88.41,45.11c-.2-.46-.21-.47-.27-.58h.71a2.65,2.65,0,0,0,.18.54l.57,1.32.52-1.32a2.79,2.79,0,0,0,.18-.55H91l-.25.58L89.67,47.6a.82.82,0,0,1-.86.52,2.4,2.4,0,0,1-.49-.06l.11-.53a.78.78,0,0,0,.33.08.39.39,0,0,0,.36-.23l.16-.36Z"/><path class="cls-5" d="M97,40.35a1.45,1.45,0,0,0-1.55-1.17,1.92,1.92,0,0,0-1.81,1.2,5.07,5.07,0,0,0-.47,2,2.68,2.68,0,0,1,2.47-1.16,3,3,0,0,1,2.68,1.38,3.31,3.31,0,0,1,.42,1.73,3.11,3.11,0,0,1-3.35,3.12A3.64,3.64,0,0,1,93,46.74a5.06,5.06,0,0,1-1.34-3.87,6.29,6.29,0,0,1,.95-3.57,3.28,3.28,0,0,1,2.82-1.37,3.18,3.18,0,0,1,2.37.88A3.34,3.34,0,0,1,98.51,40Zm-3.6,4a2,2,0,0,0,3.53,1,2,2,0,0,0,.27-1.05,1.67,1.67,0,0,0-1.83-1.81A1.86,1.86,0,0,0,93.35,44.38Z"/><path class="cls-5" d="M83.18,52.69a3.87,3.87,0,0,0,0,.6h-.7a3.91,3.91,0,0,0,0-.6V50.15h-.63a4.6,4.6,0,0,0-.64,0v-.62a4.64,4.64,0,0,0,.63,0h1.84a4.89,4.89,0,0,0,.68,0v.62a4.88,4.88,0,0,0-.68,0h-.58Z"/><path class="cls-5" d="M85.49,49.59v.59H84.8v-.59Zm0,1a4.23,4.23,0,0,0,0,.61v1.45a4.73,4.73,0,0,0,0,.61H84.8a4.19,4.19,0,0,0,0-.6V51.23a3.83,3.83,0,0,0,0-.6Z"/><path class="cls-5" d="M87.92,51.52a.84.84,0,0,0-.14-.28A.58.58,0,0,0,87.3,51c-.46,0-.74.36-.74.94s.29.94.76.94a.62.62,0,0,0,.54-.26.65.65,0,0,0,.09-.23l.58.12a1.28,1.28,0,0,1-.2.4,1.21,1.21,0,0,1-1,.47A1.3,1.3,0,0,1,86,52a1.51,1.51,0,0,1,.4-1.08,1.28,1.28,0,0,1,.94-.35,1.2,1.2,0,0,1,1,.5,1.54,1.54,0,0,1,.16.34Z"/><path class="cls-5" d="M89.65,49.59a4.32,4.32,0,0,0,0,.61v1.53l.7-.69a2.17,2.17,0,0,0,.37-.41h.87l-.47.43-.66.63.79,1.07a3.52,3.52,0,0,0,.42.54H90.8a2.24,2.24,0,0,0-.31-.53L90,52l-.38.36v.3a3.38,3.38,0,0,0,0,.6H89a4.51,4.51,0,0,0,0-.6V50.2a4.23,4.23,0,0,0,0-.61Z"/><path class="cls-5" d="M92.5,52.11a.86.86,0,0,0,.17.52.78.78,0,0,0,1.14,0,.67.67,0,0,0,.14-.24l.55.18a1.25,1.25,0,0,1-1.24.79,1.43,1.43,0,0,1,0-2.84,1.18,1.18,0,0,1,1.16.74,1.92,1.92,0,0,1,.14.71s0,0,0,.13Zm1.42-.46a.73.73,0,0,0-.21-.45.67.67,0,0,0-.5-.19.7.7,0,0,0-.7.63Z"/><path class="cls-5" d="M96,49.91a5.17,5.17,0,0,0,0,.57v.14h.2a2.65,2.65,0,0,0,.47,0v.55a2.65,2.65,0,0,0-.46,0h-.21v1.44c0,.23.08.31.31.31a.62.62,0,0,0,.34-.1l.08.49a1.46,1.46,0,0,1-.58.1c-.54,0-.75-.19-.75-.68V51.12h-.18a2.43,2.43,0,0,0-.41,0v-.55a2.12,2.12,0,0,0,.42,0h.17v-.14a5.36,5.36,0,0,0,0-.57Z"/><path class="cls-5" d="M97.53,52.46c.08.32.25.44.61.44s.56-.13.56-.35a.28.28,0,0,0-.12-.23c-.09-.06-.12-.07-.49-.15a2.83,2.83,0,0,1-.67-.2.67.67,0,0,1-.41-.62.69.69,0,0,1,.14-.43,1.12,1.12,0,0,1,.93-.36,1.27,1.27,0,0,1,.88.27.91.91,0,0,1,.25.46l-.61.08c-.05-.26-.21-.37-.51-.37s-.48.13-.48.33a.25.25,0,0,0,.14.22,2,2,0,0,0,.47.14A2,2,0,0,1,99,52a.66.66,0,0,1,.27.58.75.75,0,0,1-.23.53,1.37,1.37,0,0,1-1,.3,1.23,1.23,0,0,1-1-.41,1.05,1.05,0,0,1-.18-.42Z"/><path class="cls-5" d="M83.18,52.69a3.87,3.87,0,0,0,0,.6h-.7a3.91,3.91,0,0,0,0-.6V50.15h-.63a4.6,4.6,0,0,0-.64,0v-.62a4.64,4.64,0,0,0,.63,0h1.84a4.89,4.89,0,0,0,.68,0v.62a4.88,4.88,0,0,0-.68,0h-.58Z"/><path class="cls-5" d="M85.49,49.59v.59H84.8v-.59Zm0,1a4.23,4.23,0,0,0,0,.61v1.45a4.73,4.73,0,0,0,0,.61H84.8a4.19,4.19,0,0,0,0-.6V51.23a3.83,3.83,0,0,0,0-.6Z"/><path class="cls-5" d="M87.92,51.52a.84.84,0,0,0-.14-.28A.58.58,0,0,0,87.3,51c-.46,0-.74.36-.74.94s.29.94.76.94a.62.62,0,0,0,.54-.26.65.65,0,0,0,.09-.23l.58.12a1.28,1.28,0,0,1-.2.4,1.21,1.21,0,0,1-1,.47A1.3,1.3,0,0,1,86,52a1.51,1.51,0,0,1,.4-1.08,1.28,1.28,0,0,1,.94-.35,1.2,1.2,0,0,1,1,.5,1.54,1.54,0,0,1,.16.34Z"/><path class="cls-5" d="M89.65,49.59a4.32,4.32,0,0,0,0,.61v1.53l.7-.69a2.17,2.17,0,0,0,.37-.41h.87l-.47.43-.66.63.79,1.07a3.52,3.52,0,0,0,.42.54H90.8a2.24,2.24,0,0,0-.31-.53L90,52l-.38.36v.3a3.38,3.38,0,0,0,0,.6H89a4.51,4.51,0,0,0,0-.6V50.2a4.23,4.23,0,0,0,0-.61Z"/><path class="cls-5" d="M92.5,52.11a.86.86,0,0,0,.17.52.78.78,0,0,0,1.14,0,.67.67,0,0,0,.14-.24l.55.18a1.25,1.25,0,0,1-1.24.79,1.43,1.43,0,0,1,0-2.84,1.18,1.18,0,0,1,1.16.74,1.92,1.92,0,0,1,.14.71s0,0,0,.13Zm1.42-.46a.73.73,0,0,0-.21-.45.67.67,0,0,0-.5-.19.7.7,0,0,0-.7.63Z"/><path class="cls-5" d="M96,49.91a5.17,5.17,0,0,0,0,.57v.14h.2a2.65,2.65,0,0,0,.47,0v.55a2.65,2.65,0,0,0-.46,0h-.21v1.44c0,.23.08.31.31.31a.62.62,0,0,0,.34-.1l.08.49a1.46,1.46,0,0,1-.58.1c-.54,0-.75-.19-.75-.68V51.12h-.18a2.43,2.43,0,0,0-.41,0v-.55a2.12,2.12,0,0,0,.42,0h.17v-.14a5.36,5.36,0,0,0,0-.57Z"/><path class="cls-5" d="M97.53,52.46c.08.32.25.44.61.44s.56-.13.56-.35a.28.28,0,0,0-.12-.23c-.09-.06-.12-.07-.49-.15a2.83,2.83,0,0,1-.67-.2.67.67,0,0,1-.41-.62.69.69,0,0,1,.14-.43,1.12,1.12,0,0,1,.93-.36,1.27,1.27,0,0,1,.88.27.91.91,0,0,1,.25.46l-.61.08c-.05-.26-.21-.37-.51-.37s-.48.13-.48.33a.25.25,0,0,0,.14.22,2,2,0,0,0,.47.14A2,2,0,0,1,99,52a.66.66,0,0,1,.27.58.75.75,0,0,1-.23.53,1.37,1.37,0,0,1-1,.3,1.23,1.23,0,0,1-1-.41,1.05,1.05,0,0,1-.18-.42Z"/><polygon class="cls-5" points="65.26 97.62 60.98 97.62 60.98 93.34 57.56 93.34 57.56 97.62 53.28 97.62 53.28 101.04 57.56 101.04 57.56 105.33 60.98 105.33 60.98 101.04 65.26 101.04 65.26 97.62"/></g></g></svg>