<?xml version="1.0" encoding="utf-8"?>
<!-- Generator: Adobe Illustrator 21.1.0, SVG Export Plug-In . SVG Version: 6.00 Build 0)  -->
<svg version="1.1" id="レイヤー_1" xmlns="http://www.w3.org/2000/svg" xmlns:xlink="http://www.w3.org/1999/xlink" x="0px"
	 y="0px" viewBox="0 0 408.7 152.5" style="enable-background:new 0 0 408.7 152.5;" xml:space="preserve">
<style type="text/css">
	.st0{enable-background:new    ;}
	.st1{fill:#FFFFFF;}
	.st2{fill:none;stroke:#FFFFFF;stroke-miterlimit:10;}
</style>
<g id="app_x5F_tutorial">
</g>
<g class="st0">
	<path class="st1" d="M50.8,70c0.1-0.8,0.2-1.4,0.2-2.3V56.5c0-0.9,0-1.5-0.2-2.4c0.8,0,1.3,0.1,2.3,0.1h4.3c3.2,0,5,1.6,5,4.5
		c0,3.1-1.9,4.8-5.1,4.8h-4.6v4.1c0,1,0,1.6,0.2,2.4H50.8z M57.2,62.1c2.2,0,3.5-1.2,3.5-3.3c0-2.1-1.2-3.2-3.5-3.2h-4.6v6.5H57.2z"
		/>
</g>
<circle class="st2" cx="54.6" cy="61.6" r="21.1"/>
<g class="st0">
	<path class="st1" d="M188.3,52.2c0.1-0.8,0.2-1.4,0.2-2.3V38.7c0-0.9,0-1.5-0.2-2.4c0.8,0,1.3,0.1,2.3,0.1h4.3c3.2,0,5,1.6,5,4.5
		c0,3.1-1.9,4.8-5.1,4.8h-4.6v4.1c0,1,0,1.6,0.2,2.4H188.3z M194.7,44.3c2.2,0,3.5-1.2,3.5-3.3c0-2.1-1.2-3.2-3.5-3.2h-4.6v6.5
		H194.7z"/>
</g>
<circle class="st2" cx="192.1" cy="43.7" r="21.1"/>
<g class="st0">
	<path class="st1" d="M326.6,30.1c0.1-0.8,0.2-1.4,0.2-2.3V16.5c0-0.9,0-1.5-0.2-2.4c0.8,0,1.3,0.1,2.3,0.1h4.3c3.2,0,5,1.6,5,4.5
		c0,3.1-1.9,4.8-5.1,4.8h-4.6v4.1c0,1,0,1.6,0.2,2.4H326.6z M333,22.2c2.2,0,3.5-1.2,3.5-3.3c0-2.1-1.2-3.2-3.5-3.2h-4.6v6.5H333z"
		/>
</g>
<circle class="st2" cx="330.4" cy="21.6" r="21.1"/>
<g>
	<line class="st2" x1="11.9" y1="106.3" x2="97.3" y2="106.3"/>
</g>
<line class="st2" x1="149.7" y1="88.7" x2="235" y2="88.7"/>
<line class="st2" x1="149.7" y1="106.3" x2="235" y2="106.3"/>
<line class="st2" x1="287.9" y1="71" x2="373.3" y2="71"/>
<line class="st2" x1="287.9" y1="88.7" x2="373.3" y2="88.7"/>
<line class="st2" x1="287.9" y1="106.3" x2="373.3" y2="106.3"/>
<g>
	<line class="st2" x1="0" y1="137.6" x2="406.4" y2="137.6"/>
	<polyline class="st2" points="393.5,123 408,137.6 393.5,152.1 	"/>
</g>
<g id="イラスト">
</g>
</svg>
