<?xml version="1.0" encoding="utf-8"?>
<!-- Generator: Adobe Illustrator 21.1.0, SVG Export Plug-In . SVG Version: 6.00 Build 0)  -->
<svg version="1.1" id="レイヤー_1" xmlns="http://www.w3.org/2000/svg" xmlns:xlink="http://www.w3.org/1999/xlink" x="0px"
	 y="0px" viewBox="0 0 407.7 123.4" style="enable-background:new 0 0 407.7 123.4;" xml:space="preserve">
<style type="text/css">
	.st0{enable-background:new    ;}
	.st1{fill:#FFFFFF;}
	.st2{fill:none;stroke:#FFFFFF;stroke-miterlimit:10;}
</style>
<g id="app_x5F_tutorial">
</g>
<g class="st0">
	<path class="st1" d="M327.7,46.4c1.3,0.2,2.3,0.3,4.2,0.3h3.2c1.7,0,2.5,0,4.2-0.3c-0.3,3.1-0.5,5.6-0.5,8.4v24.5
		c0,2.4,0.1,3.8,0.4,5.7h-4.8c0.3-1.8,0.4-3.4,0.4-5.7V50.1h-2.7c-1.6,0-2.9,0.1-4.4,0.3V46.4z"/>
</g>
<g class="st0">
	<path class="st1" d="M350.3,85c0.2-1.3,0.3-2.3,0.3-4v-19c0-1.4-0.1-2.5-0.3-4c1.3,0.1,2.3,0.1,3.9,0.1h7.2c5.4,0,8.5,2.8,8.5,7.7
		c0,5.2-3.2,8.2-8.7,8.2h-7.9v7c0,1.7,0.1,2.8,0.3,4H350.3z M361.3,71.6c3.7,0,5.9-2,5.9-5.6c0-3.5-2.1-5.4-5.9-5.4h-7.9v11H361.3z"
		/>
</g>
<g>
	<path class="st1" d="M346,1.5c33.2,0,60.2,27,60.2,60.2s-27,60.2-60.2,60.2s-60.2-27-60.2-60.2S312.8,1.5,346,1.5 M346,0.5
		c-33.8,0-61.2,27.4-61.2,61.2s27.4,61.2,61.2,61.2s61.2-27.4,61.2-61.2S379.8,0.5,346,0.5L346,0.5z"/>
</g>
<g class="st0">
	<path class="st1" d="M19.1,81.4c0.2-1.3,0.2-2.4,0.2-4.1v-3.5h-4.3c-1.3,0-2,0.1-3,0.3v-2.7c1,0.2,1.7,0.3,3,0.3h4.3v-1.7l-1.1-2.1
		h-3.1c-1.3,0-2,0.1-3,0.3v-2.7c1,0.2,1.7,0.3,3,0.3h2L12.6,57c-0.8-1.6-1.3-2.5-1.7-3.2H14c0.2,0.8,0.5,1.5,1.4,3.3l5.1,10.2
		l5-10.2c0.8-1.7,1.2-2.5,1.4-3.3H30c-0.4,0.6-1,1.7-1.8,3.2l-4.5,8.6h2c1.3,0,2.1-0.1,3-0.3V68c-1-0.2-1.8-0.3-3-0.3h-3.1l-1.2,2.2
		v1.7h4.3c1.3,0,2-0.1,3-0.3v2.7c-1-0.2-1.8-0.3-3-0.3h-4.3v3.5c0,1.8,0.1,2.8,0.2,4.1H19.1z"/>
</g>
<g class="st0">
	<path class="st1" d="M37.6,58.9c-0.1,0.9-0.1,0.9-0.3,2.3c1.9-2.3,4.3-3.5,7.1-3.5c3,0,5.5,1.2,7.3,3.4c1.8,2.2,2.7,5.2,2.7,8.9
		c0,8.2-4.3,13.4-11,13.4c-3.2,0-5.8-1.2-7.7-3.4c-1-1.3-1.6-2.3-2.6-4.8l3.3-1.2c0.4,1.4,0.7,2.1,1.3,2.9c1.4,1.9,3.4,3,5.8,3
		c4.5,0,7.6-3.9,7.6-9.7c0-5.6-2.8-9.2-7.1-9.2c-2.1,0-3.9,0.7-5.3,2.1c-1,1-1.4,1.7-1.9,3l-3-0.4c0.3-2,0.4-3,0.6-5.2l0.9-11.5
		c0.1-1.5,0.1-2.1,0.1-3c0-0.7,0-0.9-0.1-2.2c1.3,0.2,1.9,0.3,4.3,0.3H48c2.2,0,3.1-0.1,4.7-0.4V48c-1.5-0.3-2.8-0.4-4.7-0.4h-9.5
		L37.6,58.9z"/>
	<path class="st1" d="M63,79.8c-1.1-1.4-1.9-2.9-2.4-4.7c-1-3.5-1.5-7.6-1.5-11.7c0-5.4,0.9-10.9,2.4-13.8c1.9-4.1,5.1-6.2,9.1-6.2
		c3,0,5.6,1.2,7.4,3.6c1.1,1.4,1.9,3,2.4,4.7c1,3.5,1.5,7.6,1.5,11.8c0,6.1-1.1,11.6-2.8,14.7c-2,3.5-4.9,5.3-8.6,5.3
		C67.4,83.5,64.9,82.2,63,79.8z M65.3,49.5c-0.9,1.2-1.5,2.4-1.8,3.7c-0.9,3.1-1.3,6.5-1.3,10.2c0,4.7,0.8,9.7,1.9,12.1
		c1.4,2.9,3.5,4.4,6.3,4.4c2,0,3.8-0.8,5-2.4c0.9-1.2,1.5-2.5,1.9-4c0.9-3.1,1.3-6.5,1.3-10.2c0-4.4-0.8-9.4-1.8-11.8
		c-1.3-3-3.5-4.6-6.4-4.6C68.3,46.9,66.6,47.8,65.3,49.5z"/>
	<path class="st1" d="M89.6,79.8c-1.1-1.4-1.9-2.9-2.4-4.7c-1-3.5-1.5-7.6-1.5-11.7c0-5.4,0.9-10.9,2.4-13.8
		c1.9-4.1,5.1-6.2,9.1-6.2c3,0,5.6,1.2,7.4,3.6c1.1,1.4,1.9,3,2.4,4.7c1,3.5,1.5,7.6,1.5,11.8c0,6.1-1.1,11.6-2.8,14.7
		c-2,3.5-4.9,5.3-8.6,5.3C94,83.5,91.5,82.2,89.6,79.8z M92,49.5c-0.9,1.2-1.5,2.4-1.8,3.7c-0.9,3.1-1.3,6.5-1.3,10.2
		c0,4.7,0.8,9.7,1.9,12.1c1.4,2.9,3.5,4.4,6.3,4.4c2,0,3.8-0.8,5-2.4c0.9-1.2,1.5-2.5,1.9-4c0.9-3.1,1.3-6.5,1.3-10.2
		c0-4.4-0.8-9.4-1.8-11.8c-1.3-3-3.5-4.6-6.4-4.6C94.9,46.9,93.3,47.8,92,49.5z"/>
</g>
<g>
	<path class="st1" d="M61.6,1.6c33.1,0,60.1,27,60.1,60.1s-27,60.1-60.1,60.1S1.5,94.8,1.5,61.7S28.5,1.6,61.6,1.6 M61.6,0.6
		C27.9,0.6,0.5,28,0.5,61.7s27.4,61.1,61.1,61.1s61.1-27.4,61.1-61.1S95.3,0.6,61.6,0.6L61.6,0.6z"/>
</g>
<g>
	<line class="st2" x1="163.3" y1="61.6" x2="244.3" y2="61.6"/>
	<polyline class="st2" points="226.6,43.9 244.3,61.6 226.6,79.4 	"/>
	<polyline class="st2" points="181.1,79.4 163.3,61.6 181.1,43.9 	"/>
</g>
<g id="イラスト">
</g>
</svg>
