<?xml version="1.0" encoding="utf-8"?>
<!-- Generator: Adobe Illustrator 21.1.0, SVG Export Plug-In . SVG Version: 6.00 Build 0)  -->
<svg version="1.1" id="レイヤー_1" xmlns="http://www.w3.org/2000/svg" xmlns:xlink="http://www.w3.org/1999/xlink" x="0px"
	 y="0px" viewBox="0 0 409 188.7" style="enable-background:new 0 0 409 188.7;" xml:space="preserve">
<style type="text/css">
	.st0{fill:none;stroke:#FFFFFF;stroke-miterlimit:10;}
	.st1{fill:none;stroke:#FFFFFF;stroke-width:1.132;stroke-miterlimit:10;}
</style>
<g id="app_x5F_tutorial">
</g>
<g id="app_x5F_tutorialNEW">
	<g>
		<g>
			<line class="st0" x1="168.5" y1="87.5" x2="224.9" y2="87.5"/>
			<polyline class="st0" points="210.1,70.9 226.7,87.5 210.1,104.2 			"/>
		</g>
		<g>
			<circle class="st0" cx="390.9" cy="170.6" r="17.6"/>
			<polyline class="st0" points="380.8,172.1 386.9,176.6 401.1,163.6 			"/>
		</g>
		<path class="st0" d="M367,177.9h-62.2c-6.6,0-12-5.4-12-12V12.5c0-6.6,5.4-12,12-12h77.4c6.6,0,12,5.4,12,12V147"/>
		<path class="st0" d="M388.3,155.8"/>
		<polyline class="st0" points="370.7,155.8 298.6,155.8 298.6,19.7 388.3,19.7 388.3,147.1 		"/>
		<circle class="st1" cx="343.4" cy="167.2" r="7.2"/>
		<line class="st0" x1="350.1" y1="10.1" x2="336.8" y2="10.1"/>
		<line class="st0" x1="313.9" y1="42.6" x2="320.3" y2="42.6"/>
		<line class="st0" x1="313.9" y1="60.4" x2="320.3" y2="60.4"/>
		<line class="st0" x1="313.9" y1="78.3" x2="320.3" y2="78.3"/>
		<line class="st0" x1="313.9" y1="96.1" x2="320.3" y2="96.1"/>
		<line class="st0" x1="313.9" y1="131.7" x2="320.3" y2="131.7"/>
		<line class="st0" x1="330.5" y1="42.6" x2="373.7" y2="42.6"/>
		<line class="st0" x1="330.5" y1="60.4" x2="373.7" y2="60.4"/>
		<line class="st0" x1="330.5" y1="78.3" x2="373.7" y2="78.3"/>
		<line class="st0" x1="330.5" y1="96.1" x2="373.7" y2="96.1"/>
		<line class="st0" x1="330.5" y1="131.7" x2="373.7" y2="131.7"/>
		<line class="st0" x1="313.9" y1="113.9" x2="320.3" y2="113.9"/>
		<line class="st0" x1="330.5" y1="113.9" x2="373.7" y2="113.9"/>
		<path class="st0" d="M89.9,177.9H12.5c-6.6,0-12-5.4-12-12V12.5c0-6.6,5.4-12,12-12h77.4c6.6,0,12,5.4,12,12v153.4
			C102,172.5,96.6,177.9,89.9,177.9z"/>
		<rect x="6.4" y="19.7" class="st0" width="89.6" height="136.1"/>
		<circle class="st1" cx="51.2" cy="167.2" r="7.2"/>
		<line class="st0" x1="57.9" y1="10.1" x2="44.6" y2="10.1"/>
		<line class="st0" x1="21.7" y1="42.6" x2="28.1" y2="42.6"/>
		<line class="st0" x1="21.7" y1="60.4" x2="28.1" y2="60.4"/>
		<line class="st0" x1="21.7" y1="78.3" x2="28.1" y2="78.3"/>
		<line class="st0" x1="21.7" y1="96.1" x2="28.1" y2="96.1"/>
		<line class="st0" x1="21.7" y1="113.9" x2="28.1" y2="113.9"/>
		<line class="st0" x1="21.7" y1="131.7" x2="28.1" y2="131.7"/>
	</g>
</g>
<g id="イラスト">
</g>
</svg>
